<svg xmlns="http://www.w3.org/2000/svg" width="100" height="100" fill="none"><g clip-path="url(#a)"><mask id="b" width="71" height="78" x="19" y="13" fill="#000" maskUnits="userSpaceOnUse"><path fill="#fff" d="M19 13h71v78H19z"/><path d="M32.214 89.6c-4.467 0-7.634-1.267-9.5-3.8-1.8-2.6-2.7-6.5-2.7-11.7 0-3.333.533-8.333 1.6-15 1.133-6.733 2.7-15.633 4.7-26.7l-5.3-10.7c3.133-2 6.466-3.7 10-5.1 3.533-1.467 7.066-2.2 10.6-2.2 3.133 0 5.2.933 6.2 2.8 1 1.867 1.5 4.067 1.5 6.6 0 1.133-.234 3-.7 5.6-.4 2.533-.934 5.467-1.6 8.8-.6 3.333-1.234 6.733-1.9 10.2l4.7-3.9c4-3.333 7.433-6.767 10.3-10.3 2.866-3.533 4.3-7.033 4.3-10.5 0-1.733-.267-3.3-.8-4.7 4.933-3 9.6-4.5 14-4.5 3.533 0 6.033.933 7.5 2.8 1.533 1.8 2.3 4.2 2.3 7.2 0 3.267-1.534 6.833-4.6 10.7-3 3.867-8.1 7.867-15.3 12 1.133 3.6 2.4 7.3 3.8 11.1 1.466 3.733 3.066 7.3 4.8 10.7 1.733 3.4 3.566 6.433 5.5 9.1 1.933 2.6 3.933 4.567 6 5.9-.934 1-2.267 1.933-4 2.8a27.788 27.788 0 0 1-5.3 1.9c-1.8.533-3.467.8-5 .8-2.867 0-5.4-.467-7.6-1.4-2.2-.933-4.167-2.567-5.9-4.9-1.667-2.4-3.267-5.767-4.8-10.1l-5.8-16.3-6.2 3.3c-.4 2.333-.734 4.433-1 6.3-.267 1.8-.4 3.2-.4 4.2 0 3.4.233 6.267.7 8.6.533 2.333 1.3 4.3 2.3 5.9-4 3-8.134 4.5-12.4 4.5Z"/></mask><path fill="#264DB1" d="M32.214 89.6c-4.467 0-7.634-1.267-9.5-3.8-1.8-2.6-2.7-6.5-2.7-11.7 0-3.333.533-8.333 1.6-15 1.133-6.733 2.7-15.633 4.7-26.7l-5.3-10.7c3.133-2 6.466-3.7 10-5.1 3.533-1.467 7.066-2.2 10.6-2.2 3.133 0 5.2.933 6.2 2.8 1 1.867 1.5 4.067 1.5 6.6 0 1.133-.234 3-.7 5.6-.4 2.533-.934 5.467-1.6 8.8-.6 3.333-1.234 6.733-1.9 10.2l4.7-3.9c4-3.333 7.433-6.767 10.3-10.3 2.866-3.533 4.3-7.033 4.3-10.5 0-1.733-.267-3.3-.8-4.7 4.933-3 9.6-4.5 14-4.5 3.533 0 6.033.933 7.5 2.8 1.533 1.8 2.3 4.2 2.3 7.2 0 3.267-1.534 6.833-4.6 10.7-3 3.867-8.1 7.867-15.3 12 1.133 3.6 2.4 7.3 3.8 11.1 1.466 3.733 3.066 7.3 4.8 10.7 1.733 3.4 3.566 6.433 5.5 9.1 1.933 2.6 3.933 4.567 6 5.9-.934 1-2.267 1.933-4 2.8a27.788 27.788 0 0 1-5.3 1.9c-1.8.533-3.467.8-5 .8-2.867 0-5.4-.467-7.6-1.4-2.2-.933-4.167-2.567-5.9-4.9-1.667-2.4-3.267-5.767-4.8-10.1l-5.8-16.3-6.2 3.3c-.4 2.333-.734 4.433-1 6.3-.267 1.8-.4 3.2-.4 4.2 0 3.4.233 6.267.7 8.6.533 2.333 1.3 4.3 2.3 5.9-4 3-8.134 4.5-12.4 4.5Z"/><path fill="#264DB1" d="m22.714 85.8-.822.57.008.011.009.012.805-.593Zm-1.1-26.7-.986-.166-.002.008.988.158Zm4.7-26.7.984.178.059-.326-.147-.296-.896.444Zm-5.3-10.7-.538-.843-.757.483.399.804.896-.444Zm10-5.1.368.93.008-.003.007-.003-.383-.924Zm16.8.6.881-.472-.881.472Zm.8 12.2-.985-.177-.002.01-.001.011.988.156Zm-1.6 8.8-.98-.196-.003.01-.002.009.985.177Zm-1.9 10.2-.982-.189-.527 2.74 2.147-1.781-.638-.77Zm4.7-3.9.638.77.002-.002-.64-.768Zm10.3-10.3.776.63-.776-.63Zm3.5-15.2-.52-.854-.711.432.296.778.935-.356Zm21.5-1.7-.787.618.013.015.012.015.762-.648Zm-2.3 17.9-.784-.621-.006.008.79.613Zm-15.3 12-.498-.867-.698.4.242.767.954-.3Zm3.8 11.1-.939.346.004.01.004.01.93-.366Zm4.8 10.7.89-.454-.89.454Zm5.5 9.1-.81.587.007.01.803-.597Zm6 5.9.73.682.817-.874-1.005-.648-.542.84Zm-4 2.8.432.901.008-.003.007-.004-.447-.894Zm-5.3 1.9-.243-.97-.02.005-.021.006.284.959Zm-12.6-.6-.39.92.39-.92Zm-5.9-4.9-.822.57.01.014.009.012.803-.596Zm-4.8-10.1.942-.334v-.001l-.942.335Zm-5.8-16.3.942-.335-.389-1.092-1.023.544.47.883Zm-6.2 3.3-.47-.883-.433.23-.083.484.986.169Zm-1 6.3.989.146v-.005l-.99-.141Zm.3 12.8-.98.196.002.013.003.014.975-.223Zm2.3 5.9.6.8.735-.551-.487-.779-.848.53Zm-12.4 3.5c-4.29 0-7.088-1.212-8.695-3.393l-1.61 1.186c2.125 2.885 5.662 4.207 10.305 4.207v-2Zm-8.678-3.37c-1.631-2.355-2.522-6.014-2.522-11.13h-2c0 5.285.909 9.425 2.878 12.27l1.644-1.14ZM21.014 74.1c0-3.25.522-8.186 1.587-14.842l-1.975-.316c-1.068 6.677-1.612 11.742-1.612 15.158h2ZM22.6 59.266c1.132-6.728 2.698-15.623 4.698-26.688l-1.968-.356c-2 11.069-3.568 19.973-4.702 26.712l1.972.332Zm4.61-27.31-5.3-10.7-1.792.888 5.3 10.7 1.792-.888Zm-5.658-9.413a57.781 57.781 0 0 1 9.83-5.013l-.737-1.86a59.777 59.777 0 0 0-10.17 5.187l1.077 1.686Zm9.845-5.02c3.422-1.42 6.825-2.123 10.217-2.123v-2c-3.676 0-7.339.764-10.984 2.276l.767 1.848ZM41.614 15.4c2.96 0 4.569.873 5.318 2.272l1.763-.944c-1.25-2.334-3.775-3.328-7.081-3.328v2Zm5.318 2.272c.908 1.696 1.382 3.727 1.382 6.128h2c0-2.666-.527-5.034-1.619-7.072l-1.763.944Zm1.382 6.128c0 1.036-.218 2.825-.685 5.423l1.969.354c.467-2.603.716-4.546.716-5.777h-2Zm-.688 5.444a221.499 221.499 0 0 1-1.593 8.76l1.961.392c.669-3.343 1.205-6.29 1.607-8.84l-1.975-.312Zm-1.596 8.779c-.6 3.33-1.232 6.725-1.898 10.188l1.964.378c.667-3.47 1.301-6.874 1.902-10.212l-1.968-.354Zm-.278 11.147 4.7-3.9-1.277-1.54-4.7 3.9 1.277 1.54Zm4.702-3.902C54.497 41.9 57.977 38.42 60.89 34.83l-1.553-1.26c-2.82 3.476-6.206 6.864-10.164 10.162l1.28 1.536ZM60.89 34.83c2.966-3.655 4.524-7.37 4.524-11.13h-2c0 3.174-1.31 6.459-4.077 9.87l1.553 1.26Zm4.524-11.13c0-1.836-.283-3.526-.866-5.056l-1.869.712c.484 1.27.735 2.713.735 4.344h2Zm-1.28-3.846c4.824-2.933 9.312-4.354 13.48-4.354v-2c-4.632 0-9.478 1.58-14.52 4.646l1.04 1.708Zm13.48-4.354c3.38 0 5.515.892 6.713 2.418l1.573-1.236c-1.735-2.208-4.6-3.182-8.286-3.182v2Zm6.738 2.448c1.342 1.575 2.062 3.724 2.062 6.552h2c0-3.172-.814-5.823-2.54-7.849l-1.522 1.297Zm2.062 6.552c0 2.951-1.389 6.303-4.384 10.079l1.567 1.242c3.139-3.957 4.817-7.739 4.817-11.321h-2Zm-4.39 10.087c-2.884 3.716-7.853 7.638-15.008 11.746l.995 1.734c7.246-4.16 12.476-8.237 15.593-12.254l-1.58-1.226ZM66.56 47.5a245.721 245.721 0 0 0 3.815 11.146l1.877-.692A243.747 243.747 0 0 1 68.468 46.9l-1.908.6Zm3.823 11.166a121.772 121.772 0 0 0 4.84 10.788l1.782-.908a119.755 119.755 0 0 1-4.76-10.612l-1.862.732Zm4.84 10.788c1.753 3.44 3.613 6.518 5.581 9.233l1.62-1.174c-1.9-2.619-3.706-5.606-5.42-8.967l-1.781.908Zm5.588 9.243c1.984 2.667 4.067 4.728 6.26 6.143l1.085-1.68c-1.94-1.252-3.857-3.124-5.74-5.657l-1.605 1.194Zm6.072 4.62c-.826.886-2.049 1.755-3.716 2.589l.894 1.788c1.799-.9 3.243-1.897 4.284-3.012l-1.462-1.364ZM83.18 85.9a26.786 26.786 0 0 1-5.11 1.83l.485 1.941a28.776 28.776 0 0 0 5.49-1.969l-.865-1.802ZM78.03 87.74c-1.728.512-3.298.759-4.716.759v2c1.648 0 3.411-.286 5.284-.841l-.568-1.918Zm-4.716.759c-2.759 0-5.155-.449-7.21-1.32l-.78 1.84c2.345.996 5.015 1.48 7.99 1.48v-2Zm-7.21-1.32c-2.004-.85-3.837-2.355-5.488-4.576l-1.605 1.192c1.816 2.446 3.916 4.208 6.312 5.225l.781-1.842Zm-5.469-4.55c-1.595-2.298-3.16-5.572-4.679-9.864l-1.885.668c1.548 4.375 3.183 7.834 4.921 10.336l1.643-1.14Zm-4.68-9.865-5.8-16.3-1.883.67 5.8 16.3 1.884-.67Zm-7.211-16.848-6.2 3.3.94 1.766 6.2-3.3-.94-1.766Zm-6.716 4.014c-.401 2.34-.736 4.45-1.004 6.328l1.98.282c.265-1.855.596-3.946.995-6.272l-1.97-.338Zm-1.003 6.323c-.27 1.816-.411 3.272-.411 4.346h2c0-.926.125-2.27.389-4.053l-1.978-.293Zm-.411 4.346c0 3.44.235 6.377.72 8.796l1.96-.392c-.45-2.248-.68-5.044-.68-8.404h-2Zm.725 8.823c.552 2.414 1.354 4.49 2.427 6.207l1.696-1.06c-.928-1.484-1.659-3.34-2.174-5.593l-1.95.446Zm2.675 4.877c-3.858 2.893-7.786 4.3-11.8 4.3v2c4.518 0 8.857-1.593 13-4.7l-1.2-1.6Z" mask="url(#b)"/></g><defs><clipPath id="a"><path fill="#fff" d="M0 0h100v100H0z"/></clipPath></defs></svg>