<svg width="200" height="150" viewBox="0 0 200 150" fill="none" xmlns="http://www.w3.org/2000/svg">
<rect width="200" height="150" fill="#264DB1"/>
<path d="M26.8503 83.656C26.1463 83.656 25.6663 83.4267 25.4103 82.968C25.1543 82.5093 25.0263 81.9013 25.0263 81.144C24.7596 81.2187 24.4769 81.2773 24.1783 81.32C23.8796 81.3733 23.5649 81.4 23.2343 81.4C22.3169 81.4 21.4903 81.2133 20.7543 80.84C20.0289 80.456 19.4529 79.8693 19.0263 79.08C18.5996 78.2907 18.3863 77.2933 18.3863 76.088C18.3863 75.5013 18.4876 74.8987 18.6903 74.28C18.8929 73.6613 19.1863 73.064 19.5703 72.488C19.9649 71.9013 20.4503 71.3787 21.0263 70.92C21.6129 70.4507 22.2903 70.0827 23.0583 69.816C23.8263 69.5387 24.6796 69.4 25.6183 69.4C26.1943 69.4 26.7116 69.48 27.1703 69.64C27.6396 69.8 28.0076 70.04 28.2743 70.36C28.5409 70.6693 28.6743 71.0587 28.6743 71.528C28.6743 71.9867 28.5676 72.3707 28.3543 72.68C28.1516 72.9893 27.8796 73.224 27.5383 73.384C27.2076 73.5333 26.8449 73.608 26.4503 73.608C25.9809 73.608 25.5223 73.4907 25.0743 73.256C24.6263 73.0213 24.2636 72.6747 23.9863 72.216C23.6129 72.3973 23.2609 72.7067 22.9303 73.144C22.6103 73.5707 22.3543 74.072 22.1623 74.648C21.9703 75.224 21.8743 75.8213 21.8743 76.44C21.8743 77.336 22.0556 77.9973 22.4183 78.424C22.7809 78.84 23.2076 79.048 23.6983 79.048C24.0396 79.048 24.3863 78.952 24.7383 78.76C25.1009 78.568 25.4263 78.2907 25.7143 77.928C25.5863 77.6507 25.4476 77.3733 25.2983 77.096C25.1596 76.808 25.0263 76.5253 24.8983 76.248C25.3569 75.9387 25.8529 75.672 26.3863 75.448C26.9303 75.224 27.4636 75.112 27.9863 75.112C28.4449 75.112 28.7489 75.2347 28.8983 75.48C29.0583 75.7253 29.1383 76.0347 29.1383 76.408C29.1383 76.6427 29.0903 76.9573 28.9943 77.352C28.9089 77.7467 28.8076 78.184 28.6903 78.664C28.5836 79.1333 28.4823 79.6187 28.3863 80.12C28.3009 80.6213 28.2583 81.096 28.2583 81.544C28.2583 81.8427 28.2956 82.12 28.3703 82.376C28.4449 82.632 28.5516 82.84 28.6903 83C28.3916 83.2133 28.0769 83.3733 27.7463 83.48C27.4263 83.5973 27.1276 83.656 26.8503 83.656ZM33.3411 70.36C32.8505 70.36 32.4451 70.2533 32.1251 70.04C31.8051 69.8267 31.6451 69.5387 31.6451 69.176C31.6451 68.824 31.7625 68.536 31.9971 68.312C32.2318 68.0773 32.5145 67.9013 32.8451 67.784C33.1865 67.6667 33.5065 67.608 33.8051 67.608C34.2958 67.608 34.7011 67.7147 35.0211 67.928C35.3411 68.1307 35.5011 68.4187 35.5011 68.792C35.5011 69.1013 35.3998 69.3787 35.1971 69.624C34.9945 69.8587 34.7278 70.04 34.3971 70.168C34.0771 70.296 33.7251 70.36 33.3411 70.36ZM32.3811 81.4C31.6985 81.4 31.2131 81.2293 30.9251 80.888C30.6371 80.5467 30.4931 80.056 30.4931 79.416C30.4931 79.1813 30.5251 78.856 30.5891 78.44C30.6531 78.0133 30.7385 77.544 30.8451 77.032C30.9518 76.5093 31.0638 75.9813 31.1811 75.448C31.2985 74.9147 31.4105 74.4133 31.5171 73.944L30.6211 72.6C31.1865 72.2587 31.7251 71.976 32.2371 71.752C32.7491 71.5173 33.2611 71.4 33.7731 71.4C34.2211 71.4 34.5305 71.496 34.7011 71.688C34.8825 71.88 34.9731 72.1787 34.9731 72.584C34.9731 72.744 34.9305 73.0053 34.8451 73.368C34.7705 73.7307 34.6745 74.1573 34.5571 74.648C34.4398 75.1387 34.3225 75.656 34.2051 76.2C34.0878 76.7333 33.9865 77.2613 33.9011 77.784C33.8265 78.296 33.7891 78.7547 33.7891 79.16C33.7891 79.48 33.8265 79.768 33.9011 80.024C33.9865 80.2693 34.1145 80.4667 34.2851 80.616C33.6878 81.1387 33.0531 81.4 32.3811 81.4ZM39.2883 81.4C38.6056 81.4 38.1203 81.1973 37.8323 80.792C37.5443 80.3867 37.4003 79.768 37.4003 78.936C37.4003 78.7013 37.4269 78.3707 37.4803 77.944C37.5336 77.5067 37.6029 77.0213 37.6883 76.488C37.7843 75.9547 37.8749 75.4267 37.9603 74.904C37.7363 74.9467 37.5176 74.9947 37.3043 75.048C37.1016 75.1013 36.9096 75.16 36.7283 75.224C36.6856 75.064 36.6536 74.904 36.6323 74.744C36.6216 74.584 36.6163 74.4667 36.6163 74.392C36.6163 73.8373 36.7763 73.4373 37.0963 73.192C37.4269 72.936 37.8216 72.808 38.2803 72.808C38.2803 72.5627 38.2483 72.2907 38.1843 71.992C38.1203 71.6933 38.0083 71.3627 37.8483 71C38.2963 70.6693 38.7443 70.392 39.1923 70.168C39.6403 69.944 40.1363 69.832 40.6803 69.832C41.1496 69.832 41.4749 69.9227 41.6563 70.104C41.8376 70.2747 41.9283 70.5627 41.9283 70.968C41.9283 71.1707 41.9069 71.4107 41.8643 71.688C41.8216 71.9653 41.7683 72.2693 41.7043 72.6C41.9389 72.568 42.1629 72.5307 42.3763 72.488C42.5896 72.4347 42.7976 72.3813 43.0003 72.328C43.0429 72.4453 43.0696 72.568 43.0803 72.696C43.1016 72.8133 43.1123 72.9307 43.1123 73.048C43.1123 73.4747 42.9789 73.848 42.7123 74.168C42.4563 74.4773 42.0563 74.632 41.5123 74.632H41.2723C41.1229 75.3147 40.9896 76.0133 40.8723 76.728C40.7549 77.4427 40.6963 78.1093 40.6963 78.728C40.6963 79.144 40.7336 79.5173 40.8083 79.848C40.8936 80.168 41.0216 80.424 41.1923 80.616C40.5949 81.1387 39.9603 81.4 39.2883 81.4ZM46.2576 81.4C45.5856 81.4 45.1056 81.2293 44.8176 80.888C44.5296 80.5467 44.3856 80.056 44.3856 79.416C44.3856 79.096 44.4123 78.68 44.4656 78.168C44.5296 77.656 44.6096 77.0907 44.7056 76.472C44.8016 75.8427 44.9083 75.2027 45.0256 74.552C45.143 73.8907 45.255 73.2613 45.3616 72.664C45.4683 72.056 45.5643 71.5173 45.6496 71.048L44.7536 69.768C45.319 69.4373 45.8576 69.16 46.3696 68.936C46.8816 68.712 47.3936 68.6 47.9056 68.6C48.3536 68.6 48.663 68.6907 48.8336 68.872C49.015 69.0427 49.1056 69.3307 49.1056 69.736C49.1056 70.1733 49.079 70.6267 49.0256 71.096C48.983 71.5547 48.9243 71.9973 48.8496 72.424C48.775 72.8507 48.7003 73.224 48.6256 73.544C48.5616 73.864 48.5083 74.0987 48.4656 74.248L48.6256 74.328C49.255 73.2507 49.943 72.4933 50.6896 72.056C51.4363 71.6187 52.199 71.4 52.9776 71.4C53.6283 71.4 54.1136 71.56 54.4336 71.88C54.7536 72.1893 54.9136 72.6747 54.9136 73.336C54.9136 73.912 54.8336 74.5253 54.6736 75.176C54.5243 75.816 54.3696 76.4773 54.2096 77.16C54.0496 77.832 53.9696 78.4987 53.9696 79.16C53.9696 79.8213 54.0816 80.3067 54.3056 80.616C53.7403 81.1387 53.1536 81.4 52.5456 81.4C51.8736 81.4 51.3936 81.2293 51.1056 80.888C50.8176 80.5467 50.6736 80.056 50.6736 79.416C50.6736 79.064 50.7216 78.6747 50.8176 78.248C50.9136 77.8107 51.0256 77.368 51.1536 76.92C51.2816 76.472 51.3936 76.0507 51.4896 75.656C51.5856 75.2613 51.6336 74.92 51.6336 74.632C51.6336 74.408 51.591 74.232 51.5056 74.104C51.431 73.976 51.2923 73.912 51.0896 73.912C50.8016 73.912 50.4656 74.04 50.0816 74.296C49.6976 74.552 49.319 74.9147 48.9456 75.384C48.583 75.8427 48.279 76.392 48.0336 77.032C47.799 77.672 47.6816 78.3813 47.6816 79.16C47.6816 79.8213 47.7936 80.3067 48.0176 80.616C47.4523 81.1387 46.8656 81.4 46.2576 81.4ZM59.2086 81.4C58.5473 81.4 58.03 81.2827 57.6566 81.048C57.294 80.824 57.038 80.52 56.8886 80.136C56.75 79.7413 56.6806 79.2987 56.6806 78.808C56.6806 78.2427 56.7393 77.6507 56.8566 77.032C56.974 76.4027 57.0913 75.7947 57.2086 75.208C57.326 74.6107 57.3846 74.088 57.3846 73.64C57.3846 72.9787 57.2726 72.4933 57.0486 72.184C57.486 71.9493 57.9393 71.7627 58.4086 71.624C58.8886 71.4747 59.2726 71.4 59.5606 71.4C59.998 71.4 60.3126 71.4907 60.5046 71.672C60.7073 71.8427 60.8086 72.1307 60.8086 72.536C60.8086 72.76 60.7766 73.0693 60.7126 73.464C60.6486 73.848 60.5686 74.2693 60.4726 74.728C60.3766 75.1867 60.2753 75.6507 60.1686 76.12C60.0726 76.5787 59.9926 76.9947 59.9286 77.368C59.8646 77.7413 59.8326 78.0347 59.8326 78.248C59.8326 78.6427 59.934 78.9413 60.1366 79.144C60.35 79.3467 60.606 79.448 60.9046 79.448C61.246 79.448 61.6033 79.32 61.9766 79.064C62.35 78.808 62.6593 78.4347 62.9046 77.944C62.9473 77.7093 63.0006 77.416 63.0646 77.064C63.1393 76.712 63.2193 76.3387 63.3046 75.944C63.4006 75.5387 63.486 75.1547 63.5606 74.792C63.646 74.4187 63.7206 74.104 63.7846 73.848L62.8246 72.568C63.2833 72.2373 63.774 71.96 64.2966 71.736C64.8193 71.512 65.3526 71.4 65.8966 71.4C66.3766 71.4 66.718 71.4907 66.9206 71.672C67.134 71.8427 67.2406 72.1307 67.2406 72.536C67.2406 72.76 67.198 73.0693 67.1126 73.464C67.038 73.8587 66.942 74.3013 66.8246 74.792C66.718 75.272 66.606 75.7733 66.4886 76.296C66.3713 76.8187 66.27 77.3307 66.1846 77.832C66.11 78.3227 66.0726 78.7653 66.0726 79.16C66.0726 79.48 66.11 79.768 66.1846 80.024C66.27 80.2693 66.398 80.4667 66.5686 80.616C65.9713 81.1387 65.3366 81.4 64.6646 81.4C63.982 81.4 63.5073 81.2453 63.2406 80.936C62.974 80.6267 62.8406 80.2587 62.8406 79.832L62.6806 79.752C62.3286 80.2747 61.838 80.68 61.2086 80.968C60.5793 81.256 59.9126 81.4 59.2086 81.4ZM72.5154 81.4C71.3207 81.4 70.4194 81.128 69.8114 80.584C69.214 80.0293 68.9154 79.1547 68.9154 77.96C68.9154 77.6187 68.9634 77.1013 69.0594 76.408C69.1554 75.7147 69.278 74.904 69.4274 73.976C69.5874 73.048 69.7634 72.072 69.9554 71.048L69.0594 69.768C69.614 69.4373 70.1314 69.16 70.6114 68.936C71.102 68.712 71.5927 68.6 72.0834 68.6C72.542 68.6 72.878 68.6907 73.0914 68.872C73.3047 69.0427 73.4114 69.3307 73.4114 69.736C73.4114 70.0133 73.3794 70.376 73.3154 70.824C73.2514 71.2613 73.1714 71.736 73.0754 72.248C72.99 72.76 72.894 73.2613 72.7874 73.752L72.9474 73.832C73.3314 73.0747 73.7954 72.504 74.3394 72.12C74.894 71.736 75.55 71.544 76.3074 71.544C76.8834 71.544 77.3687 71.7147 77.7634 72.056C78.158 72.3867 78.4567 72.8347 78.6594 73.4C78.862 73.9547 78.9634 74.568 78.9634 75.24C78.9634 76.2533 78.766 77.144 78.3714 77.912C77.9767 78.68 77.454 79.3253 76.8034 79.848C76.1634 80.36 75.4647 80.744 74.7074 81C73.9607 81.2667 73.23 81.4 72.5154 81.4ZM72.0834 79.544C72.7127 79.544 73.2727 79.432 73.7634 79.208C74.254 78.9733 74.67 78.664 75.0114 78.28C75.3634 77.896 75.63 77.4747 75.8114 77.016C75.9927 76.5467 76.0834 76.0773 76.0834 75.608C76.0834 75.32 76.03 75.0373 75.9234 74.76C75.8167 74.4827 75.662 74.2533 75.4594 74.072C75.2674 73.8907 75.0434 73.8 74.7874 73.8C74.3927 73.8 74.046 73.912 73.7474 74.136C73.4594 74.36 73.214 74.6587 73.0114 75.032C72.8194 75.3947 72.6594 75.8 72.5314 76.248C72.414 76.6853 72.318 77.1227 72.2434 77.56C72.1794 77.9867 72.1367 78.376 72.1154 78.728C72.094 79.08 72.0834 79.352 72.0834 79.544ZM88.1164 81.4C87.519 81.4 86.991 81.2453 86.5324 80.936C86.0844 80.6267 85.7377 80.1893 85.4924 79.624C85.247 79.0587 85.1244 78.3973 85.1244 77.64C85.1244 76.7547 85.279 75.9333 85.5884 75.176C85.9084 74.4187 86.3457 73.7573 86.9004 73.192C87.4657 72.6267 88.127 72.1893 88.8844 71.88C89.6417 71.56 90.463 71.4 91.3484 71.4C91.6044 71.4 91.823 71.4107 92.0044 71.432C92.1964 71.4427 92.399 71.4747 92.6124 71.528C92.6764 71.8267 92.7137 72.088 92.7244 72.312C92.9697 72.152 93.2417 72.0293 93.5404 71.944C93.839 71.848 94.1164 71.8 94.3724 71.8C95.151 71.8 95.5404 72.2213 95.5404 73.064C95.5404 73.3413 95.487 73.72 95.3804 74.2C95.2844 74.6693 95.167 75.192 95.0284 75.768C94.9004 76.3333 94.783 76.9147 94.6764 77.512C94.5804 78.0987 94.5324 78.648 94.5324 79.16C94.5324 79.8533 94.6977 80.3387 95.0284 80.616C94.431 81.1387 93.7964 81.4 93.1244 81.4C92.5057 81.4 92.047 81.208 91.7484 80.824C91.4604 80.44 91.3164 79.8427 91.3164 79.032L91.1564 78.952C90.8684 79.72 90.4524 80.3227 89.9084 80.76C89.375 81.1867 88.7777 81.4 88.1164 81.4ZM89.3804 78.488C89.7964 78.488 90.2017 78.3387 90.5964 78.04C90.991 77.7413 91.3217 77.3307 91.5884 76.808C91.631 76.392 91.6737 76.0027 91.7164 75.64C91.7697 75.2667 91.8337 74.872 91.9084 74.456C91.9937 74.04 92.095 73.5493 92.2124 72.984C91.6684 72.984 91.151 73.0907 90.6604 73.304C90.1804 73.5067 89.7484 73.7893 89.3644 74.152C88.9804 74.5147 88.6764 74.9307 88.4524 75.4C88.239 75.8587 88.1324 76.344 88.1324 76.856C88.1324 77.3787 88.239 77.784 88.4524 78.072C88.6764 78.3493 88.9857 78.488 89.3804 78.488ZM101.514 81.4C100.586 81.4 99.7803 81.224 99.0976 80.872C98.4256 80.5093 97.903 80.0133 97.5296 79.384C97.167 78.7547 96.9856 78.024 96.9856 77.192C96.9856 76.328 97.1403 75.544 97.4496 74.84C97.759 74.1253 98.1963 73.512 98.7616 73C99.327 72.488 99.983 72.0933 100.73 71.816C101.487 71.5387 102.303 71.4 103.178 71.4C104.127 71.4 104.858 71.5813 105.37 71.944C105.892 72.296 106.154 72.7387 106.154 73.272C106.154 73.784 105.967 74.1733 105.594 74.44C105.231 74.7067 104.815 74.84 104.346 74.84C104.026 74.84 103.69 74.7333 103.338 74.52C102.986 74.3067 102.703 73.976 102.49 73.528C102.02 73.72 101.62 74.0187 101.29 74.424C100.97 74.8187 100.724 75.2613 100.554 75.752C100.394 76.232 100.314 76.7067 100.314 77.176C100.314 77.8053 100.447 78.3493 100.714 78.808C100.98 79.256 101.375 79.48 101.898 79.48C102.26 79.48 102.591 79.3413 102.89 79.064C103.188 78.776 103.338 78.3227 103.338 77.704C104.063 77.704 104.634 77.784 105.05 77.944C105.466 78.104 105.674 78.392 105.674 78.808C105.674 79.192 105.503 79.5867 105.162 79.992C104.82 80.3867 104.34 80.7227 103.722 81C103.103 81.2667 102.367 81.4 101.514 81.4ZM110.101 81.4C109.418 81.4 108.933 81.1973 108.645 80.792C108.357 80.3867 108.213 79.768 108.213 78.936C108.213 78.7013 108.239 78.3707 108.293 77.944C108.346 77.5067 108.415 77.0213 108.501 76.488C108.597 75.9547 108.687 75.4267 108.773 74.904C108.549 74.9467 108.33 74.9947 108.117 75.048C107.914 75.1013 107.722 75.16 107.541 75.224C107.498 75.064 107.466 74.904 107.445 74.744C107.434 74.584 107.429 74.4667 107.429 74.392C107.429 73.8373 107.589 73.4373 107.909 73.192C108.239 72.936 108.634 72.808 109.093 72.808C109.093 72.5627 109.061 72.2907 108.997 71.992C108.933 71.6933 108.821 71.3627 108.661 71C109.109 70.6693 109.557 70.392 110.005 70.168C110.453 69.944 110.949 69.832 111.493 69.832C111.962 69.832 112.287 69.9227 112.469 70.104C112.65 70.2747 112.741 70.5627 112.741 70.968C112.741 71.1707 112.719 71.4107 112.677 71.688C112.634 71.9653 112.581 72.2693 112.517 72.6C112.751 72.568 112.975 72.5307 113.189 72.488C113.402 72.4347 113.61 72.3813 113.813 72.328C113.855 72.4453 113.882 72.568 113.893 72.696C113.914 72.8133 113.925 72.9307 113.925 73.048C113.925 73.4747 113.791 73.848 113.525 74.168C113.269 74.4773 112.869 74.632 112.325 74.632H112.085C111.935 75.3147 111.802 76.0133 111.685 76.728C111.567 77.4427 111.509 78.1093 111.509 78.728C111.509 79.144 111.546 79.5173 111.621 79.848C111.706 80.168 111.834 80.424 112.005 80.616C111.407 81.1387 110.773 81.4 110.101 81.4ZM117.966 70.36C117.475 70.36 117.07 70.2533 116.75 70.04C116.43 69.8267 116.27 69.5387 116.27 69.176C116.27 68.824 116.387 68.536 116.622 68.312C116.857 68.0773 117.139 67.9013 117.47 67.784C117.811 67.6667 118.131 67.608 118.43 67.608C118.921 67.608 119.326 67.7147 119.646 67.928C119.966 68.1307 120.126 68.4187 120.126 68.792C120.126 69.1013 120.025 69.3787 119.822 69.624C119.619 69.8587 119.353 70.04 119.022 70.168C118.702 70.296 118.35 70.36 117.966 70.36ZM117.006 81.4C116.323 81.4 115.838 81.2293 115.55 80.888C115.262 80.5467 115.118 80.056 115.118 79.416C115.118 79.1813 115.15 78.856 115.214 78.44C115.278 78.0133 115.363 77.544 115.47 77.032C115.577 76.5093 115.689 75.9813 115.806 75.448C115.923 74.9147 116.035 74.4133 116.142 73.944L115.246 72.6C115.811 72.2587 116.35 71.976 116.862 71.752C117.374 71.5173 117.886 71.4 118.398 71.4C118.846 71.4 119.155 71.496 119.326 71.688C119.507 71.88 119.598 72.1787 119.598 72.584C119.598 72.744 119.555 73.0053 119.47 73.368C119.395 73.7307 119.299 74.1573 119.182 74.648C119.065 75.1387 118.947 75.656 118.83 76.2C118.713 76.7333 118.611 77.2613 118.526 77.784C118.451 78.296 118.414 78.7547 118.414 79.16C118.414 79.48 118.451 79.768 118.526 80.024C118.611 80.2693 118.739 80.4667 118.91 80.616C118.313 81.1387 117.678 81.4 117.006 81.4ZM125.529 81.4C124.591 81.4 123.78 81.224 123.097 80.872C122.425 80.5093 121.908 80.0133 121.545 79.384C121.183 78.7547 121.001 78.024 121.001 77.192C121.001 76.04 121.252 75.032 121.753 74.168C122.265 73.2933 122.964 72.616 123.849 72.136C124.735 71.6453 125.743 71.4 126.873 71.4C127.055 71.4 127.236 71.4107 127.417 71.432C127.609 71.4427 127.812 71.4747 128.025 71.528C128.079 71.6773 128.121 71.8587 128.153 72.072C128.185 72.2747 128.207 72.4933 128.217 72.728C128.313 72.696 128.415 72.6693 128.521 72.648C128.639 72.6267 128.761 72.616 128.889 72.616C129.263 72.616 129.615 72.7173 129.945 72.92C130.276 73.112 130.548 73.416 130.761 73.832C130.975 74.248 131.081 74.776 131.081 75.416C131.081 76.3653 130.921 77.2133 130.601 77.96C130.292 78.696 129.871 79.32 129.337 79.832C128.804 80.344 128.207 80.7333 127.545 81C126.895 81.2667 126.223 81.4 125.529 81.4ZM126.025 79.432C126.271 79.432 126.527 79.3733 126.793 79.256C127.06 79.1387 127.321 78.9253 127.577 78.616C127.833 78.3067 128.047 77.8693 128.217 77.304C127.759 77.016 127.428 76.664 127.225 76.248C127.023 75.8213 126.921 75.352 126.921 74.84C126.921 74.6907 126.948 74.4987 127.001 74.264C127.055 74.0293 127.145 73.7893 127.273 73.544C127.412 73.2987 127.599 73.096 127.833 72.936C127.097 73.0853 126.495 73.3093 126.025 73.608C125.556 73.9067 125.188 74.2533 124.921 74.648C124.665 75.032 124.484 75.432 124.377 75.848C124.281 76.2533 124.233 76.6427 124.233 77.016C124.233 77.4427 124.303 77.8427 124.441 78.216C124.58 78.5787 124.783 78.872 125.049 79.096C125.316 79.32 125.641 79.432 126.025 79.432ZM134.471 81.4C133.799 81.4 133.319 81.2293 133.031 80.888C132.743 80.5467 132.599 80.056 132.599 79.416C132.599 79.192 132.631 78.8507 132.695 78.392C132.759 77.9227 132.839 77.4053 132.935 76.84C133.041 76.264 133.153 75.688 133.271 75.112C133.388 74.536 133.5 74.024 133.607 73.576L132.775 72.296C133.212 72.0507 133.681 71.8427 134.183 71.672C134.695 71.4907 135.212 71.4 135.735 71.4C136.183 71.4 136.513 71.512 136.727 71.736C136.94 71.9493 137.047 72.2427 137.047 72.616C137.047 72.8933 137.009 73.1813 136.935 73.48C136.86 73.7787 136.775 74.0347 136.679 74.248L136.839 74.328C137.468 73.2507 138.156 72.4933 138.903 72.056C139.649 71.6187 140.412 71.4 141.191 71.4C141.841 71.4 142.327 71.56 142.647 71.88C142.967 72.1893 143.127 72.6747 143.127 73.336C143.127 73.912 143.047 74.5253 142.887 75.176C142.737 75.816 142.583 76.4773 142.423 77.16C142.263 77.832 142.183 78.4987 142.183 79.16C142.183 79.8213 142.295 80.3067 142.519 80.616C141.953 81.1387 141.367 81.4 140.759 81.4C140.087 81.4 139.607 81.2293 139.319 80.888C139.031 80.5467 138.887 80.056 138.887 79.416C138.887 79.064 138.935 78.6747 139.031 78.248C139.127 77.8107 139.239 77.368 139.367 76.92C139.495 76.472 139.607 76.0507 139.703 75.656C139.799 75.2613 139.847 74.92 139.847 74.632C139.847 74.408 139.804 74.232 139.719 74.104C139.644 73.976 139.505 73.912 139.303 73.912C139.015 73.912 138.679 74.04 138.295 74.296C137.911 74.552 137.532 74.9147 137.159 75.384C136.796 75.8427 136.492 76.392 136.247 77.032C136.012 77.672 135.895 78.3813 135.895 79.16C135.895 79.8213 136.007 80.3067 136.231 80.616C135.665 81.1387 135.079 81.4 134.471 81.4ZM148.532 81.4C147.529 81.4 146.729 81.32 146.132 81.16C145.545 81.0107 145.124 80.8027 144.868 80.536C144.612 80.2693 144.484 79.976 144.484 79.656C144.484 79.4107 144.548 79.128 144.676 78.808C144.814 78.488 145.012 78.184 145.268 77.896C145.449 78.1413 145.689 78.3707 145.988 78.584C146.297 78.7867 146.633 78.952 146.996 79.08C147.358 79.1973 147.71 79.256 148.052 79.256C148.425 79.256 148.761 79.1707 149.06 79C149.358 78.8187 149.556 78.5147 149.652 78.088C148.009 77.896 146.83 77.5333 146.116 77C145.401 76.456 145.044 75.704 145.044 74.744C145.044 74.136 145.188 73.6187 145.476 73.192C145.764 72.7653 146.148 72.424 146.628 72.168C147.118 71.9013 147.673 71.7093 148.292 71.592C148.921 71.464 149.572 71.4 150.244 71.4C150.873 71.4 151.433 71.4853 151.924 71.656C152.414 71.816 152.798 72.0347 153.076 72.312C153.353 72.5893 153.492 72.9093 153.492 73.272C153.492 73.784 153.305 74.1733 152.932 74.44C152.569 74.7067 152.153 74.84 151.684 74.84C151.364 74.84 151.028 74.7333 150.676 74.52C150.324 74.3067 150.041 73.976 149.828 73.528C149.433 73.6453 149.118 73.816 148.884 74.04C148.649 74.2533 148.441 74.5627 148.26 74.968C149.476 75.1493 150.441 75.3787 151.156 75.656C151.87 75.9333 152.382 76.2853 152.692 76.712C153.012 77.128 153.172 77.6453 153.172 78.264C153.172 78.7547 153.06 79.1813 152.836 79.544C152.622 79.9067 152.34 80.2053 151.988 80.44C151.636 80.6747 151.252 80.8613 150.836 81C150.42 81.1493 150.009 81.2507 149.604 81.304C149.198 81.368 148.841 81.4 148.532 81.4ZM160.042 82.648C159.818 82.648 159.583 82.6107 159.338 82.536C159.103 82.472 158.858 82.3387 158.602 82.136C158.869 81.8907 159.114 81.496 159.338 80.952C159.562 80.3973 159.765 79.8 159.946 79.16C160.33 77.816 160.671 76.5093 160.97 75.24C161.279 73.9707 161.557 72.7973 161.802 71.72C162.058 70.632 162.282 69.704 162.474 68.936C162.549 68.6373 162.682 68.392 162.874 68.2C163.066 68.008 163.354 67.912 163.738 67.912C164.101 67.912 164.437 67.9813 164.746 68.12C165.055 68.248 165.338 68.4293 165.594 68.664C165.413 68.9413 165.231 69.272 165.05 69.656C164.879 70.04 164.725 70.4293 164.586 70.824C164.447 71.208 164.335 71.5547 164.25 71.864C164.015 72.6853 163.802 73.4587 163.61 74.184C163.418 74.9093 163.231 75.624 163.05 76.328C162.869 77.0213 162.677 77.7413 162.474 78.488C162.282 79.2347 162.063 80.0453 161.818 80.92C161.669 81.464 161.45 81.8853 161.162 82.184C160.885 82.4933 160.511 82.648 160.042 82.648ZM165.066 82.648C164.842 82.648 164.607 82.6107 164.362 82.536C164.127 82.472 163.882 82.3387 163.626 82.136C163.893 81.8907 164.138 81.496 164.362 80.952C164.586 80.3973 164.789 79.8 164.97 79.16C165.354 77.816 165.695 76.5093 165.994 75.24C166.303 73.9707 166.581 72.7973 166.826 71.72C167.082 70.632 167.306 69.704 167.498 68.936C167.573 68.6373 167.706 68.392 167.898 68.2C168.09 68.008 168.378 67.912 168.762 67.912C169.125 67.912 169.461 67.9813 169.77 68.12C170.079 68.248 170.362 68.4293 170.618 68.664C170.437 68.9413 170.255 69.272 170.074 69.656C169.903 70.04 169.749 70.4293 169.61 70.824C169.471 71.208 169.359 71.5547 169.274 71.864C169.039 72.6853 168.826 73.4587 168.634 74.184C168.442 74.9093 168.255 75.624 168.074 76.328C167.893 77.0213 167.701 77.7413 167.498 78.488C167.306 79.2347 167.087 80.0453 166.842 80.92C166.693 81.464 166.474 81.8853 166.186 82.184C165.909 82.4933 165.535 82.648 165.066 82.648ZM160.554 73.928C160.362 73.928 160.197 73.864 160.058 73.736C159.919 73.5973 159.85 73.352 159.85 73C159.85 72.6587 159.898 72.3227 159.994 71.992C160.09 71.6613 160.223 71.368 160.394 71.112C160.703 71.2293 161.05 71.3093 161.434 71.352C161.829 71.3947 162.175 71.416 162.474 71.416C163.029 71.416 163.594 71.4107 164.17 71.4C164.757 71.3893 165.343 71.3787 165.93 71.368C167.146 71.336 168.367 71.32 169.594 71.32C170.021 71.32 170.351 71.4107 170.586 71.592C170.821 71.7733 170.938 72.088 170.938 72.536C170.938 72.7387 170.917 72.952 170.874 73.176C170.831 73.4 170.746 73.6187 170.618 73.832C170.394 73.736 170.111 73.6667 169.77 73.624C169.429 73.5707 169.055 73.544 168.65 73.544C167.871 73.544 167.029 73.5707 166.122 73.624C165.215 73.6667 164.357 73.7147 163.546 73.768C162.927 73.8107 162.357 73.848 161.834 73.88C161.322 73.912 160.895 73.928 160.554 73.928ZM159.338 78.76C159.146 78.76 158.981 78.696 158.842 78.568C158.703 78.4293 158.634 78.184 158.634 77.832C158.634 77.4907 158.682 77.1547 158.778 76.824C158.874 76.4933 159.007 76.2 159.178 75.944C159.487 76.0613 159.834 76.1413 160.218 76.184C160.613 76.2267 160.959 76.248 161.258 76.248C161.813 76.248 162.378 76.2427 162.954 76.232C163.541 76.2213 164.127 76.2107 164.714 76.2C165.93 76.168 167.151 76.152 168.378 76.152C168.805 76.152 169.135 76.2427 169.37 76.424C169.605 76.6053 169.722 76.92 169.722 77.368C169.722 77.5707 169.701 77.784 169.658 78.008C169.615 78.232 169.53 78.4507 169.402 78.664C169.178 78.568 168.895 78.4987 168.554 78.456C168.213 78.4027 167.839 78.376 167.434 78.376C166.655 78.376 165.813 78.4027 164.906 78.456C163.999 78.4987 163.141 78.5467 162.33 78.6C161.711 78.6427 161.141 78.68 160.618 78.712C160.106 78.744 159.679 78.76 159.338 78.76ZM178.56 81.4C177.888 81.4 177.243 81.3147 176.624 81.144C176.006 80.9733 175.318 80.7547 174.56 80.488C174.176 80.7867 173.803 80.9947 173.44 81.112C173.078 81.24 172.763 81.304 172.496 81.304C171.952 81.304 171.542 81.1227 171.264 80.76C170.987 80.3867 170.848 79.96 170.848 79.48C170.848 79.1067 170.944 78.744 171.136 78.392C171.339 78.0293 171.632 77.7307 172.016 77.496C172.4 77.2613 172.87 77.144 173.424 77.144C173.574 77.144 173.712 77.1547 173.84 77.176C173.968 77.1867 174.07 77.2027 174.144 77.224C174.987 76.5093 175.648 75.864 176.128 75.288C176.608 74.7013 176.848 74.1573 176.848 73.656C176.848 73.2933 176.731 73 176.496 72.776C176.272 72.552 175.968 72.44 175.584 72.44C175.392 72.44 175.179 72.4773 174.944 72.552C174.72 72.6267 174.491 72.7973 174.256 73.064C174.022 73.3307 173.803 73.752 173.6 74.328C173.11 74.2747 172.742 74.104 172.496 73.816C172.262 73.528 172.144 73.1867 172.144 72.792C172.144 72.3227 172.294 71.8587 172.592 71.4C172.902 70.9413 173.398 70.5627 174.08 70.264C174.774 69.9547 175.691 69.8 176.832 69.8C177.536 69.8 178.134 69.896 178.624 70.088C179.115 70.2693 179.515 70.5093 179.824 70.808C180.134 71.1067 180.358 71.4373 180.496 71.8C180.635 72.152 180.704 72.4987 180.704 72.84C180.704 73.3947 180.534 73.96 180.192 74.536C179.851 75.112 179.392 75.688 178.816 76.264C178.251 76.8293 177.616 77.3893 176.912 77.944C177.35 78.0187 177.744 78.0773 178.096 78.12C178.448 78.152 178.774 78.168 179.072 78.168L180.944 77.448C180.998 77.6507 181.04 77.8747 181.072 78.12C181.104 78.3547 181.12 78.5787 181.12 78.792C181.12 79.4 181.003 79.896 180.768 80.28C180.534 80.664 180.224 80.9467 179.84 81.128C179.456 81.3093 179.03 81.4 178.56 81.4Z" fill="white"/>
</svg>
