<svg width="200" height="150" viewBox="0 0 200 150" fill="none" xmlns="http://www.w3.org/2000/svg">
<rect width="200" height="150" fill="#264DB1"/>
<path d="M27.3424 83.656C26.6384 83.656 26.1584 83.4267 25.9024 82.968C25.6464 82.5093 25.5184 81.9013 25.5184 81.144C25.2518 81.2187 24.9691 81.2773 24.6704 81.32C24.3718 81.3733 24.0571 81.4 23.7264 81.4C22.8091 81.4 21.9824 81.2133 21.2464 80.84C20.5211 80.456 19.9451 79.8693 19.5184 79.08C19.0918 78.2907 18.8784 77.2933 18.8784 76.088C18.8784 75.5013 18.9798 74.8987 19.1824 74.28C19.3851 73.6613 19.6784 73.064 20.0624 72.488C20.4571 71.9013 20.9424 71.3787 21.5184 70.92C22.1051 70.4507 22.7824 70.0827 23.5504 69.816C24.3184 69.5387 25.1718 69.4 26.1104 69.4C26.6864 69.4 27.2038 69.48 27.6624 69.64C28.1318 69.8 28.4998 70.04 28.7664 70.36C29.0331 70.6693 29.1664 71.0587 29.1664 71.528C29.1664 71.9867 29.0598 72.3707 28.8464 72.68C28.6438 72.9893 28.3718 73.224 28.0304 73.384C27.6998 73.5333 27.3371 73.608 26.9424 73.608C26.4731 73.608 26.0144 73.4907 25.5664 73.256C25.1184 73.0213 24.7558 72.6747 24.4784 72.216C24.1051 72.3973 23.7531 72.7067 23.4224 73.144C23.1024 73.5707 22.8464 74.072 22.6544 74.648C22.4624 75.224 22.3664 75.8213 22.3664 76.44C22.3664 77.336 22.5478 77.9973 22.9104 78.424C23.2731 78.84 23.6998 79.048 24.1904 79.048C24.5318 79.048 24.8784 78.952 25.2304 78.76C25.5931 78.568 25.9184 78.2907 26.2064 77.928C26.0784 77.6507 25.9398 77.3733 25.7904 77.096C25.6518 76.808 25.5184 76.5253 25.3904 76.248C25.8491 75.9387 26.3451 75.672 26.8784 75.448C27.4224 75.224 27.9558 75.112 28.4784 75.112C28.9371 75.112 29.2411 75.2347 29.3904 75.48C29.5504 75.7253 29.6304 76.0347 29.6304 76.408C29.6304 76.6427 29.5824 76.9573 29.4864 77.352C29.4011 77.7467 29.2998 78.184 29.1824 78.664C29.0758 79.1333 28.9744 79.6187 28.8784 80.12C28.7931 80.6213 28.7504 81.096 28.7504 81.544C28.7504 81.8427 28.7878 82.12 28.8624 82.376C28.9371 82.632 29.0438 82.84 29.1824 83C28.8838 83.2133 28.5691 83.3733 28.2384 83.48C27.9184 83.5973 27.6198 83.656 27.3424 83.656ZM33.8333 70.36C33.3426 70.36 32.9373 70.2533 32.6173 70.04C32.2973 69.8267 32.1373 69.5387 32.1373 69.176C32.1373 68.824 32.2546 68.536 32.4893 68.312C32.724 68.0773 33.0066 67.9013 33.3373 67.784C33.6786 67.6667 33.9986 67.608 34.2973 67.608C34.788 67.608 35.1933 67.7147 35.5133 67.928C35.8333 68.1307 35.9933 68.4187 35.9933 68.792C35.9933 69.1013 35.892 69.3787 35.6893 69.624C35.4866 69.8587 35.22 70.04 34.8893 70.168C34.5693 70.296 34.2173 70.36 33.8333 70.36ZM32.8733 81.4C32.1906 81.4 31.7053 81.2293 31.4173 80.888C31.1293 80.5467 30.9853 80.056 30.9853 79.416C30.9853 79.1813 31.0173 78.856 31.0813 78.44C31.1453 78.0133 31.2306 77.544 31.3373 77.032C31.444 76.5093 31.556 75.9813 31.6733 75.448C31.7906 74.9147 31.9026 74.4133 32.0093 73.944L31.1133 72.6C31.6786 72.2587 32.2173 71.976 32.7293 71.752C33.2413 71.5173 33.7533 71.4 34.2653 71.4C34.7133 71.4 35.0226 71.496 35.1933 71.688C35.3746 71.88 35.4653 72.1787 35.4653 72.584C35.4653 72.744 35.4226 73.0053 35.3373 73.368C35.2626 73.7307 35.1666 74.1573 35.0493 74.648C34.932 75.1387 34.8146 75.656 34.6973 76.2C34.58 76.7333 34.4786 77.2613 34.3933 77.784C34.3186 78.296 34.2813 78.7547 34.2813 79.16C34.2813 79.48 34.3186 79.768 34.3933 80.024C34.4786 80.2693 34.6066 80.4667 34.7773 80.616C34.18 81.1387 33.5453 81.4 32.8733 81.4ZM39.7804 81.4C39.0978 81.4 38.6124 81.1973 38.3244 80.792C38.0364 80.3867 37.8924 79.768 37.8924 78.936C37.8924 78.7013 37.9191 78.3707 37.9724 77.944C38.0258 77.5067 38.0951 77.0213 38.1804 76.488C38.2764 75.9547 38.3671 75.4267 38.4524 74.904C38.2284 74.9467 38.0098 74.9947 37.7964 75.048C37.5938 75.1013 37.4018 75.16 37.2204 75.224C37.1778 75.064 37.1458 74.904 37.1244 74.744C37.1138 74.584 37.1084 74.4667 37.1084 74.392C37.1084 73.8373 37.2684 73.4373 37.5884 73.192C37.9191 72.936 38.3138 72.808 38.7724 72.808C38.7724 72.5627 38.7404 72.2907 38.6764 71.992C38.6124 71.6933 38.5004 71.3627 38.3404 71C38.7884 70.6693 39.2364 70.392 39.6844 70.168C40.1324 69.944 40.6284 69.832 41.1724 69.832C41.6418 69.832 41.9671 69.9227 42.1484 70.104C42.3298 70.2747 42.4204 70.5627 42.4204 70.968C42.4204 71.1707 42.3991 71.4107 42.3564 71.688C42.3138 71.9653 42.2604 72.2693 42.1964 72.6C42.4311 72.568 42.6551 72.5307 42.8684 72.488C43.0818 72.4347 43.2898 72.3813 43.4924 72.328C43.5351 72.4453 43.5618 72.568 43.5724 72.696C43.5938 72.8133 43.6044 72.9307 43.6044 73.048C43.6044 73.4747 43.4711 73.848 43.2044 74.168C42.9484 74.4773 42.5484 74.632 42.0044 74.632H41.7644C41.6151 75.3147 41.4818 76.0133 41.3644 76.728C41.2471 77.4427 41.1884 78.1093 41.1884 78.728C41.1884 79.144 41.2258 79.5173 41.3004 79.848C41.3858 80.168 41.5138 80.424 41.6844 80.616C41.0871 81.1387 40.4524 81.4 39.7804 81.4ZM46.7498 81.4C46.0778 81.4 45.5978 81.2293 45.3098 80.888C45.0218 80.5467 44.8778 80.056 44.8778 79.416C44.8778 79.096 44.9045 78.68 44.9578 78.168C45.0218 77.656 45.1018 77.0907 45.1978 76.472C45.2938 75.8427 45.4005 75.2027 45.5178 74.552C45.6351 73.8907 45.7471 73.2613 45.8538 72.664C45.9605 72.056 46.0565 71.5173 46.1418 71.048L45.2458 69.768C45.8111 69.4373 46.3498 69.16 46.8618 68.936C47.3738 68.712 47.8858 68.6 48.3978 68.6C48.8458 68.6 49.1551 68.6907 49.3258 68.872C49.5071 69.0427 49.5978 69.3307 49.5978 69.736C49.5978 70.1733 49.5711 70.6267 49.5178 71.096C49.4751 71.5547 49.4165 71.9973 49.3418 72.424C49.2671 72.8507 49.1925 73.224 49.1178 73.544C49.0538 73.864 49.0005 74.0987 48.9578 74.248L49.1178 74.328C49.7471 73.2507 50.4351 72.4933 51.1818 72.056C51.9285 71.6187 52.6911 71.4 53.4698 71.4C54.1205 71.4 54.6058 71.56 54.9258 71.88C55.2458 72.1893 55.4058 72.6747 55.4058 73.336C55.4058 73.912 55.3258 74.5253 55.1658 75.176C55.0165 75.816 54.8618 76.4773 54.7018 77.16C54.5418 77.832 54.4618 78.4987 54.4618 79.16C54.4618 79.8213 54.5738 80.3067 54.7978 80.616C54.2325 81.1387 53.6458 81.4 53.0378 81.4C52.3658 81.4 51.8858 81.2293 51.5978 80.888C51.3098 80.5467 51.1658 80.056 51.1658 79.416C51.1658 79.064 51.2138 78.6747 51.3098 78.248C51.4058 77.8107 51.5178 77.368 51.6458 76.92C51.7738 76.472 51.8858 76.0507 51.9818 75.656C52.0778 75.2613 52.1258 74.92 52.1258 74.632C52.1258 74.408 52.0831 74.232 51.9978 74.104C51.9231 73.976 51.7845 73.912 51.5818 73.912C51.2938 73.912 50.9578 74.04 50.5738 74.296C50.1898 74.552 49.8111 74.9147 49.4378 75.384C49.0751 75.8427 48.7711 76.392 48.5258 77.032C48.2911 77.672 48.1738 78.3813 48.1738 79.16C48.1738 79.8213 48.2858 80.3067 48.5098 80.616C47.9445 81.1387 47.3578 81.4 46.7498 81.4ZM59.7008 81.4C59.0395 81.4 58.5221 81.2827 58.1488 81.048C57.7861 80.824 57.5301 80.52 57.3808 80.136C57.2421 79.7413 57.1728 79.2987 57.1728 78.808C57.1728 78.2427 57.2315 77.6507 57.3488 77.032C57.4661 76.4027 57.5835 75.7947 57.7008 75.208C57.8181 74.6107 57.8768 74.088 57.8768 73.64C57.8768 72.9787 57.7648 72.4933 57.5408 72.184C57.9781 71.9493 58.4315 71.7627 58.9008 71.624C59.3808 71.4747 59.7648 71.4 60.0528 71.4C60.4901 71.4 60.8048 71.4907 60.9968 71.672C61.1995 71.8427 61.3008 72.1307 61.3008 72.536C61.3008 72.76 61.2688 73.0693 61.2048 73.464C61.1408 73.848 61.0608 74.2693 60.9648 74.728C60.8688 75.1867 60.7675 75.6507 60.6608 76.12C60.5648 76.5787 60.4848 76.9947 60.4208 77.368C60.3568 77.7413 60.3248 78.0347 60.3248 78.248C60.3248 78.6427 60.4261 78.9413 60.6288 79.144C60.8421 79.3467 61.0981 79.448 61.3968 79.448C61.7381 79.448 62.0955 79.32 62.4688 79.064C62.8421 78.808 63.1515 78.4347 63.3968 77.944C63.4395 77.7093 63.4928 77.416 63.5568 77.064C63.6315 76.712 63.7115 76.3387 63.7968 75.944C63.8928 75.5387 63.9781 75.1547 64.0528 74.792C64.1381 74.4187 64.2128 74.104 64.2768 73.848L63.3168 72.568C63.7755 72.2373 64.2661 71.96 64.7888 71.736C65.3115 71.512 65.8448 71.4 66.3888 71.4C66.8688 71.4 67.2101 71.4907 67.4128 71.672C67.6261 71.8427 67.7328 72.1307 67.7328 72.536C67.7328 72.76 67.6901 73.0693 67.6048 73.464C67.5301 73.8587 67.4341 74.3013 67.3168 74.792C67.2101 75.272 67.0981 75.7733 66.9808 76.296C66.8635 76.8187 66.7621 77.3307 66.6768 77.832C66.6021 78.3227 66.5648 78.7653 66.5648 79.16C66.5648 79.48 66.6021 79.768 66.6768 80.024C66.7621 80.2693 66.8901 80.4667 67.0608 80.616C66.4635 81.1387 65.8288 81.4 65.1568 81.4C64.4741 81.4 63.9995 81.2453 63.7328 80.936C63.4661 80.6267 63.3328 80.2587 63.3328 79.832L63.1728 79.752C62.8208 80.2747 62.3301 80.68 61.7008 80.968C61.0715 81.256 60.4048 81.4 59.7008 81.4ZM73.0076 81.4C71.8129 81.4 70.9116 81.128 70.3036 80.584C69.7062 80.0293 69.4076 79.1547 69.4076 77.96C69.4076 77.6187 69.4556 77.1013 69.5516 76.408C69.6476 75.7147 69.7702 74.904 69.9196 73.976C70.0796 73.048 70.2556 72.072 70.4476 71.048L69.5516 69.768C70.1062 69.4373 70.6236 69.16 71.1036 68.936C71.5942 68.712 72.0849 68.6 72.5756 68.6C73.0342 68.6 73.3702 68.6907 73.5836 68.872C73.7969 69.0427 73.9036 69.3307 73.9036 69.736C73.9036 70.0133 73.8716 70.376 73.8076 70.824C73.7436 71.2613 73.6636 71.736 73.5676 72.248C73.4822 72.76 73.3862 73.2613 73.2796 73.752L73.4396 73.832C73.8236 73.0747 74.2876 72.504 74.8316 72.12C75.3862 71.736 76.0422 71.544 76.7996 71.544C77.3756 71.544 77.8609 71.7147 78.2556 72.056C78.6502 72.3867 78.9489 72.8347 79.1516 73.4C79.3542 73.9547 79.4556 74.568 79.4556 75.24C79.4556 76.2533 79.2582 77.144 78.8636 77.912C78.4689 78.68 77.9462 79.3253 77.2956 79.848C76.6556 80.36 75.9569 80.744 75.1996 81C74.4529 81.2667 73.7222 81.4 73.0076 81.4ZM72.5756 79.544C73.2049 79.544 73.7649 79.432 74.2556 79.208C74.7462 78.9733 75.1622 78.664 75.5036 78.28C75.8556 77.896 76.1222 77.4747 76.3036 77.016C76.4849 76.5467 76.5756 76.0773 76.5756 75.608C76.5756 75.32 76.5222 75.0373 76.4156 74.76C76.3089 74.4827 76.1542 74.2533 75.9516 74.072C75.7596 73.8907 75.5356 73.8 75.2796 73.8C74.8849 73.8 74.5382 73.912 74.2396 74.136C73.9516 74.36 73.7062 74.6587 73.5036 75.032C73.3116 75.3947 73.1516 75.8 73.0236 76.248C72.9062 76.6853 72.8102 77.1227 72.7356 77.56C72.6716 77.9867 72.6289 78.376 72.6076 78.728C72.5862 79.08 72.5756 79.352 72.5756 79.544ZM88.6086 81.4C88.0112 81.4 87.4832 81.2453 87.0246 80.936C86.5766 80.6267 86.2299 80.1893 85.9846 79.624C85.7392 79.0587 85.6166 78.3973 85.6166 77.64C85.6166 76.7547 85.7712 75.9333 86.0806 75.176C86.4006 74.4187 86.8379 73.7573 87.3926 73.192C87.9579 72.6267 88.6192 72.1893 89.3766 71.88C90.1339 71.56 90.9552 71.4 91.8406 71.4C92.0966 71.4 92.3152 71.4107 92.4966 71.432C92.6886 71.4427 92.8912 71.4747 93.1046 71.528C93.1686 71.8267 93.2059 72.088 93.2166 72.312C93.4619 72.152 93.7339 72.0293 94.0326 71.944C94.3312 71.848 94.6086 71.8 94.8646 71.8C95.6432 71.8 96.0326 72.2213 96.0326 73.064C96.0326 73.3413 95.9792 73.72 95.8726 74.2C95.7766 74.6693 95.6592 75.192 95.5206 75.768C95.3926 76.3333 95.2752 76.9147 95.1686 77.512C95.0726 78.0987 95.0246 78.648 95.0246 79.16C95.0246 79.8533 95.1899 80.3387 95.5206 80.616C94.9232 81.1387 94.2886 81.4 93.6166 81.4C92.9979 81.4 92.5392 81.208 92.2406 80.824C91.9526 80.44 91.8086 79.8427 91.8086 79.032L91.6486 78.952C91.3606 79.72 90.9446 80.3227 90.4006 80.76C89.8672 81.1867 89.2699 81.4 88.6086 81.4ZM89.8726 78.488C90.2886 78.488 90.6939 78.3387 91.0886 78.04C91.4832 77.7413 91.8139 77.3307 92.0806 76.808C92.1232 76.392 92.1659 76.0027 92.2086 75.64C92.2619 75.2667 92.3259 74.872 92.4006 74.456C92.4859 74.04 92.5872 73.5493 92.7046 72.984C92.1606 72.984 91.6432 73.0907 91.1526 73.304C90.6726 73.5067 90.2406 73.7893 89.8566 74.152C89.4726 74.5147 89.1686 74.9307 88.9446 75.4C88.7312 75.8587 88.6246 76.344 88.6246 76.856C88.6246 77.3787 88.7312 77.784 88.9446 78.072C89.1686 78.3493 89.4779 78.488 89.8726 78.488ZM102.006 81.4C101.078 81.4 100.272 81.224 99.5898 80.872C98.9178 80.5093 98.3951 80.0133 98.0218 79.384C97.6591 78.7547 97.4778 78.024 97.4778 77.192C97.4778 76.328 97.6325 75.544 97.9418 74.84C98.2511 74.1253 98.6885 73.512 99.2538 73C99.8191 72.488 100.475 72.0933 101.222 71.816C101.979 71.5387 102.795 71.4 103.67 71.4C104.619 71.4 105.35 71.5813 105.862 71.944C106.384 72.296 106.646 72.7387 106.646 73.272C106.646 73.784 106.459 74.1733 106.086 74.44C105.723 74.7067 105.307 74.84 104.838 74.84C104.518 74.84 104.182 74.7333 103.83 74.52C103.478 74.3067 103.195 73.976 102.982 73.528C102.512 73.72 102.112 74.0187 101.782 74.424C101.462 74.8187 101.216 75.2613 101.046 75.752C100.886 76.232 100.806 76.7067 100.806 77.176C100.806 77.8053 100.939 78.3493 101.206 78.808C101.472 79.256 101.867 79.48 102.39 79.48C102.752 79.48 103.083 79.3413 103.382 79.064C103.68 78.776 103.83 78.3227 103.83 77.704C104.555 77.704 105.126 77.784 105.542 77.944C105.958 78.104 106.166 78.392 106.166 78.808C106.166 79.192 105.995 79.5867 105.654 79.992C105.312 80.3867 104.832 80.7227 104.214 81C103.595 81.2667 102.859 81.4 102.006 81.4ZM110.593 81.4C109.91 81.4 109.425 81.1973 109.137 80.792C108.849 80.3867 108.705 79.768 108.705 78.936C108.705 78.7013 108.732 78.3707 108.785 77.944C108.838 77.5067 108.908 77.0213 108.993 76.488C109.089 75.9547 109.18 75.4267 109.265 74.904C109.041 74.9467 108.822 74.9947 108.609 75.048C108.406 75.1013 108.214 75.16 108.033 75.224C107.99 75.064 107.958 74.904 107.937 74.744C107.926 74.584 107.921 74.4667 107.921 74.392C107.921 73.8373 108.081 73.4373 108.401 73.192C108.732 72.936 109.126 72.808 109.585 72.808C109.585 72.5627 109.553 72.2907 109.489 71.992C109.425 71.6933 109.313 71.3627 109.153 71C109.601 70.6693 110.049 70.392 110.497 70.168C110.945 69.944 111.441 69.832 111.985 69.832C112.454 69.832 112.78 69.9227 112.961 70.104C113.142 70.2747 113.233 70.5627 113.233 70.968C113.233 71.1707 113.212 71.4107 113.169 71.688C113.126 71.9653 113.073 72.2693 113.009 72.6C113.244 72.568 113.468 72.5307 113.681 72.488C113.894 72.4347 114.102 72.3813 114.305 72.328C114.348 72.4453 114.374 72.568 114.385 72.696C114.406 72.8133 114.417 72.9307 114.417 73.048C114.417 73.4747 114.284 73.848 114.017 74.168C113.761 74.4773 113.361 74.632 112.817 74.632H112.577C112.428 75.3147 112.294 76.0133 112.177 76.728C112.06 77.4427 112.001 78.1093 112.001 78.728C112.001 79.144 112.038 79.5173 112.113 79.848C112.198 80.168 112.326 80.424 112.497 80.616C111.9 81.1387 111.265 81.4 110.593 81.4ZM118.458 70.36C117.968 70.36 117.562 70.2533 117.242 70.04C116.922 69.8267 116.762 69.5387 116.762 69.176C116.762 68.824 116.88 68.536 117.114 68.312C117.349 68.0773 117.632 67.9013 117.962 67.784C118.304 67.6667 118.624 67.608 118.922 67.608C119.413 67.608 119.818 67.7147 120.138 67.928C120.458 68.1307 120.618 68.4187 120.618 68.792C120.618 69.1013 120.517 69.3787 120.314 69.624C120.112 69.8587 119.845 70.04 119.514 70.168C119.194 70.296 118.842 70.36 118.458 70.36ZM117.498 81.4C116.816 81.4 116.33 81.2293 116.042 80.888C115.754 80.5467 115.61 80.056 115.61 79.416C115.61 79.1813 115.642 78.856 115.706 78.44C115.77 78.0133 115.856 77.544 115.962 77.032C116.069 76.5093 116.181 75.9813 116.298 75.448C116.416 74.9147 116.528 74.4133 116.634 73.944L115.738 72.6C116.304 72.2587 116.842 71.976 117.354 71.752C117.866 71.5173 118.378 71.4 118.89 71.4C119.338 71.4 119.648 71.496 119.818 71.688C120 71.88 120.09 72.1787 120.09 72.584C120.09 72.744 120.048 73.0053 119.962 73.368C119.888 73.7307 119.792 74.1573 119.674 74.648C119.557 75.1387 119.44 75.656 119.322 76.2C119.205 76.7333 119.104 77.2613 119.018 77.784C118.944 78.296 118.906 78.7547 118.906 79.16C118.906 79.48 118.944 79.768 119.018 80.024C119.104 80.2693 119.232 80.4667 119.402 80.616C118.805 81.1387 118.17 81.4 117.498 81.4ZM126.021 81.4C125.083 81.4 124.272 81.224 123.589 80.872C122.917 80.5093 122.4 80.0133 122.037 79.384C121.675 78.7547 121.493 78.024 121.493 77.192C121.493 76.04 121.744 75.032 122.245 74.168C122.757 73.2933 123.456 72.616 124.341 72.136C125.227 71.6453 126.235 71.4 127.365 71.4C127.547 71.4 127.728 71.4107 127.909 71.432C128.101 71.4427 128.304 71.4747 128.517 71.528C128.571 71.6773 128.613 71.8587 128.645 72.072C128.677 72.2747 128.699 72.4933 128.709 72.728C128.805 72.696 128.907 72.6693 129.013 72.648C129.131 72.6267 129.253 72.616 129.381 72.616C129.755 72.616 130.107 72.7173 130.437 72.92C130.768 73.112 131.04 73.416 131.253 73.832C131.467 74.248 131.573 74.776 131.573 75.416C131.573 76.3653 131.413 77.2133 131.093 77.96C130.784 78.696 130.363 79.32 129.829 79.832C129.296 80.344 128.699 80.7333 128.037 81C127.387 81.2667 126.715 81.4 126.021 81.4ZM126.517 79.432C126.763 79.432 127.019 79.3733 127.285 79.256C127.552 79.1387 127.813 78.9253 128.069 78.616C128.325 78.3067 128.539 77.8693 128.709 77.304C128.251 77.016 127.92 76.664 127.717 76.248C127.515 75.8213 127.413 75.352 127.413 74.84C127.413 74.6907 127.44 74.4987 127.493 74.264C127.547 74.0293 127.637 73.7893 127.765 73.544C127.904 73.2987 128.091 73.096 128.325 72.936C127.589 73.0853 126.987 73.3093 126.517 73.608C126.048 73.9067 125.68 74.2533 125.413 74.648C125.157 75.032 124.976 75.432 124.869 75.848C124.773 76.2533 124.725 76.6427 124.725 77.016C124.725 77.4427 124.795 77.8427 124.933 78.216C125.072 78.5787 125.275 78.872 125.541 79.096C125.808 79.32 126.133 79.432 126.517 79.432ZM134.963 81.4C134.291 81.4 133.811 81.2293 133.523 80.888C133.235 80.5467 133.091 80.056 133.091 79.416C133.091 79.192 133.123 78.8507 133.187 78.392C133.251 77.9227 133.331 77.4053 133.427 76.84C133.534 76.264 133.646 75.688 133.763 75.112C133.88 74.536 133.992 74.024 134.099 73.576L133.267 72.296C133.704 72.0507 134.174 71.8427 134.675 71.672C135.187 71.4907 135.704 71.4 136.227 71.4C136.675 71.4 137.006 71.512 137.219 71.736C137.432 71.9493 137.539 72.2427 137.539 72.616C137.539 72.8933 137.502 73.1813 137.427 73.48C137.352 73.7787 137.267 74.0347 137.171 74.248L137.331 74.328C137.96 73.2507 138.648 72.4933 139.395 72.056C140.142 71.6187 140.904 71.4 141.683 71.4C142.334 71.4 142.819 71.56 143.139 71.88C143.459 72.1893 143.619 72.6747 143.619 73.336C143.619 73.912 143.539 74.5253 143.379 75.176C143.23 75.816 143.075 76.4773 142.915 77.16C142.755 77.832 142.675 78.4987 142.675 79.16C142.675 79.8213 142.787 80.3067 143.011 80.616C142.446 81.1387 141.859 81.4 141.251 81.4C140.579 81.4 140.099 81.2293 139.811 80.888C139.523 80.5467 139.379 80.056 139.379 79.416C139.379 79.064 139.427 78.6747 139.523 78.248C139.619 77.8107 139.731 77.368 139.859 76.92C139.987 76.472 140.099 76.0507 140.195 75.656C140.291 75.2613 140.339 74.92 140.339 74.632C140.339 74.408 140.296 74.232 140.211 74.104C140.136 73.976 139.998 73.912 139.795 73.912C139.507 73.912 139.171 74.04 138.787 74.296C138.403 74.552 138.024 74.9147 137.651 75.384C137.288 75.8427 136.984 76.392 136.739 77.032C136.504 77.672 136.387 78.3813 136.387 79.16C136.387 79.8213 136.499 80.3067 136.723 80.616C136.158 81.1387 135.571 81.4 134.963 81.4ZM149.024 81.4C148.021 81.4 147.221 81.32 146.624 81.16C146.037 81.0107 145.616 80.8027 145.36 80.536C145.104 80.2693 144.976 79.976 144.976 79.656C144.976 79.4107 145.04 79.128 145.168 78.808C145.307 78.488 145.504 78.184 145.76 77.896C145.941 78.1413 146.181 78.3707 146.48 78.584C146.789 78.7867 147.125 78.952 147.488 79.08C147.851 79.1973 148.203 79.256 148.544 79.256C148.917 79.256 149.253 79.1707 149.552 79C149.851 78.8187 150.048 78.5147 150.144 78.088C148.501 77.896 147.323 77.5333 146.608 77C145.893 76.456 145.536 75.704 145.536 74.744C145.536 74.136 145.68 73.6187 145.968 73.192C146.256 72.7653 146.64 72.424 147.12 72.168C147.611 71.9013 148.165 71.7093 148.784 71.592C149.413 71.464 150.064 71.4 150.736 71.4C151.365 71.4 151.925 71.4853 152.416 71.656C152.907 71.816 153.291 72.0347 153.568 72.312C153.845 72.5893 153.984 72.9093 153.984 73.272C153.984 73.784 153.797 74.1733 153.424 74.44C153.061 74.7067 152.645 74.84 152.176 74.84C151.856 74.84 151.52 74.7333 151.168 74.52C150.816 74.3067 150.533 73.976 150.32 73.528C149.925 73.6453 149.611 73.816 149.376 74.04C149.141 74.2533 148.933 74.5627 148.752 74.968C149.968 75.1493 150.933 75.3787 151.648 75.656C152.363 75.9333 152.875 76.2853 153.184 76.712C153.504 77.128 153.664 77.6453 153.664 78.264C153.664 78.7547 153.552 79.1813 153.328 79.544C153.115 79.9067 152.832 80.2053 152.48 80.44C152.128 80.6747 151.744 80.8613 151.328 81C150.912 81.1493 150.501 81.2507 150.096 81.304C149.691 81.368 149.333 81.4 149.024 81.4ZM160.534 82.648C160.31 82.648 160.075 82.6107 159.83 82.536C159.595 82.472 159.35 82.3387 159.094 82.136C159.361 81.8907 159.606 81.496 159.83 80.952C160.054 80.3973 160.257 79.8 160.438 79.16C160.822 77.816 161.163 76.5093 161.462 75.24C161.771 73.9707 162.049 72.7973 162.294 71.72C162.55 70.632 162.774 69.704 162.966 68.936C163.041 68.6373 163.174 68.392 163.366 68.2C163.558 68.008 163.846 67.912 164.23 67.912C164.593 67.912 164.929 67.9813 165.238 68.12C165.547 68.248 165.83 68.4293 166.086 68.664C165.905 68.9413 165.723 69.272 165.542 69.656C165.371 70.04 165.217 70.4293 165.078 70.824C164.939 71.208 164.827 71.5547 164.742 71.864C164.507 72.6853 164.294 73.4587 164.102 74.184C163.91 74.9093 163.723 75.624 163.542 76.328C163.361 77.0213 163.169 77.7413 162.966 78.488C162.774 79.2347 162.555 80.0453 162.31 80.92C162.161 81.464 161.942 81.8853 161.654 82.184C161.377 82.4933 161.003 82.648 160.534 82.648ZM165.558 82.648C165.334 82.648 165.099 82.6107 164.854 82.536C164.619 82.472 164.374 82.3387 164.118 82.136C164.385 81.8907 164.63 81.496 164.854 80.952C165.078 80.3973 165.281 79.8 165.462 79.16C165.846 77.816 166.187 76.5093 166.486 75.24C166.795 73.9707 167.073 72.7973 167.318 71.72C167.574 70.632 167.798 69.704 167.99 68.936C168.065 68.6373 168.198 68.392 168.39 68.2C168.582 68.008 168.87 67.912 169.254 67.912C169.617 67.912 169.953 67.9813 170.262 68.12C170.571 68.248 170.854 68.4293 171.11 68.664C170.929 68.9413 170.747 69.272 170.566 69.656C170.395 70.04 170.241 70.4293 170.102 70.824C169.963 71.208 169.851 71.5547 169.766 71.864C169.531 72.6853 169.318 73.4587 169.126 74.184C168.934 74.9093 168.747 75.624 168.566 76.328C168.385 77.0213 168.193 77.7413 167.99 78.488C167.798 79.2347 167.579 80.0453 167.334 80.92C167.185 81.464 166.966 81.8853 166.678 82.184C166.401 82.4933 166.027 82.648 165.558 82.648ZM161.046 73.928C160.854 73.928 160.689 73.864 160.55 73.736C160.411 73.5973 160.342 73.352 160.342 73C160.342 72.6587 160.39 72.3227 160.486 71.992C160.582 71.6613 160.715 71.368 160.886 71.112C161.195 71.2293 161.542 71.3093 161.926 71.352C162.321 71.3947 162.667 71.416 162.966 71.416C163.521 71.416 164.086 71.4107 164.662 71.4C165.249 71.3893 165.835 71.3787 166.422 71.368C167.638 71.336 168.859 71.32 170.086 71.32C170.513 71.32 170.843 71.4107 171.078 71.592C171.313 71.7733 171.43 72.088 171.43 72.536C171.43 72.7387 171.409 72.952 171.366 73.176C171.323 73.4 171.238 73.6187 171.11 73.832C170.886 73.736 170.603 73.6667 170.262 73.624C169.921 73.5707 169.547 73.544 169.142 73.544C168.363 73.544 167.521 73.5707 166.614 73.624C165.707 73.6667 164.849 73.7147 164.038 73.768C163.419 73.8107 162.849 73.848 162.326 73.88C161.814 73.912 161.387 73.928 161.046 73.928ZM159.83 78.76C159.638 78.76 159.473 78.696 159.334 78.568C159.195 78.4293 159.126 78.184 159.126 77.832C159.126 77.4907 159.174 77.1547 159.27 76.824C159.366 76.4933 159.499 76.2 159.67 75.944C159.979 76.0613 160.326 76.1413 160.71 76.184C161.105 76.2267 161.451 76.248 161.75 76.248C162.305 76.248 162.87 76.2427 163.446 76.232C164.033 76.2213 164.619 76.2107 165.206 76.2C166.422 76.168 167.643 76.152 168.87 76.152C169.297 76.152 169.627 76.2427 169.862 76.424C170.097 76.6053 170.214 76.92 170.214 77.368C170.214 77.5707 170.193 77.784 170.15 78.008C170.107 78.232 170.022 78.4507 169.894 78.664C169.67 78.568 169.387 78.4987 169.046 78.456C168.705 78.4027 168.331 78.376 167.926 78.376C167.147 78.376 166.305 78.4027 165.398 78.456C164.491 78.4987 163.633 78.5467 162.822 78.6C162.203 78.6427 161.633 78.68 161.11 78.712C160.598 78.744 160.171 78.76 159.83 78.76ZM174.3 83.496C173.255 83.496 172.439 83.336 171.852 83.016C171.276 82.7067 170.988 82.2587 170.988 81.672C170.988 81.1707 171.175 80.7867 171.548 80.52C171.932 80.2427 172.359 80.104 172.828 80.104C173.18 80.104 173.554 80.216 173.948 80.44C174.354 80.6533 174.69 80.9947 174.956 81.464C175.276 81.3787 175.586 81.224 175.884 81C176.183 80.7653 176.428 80.488 176.62 80.168C176.812 79.848 176.908 79.5173 176.908 79.176C176.908 78.952 176.86 78.7333 176.764 78.52C176.679 78.296 176.53 78.0827 176.316 77.88C176.092 78.008 175.794 78.136 175.42 78.264C175.047 78.3813 174.679 78.44 174.316 78.44C173.964 78.44 173.66 78.3547 173.404 78.184C173.159 78.0133 173.036 77.704 173.036 77.256C173.036 76.84 173.223 76.472 173.596 76.152C173.98 75.832 174.594 75.672 175.436 75.672C175.543 75.672 175.65 75.672 175.756 75.672C175.874 75.672 175.991 75.6827 176.108 75.704C176.396 75.48 176.62 75.192 176.78 74.84C176.951 74.488 177.036 74.1413 177.036 73.8C177.036 73.4373 176.93 73.128 176.716 72.872C176.503 72.6053 176.162 72.472 175.692 72.472C175.543 72.472 175.346 72.5307 175.1 72.648C174.866 72.7547 174.631 72.9413 174.396 73.208C174.162 73.4747 173.975 73.8533 173.836 74.344C173.228 74.312 172.786 74.152 172.508 73.864C172.231 73.5653 172.092 73.208 172.092 72.792C172.092 72.3227 172.247 71.8587 172.556 71.4C172.866 70.9413 173.356 70.5627 174.028 70.264C174.711 69.9547 175.602 69.8 176.7 69.8C177.447 69.8 178.066 69.8907 178.556 70.072C179.047 70.2533 179.431 70.488 179.708 70.776C179.986 71.0533 180.178 71.3573 180.284 71.688C180.402 72.0187 180.46 72.3333 180.46 72.632C180.46 73.2933 180.279 73.944 179.916 74.584C179.564 75.224 179.063 75.8533 178.412 76.472C179.788 77.1227 180.476 78.0827 180.476 79.352C180.476 80.0773 180.226 80.7547 179.724 81.384C179.223 82.024 178.508 82.536 177.58 82.92C176.663 83.304 175.57 83.496 174.3 83.496Z" fill="white"/>
</svg>
