<svg width="200" height="150" viewBox="0 0 200 150" fill="none" xmlns="http://www.w3.org/2000/svg">
<rect width="200" height="150" fill="#264DB1"/>
<path d="M28.0143 83.656C27.3103 83.656 26.8303 83.4267 26.5743 82.968C26.3183 82.5093 26.1903 81.9013 26.1903 81.144C25.9236 81.2187 25.641 81.2773 25.3423 81.32C25.0436 81.3733 24.729 81.4 24.3983 81.4C23.481 81.4 22.6543 81.2133 21.9183 80.84C21.193 80.456 20.617 79.8693 20.1903 79.08C19.7636 78.2907 19.5503 77.2933 19.5503 76.088C19.5503 75.5013 19.6516 74.8987 19.8543 74.28C20.057 73.6613 20.3503 73.064 20.7343 72.488C21.129 71.9013 21.6143 71.3787 22.1903 70.92C22.777 70.4507 23.4543 70.0827 24.2223 69.816C24.9903 69.5387 25.8436 69.4 26.7823 69.4C27.3583 69.4 27.8756 69.48 28.3343 69.64C28.8036 69.8 29.1716 70.04 29.4383 70.36C29.705 70.6693 29.8383 71.0587 29.8383 71.528C29.8383 71.9867 29.7316 72.3707 29.5183 72.68C29.3156 72.9893 29.0436 73.224 28.7023 73.384C28.3716 73.5333 28.009 73.608 27.6143 73.608C27.145 73.608 26.6863 73.4907 26.2383 73.256C25.7903 73.0213 25.4276 72.6747 25.1503 72.216C24.777 72.3973 24.425 72.7067 24.0943 73.144C23.7743 73.5707 23.5183 74.072 23.3263 74.648C23.1343 75.224 23.0383 75.8213 23.0383 76.44C23.0383 77.336 23.2196 77.9973 23.5823 78.424C23.945 78.84 24.3716 79.048 24.8623 79.048C25.2036 79.048 25.5503 78.952 25.9023 78.76C26.265 78.568 26.5903 78.2907 26.8783 77.928C26.7503 77.6507 26.6116 77.3733 26.4623 77.096C26.3236 76.808 26.1903 76.5253 26.0623 76.248C26.521 75.9387 27.017 75.672 27.5503 75.448C28.0943 75.224 28.6276 75.112 29.1503 75.112C29.609 75.112 29.913 75.2347 30.0623 75.48C30.2223 75.7253 30.3023 76.0347 30.3023 76.408C30.3023 76.6427 30.2543 76.9573 30.1583 77.352C30.073 77.7467 29.9716 78.184 29.8543 78.664C29.7476 79.1333 29.6463 79.6187 29.5503 80.12C29.465 80.6213 29.4223 81.096 29.4223 81.544C29.4223 81.8427 29.4596 82.12 29.5343 82.376C29.609 82.632 29.7156 82.84 29.8543 83C29.5556 83.2133 29.241 83.3733 28.9103 83.48C28.5903 83.5973 28.2916 83.656 28.0143 83.656ZM34.5052 70.36C34.0145 70.36 33.6092 70.2533 33.2892 70.04C32.9692 69.8267 32.8092 69.5387 32.8092 69.176C32.8092 68.824 32.9265 68.536 33.1612 68.312C33.3959 68.0773 33.6785 67.9013 34.0092 67.784C34.3505 67.6667 34.6705 67.608 34.9692 67.608C35.4599 67.608 35.8652 67.7147 36.1852 67.928C36.5052 68.1307 36.6652 68.4187 36.6652 68.792C36.6652 69.1013 36.5639 69.3787 36.3612 69.624C36.1585 69.8587 35.8919 70.04 35.5612 70.168C35.2412 70.296 34.8892 70.36 34.5052 70.36ZM33.5452 81.4C32.8625 81.4 32.3772 81.2293 32.0892 80.888C31.8012 80.5467 31.6572 80.056 31.6572 79.416C31.6572 79.1813 31.6892 78.856 31.7532 78.44C31.8172 78.0133 31.9025 77.544 32.0092 77.032C32.1159 76.5093 32.2279 75.9813 32.3452 75.448C32.4625 74.9147 32.5745 74.4133 32.6812 73.944L31.7852 72.6C32.3505 72.2587 32.8892 71.976 33.4012 71.752C33.9132 71.5173 34.4252 71.4 34.9372 71.4C35.3852 71.4 35.6945 71.496 35.8652 71.688C36.0465 71.88 36.1372 72.1787 36.1372 72.584C36.1372 72.744 36.0945 73.0053 36.0092 73.368C35.9345 73.7307 35.8385 74.1573 35.7212 74.648C35.6039 75.1387 35.4865 75.656 35.3692 76.2C35.2519 76.7333 35.1505 77.2613 35.0652 77.784C34.9905 78.296 34.9532 78.7547 34.9532 79.16C34.9532 79.48 34.9905 79.768 35.0652 80.024C35.1505 80.2693 35.2785 80.4667 35.4492 80.616C34.8519 81.1387 34.2172 81.4 33.5452 81.4ZM40.4523 81.4C39.7696 81.4 39.2843 81.1973 38.9963 80.792C38.7083 80.3867 38.5643 79.768 38.5643 78.936C38.5643 78.7013 38.591 78.3707 38.6443 77.944C38.6976 77.5067 38.767 77.0213 38.8523 76.488C38.9483 75.9547 39.039 75.4267 39.1243 74.904C38.9003 74.9467 38.6816 74.9947 38.4683 75.048C38.2656 75.1013 38.0736 75.16 37.8923 75.224C37.8496 75.064 37.8176 74.904 37.7963 74.744C37.7856 74.584 37.7803 74.4667 37.7803 74.392C37.7803 73.8373 37.9403 73.4373 38.2603 73.192C38.591 72.936 38.9856 72.808 39.4443 72.808C39.4443 72.5627 39.4123 72.2907 39.3483 71.992C39.2843 71.6933 39.1723 71.3627 39.0123 71C39.4603 70.6693 39.9083 70.392 40.3563 70.168C40.8043 69.944 41.3003 69.832 41.8443 69.832C42.3136 69.832 42.639 69.9227 42.8203 70.104C43.0016 70.2747 43.0923 70.5627 43.0923 70.968C43.0923 71.1707 43.071 71.4107 43.0283 71.688C42.9856 71.9653 42.9323 72.2693 42.8683 72.6C43.103 72.568 43.327 72.5307 43.5403 72.488C43.7536 72.4347 43.9616 72.3813 44.1643 72.328C44.207 72.4453 44.2336 72.568 44.2443 72.696C44.2656 72.8133 44.2763 72.9307 44.2763 73.048C44.2763 73.4747 44.143 73.848 43.8763 74.168C43.6203 74.4773 43.2203 74.632 42.6763 74.632H42.4363C42.287 75.3147 42.1536 76.0133 42.0363 76.728C41.919 77.4427 41.8603 78.1093 41.8603 78.728C41.8603 79.144 41.8976 79.5173 41.9723 79.848C42.0576 80.168 42.1856 80.424 42.3563 80.616C41.759 81.1387 41.1243 81.4 40.4523 81.4ZM47.4217 81.4C46.7497 81.4 46.2697 81.2293 45.9817 80.888C45.6937 80.5467 45.5497 80.056 45.5497 79.416C45.5497 79.096 45.5764 78.68 45.6297 78.168C45.6937 77.656 45.7737 77.0907 45.8697 76.472C45.9657 75.8427 46.0724 75.2027 46.1897 74.552C46.307 73.8907 46.419 73.2613 46.5257 72.664C46.6324 72.056 46.7284 71.5173 46.8137 71.048L45.9177 69.768C46.483 69.4373 47.0217 69.16 47.5337 68.936C48.0457 68.712 48.5577 68.6 49.0697 68.6C49.5177 68.6 49.827 68.6907 49.9977 68.872C50.179 69.0427 50.2697 69.3307 50.2697 69.736C50.2697 70.1733 50.243 70.6267 50.1897 71.096C50.147 71.5547 50.0884 71.9973 50.0137 72.424C49.939 72.8507 49.8644 73.224 49.7897 73.544C49.7257 73.864 49.6724 74.0987 49.6297 74.248L49.7897 74.328C50.419 73.2507 51.107 72.4933 51.8537 72.056C52.6004 71.6187 53.363 71.4 54.1417 71.4C54.7924 71.4 55.2777 71.56 55.5977 71.88C55.9177 72.1893 56.0777 72.6747 56.0777 73.336C56.0777 73.912 55.9977 74.5253 55.8377 75.176C55.6884 75.816 55.5337 76.4773 55.3737 77.16C55.2137 77.832 55.1337 78.4987 55.1337 79.16C55.1337 79.8213 55.2457 80.3067 55.4697 80.616C54.9044 81.1387 54.3177 81.4 53.7097 81.4C53.0377 81.4 52.5577 81.2293 52.2697 80.888C51.9817 80.5467 51.8377 80.056 51.8377 79.416C51.8377 79.064 51.8857 78.6747 51.9817 78.248C52.0777 77.8107 52.1897 77.368 52.3177 76.92C52.4457 76.472 52.5577 76.0507 52.6537 75.656C52.7497 75.2613 52.7977 74.92 52.7977 74.632C52.7977 74.408 52.755 74.232 52.6697 74.104C52.595 73.976 52.4564 73.912 52.2537 73.912C51.9657 73.912 51.6297 74.04 51.2457 74.296C50.8617 74.552 50.483 74.9147 50.1097 75.384C49.747 75.8427 49.443 76.392 49.1977 77.032C48.963 77.672 48.8457 78.3813 48.8457 79.16C48.8457 79.8213 48.9577 80.3067 49.1817 80.616C48.6164 81.1387 48.0297 81.4 47.4217 81.4ZM60.3727 81.4C59.7114 81.4 59.194 81.2827 58.8207 81.048C58.458 80.824 58.202 80.52 58.0527 80.136C57.914 79.7413 57.8447 79.2987 57.8447 78.808C57.8447 78.2427 57.9034 77.6507 58.0207 77.032C58.138 76.4027 58.2554 75.7947 58.3727 75.208C58.49 74.6107 58.5487 74.088 58.5487 73.64C58.5487 72.9787 58.4367 72.4933 58.2127 72.184C58.65 71.9493 59.1034 71.7627 59.5727 71.624C60.0527 71.4747 60.4367 71.4 60.7247 71.4C61.162 71.4 61.4767 71.4907 61.6687 71.672C61.8714 71.8427 61.9727 72.1307 61.9727 72.536C61.9727 72.76 61.9407 73.0693 61.8767 73.464C61.8127 73.848 61.7327 74.2693 61.6367 74.728C61.5407 75.1867 61.4394 75.6507 61.3327 76.12C61.2367 76.5787 61.1567 76.9947 61.0927 77.368C61.0287 77.7413 60.9967 78.0347 60.9967 78.248C60.9967 78.6427 61.098 78.9413 61.3007 79.144C61.514 79.3467 61.77 79.448 62.0687 79.448C62.41 79.448 62.7674 79.32 63.1407 79.064C63.514 78.808 63.8234 78.4347 64.0687 77.944C64.1114 77.7093 64.1647 77.416 64.2287 77.064C64.3034 76.712 64.3834 76.3387 64.4687 75.944C64.5647 75.5387 64.65 75.1547 64.7247 74.792C64.81 74.4187 64.8847 74.104 64.9487 73.848L63.9887 72.568C64.4474 72.2373 64.938 71.96 65.4607 71.736C65.9834 71.512 66.5167 71.4 67.0607 71.4C67.5407 71.4 67.882 71.4907 68.0847 71.672C68.298 71.8427 68.4047 72.1307 68.4047 72.536C68.4047 72.76 68.362 73.0693 68.2767 73.464C68.202 73.8587 68.106 74.3013 67.9887 74.792C67.882 75.272 67.77 75.7733 67.6527 76.296C67.5354 76.8187 67.434 77.3307 67.3487 77.832C67.274 78.3227 67.2367 78.7653 67.2367 79.16C67.2367 79.48 67.274 79.768 67.3487 80.024C67.434 80.2693 67.562 80.4667 67.7327 80.616C67.1354 81.1387 66.5007 81.4 65.8287 81.4C65.146 81.4 64.6714 81.2453 64.4047 80.936C64.138 80.6267 64.0047 80.2587 64.0047 79.832L63.8447 79.752C63.4927 80.2747 63.002 80.68 62.3727 80.968C61.7434 81.256 61.0767 81.4 60.3727 81.4ZM73.6794 81.4C72.4848 81.4 71.5834 81.128 70.9754 80.584C70.3781 80.0293 70.0794 79.1547 70.0794 77.96C70.0794 77.6187 70.1274 77.1013 70.2234 76.408C70.3194 75.7147 70.4421 74.904 70.5914 73.976C70.7514 73.048 70.9274 72.072 71.1194 71.048L70.2234 69.768C70.7781 69.4373 71.2954 69.16 71.7754 68.936C72.2661 68.712 72.7568 68.6 73.2474 68.6C73.7061 68.6 74.0421 68.6907 74.2554 68.872C74.4688 69.0427 74.5754 69.3307 74.5754 69.736C74.5754 70.0133 74.5434 70.376 74.4794 70.824C74.4154 71.2613 74.3354 71.736 74.2394 72.248C74.1541 72.76 74.0581 73.2613 73.9514 73.752L74.1114 73.832C74.4954 73.0747 74.9594 72.504 75.5034 72.12C76.0581 71.736 76.7141 71.544 77.4714 71.544C78.0474 71.544 78.5328 71.7147 78.9274 72.056C79.3221 72.3867 79.6208 72.8347 79.8234 73.4C80.0261 73.9547 80.1274 74.568 80.1274 75.24C80.1274 76.2533 79.9301 77.144 79.5354 77.912C79.1408 78.68 78.6181 79.3253 77.9674 79.848C77.3274 80.36 76.6288 80.744 75.8714 81C75.1248 81.2667 74.3941 81.4 73.6794 81.4ZM73.2474 79.544C73.8768 79.544 74.4368 79.432 74.9274 79.208C75.4181 78.9733 75.8341 78.664 76.1754 78.28C76.5274 77.896 76.7941 77.4747 76.9754 77.016C77.1568 76.5467 77.2474 76.0773 77.2474 75.608C77.2474 75.32 77.1941 75.0373 77.0874 74.76C76.9808 74.4827 76.8261 74.2533 76.6234 74.072C76.4314 73.8907 76.2074 73.8 75.9514 73.8C75.5568 73.8 75.2101 73.912 74.9114 74.136C74.6234 74.36 74.3781 74.6587 74.1754 75.032C73.9834 75.3947 73.8234 75.8 73.6954 76.248C73.5781 76.6853 73.4821 77.1227 73.4074 77.56C73.3434 77.9867 73.3008 78.376 73.2794 78.728C73.2581 79.08 73.2474 79.352 73.2474 79.544ZM89.2804 81.4C88.6831 81.4 88.1551 81.2453 87.6964 80.936C87.2484 80.6267 86.9018 80.1893 86.6564 79.624C86.4111 79.0587 86.2884 78.3973 86.2884 77.64C86.2884 76.7547 86.4431 75.9333 86.7524 75.176C87.0724 74.4187 87.5098 73.7573 88.0644 73.192C88.6298 72.6267 89.2911 72.1893 90.0484 71.88C90.8058 71.56 91.6271 71.4 92.5124 71.4C92.7684 71.4 92.9871 71.4107 93.1684 71.432C93.3604 71.4427 93.5631 71.4747 93.7764 71.528C93.8404 71.8267 93.8778 72.088 93.8884 72.312C94.1338 72.152 94.4058 72.0293 94.7044 71.944C95.0031 71.848 95.2804 71.8 95.5364 71.8C96.3151 71.8 96.7044 72.2213 96.7044 73.064C96.7044 73.3413 96.6511 73.72 96.5444 74.2C96.4484 74.6693 96.3311 75.192 96.1924 75.768C96.0644 76.3333 95.9471 76.9147 95.8404 77.512C95.7444 78.0987 95.6964 78.648 95.6964 79.16C95.6964 79.8533 95.8618 80.3387 96.1924 80.616C95.5951 81.1387 94.9604 81.4 94.2884 81.4C93.6698 81.4 93.2111 81.208 92.9124 80.824C92.6244 80.44 92.4804 79.8427 92.4804 79.032L92.3204 78.952C92.0324 79.72 91.6164 80.3227 91.0724 80.76C90.5391 81.1867 89.9418 81.4 89.2804 81.4ZM90.5444 78.488C90.9604 78.488 91.3658 78.3387 91.7604 78.04C92.1551 77.7413 92.4858 77.3307 92.7524 76.808C92.7951 76.392 92.8378 76.0027 92.8804 75.64C92.9338 75.2667 92.9978 74.872 93.0724 74.456C93.1578 74.04 93.2591 73.5493 93.3764 72.984C92.8324 72.984 92.3151 73.0907 91.8244 73.304C91.3444 73.5067 90.9124 73.7893 90.5284 74.152C90.1444 74.5147 89.8404 74.9307 89.6164 75.4C89.4031 75.8587 89.2964 76.344 89.2964 76.856C89.2964 77.3787 89.4031 77.784 89.6164 78.072C89.8404 78.3493 90.1498 78.488 90.5444 78.488ZM102.678 81.4C101.75 81.4 100.944 81.224 100.262 80.872C99.5897 80.5093 99.067 80.0133 98.6937 79.384C98.331 78.7547 98.1497 78.024 98.1497 77.192C98.1497 76.328 98.3044 75.544 98.6137 74.84C98.923 74.1253 99.3604 73.512 99.9257 73C100.491 72.488 101.147 72.0933 101.894 71.816C102.651 71.5387 103.467 71.4 104.342 71.4C105.291 71.4 106.022 71.5813 106.534 71.944C107.056 72.296 107.318 72.7387 107.318 73.272C107.318 73.784 107.131 74.1733 106.758 74.44C106.395 74.7067 105.979 74.84 105.51 74.84C105.19 74.84 104.854 74.7333 104.502 74.52C104.15 74.3067 103.867 73.976 103.654 73.528C103.184 73.72 102.784 74.0187 102.454 74.424C102.134 74.8187 101.888 75.2613 101.718 75.752C101.558 76.232 101.478 76.7067 101.478 77.176C101.478 77.8053 101.611 78.3493 101.878 78.808C102.144 79.256 102.539 79.48 103.062 79.48C103.424 79.48 103.755 79.3413 104.054 79.064C104.352 78.776 104.502 78.3227 104.502 77.704C105.227 77.704 105.798 77.784 106.214 77.944C106.63 78.104 106.838 78.392 106.838 78.808C106.838 79.192 106.667 79.5867 106.326 79.992C105.984 80.3867 105.504 80.7227 104.886 81C104.267 81.2667 103.531 81.4 102.678 81.4ZM111.265 81.4C110.582 81.4 110.097 81.1973 109.809 80.792C109.521 80.3867 109.377 79.768 109.377 78.936C109.377 78.7013 109.403 78.3707 109.457 77.944C109.51 77.5067 109.579 77.0213 109.665 76.488C109.761 75.9547 109.851 75.4267 109.937 74.904C109.713 74.9467 109.494 74.9947 109.281 75.048C109.078 75.1013 108.886 75.16 108.705 75.224C108.662 75.064 108.63 74.904 108.609 74.744C108.598 74.584 108.593 74.4667 108.593 74.392C108.593 73.8373 108.753 73.4373 109.073 73.192C109.403 72.936 109.798 72.808 110.257 72.808C110.257 72.5627 110.225 72.2907 110.161 71.992C110.097 71.6933 109.985 71.3627 109.825 71C110.273 70.6693 110.721 70.392 111.169 70.168C111.617 69.944 112.113 69.832 112.657 69.832C113.126 69.832 113.451 69.9227 113.633 70.104C113.814 70.2747 113.905 70.5627 113.905 70.968C113.905 71.1707 113.883 71.4107 113.841 71.688C113.798 71.9653 113.745 72.2693 113.681 72.6C113.915 72.568 114.139 72.5307 114.353 72.488C114.566 72.4347 114.774 72.3813 114.977 72.328C115.019 72.4453 115.046 72.568 115.057 72.696C115.078 72.8133 115.089 72.9307 115.089 73.048C115.089 73.4747 114.955 73.848 114.689 74.168C114.433 74.4773 114.033 74.632 113.489 74.632H113.249C113.099 75.3147 112.966 76.0133 112.849 76.728C112.731 77.4427 112.673 78.1093 112.673 78.728C112.673 79.144 112.71 79.5173 112.785 79.848C112.87 80.168 112.998 80.424 113.169 80.616C112.571 81.1387 111.937 81.4 111.265 81.4ZM119.13 70.36C118.64 70.36 118.234 70.2533 117.914 70.04C117.594 69.8267 117.434 69.5387 117.434 69.176C117.434 68.824 117.552 68.536 117.786 68.312C118.021 68.0773 118.304 67.9013 118.634 67.784C118.976 67.6667 119.296 67.608 119.594 67.608C120.085 67.608 120.49 67.7147 120.81 67.928C121.13 68.1307 121.29 68.4187 121.29 68.792C121.29 69.1013 121.189 69.3787 120.986 69.624C120.784 69.8587 120.517 70.04 120.186 70.168C119.866 70.296 119.514 70.36 119.13 70.36ZM118.17 81.4C117.488 81.4 117.002 81.2293 116.714 80.888C116.426 80.5467 116.282 80.056 116.282 79.416C116.282 79.1813 116.314 78.856 116.378 78.44C116.442 78.0133 116.528 77.544 116.634 77.032C116.741 76.5093 116.853 75.9813 116.97 75.448C117.088 74.9147 117.2 74.4133 117.306 73.944L116.41 72.6C116.976 72.2587 117.514 71.976 118.026 71.752C118.538 71.5173 119.05 71.4 119.562 71.4C120.01 71.4 120.32 71.496 120.49 71.688C120.672 71.88 120.762 72.1787 120.762 72.584C120.762 72.744 120.72 73.0053 120.634 73.368C120.56 73.7307 120.464 74.1573 120.346 74.648C120.229 75.1387 120.112 75.656 119.994 76.2C119.877 76.7333 119.776 77.2613 119.69 77.784C119.616 78.296 119.578 78.7547 119.578 79.16C119.578 79.48 119.616 79.768 119.69 80.024C119.776 80.2693 119.904 80.4667 120.074 80.616C119.477 81.1387 118.842 81.4 118.17 81.4ZM126.693 81.4C125.755 81.4 124.944 81.224 124.261 80.872C123.589 80.5093 123.072 80.0133 122.709 79.384C122.347 78.7547 122.165 78.024 122.165 77.192C122.165 76.04 122.416 75.032 122.917 74.168C123.429 73.2933 124.128 72.616 125.013 72.136C125.899 71.6453 126.907 71.4 128.037 71.4C128.219 71.4 128.4 71.4107 128.581 71.432C128.773 71.4427 128.976 71.4747 129.189 71.528C129.243 71.6773 129.285 71.8587 129.317 72.072C129.349 72.2747 129.371 72.4933 129.381 72.728C129.477 72.696 129.579 72.6693 129.685 72.648C129.803 72.6267 129.925 72.616 130.053 72.616C130.427 72.616 130.779 72.7173 131.109 72.92C131.44 73.112 131.712 73.416 131.925 73.832C132.139 74.248 132.245 74.776 132.245 75.416C132.245 76.3653 132.085 77.2133 131.765 77.96C131.456 78.696 131.035 79.32 130.501 79.832C129.968 80.344 129.371 80.7333 128.709 81C128.059 81.2667 127.387 81.4 126.693 81.4ZM127.189 79.432C127.435 79.432 127.691 79.3733 127.957 79.256C128.224 79.1387 128.485 78.9253 128.741 78.616C128.997 78.3067 129.211 77.8693 129.381 77.304C128.923 77.016 128.592 76.664 128.389 76.248C128.187 75.8213 128.085 75.352 128.085 74.84C128.085 74.6907 128.112 74.4987 128.165 74.264C128.219 74.0293 128.309 73.7893 128.437 73.544C128.576 73.2987 128.763 73.096 128.997 72.936C128.261 73.0853 127.659 73.3093 127.189 73.608C126.72 73.9067 126.352 74.2533 126.085 74.648C125.829 75.032 125.648 75.432 125.541 75.848C125.445 76.2533 125.397 76.6427 125.397 77.016C125.397 77.4427 125.467 77.8427 125.605 78.216C125.744 78.5787 125.947 78.872 126.213 79.096C126.48 79.32 126.805 79.432 127.189 79.432ZM135.635 81.4C134.963 81.4 134.483 81.2293 134.195 80.888C133.907 80.5467 133.763 80.056 133.763 79.416C133.763 79.192 133.795 78.8507 133.859 78.392C133.923 77.9227 134.003 77.4053 134.099 76.84C134.205 76.264 134.317 75.688 134.435 75.112C134.552 74.536 134.664 74.024 134.771 73.576L133.939 72.296C134.376 72.0507 134.845 71.8427 135.347 71.672C135.859 71.4907 136.376 71.4 136.899 71.4C137.347 71.4 137.677 71.512 137.891 71.736C138.104 71.9493 138.211 72.2427 138.211 72.616C138.211 72.8933 138.173 73.1813 138.099 73.48C138.024 73.7787 137.939 74.0347 137.843 74.248L138.003 74.328C138.632 73.2507 139.32 72.4933 140.067 72.056C140.813 71.6187 141.576 71.4 142.355 71.4C143.005 71.4 143.491 71.56 143.811 71.88C144.131 72.1893 144.291 72.6747 144.291 73.336C144.291 73.912 144.211 74.5253 144.051 75.176C143.901 75.816 143.747 76.4773 143.587 77.16C143.427 77.832 143.347 78.4987 143.347 79.16C143.347 79.8213 143.459 80.3067 143.683 80.616C143.117 81.1387 142.531 81.4 141.923 81.4C141.251 81.4 140.771 81.2293 140.483 80.888C140.195 80.5467 140.051 80.056 140.051 79.416C140.051 79.064 140.099 78.6747 140.195 78.248C140.291 77.8107 140.403 77.368 140.531 76.92C140.659 76.472 140.771 76.0507 140.867 75.656C140.963 75.2613 141.011 74.92 141.011 74.632C141.011 74.408 140.968 74.232 140.883 74.104C140.808 73.976 140.669 73.912 140.467 73.912C140.179 73.912 139.843 74.04 139.459 74.296C139.075 74.552 138.696 74.9147 138.323 75.384C137.96 75.8427 137.656 76.392 137.411 77.032C137.176 77.672 137.059 78.3813 137.059 79.16C137.059 79.8213 137.171 80.3067 137.395 80.616C136.829 81.1387 136.243 81.4 135.635 81.4ZM149.696 81.4C148.693 81.4 147.893 81.32 147.296 81.16C146.709 81.0107 146.288 80.8027 146.032 80.536C145.776 80.2693 145.648 79.976 145.648 79.656C145.648 79.4107 145.712 79.128 145.84 78.808C145.978 78.488 146.176 78.184 146.432 77.896C146.613 78.1413 146.853 78.3707 147.152 78.584C147.461 78.7867 147.797 78.952 148.16 79.08C148.522 79.1973 148.874 79.256 149.216 79.256C149.589 79.256 149.925 79.1707 150.224 79C150.522 78.8187 150.72 78.5147 150.816 78.088C149.173 77.896 147.994 77.5333 147.28 77C146.565 76.456 146.208 75.704 146.208 74.744C146.208 74.136 146.352 73.6187 146.64 73.192C146.928 72.7653 147.312 72.424 147.792 72.168C148.282 71.9013 148.837 71.7093 149.456 71.592C150.085 71.464 150.736 71.4 151.408 71.4C152.037 71.4 152.597 71.4853 153.088 71.656C153.578 71.816 153.962 72.0347 154.24 72.312C154.517 72.5893 154.656 72.9093 154.656 73.272C154.656 73.784 154.469 74.1733 154.096 74.44C153.733 74.7067 153.317 74.84 152.848 74.84C152.528 74.84 152.192 74.7333 151.84 74.52C151.488 74.3067 151.205 73.976 150.992 73.528C150.597 73.6453 150.282 73.816 150.048 74.04C149.813 74.2533 149.605 74.5627 149.424 74.968C150.64 75.1493 151.605 75.3787 152.32 75.656C153.034 75.9333 153.546 76.2853 153.856 76.712C154.176 77.128 154.336 77.6453 154.336 78.264C154.336 78.7547 154.224 79.1813 154 79.544C153.786 79.9067 153.504 80.2053 153.152 80.44C152.8 80.6747 152.416 80.8613 152 81C151.584 81.1493 151.173 81.2507 150.768 81.304C150.362 81.368 150.005 81.4 149.696 81.4ZM161.206 82.648C160.982 82.648 160.747 82.6107 160.502 82.536C160.267 82.472 160.022 82.3387 159.766 82.136C160.033 81.8907 160.278 81.496 160.502 80.952C160.726 80.3973 160.929 79.8 161.11 79.16C161.494 77.816 161.835 76.5093 162.134 75.24C162.443 73.9707 162.721 72.7973 162.966 71.72C163.222 70.632 163.446 69.704 163.638 68.936C163.713 68.6373 163.846 68.392 164.038 68.2C164.23 68.008 164.518 67.912 164.902 67.912C165.265 67.912 165.601 67.9813 165.91 68.12C166.219 68.248 166.502 68.4293 166.758 68.664C166.577 68.9413 166.395 69.272 166.214 69.656C166.043 70.04 165.889 70.4293 165.75 70.824C165.611 71.208 165.499 71.5547 165.414 71.864C165.179 72.6853 164.966 73.4587 164.774 74.184C164.582 74.9093 164.395 75.624 164.214 76.328C164.033 77.0213 163.841 77.7413 163.638 78.488C163.446 79.2347 163.227 80.0453 162.982 80.92C162.833 81.464 162.614 81.8853 162.326 82.184C162.049 82.4933 161.675 82.648 161.206 82.648ZM166.23 82.648C166.006 82.648 165.771 82.6107 165.526 82.536C165.291 82.472 165.046 82.3387 164.79 82.136C165.057 81.8907 165.302 81.496 165.526 80.952C165.75 80.3973 165.953 79.8 166.134 79.16C166.518 77.816 166.859 76.5093 167.158 75.24C167.467 73.9707 167.745 72.7973 167.99 71.72C168.246 70.632 168.47 69.704 168.662 68.936C168.737 68.6373 168.87 68.392 169.062 68.2C169.254 68.008 169.542 67.912 169.926 67.912C170.289 67.912 170.625 67.9813 170.934 68.12C171.243 68.248 171.526 68.4293 171.782 68.664C171.601 68.9413 171.419 69.272 171.238 69.656C171.067 70.04 170.913 70.4293 170.774 70.824C170.635 71.208 170.523 71.5547 170.438 71.864C170.203 72.6853 169.99 73.4587 169.798 74.184C169.606 74.9093 169.419 75.624 169.238 76.328C169.057 77.0213 168.865 77.7413 168.662 78.488C168.47 79.2347 168.251 80.0453 168.006 80.92C167.857 81.464 167.638 81.8853 167.35 82.184C167.073 82.4933 166.699 82.648 166.23 82.648ZM161.718 73.928C161.526 73.928 161.361 73.864 161.222 73.736C161.083 73.5973 161.014 73.352 161.014 73C161.014 72.6587 161.062 72.3227 161.158 71.992C161.254 71.6613 161.387 71.368 161.558 71.112C161.867 71.2293 162.214 71.3093 162.598 71.352C162.993 71.3947 163.339 71.416 163.638 71.416C164.193 71.416 164.758 71.4107 165.334 71.4C165.921 71.3893 166.507 71.3787 167.094 71.368C168.31 71.336 169.531 71.32 170.758 71.32C171.185 71.32 171.515 71.4107 171.75 71.592C171.985 71.7733 172.102 72.088 172.102 72.536C172.102 72.7387 172.081 72.952 172.038 73.176C171.995 73.4 171.91 73.6187 171.782 73.832C171.558 73.736 171.275 73.6667 170.934 73.624C170.593 73.5707 170.219 73.544 169.814 73.544C169.035 73.544 168.193 73.5707 167.286 73.624C166.379 73.6667 165.521 73.7147 164.71 73.768C164.091 73.8107 163.521 73.848 162.998 73.88C162.486 73.912 162.059 73.928 161.718 73.928ZM160.502 78.76C160.31 78.76 160.145 78.696 160.006 78.568C159.867 78.4293 159.798 78.184 159.798 77.832C159.798 77.4907 159.846 77.1547 159.942 76.824C160.038 76.4933 160.171 76.2 160.342 75.944C160.651 76.0613 160.998 76.1413 161.382 76.184C161.777 76.2267 162.123 76.248 162.422 76.248C162.977 76.248 163.542 76.2427 164.118 76.232C164.705 76.2213 165.291 76.2107 165.878 76.2C167.094 76.168 168.315 76.152 169.542 76.152C169.969 76.152 170.299 76.2427 170.534 76.424C170.769 76.6053 170.886 76.92 170.886 77.368C170.886 77.5707 170.865 77.784 170.822 78.008C170.779 78.232 170.694 78.4507 170.566 78.664C170.342 78.568 170.059 78.4987 169.718 78.456C169.377 78.4027 169.003 78.376 168.598 78.376C167.819 78.376 166.977 78.4027 166.07 78.456C165.163 78.4987 164.305 78.5467 163.494 78.6C162.875 78.6427 162.305 78.68 161.782 78.712C161.27 78.744 160.843 78.76 160.502 78.76ZM176.684 81.4C175.959 81.4 175.447 81.144 175.148 80.632C174.85 80.12 174.7 79.4693 174.7 78.68C174.7 78.168 174.759 77.5867 174.876 76.936C174.994 76.2747 175.159 75.4053 175.372 74.328C174.935 74.328 174.514 74.248 174.108 74.088C173.714 73.9173 173.378 73.6507 173.1 73.288C172.823 72.9253 172.647 72.44 172.572 71.832C173.351 71.6827 174.018 71.496 174.572 71.272C175.138 71.0373 175.634 70.808 176.06 70.584C176.498 70.36 176.898 70.1733 177.26 70.024C177.623 69.8747 177.996 69.8 178.38 69.8C178.828 69.8 179.127 69.928 179.276 70.184C179.436 70.44 179.516 70.7387 179.516 71.08C179.516 71.5173 179.452 72.056 179.324 72.696C179.196 73.3253 179.052 74.0027 178.892 74.728C178.732 75.4533 178.588 76.1733 178.46 76.888C178.332 77.6027 178.268 78.264 178.268 78.872C178.268 79.64 178.423 80.2853 178.732 80.808C178.018 81.2027 177.335 81.4 176.684 81.4Z" fill="white"/>
</svg>
