<svg width="200" height="150" viewBox="0 0 200 150" fill="none" xmlns="http://www.w3.org/2000/svg">
<rect width="200" height="150" fill="#264DB1"/>
<path d="M48.9723 83.496C47.927 83.496 47.111 83.336 46.5243 83.016C45.9483 82.7067 45.6603 82.2587 45.6603 81.672C45.6603 81.1707 45.847 80.7867 46.2203 80.52C46.6043 80.2427 47.031 80.104 47.5003 80.104C47.8523 80.104 48.2256 80.216 48.6203 80.44C49.0256 80.6533 49.3616 80.9947 49.6283 81.464C49.9483 81.3787 50.2576 81.224 50.5563 81C50.855 80.7653 51.1003 80.488 51.2923 80.168C51.4843 79.848 51.5803 79.5173 51.5803 79.176C51.5803 78.952 51.5323 78.7333 51.4363 78.52C51.351 78.296 51.2016 78.0827 50.9883 77.88C50.7643 78.008 50.4656 78.136 50.0923 78.264C49.719 78.3813 49.351 78.44 48.9883 78.44C48.6363 78.44 48.3323 78.3547 48.0763 78.184C47.831 78.0133 47.7083 77.704 47.7083 77.256C47.7083 76.84 47.895 76.472 48.2683 76.152C48.6523 75.832 49.2656 75.672 50.1083 75.672C50.215 75.672 50.3216 75.672 50.4283 75.672C50.5456 75.672 50.663 75.6827 50.7803 75.704C51.0683 75.48 51.2923 75.192 51.4523 74.84C51.623 74.488 51.7083 74.1413 51.7083 73.8C51.7083 73.4373 51.6016 73.128 51.3883 72.872C51.175 72.6053 50.8336 72.472 50.3643 72.472C50.215 72.472 50.0176 72.5307 49.7723 72.648C49.5376 72.7547 49.303 72.9413 49.0683 73.208C48.8336 73.4747 48.647 73.8533 48.5083 74.344C47.9003 74.312 47.4576 74.152 47.1803 73.864C46.903 73.5653 46.7643 73.208 46.7643 72.792C46.7643 72.3227 46.919 71.8587 47.2283 71.4C47.5376 70.9413 48.0283 70.5627 48.7003 70.264C49.383 69.9547 50.2736 69.8 51.3723 69.8C52.119 69.8 52.7376 69.8907 53.2283 70.072C53.719 70.2533 54.103 70.488 54.3803 70.776C54.6576 71.0533 54.8496 71.3573 54.9563 71.688C55.0736 72.0187 55.1323 72.3333 55.1323 72.632C55.1323 73.2933 54.951 73.944 54.5883 74.584C54.2363 75.224 53.735 75.8533 53.0843 76.472C54.4603 77.1227 55.1483 78.0827 55.1483 79.352C55.1483 80.0773 54.8976 80.7547 54.3963 81.384C53.895 82.024 53.1803 82.536 52.2523 82.92C51.335 83.304 50.2416 83.496 48.9723 83.496ZM60.9614 73.752H62.2734V76.344H60.9614V73.752ZM67.5854 67.784H68.9134V76.296H67.5854V67.784ZM57.1854 74.2L57.0254 73.224C57.9534 73.224 58.9454 73.2187 60.0014 73.208C61.0681 73.1867 62.1508 73.1547 63.2494 73.112C64.3481 73.0587 65.4148 72.9733 66.4494 72.856L66.5294 73.72C65.4734 73.8693 64.3961 73.9813 63.2974 74.056C62.2094 74.12 61.1428 74.1627 60.0974 74.184C59.0628 74.1947 58.0921 74.2 57.1854 74.2ZM59.2174 76.824H68.9134V79.832H60.5614V81.464H59.2654V78.936H67.6014V77.768H59.2174V76.824ZM59.2654 81.112H69.3934V82.088H59.2654V81.112ZM64.7054 74.664H68.0174V75.528H64.7054V74.664ZM61.6974 68.056C62.4121 68.056 63.0361 68.1413 63.5694 68.312C64.1028 68.4827 64.5188 68.7333 64.8174 69.064C65.1161 69.3947 65.2654 69.784 65.2654 70.232C65.2654 70.6693 65.1161 71.0533 64.8174 71.384C64.5188 71.704 64.1028 71.9547 63.5694 72.136C63.0361 72.3067 62.4121 72.392 61.6974 72.392C60.9828 72.392 60.3534 72.3067 59.8094 72.136C59.2761 71.9547 58.8601 71.704 58.5614 71.384C58.2734 71.0533 58.1294 70.6693 58.1294 70.232C58.1294 69.784 58.2734 69.3947 58.5614 69.064C58.8601 68.7333 59.2761 68.4827 59.8094 68.312C60.3534 68.1413 60.9828 68.056 61.6974 68.056ZM61.6974 68.968C60.9934 68.968 60.4281 69.08 60.0014 69.304C59.5854 69.528 59.3774 69.8373 59.3774 70.232C59.3774 70.6053 59.5854 70.9093 60.0014 71.144C60.4281 71.368 60.9934 71.48 61.6974 71.48C62.4014 71.48 62.9614 71.368 63.3774 71.144C63.8041 70.9093 64.0174 70.6053 64.0174 70.232C64.0174 69.8373 63.8041 69.528 63.3774 69.304C62.9614 69.08 62.4014 68.968 61.6974 68.968ZM80.7011 70.296H81.7891V70.504C81.7891 71.208 81.6237 71.8587 81.2931 72.456C80.9624 73.0427 80.4984 73.544 79.9011 73.96C79.3037 74.376 78.5997 74.6853 77.7891 74.888L77.2291 73.848C77.9224 73.6773 78.5304 73.432 79.0531 73.112C79.5757 72.7813 79.9811 72.392 80.2691 71.944C80.5571 71.496 80.7011 71.016 80.7011 70.504V70.296ZM80.9411 70.296H82.0291V70.504C82.0291 70.984 82.1731 71.4373 82.4611 71.864C82.7491 72.28 83.1491 72.6427 83.6611 72.952C84.1837 73.2613 84.7864 73.496 85.4691 73.656L84.9251 74.696C84.1251 74.4933 83.4264 74.1947 82.8291 73.8C82.2317 73.3947 81.7677 72.9147 81.4371 72.36C81.1064 71.7947 80.9411 71.176 80.9411 70.504V70.296ZM77.5331 69.416H85.1971V70.456H77.5331V69.416ZM80.7011 67.8H82.0291V70.12H80.7011V67.8ZM80.7331 76.056H82.0611V81.816H80.7331V76.056ZM87.1331 67.784H88.4451V82.248H87.1331V67.784ZM76.7331 77.016L76.5571 75.896C77.4744 75.896 78.4717 75.8907 79.5491 75.88C80.6264 75.8587 81.7251 75.816 82.8451 75.752C83.9651 75.688 85.0477 75.5867 86.0931 75.448L86.1891 76.424C85.1117 76.6053 84.0131 76.7387 82.8931 76.824C81.7837 76.9093 80.7011 76.9627 79.6451 76.984C78.5997 77.0053 77.6291 77.016 76.7331 77.016ZM96.9878 69.144H98.1558V69.576C98.1558 70.184 98.0065 70.744 97.7078 71.256C97.4091 71.768 96.9985 72.2267 96.4758 72.632C95.9638 73.0267 95.3718 73.3573 94.6998 73.624C94.0385 73.88 93.3345 74.0613 92.5878 74.168L92.0918 73.112C92.6038 73.0373 93.0998 72.9253 93.5798 72.776C94.0705 72.6267 94.5185 72.4453 94.9238 72.232C95.3291 72.008 95.6865 71.7573 95.9958 71.48C96.3051 71.2027 96.5451 70.904 96.7158 70.584C96.8971 70.264 96.9878 69.928 96.9878 69.576V69.144ZM97.5318 69.144H98.6998V69.576C98.6998 69.9173 98.7851 70.248 98.9558 70.568C99.1371 70.888 99.3825 71.192 99.6918 71.48C100.001 71.7573 100.358 72.008 100.764 72.232C101.18 72.4453 101.628 72.6267 102.108 72.776C102.588 72.9253 103.084 73.0373 103.596 73.112L103.1 74.168C102.364 74.0613 101.66 73.88 100.988 73.624C100.316 73.3573 99.7238 73.0267 99.2118 72.632C98.6998 72.2267 98.2891 71.768 97.9798 71.256C97.6811 70.744 97.5318 70.184 97.5318 69.576V69.144ZM92.5078 68.488H103.196V69.56H92.5078V68.488ZM91.2918 75.208H104.412V76.296H91.2918V75.208ZM97.2758 75.896H98.6038V79.224H97.2758V75.896ZM92.9558 80.84H102.956V81.928H92.9558V80.84ZM92.9558 77.816H94.2838V81.24H92.9558V77.816ZM114.951 76.456H116.279V78.84H114.951V76.456ZM121.287 67.768H122.615V82.248H121.287V67.768ZM111.095 79.496L110.903 78.376C111.821 78.3653 112.813 78.3547 113.879 78.344C114.946 78.3333 116.034 78.296 117.143 78.232C118.253 78.168 119.325 78.0667 120.359 77.928L120.455 78.92C119.389 79.0907 118.306 79.2187 117.207 79.304C116.109 79.3787 115.037 79.432 113.991 79.464C112.946 79.4853 111.981 79.496 111.095 79.496ZM111.207 69.544H119.991V70.616H111.207V69.544ZM115.591 71.432C116.285 71.432 116.893 71.544 117.415 71.768C117.938 71.992 118.343 72.3067 118.631 72.712C118.93 73.1067 119.079 73.576 119.079 74.12C119.079 74.6533 118.93 75.1227 118.631 75.528C118.343 75.9333 117.938 76.248 117.415 76.472C116.893 76.6853 116.285 76.792 115.591 76.792C114.909 76.792 114.306 76.6853 113.783 76.472C113.261 76.248 112.855 75.9333 112.567 75.528C112.279 75.1227 112.135 74.6533 112.135 74.12C112.135 73.576 112.279 73.1067 112.567 72.712C112.855 72.3067 113.261 71.992 113.783 71.768C114.306 71.544 114.909 71.432 115.591 71.432ZM115.591 72.472C114.951 72.472 114.423 72.6213 114.007 72.92C113.591 73.2187 113.383 73.6187 113.383 74.12C113.383 74.6107 113.591 75.0053 114.007 75.304C114.423 75.6027 114.951 75.752 115.591 75.752C116.253 75.752 116.786 75.6027 117.191 75.304C117.607 75.0053 117.815 74.6107 117.815 74.12C117.815 73.6187 117.607 73.2187 117.191 72.92C116.786 72.6213 116.253 72.472 115.591 72.472ZM114.951 67.784H116.279V70.12H114.951V67.784ZM126.934 69.224H136.246V70.312H126.934V69.224ZM125.542 79.112H138.614V80.216H125.542V79.112ZM130.63 73.944H131.942V79.672H130.63V73.944ZM135.734 69.224H137.062V70.648C137.062 71.2453 137.052 71.8747 137.03 72.536C137.02 73.1973 136.977 73.9227 136.902 74.712C136.838 75.5013 136.716 76.3813 136.534 77.352L135.19 77.192C135.468 75.8053 135.628 74.5893 135.67 73.544C135.713 72.488 135.734 71.5227 135.734 70.648V69.224ZM140.245 75.736H153.365V76.824H140.245V75.736ZM141.909 68.136H151.685V71.656H143.253V73.592H141.941V70.664H150.373V69.192H141.909V68.136ZM141.941 73.16H151.989V74.216H141.941V73.16ZM146.149 73.704H147.461V76.264H146.149V73.704ZM141.717 77.928H151.765V82.104H150.437V79H141.717V77.928Z" fill="white"/>
</svg>
