<svg width="200" height="150" viewBox="0 0 200 150" fill="none" xmlns="http://www.w3.org/2000/svg">
<rect width="200" height="150" fill="#264DB1"/>
<path d="M68.0176 81.4C67.3456 81.4 66.8656 81.2293 66.5776 80.888C66.2896 80.5467 66.1456 80.056 66.1456 79.416C66.1456 79.192 66.1776 78.8507 66.2416 78.392C66.3056 77.9227 66.3856 77.4053 66.4816 76.84C66.5883 76.264 66.7003 75.688 66.8176 75.112C66.935 74.536 67.047 74.024 67.1536 73.576L66.3216 72.296C66.759 72.0507 67.2283 71.8427 67.7296 71.672C68.2416 71.4907 68.759 71.4 69.2816 71.4C69.7296 71.4 70.0603 71.512 70.2736 71.736C70.487 71.9493 70.5936 72.2427 70.5936 72.616C70.5936 72.8933 70.5563 73.1813 70.4816 73.48C70.407 73.7787 70.3216 74.0347 70.2256 74.248L70.3856 74.328C71.015 73.2507 71.6763 72.4933 72.3696 72.056C73.063 71.6187 73.799 71.4 74.5776 71.4C75.143 71.4 75.607 71.544 75.9696 71.832C76.3323 72.1093 76.5136 72.5627 76.5136 73.192C76.5136 73.512 76.4603 73.864 76.3536 74.248L76.5136 74.328C77.143 73.2507 77.8043 72.4933 78.4976 72.056C79.191 71.6187 79.927 71.4 80.7056 71.4C81.3563 71.4 81.8416 71.56 82.1616 71.88C82.4816 72.1893 82.6416 72.6747 82.6416 73.336C82.6416 73.912 82.5616 74.5253 82.4016 75.176C82.2523 75.816 82.0976 76.4773 81.9376 77.16C81.7776 77.832 81.6976 78.4987 81.6976 79.16C81.6976 79.8213 81.8096 80.3067 82.0336 80.616C81.4683 81.1387 80.8816 81.4 80.2736 81.4C79.6016 81.4 79.1216 81.2293 78.8336 80.888C78.5456 80.5467 78.4016 80.056 78.4016 79.416C78.4016 79.064 78.4496 78.6747 78.5456 78.248C78.6416 77.8107 78.7536 77.368 78.8816 76.92C79.0096 76.472 79.1216 76.0507 79.2176 75.656C79.3136 75.2613 79.3616 74.92 79.3616 74.632C79.3616 74.408 79.319 74.232 79.2336 74.104C79.159 73.976 79.0203 73.912 78.8176 73.912C78.5296 73.912 78.199 74.04 77.8256 74.296C77.463 74.552 77.1056 74.9147 76.7536 75.384C76.4123 75.8427 76.1296 76.392 75.9056 77.032C75.6816 77.672 75.5696 78.3813 75.5696 79.16C75.5696 79.8213 75.6816 80.3067 75.9056 80.616C75.3403 81.1387 74.7536 81.4 74.1456 81.4C73.4736 81.4 72.9936 81.2293 72.7056 80.888C72.4176 80.5467 72.2736 80.056 72.2736 79.416C72.2736 79.064 72.3216 78.6747 72.4176 78.248C72.5136 77.8107 72.6256 77.368 72.7536 76.92C72.8816 76.472 72.9936 76.0507 73.0896 75.656C73.1856 75.2613 73.2336 74.92 73.2336 74.632C73.2336 74.408 73.191 74.232 73.1056 74.104C73.031 73.976 72.8923 73.912 72.6896 73.912C72.4016 73.912 72.071 74.04 71.6976 74.296C71.335 74.552 70.9776 74.9147 70.6256 75.384C70.2843 75.8427 70.0016 76.392 69.7776 77.032C69.5536 77.672 69.4416 78.3813 69.4416 79.16C69.4416 79.8213 69.5536 80.3067 69.7776 80.616C69.2123 81.1387 68.6256 81.4 68.0176 81.4ZM88.0474 81.4C87.0447 81.4 86.2447 81.32 85.6474 81.16C85.0607 81.0107 84.6394 80.8027 84.3834 80.536C84.1274 80.2693 83.9994 79.976 83.9994 79.656C83.9994 79.4107 84.0634 79.128 84.1914 78.808C84.33 78.488 84.5274 78.184 84.7834 77.896C84.9647 78.1413 85.2047 78.3707 85.5034 78.584C85.8127 78.7867 86.1487 78.952 86.5114 79.08C86.874 79.1973 87.226 79.256 87.5674 79.256C87.9407 79.256 88.2767 79.1707 88.5754 79C88.874 78.8187 89.0714 78.5147 89.1674 78.088C87.5247 77.896 86.346 77.5333 85.6314 77C84.9167 76.456 84.5594 75.704 84.5594 74.744C84.5594 74.136 84.7034 73.6187 84.9914 73.192C85.2794 72.7653 85.6634 72.424 86.1434 72.168C86.634 71.9013 87.1887 71.7093 87.8074 71.592C88.4367 71.464 89.0874 71.4 89.7594 71.4C90.3887 71.4 90.9487 71.4853 91.4394 71.656C91.93 71.816 92.314 72.0347 92.5914 72.312C92.8687 72.5893 93.0074 72.9093 93.0074 73.272C93.0074 73.784 92.8207 74.1733 92.4474 74.44C92.0847 74.7067 91.6687 74.84 91.1994 74.84C90.8794 74.84 90.5434 74.7333 90.1914 74.52C89.8394 74.3067 89.5567 73.976 89.3434 73.528C88.9487 73.6453 88.634 73.816 88.3994 74.04C88.1647 74.2533 87.9567 74.5627 87.7754 74.968C88.9914 75.1493 89.9567 75.3787 90.6714 75.656C91.386 75.9333 91.898 76.2853 92.2074 76.712C92.5274 77.128 92.6874 77.6453 92.6874 78.264C92.6874 78.7547 92.5754 79.1813 92.3514 79.544C92.138 79.9067 91.8554 80.2053 91.5034 80.44C91.1514 80.6747 90.7674 80.8613 90.3514 81C89.9354 81.1493 89.5247 81.2507 89.1194 81.304C88.714 81.368 88.3567 81.4 88.0474 81.4ZM97.3686 81.4C97.0166 81.4 96.67 81.3467 96.3286 81.24C95.998 81.1333 95.7206 80.9467 95.4966 80.68C95.2833 80.4133 95.1766 80.0453 95.1766 79.576C95.1766 79.576 95.1766 79.4533 95.1766 79.208C95.1873 78.9627 95.1926 78.648 95.1926 78.264C95.2033 77.88 95.2086 77.4747 95.2086 77.048C95.2086 76.6107 95.2086 76.1947 95.2086 75.8C95.2193 75.4053 95.2246 75.0853 95.2246 74.84C95.2246 74.1147 95.1393 73.5387 94.9686 73.112C94.8086 72.6747 94.606 72.3333 94.3606 72.088C94.9153 71.6293 95.5233 71.4 96.1846 71.4C96.782 71.4 97.2353 71.576 97.5446 71.928C97.854 72.2693 98.062 72.7387 98.1686 73.336C98.286 73.9333 98.3446 74.6 98.3446 75.336C98.3446 75.7307 98.3393 76.1787 98.3286 76.68C98.3286 77.1707 98.3233 77.6613 98.3126 78.152C98.302 78.632 98.286 79.064 98.2646 79.448H98.8086C99.182 78.7973 99.5126 78.1787 99.8006 77.592C100.089 77.0053 100.291 76.4293 100.409 75.864C100.409 75.5013 100.371 75.096 100.297 74.648C100.233 74.2 100.147 73.7787 100.041 73.384C99.934 72.9787 99.822 72.68 99.7046 72.488C99.8646 72.2747 100.11 72.104 100.441 71.976C100.771 71.848 101.113 71.784 101.465 71.784C101.742 71.784 102.009 71.832 102.265 71.928C102.531 72.024 102.75 72.1787 102.921 72.392C103.102 72.6053 103.193 72.888 103.193 73.24C103.193 73.5707 103.123 73.9227 102.985 74.296C102.846 74.6587 102.691 75.096 102.521 75.608L102.457 79.448H103.001C103.246 78.9787 103.507 78.4453 103.785 77.848C104.062 77.24 104.323 76.6213 104.569 75.992C104.825 75.3627 105.033 74.7707 105.193 74.216C105.353 73.6507 105.433 73.1813 105.433 72.808C105.433 72.6587 105.417 72.5253 105.385 72.408C105.363 72.2907 105.331 72.184 105.289 72.088C105.662 71.8533 106.03 71.6827 106.393 71.576C106.755 71.4587 107.086 71.4 107.385 71.4C107.854 71.4 108.19 71.5387 108.393 71.816C108.595 72.0933 108.697 72.456 108.697 72.904C108.697 73.288 108.611 73.7467 108.441 74.28C108.281 74.8133 108.078 75.3733 107.833 75.96C107.587 76.536 107.342 77.0907 107.097 77.624C106.851 78.1467 106.654 78.5947 106.505 78.968L106.729 79.896C106.569 80.024 106.334 80.1733 106.025 80.344C105.715 80.5147 105.363 80.68 104.969 80.84C104.585 81 104.179 81.1333 103.753 81.24C103.337 81.3467 102.937 81.4 102.553 81.4C102.083 81.4 101.662 81.2933 101.289 81.08C100.926 80.8667 100.681 80.488 100.553 79.944C100.083 80.4027 99.5926 80.76 99.0806 81.016C98.5793 81.272 98.0086 81.4 97.3686 81.4ZM115.011 82.648C114.787 82.648 114.552 82.6107 114.307 82.536C114.072 82.472 113.827 82.3387 113.571 82.136C113.837 81.8907 114.083 81.496 114.307 80.952C114.531 80.3973 114.733 79.8 114.915 79.16C115.299 77.816 115.64 76.5093 115.939 75.24C116.248 73.9707 116.525 72.7973 116.771 71.72C117.027 70.632 117.251 69.704 117.443 68.936C117.517 68.6373 117.651 68.392 117.843 68.2C118.035 68.008 118.323 67.912 118.707 67.912C119.069 67.912 119.405 67.9813 119.715 68.12C120.024 68.248 120.307 68.4293 120.563 68.664C120.381 68.9413 120.2 69.272 120.019 69.656C119.848 70.04 119.693 70.4293 119.555 70.824C119.416 71.208 119.304 71.5547 119.219 71.864C118.984 72.6853 118.771 73.4587 118.579 74.184C118.387 74.9093 118.2 75.624 118.019 76.328C117.837 77.0213 117.645 77.7413 117.443 78.488C117.251 79.2347 117.032 80.0453 116.787 80.92C116.637 81.464 116.419 81.8853 116.131 82.184C115.853 82.4933 115.48 82.648 115.011 82.648ZM120.035 82.648C119.811 82.648 119.576 82.6107 119.331 82.536C119.096 82.472 118.851 82.3387 118.595 82.136C118.861 81.8907 119.107 81.496 119.331 80.952C119.555 80.3973 119.757 79.8 119.939 79.16C120.323 77.816 120.664 76.5093 120.963 75.24C121.272 73.9707 121.549 72.7973 121.795 71.72C122.051 70.632 122.275 69.704 122.467 68.936C122.541 68.6373 122.675 68.392 122.867 68.2C123.059 68.008 123.347 67.912 123.731 67.912C124.093 67.912 124.429 67.9813 124.739 68.12C125.048 68.248 125.331 68.4293 125.587 68.664C125.405 68.9413 125.224 69.272 125.043 69.656C124.872 70.04 124.717 70.4293 124.579 70.824C124.44 71.208 124.328 71.5547 124.243 71.864C124.008 72.6853 123.795 73.4587 123.603 74.184C123.411 74.9093 123.224 75.624 123.043 76.328C122.861 77.0213 122.669 77.7413 122.467 78.488C122.275 79.2347 122.056 80.0453 121.811 80.92C121.661 81.464 121.443 81.8853 121.155 82.184C120.877 82.4933 120.504 82.648 120.035 82.648ZM115.523 73.928C115.331 73.928 115.165 73.864 115.027 73.736C114.888 73.5973 114.819 73.352 114.819 73C114.819 72.6587 114.867 72.3227 114.963 71.992C115.059 71.6613 115.192 71.368 115.363 71.112C115.672 71.2293 116.019 71.3093 116.403 71.352C116.797 71.3947 117.144 71.416 117.443 71.416C117.997 71.416 118.563 71.4107 119.139 71.4C119.725 71.3893 120.312 71.3787 120.899 71.368C122.115 71.336 123.336 71.32 124.563 71.32C124.989 71.32 125.32 71.4107 125.555 71.592C125.789 71.7733 125.907 72.088 125.907 72.536C125.907 72.7387 125.885 72.952 125.843 73.176C125.8 73.4 125.715 73.6187 125.587 73.832C125.363 73.736 125.08 73.6667 124.739 73.624C124.397 73.5707 124.024 73.544 123.619 73.544C122.84 73.544 121.997 73.5707 121.091 73.624C120.184 73.6667 119.325 73.7147 118.515 73.768C117.896 73.8107 117.325 73.848 116.803 73.88C116.291 73.912 115.864 73.928 115.523 73.928ZM114.307 78.76C114.115 78.76 113.949 78.696 113.811 78.568C113.672 78.4293 113.603 78.184 113.603 77.832C113.603 77.4907 113.651 77.1547 113.747 76.824C113.843 76.4933 113.976 76.2 114.147 75.944C114.456 76.0613 114.803 76.1413 115.187 76.184C115.581 76.2267 115.928 76.248 116.227 76.248C116.781 76.248 117.347 76.2427 117.923 76.232C118.509 76.2213 119.096 76.2107 119.683 76.2C120.899 76.168 122.12 76.152 123.347 76.152C123.773 76.152 124.104 76.2427 124.339 76.424C124.573 76.6053 124.691 76.92 124.691 77.368C124.691 77.5707 124.669 77.784 124.627 78.008C124.584 78.232 124.499 78.4507 124.371 78.664C124.147 78.568 123.864 78.4987 123.523 78.456C123.181 78.4027 122.808 78.376 122.403 78.376C121.624 78.376 120.781 78.4027 119.875 78.456C118.968 78.4987 118.109 78.5467 117.299 78.6C116.68 78.6427 116.109 78.68 115.587 78.712C115.075 78.744 114.648 78.76 114.307 78.76ZM130.489 81.4C129.764 81.4 129.252 81.144 128.953 80.632C128.654 80.12 128.505 79.4693 128.505 78.68C128.505 78.168 128.564 77.5867 128.681 76.936C128.798 76.2747 128.964 75.4053 129.177 74.328C128.74 74.328 128.318 74.248 127.913 74.088C127.518 73.9173 127.182 73.6507 126.905 73.288C126.628 72.9253 126.452 72.44 126.377 71.832C127.156 71.6827 127.822 71.496 128.377 71.272C128.942 71.0373 129.438 70.808 129.865 70.584C130.302 70.36 130.702 70.1733 131.065 70.024C131.428 69.8747 131.801 69.8 132.185 69.8C132.633 69.8 132.932 69.928 133.081 70.184C133.241 70.44 133.321 70.7387 133.321 71.08C133.321 71.5173 133.257 72.056 133.129 72.696C133.001 73.3253 132.857 74.0027 132.697 74.728C132.537 75.4533 132.393 76.1733 132.265 76.888C132.137 77.6027 132.073 78.264 132.073 78.872C132.073 79.64 132.228 80.2853 132.537 80.808C131.822 81.2027 131.14 81.4 130.489 81.4Z" fill="white"/>
</svg>
