<svg width="200" height="150" viewBox="0 0 200 150" fill="none" xmlns="http://www.w3.org/2000/svg">
<rect width="200" height="150" fill="#264DB1"/>
<path d="M66.8536 81.4C66.1816 81.4 65.7016 81.2293 65.4136 80.888C65.1256 80.5467 64.9816 80.056 64.9816 79.416C64.9816 79.192 65.0136 78.8507 65.0776 78.392C65.1416 77.9227 65.2216 77.4053 65.3176 76.84C65.4242 76.264 65.5362 75.688 65.6536 75.112C65.7709 74.536 65.8829 74.024 65.9896 73.576L65.1576 72.296C65.5949 72.0507 66.0642 71.8427 66.5656 71.672C67.0776 71.4907 67.5949 71.4 68.1176 71.4C68.5656 71.4 68.8962 71.512 69.1096 71.736C69.3229 71.9493 69.4296 72.2427 69.4296 72.616C69.4296 72.8933 69.3922 73.1813 69.3176 73.48C69.2429 73.7787 69.1576 74.0347 69.0616 74.248L69.2216 74.328C69.8509 73.2507 70.5122 72.4933 71.2056 72.056C71.8989 71.6187 72.6349 71.4 73.4136 71.4C73.9789 71.4 74.4429 71.544 74.8056 71.832C75.1682 72.1093 75.3496 72.5627 75.3496 73.192C75.3496 73.512 75.2962 73.864 75.1896 74.248L75.3496 74.328C75.9789 73.2507 76.6402 72.4933 77.3336 72.056C78.0269 71.6187 78.7629 71.4 79.5416 71.4C80.1922 71.4 80.6776 71.56 80.9976 71.88C81.3176 72.1893 81.4776 72.6747 81.4776 73.336C81.4776 73.912 81.3976 74.5253 81.2376 75.176C81.0882 75.816 80.9336 76.4773 80.7736 77.16C80.6136 77.832 80.5336 78.4987 80.5336 79.16C80.5336 79.8213 80.6456 80.3067 80.8696 80.616C80.3042 81.1387 79.7176 81.4 79.1096 81.4C78.4376 81.4 77.9576 81.2293 77.6696 80.888C77.3816 80.5467 77.2376 80.056 77.2376 79.416C77.2376 79.064 77.2856 78.6747 77.3816 78.248C77.4776 77.8107 77.5896 77.368 77.7176 76.92C77.8456 76.472 77.9576 76.0507 78.0536 75.656C78.1496 75.2613 78.1976 74.92 78.1976 74.632C78.1976 74.408 78.1549 74.232 78.0696 74.104C77.9949 73.976 77.8562 73.912 77.6536 73.912C77.3656 73.912 77.0349 74.04 76.6616 74.296C76.2989 74.552 75.9416 74.9147 75.5896 75.384C75.2482 75.8427 74.9656 76.392 74.7416 77.032C74.5176 77.672 74.4056 78.3813 74.4056 79.16C74.4056 79.8213 74.5176 80.3067 74.7416 80.616C74.1762 81.1387 73.5896 81.4 72.9816 81.4C72.3096 81.4 71.8296 81.2293 71.5416 80.888C71.2536 80.5467 71.1096 80.056 71.1096 79.416C71.1096 79.064 71.1576 78.6747 71.2536 78.248C71.3496 77.8107 71.4616 77.368 71.5896 76.92C71.7176 76.472 71.8296 76.0507 71.9256 75.656C72.0216 75.2613 72.0696 74.92 72.0696 74.632C72.0696 74.408 72.0269 74.232 71.9416 74.104C71.8669 73.976 71.7282 73.912 71.5256 73.912C71.2376 73.912 70.9069 74.04 70.5336 74.296C70.1709 74.552 69.8136 74.9147 69.4616 75.384C69.1202 75.8427 68.8376 76.392 68.6136 77.032C68.3896 77.672 68.2776 78.3813 68.2776 79.16C68.2776 79.8213 68.3896 80.3067 68.6136 80.616C68.0482 81.1387 67.4616 81.4 66.8536 81.4ZM86.8833 81.4C85.8806 81.4 85.0806 81.32 84.4833 81.16C83.8966 81.0107 83.4753 80.8027 83.2193 80.536C82.9633 80.2693 82.8353 79.976 82.8353 79.656C82.8353 79.4107 82.8993 79.128 83.0273 78.808C83.166 78.488 83.3633 78.184 83.6193 77.896C83.8006 78.1413 84.0406 78.3707 84.3393 78.584C84.6486 78.7867 84.9846 78.952 85.3473 79.08C85.71 79.1973 86.062 79.256 86.4033 79.256C86.7766 79.256 87.1126 79.1707 87.4113 79C87.71 78.8187 87.9073 78.5147 88.0033 78.088C86.3606 77.896 85.182 77.5333 84.4673 77C83.7526 76.456 83.3953 75.704 83.3953 74.744C83.3953 74.136 83.5393 73.6187 83.8273 73.192C84.1153 72.7653 84.4993 72.424 84.9793 72.168C85.47 71.9013 86.0246 71.7093 86.6433 71.592C87.2726 71.464 87.9233 71.4 88.5953 71.4C89.2246 71.4 89.7846 71.4853 90.2753 71.656C90.766 71.816 91.15 72.0347 91.4273 72.312C91.7046 72.5893 91.8433 72.9093 91.8433 73.272C91.8433 73.784 91.6566 74.1733 91.2833 74.44C90.9206 74.7067 90.5046 74.84 90.0353 74.84C89.7153 74.84 89.3793 74.7333 89.0273 74.52C88.6753 74.3067 88.3926 73.976 88.1793 73.528C87.7846 73.6453 87.47 73.816 87.2353 74.04C87.0006 74.2533 86.7926 74.5627 86.6113 74.968C87.8273 75.1493 88.7926 75.3787 89.5073 75.656C90.222 75.9333 90.734 76.2853 91.0433 76.712C91.3633 77.128 91.5233 77.6453 91.5233 78.264C91.5233 78.7547 91.4113 79.1813 91.1873 79.544C90.974 79.9067 90.6913 80.2053 90.3393 80.44C89.9873 80.6747 89.6033 80.8613 89.1873 81C88.7713 81.1493 88.3606 81.2507 87.9553 81.304C87.55 81.368 87.1926 81.4 86.8833 81.4ZM96.2046 81.4C95.8526 81.4 95.5059 81.3467 95.1646 81.24C94.8339 81.1333 94.5566 80.9467 94.3326 80.68C94.1192 80.4133 94.0126 80.0453 94.0126 79.576C94.0126 79.576 94.0126 79.4533 94.0126 79.208C94.0232 78.9627 94.0286 78.648 94.0286 78.264C94.0392 77.88 94.0446 77.4747 94.0446 77.048C94.0446 76.6107 94.0446 76.1947 94.0446 75.8C94.0552 75.4053 94.0606 75.0853 94.0606 74.84C94.0606 74.1147 93.9752 73.5387 93.8046 73.112C93.6446 72.6747 93.4419 72.3333 93.1966 72.088C93.7512 71.6293 94.3592 71.4 95.0206 71.4C95.6179 71.4 96.0712 71.576 96.3806 71.928C96.6899 72.2693 96.8979 72.7387 97.0046 73.336C97.1219 73.9333 97.1806 74.6 97.1806 75.336C97.1806 75.7307 97.1752 76.1787 97.1646 76.68C97.1646 77.1707 97.1592 77.6613 97.1486 78.152C97.1379 78.632 97.1219 79.064 97.1006 79.448H97.6446C98.0179 78.7973 98.3486 78.1787 98.6366 77.592C98.9246 77.0053 99.1272 76.4293 99.2446 75.864C99.2446 75.5013 99.2072 75.096 99.1326 74.648C99.0686 74.2 98.9832 73.7787 98.8766 73.384C98.7699 72.9787 98.6579 72.68 98.5406 72.488C98.7006 72.2747 98.9459 72.104 99.2766 71.976C99.6072 71.848 99.9486 71.784 100.301 71.784C100.578 71.784 100.845 71.832 101.101 71.928C101.367 72.024 101.586 72.1787 101.757 72.392C101.938 72.6053 102.029 72.888 102.029 73.24C102.029 73.5707 101.959 73.9227 101.821 74.296C101.682 74.6587 101.527 75.096 101.357 75.608L101.293 79.448H101.837C102.082 78.9787 102.343 78.4453 102.621 77.848C102.898 77.24 103.159 76.6213 103.405 75.992C103.661 75.3627 103.869 74.7707 104.029 74.216C104.189 73.6507 104.269 73.1813 104.269 72.808C104.269 72.6587 104.253 72.5253 104.221 72.408C104.199 72.2907 104.167 72.184 104.125 72.088C104.498 71.8533 104.866 71.6827 105.229 71.576C105.591 71.4587 105.922 71.4 106.221 71.4C106.69 71.4 107.026 71.5387 107.229 71.816C107.431 72.0933 107.533 72.456 107.533 72.904C107.533 73.288 107.447 73.7467 107.277 74.28C107.117 74.8133 106.914 75.3733 106.669 75.96C106.423 76.536 106.178 77.0907 105.933 77.624C105.687 78.1467 105.49 78.5947 105.341 78.968L105.565 79.896C105.405 80.024 105.17 80.1733 104.861 80.344C104.551 80.5147 104.199 80.68 103.805 80.84C103.421 81 103.015 81.1333 102.589 81.24C102.173 81.3467 101.773 81.4 101.389 81.4C100.919 81.4 100.498 81.2933 100.125 81.08C99.7619 80.8667 99.5166 80.488 99.3886 79.944C98.9192 80.4027 98.4286 80.76 97.9166 81.016C97.4152 81.272 96.8446 81.4 96.2046 81.4ZM113.847 82.648C113.623 82.648 113.388 82.6107 113.143 82.536C112.908 82.472 112.663 82.3387 112.407 82.136C112.673 81.8907 112.919 81.496 113.143 80.952C113.367 80.3973 113.569 79.8 113.751 79.16C114.135 77.816 114.476 76.5093 114.775 75.24C115.084 73.9707 115.361 72.7973 115.607 71.72C115.863 70.632 116.087 69.704 116.279 68.936C116.353 68.6373 116.487 68.392 116.679 68.2C116.871 68.008 117.159 67.912 117.543 67.912C117.905 67.912 118.241 67.9813 118.551 68.12C118.86 68.248 119.143 68.4293 119.399 68.664C119.217 68.9413 119.036 69.272 118.855 69.656C118.684 70.04 118.529 70.4293 118.391 70.824C118.252 71.208 118.14 71.5547 118.055 71.864C117.82 72.6853 117.607 73.4587 117.415 74.184C117.223 74.9093 117.036 75.624 116.855 76.328C116.673 77.0213 116.481 77.7413 116.279 78.488C116.087 79.2347 115.868 80.0453 115.623 80.92C115.473 81.464 115.255 81.8853 114.967 82.184C114.689 82.4933 114.316 82.648 113.847 82.648ZM118.871 82.648C118.647 82.648 118.412 82.6107 118.167 82.536C117.932 82.472 117.687 82.3387 117.431 82.136C117.697 81.8907 117.943 81.496 118.167 80.952C118.391 80.3973 118.593 79.8 118.775 79.16C119.159 77.816 119.5 76.5093 119.799 75.24C120.108 73.9707 120.385 72.7973 120.631 71.72C120.887 70.632 121.111 69.704 121.303 68.936C121.377 68.6373 121.511 68.392 121.703 68.2C121.895 68.008 122.183 67.912 122.567 67.912C122.929 67.912 123.265 67.9813 123.575 68.12C123.884 68.248 124.167 68.4293 124.423 68.664C124.241 68.9413 124.06 69.272 123.879 69.656C123.708 70.04 123.553 70.4293 123.415 70.824C123.276 71.208 123.164 71.5547 123.079 71.864C122.844 72.6853 122.631 73.4587 122.439 74.184C122.247 74.9093 122.06 75.624 121.879 76.328C121.697 77.0213 121.505 77.7413 121.303 78.488C121.111 79.2347 120.892 80.0453 120.647 80.92C120.497 81.464 120.279 81.8853 119.991 82.184C119.713 82.4933 119.34 82.648 118.871 82.648ZM114.359 73.928C114.167 73.928 114.001 73.864 113.863 73.736C113.724 73.5973 113.655 73.352 113.655 73C113.655 72.6587 113.703 72.3227 113.799 71.992C113.895 71.6613 114.028 71.368 114.199 71.112C114.508 71.2293 114.855 71.3093 115.239 71.352C115.633 71.3947 115.98 71.416 116.279 71.416C116.833 71.416 117.399 71.4107 117.975 71.4C118.561 71.3893 119.148 71.3787 119.735 71.368C120.951 71.336 122.172 71.32 123.399 71.32C123.825 71.32 124.156 71.4107 124.391 71.592C124.625 71.7733 124.743 72.088 124.743 72.536C124.743 72.7387 124.721 72.952 124.679 73.176C124.636 73.4 124.551 73.6187 124.423 73.832C124.199 73.736 123.916 73.6667 123.575 73.624C123.233 73.5707 122.86 73.544 122.455 73.544C121.676 73.544 120.833 73.5707 119.927 73.624C119.02 73.6667 118.161 73.7147 117.351 73.768C116.732 73.8107 116.161 73.848 115.639 73.88C115.127 73.912 114.7 73.928 114.359 73.928ZM113.143 78.76C112.951 78.76 112.785 78.696 112.647 78.568C112.508 78.4293 112.439 78.184 112.439 77.832C112.439 77.4907 112.487 77.1547 112.583 76.824C112.679 76.4933 112.812 76.2 112.983 75.944C113.292 76.0613 113.639 76.1413 114.023 76.184C114.417 76.2267 114.764 76.248 115.063 76.248C115.617 76.248 116.183 76.2427 116.759 76.232C117.345 76.2213 117.932 76.2107 118.519 76.2C119.735 76.168 120.956 76.152 122.183 76.152C122.609 76.152 122.94 76.2427 123.175 76.424C123.409 76.6053 123.527 76.92 123.527 77.368C123.527 77.5707 123.505 77.784 123.463 78.008C123.42 78.232 123.335 78.4507 123.207 78.664C122.983 78.568 122.7 78.4987 122.359 78.456C122.017 78.4027 121.644 78.376 121.239 78.376C120.46 78.376 119.617 78.4027 118.711 78.456C117.804 78.4987 116.945 78.5467 116.135 78.6C115.516 78.6427 114.945 78.68 114.423 78.712C113.911 78.744 113.484 78.76 113.143 78.76ZM132.365 81.4C131.693 81.4 131.048 81.3147 130.429 81.144C129.81 80.9733 129.122 80.7547 128.365 80.488C127.981 80.7867 127.608 80.9947 127.245 81.112C126.882 81.24 126.568 81.304 126.301 81.304C125.757 81.304 125.346 81.1227 125.069 80.76C124.792 80.3867 124.653 79.96 124.653 79.48C124.653 79.1067 124.749 78.744 124.941 78.392C125.144 78.0293 125.437 77.7307 125.821 77.496C126.205 77.2613 126.674 77.144 127.229 77.144C127.378 77.144 127.517 77.1547 127.645 77.176C127.773 77.1867 127.874 77.2027 127.949 77.224C128.792 76.5093 129.453 75.864 129.933 75.288C130.413 74.7013 130.653 74.1573 130.653 73.656C130.653 73.2933 130.536 73 130.301 72.776C130.077 72.552 129.773 72.44 129.389 72.44C129.197 72.44 128.984 72.4773 128.749 72.552C128.525 72.6267 128.296 72.7973 128.061 73.064C127.826 73.3307 127.608 73.752 127.405 74.328C126.914 74.2747 126.546 74.104 126.301 73.816C126.066 73.528 125.949 73.1867 125.949 72.792C125.949 72.3227 126.098 71.8587 126.397 71.4C126.706 70.9413 127.202 70.5627 127.885 70.264C128.578 69.9547 129.496 69.8 130.637 69.8C131.341 69.8 131.938 69.896 132.429 70.088C132.92 70.2693 133.32 70.5093 133.629 70.808C133.938 71.1067 134.162 71.4373 134.301 71.8C134.44 72.152 134.509 72.4987 134.509 72.84C134.509 73.3947 134.338 73.96 133.997 74.536C133.656 75.112 133.197 75.688 132.621 76.264C132.056 76.8293 131.421 77.3893 130.717 77.944C131.154 78.0187 131.549 78.0773 131.901 78.12C132.253 78.152 132.578 78.168 132.877 78.168L134.749 77.448C134.802 77.6507 134.845 77.8747 134.877 78.12C134.909 78.3547 134.925 78.5787 134.925 78.792C134.925 79.4 134.808 79.896 134.573 80.28C134.338 80.664 134.029 80.9467 133.645 81.128C133.261 81.3093 132.834 81.4 132.365 81.4Z" fill="white"/>
</svg>
