<svg width="200" height="150" viewBox="0 0 200 150" fill="none" xmlns="http://www.w3.org/2000/svg">
<rect width="200" height="150" fill="#264DB1"/>
<path d="M67.3458 81.4C66.6738 81.4 66.1938 81.2293 65.9058 80.888C65.6178 80.5467 65.4738 80.056 65.4738 79.416C65.4738 79.192 65.5058 78.8507 65.5698 78.392C65.6338 77.9227 65.7138 77.4053 65.8098 76.84C65.9164 76.264 66.0284 75.688 66.1458 75.112C66.2631 74.536 66.3751 74.024 66.4818 73.576L65.6497 72.296C66.0871 72.0507 66.5564 71.8427 67.0578 71.672C67.5698 71.4907 68.0871 71.4 68.6098 71.4C69.0578 71.4 69.3884 71.512 69.6018 71.736C69.8151 71.9493 69.9218 72.2427 69.9218 72.616C69.9218 72.8933 69.8844 73.1813 69.8098 73.48C69.7351 73.7787 69.6498 74.0347 69.5538 74.248L69.7138 74.328C70.3431 73.2507 71.0044 72.4933 71.6978 72.056C72.3911 71.6187 73.1271 71.4 73.9058 71.4C74.4711 71.4 74.9351 71.544 75.2978 71.832C75.6604 72.1093 75.8418 72.5627 75.8418 73.192C75.8418 73.512 75.7884 73.864 75.6818 74.248L75.8418 74.328C76.4711 73.2507 77.1324 72.4933 77.8258 72.056C78.5191 71.6187 79.2551 71.4 80.0338 71.4C80.6844 71.4 81.1698 71.56 81.4897 71.88C81.8098 72.1893 81.9698 72.6747 81.9698 73.336C81.9698 73.912 81.8898 74.5253 81.7298 75.176C81.5804 75.816 81.4258 76.4773 81.2658 77.16C81.1058 77.832 81.0258 78.4987 81.0258 79.16C81.0258 79.8213 81.1378 80.3067 81.3618 80.616C80.7964 81.1387 80.2098 81.4 79.6018 81.4C78.9298 81.4 78.4498 81.2293 78.1618 80.888C77.8738 80.5467 77.7298 80.056 77.7298 79.416C77.7298 79.064 77.7778 78.6747 77.8738 78.248C77.9698 77.8107 78.0818 77.368 78.2098 76.92C78.3378 76.472 78.4498 76.0507 78.5458 75.656C78.6418 75.2613 78.6898 74.92 78.6898 74.632C78.6898 74.408 78.6471 74.232 78.5618 74.104C78.4871 73.976 78.3484 73.912 78.1458 73.912C77.8578 73.912 77.5271 74.04 77.1538 74.296C76.7911 74.552 76.4338 74.9147 76.0818 75.384C75.7404 75.8427 75.4578 76.392 75.2338 77.032C75.0098 77.672 74.8978 78.3813 74.8978 79.16C74.8978 79.8213 75.0098 80.3067 75.2338 80.616C74.6684 81.1387 74.0818 81.4 73.4738 81.4C72.8018 81.4 72.3218 81.2293 72.0338 80.888C71.7458 80.5467 71.6018 80.056 71.6018 79.416C71.6018 79.064 71.6498 78.6747 71.7458 78.248C71.8418 77.8107 71.9538 77.368 72.0818 76.92C72.2098 76.472 72.3218 76.0507 72.4178 75.656C72.5138 75.2613 72.5618 74.92 72.5618 74.632C72.5618 74.408 72.5191 74.232 72.4338 74.104C72.3591 73.976 72.2204 73.912 72.0178 73.912C71.7298 73.912 71.3991 74.04 71.0258 74.296C70.6631 74.552 70.3058 74.9147 69.9538 75.384C69.6124 75.8427 69.3298 76.392 69.1058 77.032C68.8818 77.672 68.7698 78.3813 68.7698 79.16C68.7698 79.8213 68.8818 80.3067 69.1058 80.616C68.5404 81.1387 67.9538 81.4 67.3458 81.4ZM87.3755 81.4C86.3728 81.4 85.5728 81.32 84.9755 81.16C84.3888 81.0107 83.9675 80.8027 83.7115 80.536C83.4555 80.2693 83.3275 79.976 83.3275 79.656C83.3275 79.4107 83.3915 79.128 83.5195 78.808C83.6582 78.488 83.8555 78.184 84.1115 77.896C84.2928 78.1413 84.5328 78.3707 84.8315 78.584C85.1408 78.7867 85.4768 78.952 85.8395 79.08C86.2022 79.1973 86.5542 79.256 86.8955 79.256C87.2688 79.256 87.6048 79.1707 87.9035 79C88.2022 78.8187 88.3995 78.5147 88.4955 78.088C86.8528 77.896 85.6742 77.5333 84.9595 77C84.2448 76.456 83.8875 75.704 83.8875 74.744C83.8875 74.136 84.0315 73.6187 84.3195 73.192C84.6075 72.7653 84.9915 72.424 85.4715 72.168C85.9622 71.9013 86.5168 71.7093 87.1355 71.592C87.7648 71.464 88.4155 71.4 89.0875 71.4C89.7168 71.4 90.2768 71.4853 90.7675 71.656C91.2582 71.816 91.6422 72.0347 91.9195 72.312C92.1968 72.5893 92.3355 72.9093 92.3355 73.272C92.3355 73.784 92.1488 74.1733 91.7755 74.44C91.4128 74.7067 90.9968 74.84 90.5275 74.84C90.2075 74.84 89.8715 74.7333 89.5195 74.52C89.1675 74.3067 88.8848 73.976 88.6715 73.528C88.2768 73.6453 87.9622 73.816 87.7275 74.04C87.4928 74.2533 87.2848 74.5627 87.1035 74.968C88.3195 75.1493 89.2848 75.3787 89.9995 75.656C90.7142 75.9333 91.2262 76.2853 91.5355 76.712C91.8555 77.128 92.0155 77.6453 92.0155 78.264C92.0155 78.7547 91.9035 79.1813 91.6795 79.544C91.4662 79.9067 91.1835 80.2053 90.8315 80.44C90.4795 80.6747 90.0955 80.8613 89.6795 81C89.2635 81.1493 88.8528 81.2507 88.4475 81.304C88.0422 81.368 87.6848 81.4 87.3755 81.4ZM96.6968 81.4C96.3448 81.4 95.9981 81.3467 95.6568 81.24C95.3261 81.1333 95.0488 80.9467 94.8248 80.68C94.6114 80.4133 94.5048 80.0453 94.5048 79.576C94.5048 79.576 94.5048 79.4533 94.5048 79.208C94.5154 78.9627 94.5208 78.648 94.5208 78.264C94.5314 77.88 94.5368 77.4747 94.5368 77.048C94.5368 76.6107 94.5368 76.1947 94.5368 75.8C94.5474 75.4053 94.5528 75.0853 94.5528 74.84C94.5528 74.1147 94.4674 73.5387 94.2968 73.112C94.1368 72.6747 93.9341 72.3333 93.6888 72.088C94.2434 71.6293 94.8514 71.4 95.5128 71.4C96.1101 71.4 96.5634 71.576 96.8728 71.928C97.1821 72.2693 97.3901 72.7387 97.4968 73.336C97.6141 73.9333 97.6727 74.6 97.6727 75.336C97.6727 75.7307 97.6674 76.1787 97.6568 76.68C97.6568 77.1707 97.6514 77.6613 97.6408 78.152C97.6301 78.632 97.6141 79.064 97.5928 79.448H98.1368C98.5101 78.7973 98.8408 78.1787 99.1288 77.592C99.4168 77.0053 99.6194 76.4293 99.7368 75.864C99.7368 75.5013 99.6994 75.096 99.6248 74.648C99.5608 74.2 99.4754 73.7787 99.3688 73.384C99.2621 72.9787 99.1501 72.68 99.0328 72.488C99.1928 72.2747 99.4381 72.104 99.7688 71.976C100.099 71.848 100.441 71.784 100.793 71.784C101.07 71.784 101.337 71.832 101.593 71.928C101.859 72.024 102.078 72.1787 102.249 72.392C102.43 72.6053 102.521 72.888 102.521 73.24C102.521 73.5707 102.451 73.9227 102.313 74.296C102.174 74.6587 102.019 75.096 101.849 75.608L101.785 79.448H102.329C102.574 78.9787 102.835 78.4453 103.113 77.848C103.39 77.24 103.651 76.6213 103.897 75.992C104.153 75.3627 104.361 74.7707 104.521 74.216C104.681 73.6507 104.761 73.1813 104.761 72.808C104.761 72.6587 104.745 72.5253 104.713 72.408C104.691 72.2907 104.659 72.184 104.617 72.088C104.99 71.8533 105.358 71.6827 105.721 71.576C106.083 71.4587 106.414 71.4 106.713 71.4C107.182 71.4 107.518 71.5387 107.721 71.816C107.923 72.0933 108.025 72.456 108.025 72.904C108.025 73.288 107.939 73.7467 107.769 74.28C107.609 74.8133 107.406 75.3733 107.161 75.96C106.915 76.536 106.67 77.0907 106.425 77.624C106.179 78.1467 105.982 78.5947 105.833 78.968L106.057 79.896C105.897 80.024 105.662 80.1733 105.353 80.344C105.043 80.5147 104.691 80.68 104.297 80.84C103.913 81 103.507 81.1333 103.081 81.24C102.665 81.3467 102.265 81.4 101.881 81.4C101.411 81.4 100.99 81.2933 100.617 81.08C100.254 80.8667 100.009 80.488 99.8808 79.944C99.4114 80.4027 98.9208 80.76 98.4088 81.016C97.9074 81.272 97.3368 81.4 96.6968 81.4ZM114.339 82.648C114.115 82.648 113.88 82.6107 113.635 82.536C113.4 82.472 113.155 82.3387 112.899 82.136C113.165 81.8907 113.411 81.496 113.635 80.952C113.859 80.3973 114.061 79.8 114.243 79.16C114.627 77.816 114.968 76.5093 115.267 75.24C115.576 73.9707 115.853 72.7973 116.099 71.72C116.355 70.632 116.579 69.704 116.771 68.936C116.845 68.6373 116.979 68.392 117.171 68.2C117.363 68.008 117.651 67.912 118.035 67.912C118.397 67.912 118.733 67.9813 119.043 68.12C119.352 68.248 119.635 68.4293 119.891 68.664C119.709 68.9413 119.528 69.272 119.347 69.656C119.176 70.04 119.021 70.4293 118.883 70.824C118.744 71.208 118.632 71.5547 118.547 71.864C118.312 72.6853 118.099 73.4587 117.907 74.184C117.715 74.9093 117.528 75.624 117.347 76.328C117.165 77.0213 116.973 77.7413 116.771 78.488C116.579 79.2347 116.36 80.0453 116.115 80.92C115.965 81.464 115.747 81.8853 115.459 82.184C115.181 82.4933 114.808 82.648 114.339 82.648ZM119.363 82.648C119.139 82.648 118.904 82.6107 118.659 82.536C118.424 82.472 118.179 82.3387 117.923 82.136C118.189 81.8907 118.435 81.496 118.659 80.952C118.883 80.3973 119.085 79.8 119.267 79.16C119.651 77.816 119.992 76.5093 120.291 75.24C120.6 73.9707 120.877 72.7973 121.123 71.72C121.379 70.632 121.603 69.704 121.795 68.936C121.869 68.6373 122.003 68.392 122.195 68.2C122.387 68.008 122.675 67.912 123.059 67.912C123.421 67.912 123.757 67.9813 124.067 68.12C124.376 68.248 124.659 68.4293 124.915 68.664C124.733 68.9413 124.552 69.272 124.371 69.656C124.2 70.04 124.045 70.4293 123.907 70.824C123.768 71.208 123.656 71.5547 123.571 71.864C123.336 72.6853 123.123 73.4587 122.931 74.184C122.739 74.9093 122.552 75.624 122.371 76.328C122.189 77.0213 121.997 77.7413 121.795 78.488C121.603 79.2347 121.384 80.0453 121.139 80.92C120.989 81.464 120.771 81.8853 120.483 82.184C120.205 82.4933 119.832 82.648 119.363 82.648ZM114.851 73.928C114.659 73.928 114.493 73.864 114.355 73.736C114.216 73.5973 114.147 73.352 114.147 73C114.147 72.6587 114.195 72.3227 114.291 71.992C114.387 71.6613 114.52 71.368 114.691 71.112C115 71.2293 115.347 71.3093 115.731 71.352C116.125 71.3947 116.472 71.416 116.771 71.416C117.325 71.416 117.891 71.4107 118.467 71.4C119.053 71.3893 119.64 71.3787 120.227 71.368C121.443 71.336 122.664 71.32 123.891 71.32C124.317 71.32 124.648 71.4107 124.883 71.592C125.117 71.7733 125.235 72.088 125.235 72.536C125.235 72.7387 125.213 72.952 125.171 73.176C125.128 73.4 125.043 73.6187 124.915 73.832C124.691 73.736 124.408 73.6667 124.067 73.624C123.725 73.5707 123.352 73.544 122.947 73.544C122.168 73.544 121.325 73.5707 120.419 73.624C119.512 73.6667 118.653 73.7147 117.843 73.768C117.224 73.8107 116.653 73.848 116.131 73.88C115.619 73.912 115.192 73.928 114.851 73.928ZM113.635 78.76C113.443 78.76 113.277 78.696 113.139 78.568C113 78.4293 112.931 78.184 112.931 77.832C112.931 77.4907 112.979 77.1547 113.075 76.824C113.171 76.4933 113.304 76.2 113.475 75.944C113.784 76.0613 114.131 76.1413 114.515 76.184C114.909 76.2267 115.256 76.248 115.555 76.248C116.109 76.248 116.675 76.2427 117.251 76.232C117.837 76.2213 118.424 76.2107 119.011 76.2C120.227 76.168 121.448 76.152 122.675 76.152C123.101 76.152 123.432 76.2427 123.667 76.424C123.901 76.6053 124.019 76.92 124.019 77.368C124.019 77.5707 123.997 77.784 123.955 78.008C123.912 78.232 123.827 78.4507 123.699 78.664C123.475 78.568 123.192 78.4987 122.851 78.456C122.509 78.4027 122.136 78.376 121.731 78.376C120.952 78.376 120.109 78.4027 119.203 78.456C118.296 78.4987 117.437 78.5467 116.627 78.6C116.008 78.6427 115.437 78.68 114.915 78.712C114.403 78.744 113.976 78.76 113.635 78.76ZM128.105 83.496C127.06 83.496 126.244 83.336 125.657 83.016C125.081 82.7067 124.793 82.2587 124.793 81.672C124.793 81.1707 124.98 80.7867 125.353 80.52C125.737 80.2427 126.164 80.104 126.633 80.104C126.985 80.104 127.358 80.216 127.753 80.44C128.158 80.6533 128.494 80.9947 128.761 81.464C129.081 81.3787 129.39 81.224 129.689 81C129.988 80.7653 130.233 80.488 130.425 80.168C130.617 79.848 130.713 79.5173 130.713 79.176C130.713 78.952 130.665 78.7333 130.569 78.52C130.484 78.296 130.334 78.0827 130.121 77.88C129.897 78.008 129.598 78.136 129.225 78.264C128.852 78.3813 128.484 78.44 128.121 78.44C127.769 78.44 127.465 78.3547 127.209 78.184C126.964 78.0133 126.841 77.704 126.841 77.256C126.841 76.84 127.028 76.472 127.401 76.152C127.785 75.832 128.398 75.672 129.241 75.672C129.348 75.672 129.454 75.672 129.561 75.672C129.678 75.672 129.796 75.6827 129.913 75.704C130.201 75.48 130.425 75.192 130.585 74.84C130.756 74.488 130.841 74.1413 130.841 73.8C130.841 73.4373 130.734 73.128 130.521 72.872C130.308 72.6053 129.966 72.472 129.497 72.472C129.348 72.472 129.15 72.5307 128.905 72.648C128.67 72.7547 128.436 72.9413 128.201 73.208C127.966 73.4747 127.78 73.8533 127.641 74.344C127.033 74.312 126.59 74.152 126.313 73.864C126.036 73.5653 125.897 73.208 125.897 72.792C125.897 72.3227 126.052 71.8587 126.361 71.4C126.67 70.9413 127.161 70.5627 127.833 70.264C128.516 69.9547 129.406 69.8 130.505 69.8C131.252 69.8 131.87 69.8907 132.361 70.072C132.852 70.2533 133.236 70.488 133.513 70.776C133.79 71.0533 133.982 71.3573 134.089 71.688C134.206 72.0187 134.265 72.3333 134.265 72.632C134.265 73.2933 134.084 73.944 133.721 74.584C133.369 75.224 132.868 75.8533 132.217 76.472C133.593 77.1227 134.281 78.0827 134.281 79.352C134.281 80.0773 134.03 80.7547 133.529 81.384C133.028 82.024 132.313 82.536 131.385 82.92C130.468 83.304 129.374 83.496 128.105 83.496Z" fill="white"/>
</svg>
