<svg width="200" height="150" viewBox="0 0 200 150" fill="none" xmlns="http://www.w3.org/2000/svg">
<rect width="200" height="150" fill="#264DB1"/>
<path d="M16.6343 81.4C16.2823 81.4 15.9356 81.3467 15.5943 81.24C15.2636 81.1333 14.9863 80.9467 14.7623 80.68C14.5489 80.4133 14.4423 80.0453 14.4423 79.576C14.4423 79.576 14.4423 79.4533 14.4423 79.208C14.4529 78.9627 14.4583 78.648 14.4583 78.264C14.4689 77.88 14.4743 77.4747 14.4743 77.048C14.4743 76.6107 14.4743 76.1947 14.4743 75.8C14.4849 75.4053 14.4903 75.0853 14.4903 74.84C14.4903 74.1147 14.4049 73.5387 14.2343 73.112C14.0743 72.6747 13.8716 72.3333 13.6263 72.088C14.1809 71.6293 14.7889 71.4 15.4503 71.4C16.0476 71.4 16.5009 71.576 16.8103 71.928C17.1196 72.2693 17.3276 72.7387 17.4343 73.336C17.5516 73.9333 17.6102 74.6 17.6102 75.336C17.6102 75.7307 17.6049 76.1787 17.5943 76.68C17.5943 77.1707 17.5889 77.6613 17.5783 78.152C17.5676 78.632 17.5516 79.064 17.5303 79.448H18.0743C18.4476 78.7973 18.7783 78.1787 19.0663 77.592C19.3543 77.0053 19.5569 76.4293 19.6743 75.864C19.6743 75.5013 19.6369 75.096 19.5623 74.648C19.4983 74.2 19.4129 73.7787 19.3063 73.384C19.1996 72.9787 19.0876 72.68 18.9703 72.488C19.1303 72.2747 19.3756 72.104 19.7063 71.976C20.0369 71.848 20.3783 71.784 20.7303 71.784C21.0076 71.784 21.2743 71.832 21.5303 71.928C21.7969 72.024 22.0156 72.1787 22.1863 72.392C22.3676 72.6053 22.4583 72.888 22.4583 73.24C22.4583 73.5707 22.3889 73.9227 22.2503 74.296C22.1116 74.6587 21.9569 75.096 21.7863 75.608L21.7222 79.448H22.2663C22.5116 78.9787 22.7729 78.4453 23.0503 77.848C23.3276 77.24 23.5889 76.6213 23.8343 75.992C24.0903 75.3627 24.2983 74.7707 24.4583 74.216C24.6183 73.6507 24.6983 73.1813 24.6983 72.808C24.6983 72.6587 24.6823 72.5253 24.6503 72.408C24.6289 72.2907 24.5969 72.184 24.5543 72.088C24.9276 71.8533 25.2956 71.6827 25.6583 71.576C26.0209 71.4587 26.3516 71.4 26.6503 71.4C27.1196 71.4 27.4556 71.5387 27.6583 71.816C27.8609 72.0933 27.9623 72.456 27.9623 72.904C27.9623 73.288 27.8769 73.7467 27.7063 74.28C27.5463 74.8133 27.3436 75.3733 27.0983 75.96C26.8529 76.536 26.6076 77.0907 26.3623 77.624C26.1169 78.1467 25.9196 78.5947 25.7703 78.968L25.9943 79.896C25.8343 80.024 25.5996 80.1733 25.2903 80.344C24.9809 80.5147 24.6289 80.68 24.2343 80.84C23.8503 81 23.4449 81.1333 23.0183 81.24C22.6023 81.3467 22.2023 81.4 21.8183 81.4C21.3489 81.4 20.9276 81.2933 20.5543 81.08C20.1916 80.8667 19.9463 80.488 19.8183 79.944C19.3489 80.4027 18.8583 80.76 18.3463 81.016C17.8449 81.272 17.2743 81.4 16.6343 81.4ZM33.6074 81.4C32.6687 81.4 31.858 81.224 31.1754 80.872C30.5034 80.5093 29.986 80.0133 29.6234 79.384C29.2607 78.7547 29.0794 78.024 29.0794 77.192C29.0794 76.04 29.33 75.032 29.8314 74.168C30.3434 73.2933 31.042 72.616 31.9274 72.136C32.8127 71.6453 33.8207 71.4 34.9514 71.4C35.1327 71.4 35.314 71.4107 35.4954 71.432C35.6874 71.4427 35.89 71.4747 36.1034 71.528C36.1567 71.6773 36.1994 71.8587 36.2314 72.072C36.2634 72.2747 36.2847 72.4933 36.2954 72.728C36.3914 72.696 36.4927 72.6693 36.5994 72.648C36.7167 72.6267 36.8394 72.616 36.9674 72.616C37.3407 72.616 37.6927 72.7173 38.0234 72.92C38.354 73.112 38.626 73.416 38.8394 73.832C39.0527 74.248 39.1594 74.776 39.1594 75.416C39.1594 76.3653 38.9994 77.2133 38.6794 77.96C38.37 78.696 37.9487 79.32 37.4154 79.832C36.882 80.344 36.2847 80.7333 35.6234 81C34.9727 81.2667 34.3007 81.4 33.6074 81.4ZM34.1034 79.432C34.3487 79.432 34.6047 79.3733 34.8714 79.256C35.138 79.1387 35.3994 78.9253 35.6554 78.616C35.9114 78.3067 36.1247 77.8693 36.2954 77.304C35.8367 77.016 35.506 76.664 35.3034 76.248C35.1007 75.8213 34.9994 75.352 34.9994 74.84C34.9994 74.6907 35.026 74.4987 35.0794 74.264C35.1327 74.0293 35.2234 73.7893 35.3514 73.544C35.49 73.2987 35.6767 73.096 35.9114 72.936C35.1754 73.0853 34.5727 73.3093 34.1034 73.608C33.634 73.9067 33.266 74.2533 32.9994 74.648C32.7434 75.032 32.562 75.432 32.4554 75.848C32.3594 76.2533 32.3114 76.6427 32.3114 77.016C32.3114 77.4427 32.3807 77.8427 32.5194 78.216C32.658 78.5787 32.8607 78.872 33.1274 79.096C33.394 79.32 33.7194 79.432 34.1034 79.432ZM45.0449 81.4C44.1062 81.4 43.2955 81.224 42.6129 80.872C41.9409 80.5093 41.4235 80.0133 41.0609 79.384C40.6982 78.7547 40.5169 78.024 40.5169 77.192C40.5169 76.04 40.7675 75.032 41.2689 74.168C41.7809 73.2933 42.4795 72.616 43.3649 72.136C44.2502 71.6453 45.2582 71.4 46.3889 71.4C46.5702 71.4 46.7515 71.4107 46.9329 71.432C47.1249 71.4427 47.3275 71.4747 47.5409 71.528C47.5942 71.6773 47.6369 71.8587 47.6689 72.072C47.7009 72.2747 47.7222 72.4933 47.7329 72.728C47.8289 72.696 47.9302 72.6693 48.0369 72.648C48.1542 72.6267 48.2769 72.616 48.4049 72.616C48.7782 72.616 49.1302 72.7173 49.4609 72.92C49.7915 73.112 50.0635 73.416 50.2769 73.832C50.4902 74.248 50.5969 74.776 50.5969 75.416C50.5969 76.3653 50.4369 77.2133 50.1169 77.96C49.8075 78.696 49.3862 79.32 48.8529 79.832C48.3195 80.344 47.7222 80.7333 47.0609 81C46.4102 81.2667 45.7382 81.4 45.0449 81.4ZM45.5409 79.432C45.7862 79.432 46.0422 79.3733 46.3089 79.256C46.5755 79.1387 46.8369 78.9253 47.0929 78.616C47.3489 78.3067 47.5622 77.8693 47.7329 77.304C47.2742 77.016 46.9435 76.664 46.7409 76.248C46.5382 75.8213 46.4369 75.352 46.4369 74.84C46.4369 74.6907 46.4635 74.4987 46.5169 74.264C46.5702 74.0293 46.6609 73.7893 46.7889 73.544C46.9275 73.2987 47.1142 73.096 47.3489 72.936C46.6129 73.0853 46.0102 73.3093 45.5409 73.608C45.0715 73.9067 44.7035 74.2533 44.4369 74.648C44.1809 75.032 43.9995 75.432 43.8929 75.848C43.7969 76.2533 43.7489 76.6427 43.7489 77.016C43.7489 77.4427 43.8182 77.8427 43.9569 78.216C44.0955 78.5787 44.2982 78.872 44.5649 79.096C44.8315 79.32 45.1569 79.432 45.5409 79.432ZM54.9624 81.4C54.6104 81.4 54.2637 81.3467 53.9224 81.24C53.5917 81.1333 53.3144 80.9467 53.0904 80.68C52.877 80.4133 52.7704 80.0453 52.7704 79.576C52.7704 79.576 52.7704 79.4533 52.7704 79.208C52.781 78.9627 52.7864 78.648 52.7864 78.264C52.797 77.88 52.8024 77.4747 52.8024 77.048C52.8024 76.6107 52.8024 76.1947 52.8024 75.8C52.813 75.4053 52.8184 75.0853 52.8184 74.84C52.8184 74.1147 52.733 73.5387 52.5624 73.112C52.4024 72.6747 52.1997 72.3333 51.9544 72.088C52.509 71.6293 53.117 71.4 53.7784 71.4C54.3757 71.4 54.829 71.576 55.1384 71.928C55.4477 72.2693 55.6557 72.7387 55.7624 73.336C55.8797 73.9333 55.9384 74.6 55.9384 75.336C55.9384 75.7307 55.933 76.1787 55.9224 76.68C55.9224 77.1707 55.917 77.6613 55.9064 78.152C55.8957 78.632 55.8797 79.064 55.8584 79.448H56.4024C56.7757 78.7973 57.1064 78.1787 57.3944 77.592C57.6824 77.0053 57.885 76.4293 58.0024 75.864C58.0024 75.5013 57.965 75.096 57.8904 74.648C57.8264 74.2 57.741 73.7787 57.6344 73.384C57.5277 72.9787 57.4157 72.68 57.2984 72.488C57.4584 72.2747 57.7037 72.104 58.0344 71.976C58.365 71.848 58.7064 71.784 59.0584 71.784C59.3357 71.784 59.6024 71.832 59.8584 71.928C60.125 72.024 60.3437 72.1787 60.5144 72.392C60.6957 72.6053 60.7864 72.888 60.7864 73.24C60.7864 73.5707 60.717 73.9227 60.5784 74.296C60.4397 74.6587 60.285 75.096 60.1144 75.608L60.0504 79.448H60.5944C60.8397 78.9787 61.101 78.4453 61.3784 77.848C61.6557 77.24 61.917 76.6213 62.1624 75.992C62.4184 75.3627 62.6264 74.7707 62.7864 74.216C62.9464 73.6507 63.0264 73.1813 63.0264 72.808C63.0264 72.6587 63.0104 72.5253 62.9784 72.408C62.957 72.2907 62.925 72.184 62.8824 72.088C63.2557 71.8533 63.6237 71.6827 63.9864 71.576C64.349 71.4587 64.6797 71.4 64.9784 71.4C65.4477 71.4 65.7837 71.5387 65.9864 71.816C66.189 72.0933 66.2904 72.456 66.2904 72.904C66.2904 73.288 66.205 73.7467 66.0344 74.28C65.8744 74.8133 65.6717 75.3733 65.4264 75.96C65.181 76.536 64.9357 77.0907 64.6904 77.624C64.445 78.1467 64.2477 78.5947 64.0984 78.968L64.3224 79.896C64.1624 80.024 63.9277 80.1733 63.6184 80.344C63.309 80.5147 62.957 80.68 62.5624 80.84C62.1784 81 61.773 81.1333 61.3464 81.24C60.9304 81.3467 60.5304 81.4 60.1464 81.4C59.677 81.4 59.2557 81.2933 58.8824 81.08C58.5197 80.8667 58.2744 80.488 58.1464 79.944C57.677 80.4027 57.1864 80.76 56.6744 81.016C56.173 81.272 55.6024 81.4 54.9624 81.4ZM70.3195 81.4C69.7222 81.4 69.1942 81.2453 68.7355 80.936C68.2875 80.6267 67.9408 80.1893 67.6955 79.624C67.4502 79.0587 67.3275 78.3973 67.3275 77.64C67.3275 76.7547 67.4822 75.9333 67.7915 75.176C68.1115 74.4187 68.5488 73.7573 69.1035 73.192C69.6688 72.6267 70.3302 72.1893 71.0875 71.88C71.8448 71.56 72.6662 71.4 73.5515 71.4C73.8075 71.4 74.0262 71.4107 74.2075 71.432C74.3995 71.4427 74.6022 71.4747 74.8155 71.528C74.8795 71.8267 74.9168 72.088 74.9275 72.312C75.1728 72.152 75.4448 72.0293 75.7435 71.944C76.0422 71.848 76.3195 71.8 76.5755 71.8C77.3542 71.8 77.7435 72.2213 77.7435 73.064C77.7435 73.3413 77.6902 73.72 77.5835 74.2C77.4875 74.6693 77.3702 75.192 77.2315 75.768C77.1035 76.3333 76.9862 76.9147 76.8795 77.512C76.7835 78.0987 76.7355 78.648 76.7355 79.16C76.7355 79.8533 76.9008 80.3387 77.2315 80.616C76.6342 81.1387 75.9995 81.4 75.3275 81.4C74.7088 81.4 74.2502 81.208 73.9515 80.824C73.6635 80.44 73.5195 79.8427 73.5195 79.032L73.3595 78.952C73.0715 79.72 72.6555 80.3227 72.1115 80.76C71.5782 81.1867 70.9808 81.4 70.3195 81.4ZM71.5835 78.488C71.9995 78.488 72.4048 78.3387 72.7995 78.04C73.1942 77.7413 73.5248 77.3307 73.7915 76.808C73.8342 76.392 73.8768 76.0027 73.9195 75.64C73.9728 75.2667 74.0368 74.872 74.1115 74.456C74.1968 74.04 74.2982 73.5493 74.4155 72.984C73.8715 72.984 73.3542 73.0907 72.8635 73.304C72.3835 73.5067 71.9515 73.7893 71.5675 74.152C71.1835 74.5147 70.8795 74.9307 70.6555 75.4C70.4422 75.8587 70.3355 76.344 70.3355 76.856C70.3355 77.3787 70.4422 77.784 70.6555 78.072C70.8795 78.3493 71.1888 78.488 71.5835 78.488ZM86.8976 81.4C86.215 81.4 85.7296 81.1973 85.4416 80.792C85.1536 80.3867 85.0096 79.768 85.0096 78.936C85.0096 78.7013 85.0363 78.3707 85.0896 77.944C85.143 77.5067 85.2123 77.0213 85.2976 76.488C85.3936 75.9547 85.4843 75.4267 85.5696 74.904C85.3456 74.9467 85.127 74.9947 84.9136 75.048C84.711 75.1013 84.519 75.16 84.3376 75.224C84.295 75.064 84.263 74.904 84.2416 74.744C84.231 74.584 84.2256 74.4667 84.2256 74.392C84.2256 73.8373 84.3856 73.4373 84.7056 73.192C85.0363 72.936 85.431 72.808 85.8896 72.808C85.8896 72.5627 85.8576 72.2907 85.7936 71.992C85.7296 71.6933 85.6176 71.3627 85.4576 71C85.9056 70.6693 86.3536 70.392 86.8016 70.168C87.2496 69.944 87.7456 69.832 88.2896 69.832C88.759 69.832 89.0843 69.9227 89.2656 70.104C89.447 70.2747 89.5376 70.5627 89.5376 70.968C89.5376 71.1707 89.5163 71.4107 89.4736 71.688C89.431 71.9653 89.3776 72.2693 89.3136 72.6C89.5483 72.568 89.7723 72.5307 89.9856 72.488C90.199 72.4347 90.407 72.3813 90.6096 72.328C90.6523 72.4453 90.679 72.568 90.6896 72.696C90.711 72.8133 90.7216 72.9307 90.7216 73.048C90.7216 73.4747 90.5883 73.848 90.3216 74.168C90.0656 74.4773 89.6656 74.632 89.1216 74.632H88.8816C88.7323 75.3147 88.599 76.0133 88.4816 76.728C88.3643 77.4427 88.3056 78.1093 88.3056 78.728C88.3056 79.144 88.343 79.5173 88.4176 79.848C88.503 80.168 88.631 80.424 88.8016 80.616C88.2043 81.1387 87.5696 81.4 86.8976 81.4ZM96.171 81.4C95.179 81.4 94.3417 81.224 93.659 80.872C92.9763 80.52 92.459 80.0293 92.107 79.4C91.7657 78.76 91.595 78.024 91.595 77.192C91.595 76.328 91.7497 75.544 92.059 74.84C92.379 74.1253 92.8217 73.512 93.387 73C93.9523 72.488 94.6083 72.0933 95.355 71.816C96.1123 71.5387 96.9283 71.4 97.803 71.4C98.8377 71.4 99.6003 71.6293 100.091 72.088C100.582 72.5467 100.827 73.1227 100.827 73.816C100.827 74.4133 100.63 74.9787 100.235 75.512C99.851 76.0347 99.227 76.4613 98.363 76.792C97.499 77.112 96.347 77.2773 94.907 77.288C94.939 77.9707 95.0937 78.5093 95.371 78.904C95.659 79.288 96.0163 79.48 96.443 79.48C96.6563 79.48 96.8803 79.432 97.115 79.336C97.3497 79.2293 97.547 79.048 97.707 78.792C97.867 78.5253 97.947 78.1627 97.947 77.704C98.6723 77.704 99.243 77.784 99.659 77.944C100.075 78.104 100.283 78.392 100.283 78.808C100.283 79.192 100.118 79.5867 99.787 79.992C99.4563 80.3867 98.9817 80.7227 98.363 81C97.755 81.2667 97.0243 81.4 96.171 81.4ZM95.051 76.008C95.8297 75.944 96.4537 75.8 96.923 75.576C97.3923 75.352 97.7337 75.096 97.947 74.808C98.1603 74.52 98.267 74.2533 98.267 74.008C98.267 73.7947 98.203 73.6187 98.075 73.48C97.947 73.3413 97.7657 73.272 97.531 73.272C97.147 73.272 96.7897 73.4053 96.459 73.672C96.1283 73.9387 95.8403 74.2853 95.595 74.712C95.3603 75.128 95.179 75.56 95.051 76.008ZM106.639 81.4C105.711 81.4 104.905 81.224 104.223 80.872C103.551 80.5093 103.028 80.0133 102.655 79.384C102.292 78.7547 102.111 78.024 102.111 77.192C102.111 76.328 102.265 75.544 102.575 74.84C102.884 74.1253 103.321 73.512 103.887 73C104.452 72.488 105.108 72.0933 105.855 71.816C106.612 71.5387 107.428 71.4 108.303 71.4C109.252 71.4 109.983 71.5813 110.495 71.944C111.017 72.296 111.279 72.7387 111.279 73.272C111.279 73.784 111.092 74.1733 110.719 74.44C110.356 74.7067 109.94 74.84 109.471 74.84C109.151 74.84 108.815 74.7333 108.463 74.52C108.111 74.3067 107.828 73.976 107.615 73.528C107.145 73.72 106.745 74.0187 106.415 74.424C106.095 74.8187 105.849 75.2613 105.679 75.752C105.519 76.232 105.439 76.7067 105.439 77.176C105.439 77.8053 105.572 78.3493 105.839 78.808C106.105 79.256 106.5 79.48 107.023 79.48C107.385 79.48 107.716 79.3413 108.015 79.064C108.313 78.776 108.463 78.3227 108.463 77.704C109.188 77.704 109.759 77.784 110.175 77.944C110.591 78.104 110.799 78.392 110.799 78.808C110.799 79.192 110.628 79.5867 110.287 79.992C109.945 80.3867 109.465 80.7227 108.847 81C108.228 81.2667 107.492 81.4 106.639 81.4ZM114.586 81.4C113.914 81.4 113.434 81.2293 113.146 80.888C112.858 80.5467 112.714 80.056 112.714 79.416C112.714 79.096 112.74 78.68 112.794 78.168C112.858 77.656 112.938 77.0907 113.034 76.472C113.13 75.8427 113.236 75.2027 113.354 74.552C113.471 73.8907 113.583 73.2613 113.69 72.664C113.796 72.056 113.892 71.5173 113.978 71.048L113.082 69.768C113.647 69.4373 114.186 69.16 114.698 68.936C115.21 68.712 115.722 68.6 116.234 68.6C116.682 68.6 116.991 68.6907 117.162 68.872C117.343 69.0427 117.434 69.3307 117.434 69.736C117.434 70.1733 117.407 70.6267 117.354 71.096C117.311 71.5547 117.252 71.9973 117.178 72.424C117.103 72.8507 117.028 73.224 116.954 73.544C116.89 73.864 116.836 74.0987 116.794 74.248L116.954 74.328C117.583 73.2507 118.271 72.4933 119.018 72.056C119.764 71.6187 120.527 71.4 121.306 71.4C121.956 71.4 122.442 71.56 122.762 71.88C123.082 72.1893 123.242 72.6747 123.242 73.336C123.242 73.912 123.162 74.5253 123.002 75.176C122.852 75.816 122.698 76.4773 122.538 77.16C122.378 77.832 122.298 78.4987 122.298 79.16C122.298 79.8213 122.41 80.3067 122.634 80.616C122.068 81.1387 121.482 81.4 120.874 81.4C120.202 81.4 119.722 81.2293 119.434 80.888C119.146 80.5467 119.002 80.056 119.002 79.416C119.002 79.064 119.05 78.6747 119.146 78.248C119.242 77.8107 119.354 77.368 119.482 76.92C119.61 76.472 119.722 76.0507 119.818 75.656C119.914 75.2613 119.962 74.92 119.962 74.632C119.962 74.408 119.919 74.232 119.834 74.104C119.759 73.976 119.62 73.912 119.418 73.912C119.13 73.912 118.794 74.04 118.41 74.296C118.026 74.552 117.647 74.9147 117.274 75.384C116.911 75.8427 116.607 76.392 116.362 77.032C116.127 77.672 116.01 78.3813 116.01 79.16C116.01 79.8213 116.122 80.3067 116.346 80.616C115.78 81.1387 115.194 81.4 114.586 81.4ZM129.217 81.4C128.289 81.4 127.483 81.224 126.801 80.872C126.129 80.5093 125.606 80.0133 125.233 79.384C124.87 78.7547 124.689 78.024 124.689 77.192C124.689 76.328 124.843 75.544 125.153 74.84C125.462 74.1253 125.899 73.512 126.465 73C127.03 72.488 127.686 72.0933 128.433 71.816C129.19 71.5387 130.006 71.4 130.881 71.4C131.83 71.4 132.561 71.5813 133.073 71.944C133.595 72.296 133.857 72.7387 133.857 73.272C133.857 73.784 133.67 74.1733 133.297 74.44C132.934 74.7067 132.518 74.84 132.049 74.84C131.729 74.84 131.393 74.7333 131.041 74.52C130.689 74.3067 130.406 73.976 130.193 73.528C129.723 73.72 129.323 74.0187 128.993 74.424C128.673 74.8187 128.427 75.2613 128.257 75.752C128.097 76.232 128.017 76.7067 128.017 77.176C128.017 77.8053 128.15 78.3493 128.417 78.808C128.683 79.256 129.078 79.48 129.601 79.48C129.963 79.48 130.294 79.3413 130.593 79.064C130.891 78.776 131.041 78.3227 131.041 77.704C131.766 77.704 132.337 77.784 132.753 77.944C133.169 78.104 133.377 78.392 133.377 78.808C133.377 79.192 133.206 79.5867 132.865 79.992C132.523 80.3867 132.043 80.7227 131.425 81C130.806 81.2667 130.07 81.4 129.217 81.4ZM139.42 81.4C138.481 81.4 137.671 81.224 136.988 80.872C136.316 80.5093 135.799 80.0133 135.436 79.384C135.073 78.7547 134.892 78.024 134.892 77.192C134.892 76.04 135.143 75.032 135.644 74.168C136.156 73.2933 136.855 72.616 137.74 72.136C138.625 71.6453 139.633 71.4 140.764 71.4C140.945 71.4 141.127 71.4107 141.308 71.432C141.5 71.4427 141.703 71.4747 141.916 71.528C141.969 71.6773 142.012 71.8587 142.044 72.072C142.076 72.2747 142.097 72.4933 142.108 72.728C142.204 72.696 142.305 72.6693 142.412 72.648C142.529 72.6267 142.652 72.616 142.78 72.616C143.153 72.616 143.505 72.7173 143.836 72.92C144.167 73.112 144.439 73.416 144.652 73.832C144.865 74.248 144.972 74.776 144.972 75.416C144.972 76.3653 144.812 77.2133 144.492 77.96C144.183 78.696 143.761 79.32 143.228 79.832C142.695 80.344 142.097 80.7333 141.436 81C140.785 81.2667 140.113 81.4 139.42 81.4ZM139.916 79.432C140.161 79.432 140.417 79.3733 140.684 79.256C140.951 79.1387 141.212 78.9253 141.468 78.616C141.724 78.3067 141.937 77.8693 142.108 77.304C141.649 77.016 141.319 76.664 141.116 76.248C140.913 75.8213 140.812 75.352 140.812 74.84C140.812 74.6907 140.839 74.4987 140.892 74.264C140.945 74.0293 141.036 73.7893 141.164 73.544C141.303 73.2987 141.489 73.096 141.724 72.936C140.988 73.0853 140.385 73.3093 139.916 73.608C139.447 73.9067 139.079 74.2533 138.812 74.648C138.556 75.032 138.375 75.432 138.268 75.848C138.172 76.2533 138.124 76.6427 138.124 77.016C138.124 77.4427 138.193 77.8427 138.332 78.216C138.471 78.5787 138.673 78.872 138.94 79.096C139.207 79.32 139.532 79.432 139.916 79.432ZM149.177 81.4C148.516 81.4 147.999 81.2827 147.625 81.048C147.263 80.824 147.007 80.52 146.857 80.136C146.719 79.7413 146.649 79.2987 146.649 78.808C146.649 78.2427 146.708 77.6507 146.825 77.032C146.943 76.4027 147.06 75.7947 147.177 75.208C147.295 74.6107 147.353 74.088 147.353 73.64C147.353 72.9787 147.241 72.4933 147.017 72.184C147.455 71.9493 147.908 71.7627 148.377 71.624C148.857 71.4747 149.241 71.4 149.529 71.4C149.967 71.4 150.281 71.4907 150.473 71.672C150.676 71.8427 150.777 72.1307 150.777 72.536C150.777 72.76 150.745 73.0693 150.681 73.464C150.617 73.848 150.537 74.2693 150.441 74.728C150.345 75.1867 150.244 75.6507 150.137 76.12C150.041 76.5787 149.961 76.9947 149.897 77.368C149.833 77.7413 149.801 78.0347 149.801 78.248C149.801 78.6427 149.903 78.9413 150.105 79.144C150.319 79.3467 150.575 79.448 150.873 79.448C151.215 79.448 151.572 79.32 151.945 79.064C152.319 78.808 152.628 78.4347 152.873 77.944C152.916 77.7093 152.969 77.416 153.033 77.064C153.108 76.712 153.188 76.3387 153.273 75.944C153.369 75.5387 153.455 75.1547 153.529 74.792C153.615 74.4187 153.689 74.104 153.753 73.848L152.793 72.568C153.252 72.2373 153.743 71.96 154.265 71.736C154.788 71.512 155.321 71.4 155.865 71.4C156.345 71.4 156.687 71.4907 156.889 71.672C157.103 71.8427 157.209 72.1307 157.209 72.536C157.209 72.76 157.167 73.0693 157.081 73.464C157.007 73.8587 156.911 74.3013 156.793 74.792C156.687 75.272 156.575 75.7733 156.457 76.296C156.34 76.8187 156.239 77.3307 156.153 77.832C156.079 78.3227 156.041 78.7653 156.041 79.16C156.041 79.48 156.079 79.768 156.153 80.024C156.239 80.2693 156.367 80.4667 156.537 80.616C155.94 81.1387 155.305 81.4 154.633 81.4C153.951 81.4 153.476 81.2453 153.209 80.936C152.943 80.6267 152.809 80.2587 152.809 79.832L152.649 79.752C152.297 80.2747 151.807 80.68 151.177 80.968C150.548 81.256 149.881 81.4 149.177 81.4ZM160.516 81.4C159.865 81.4 159.401 81.2293 159.124 80.888C158.847 80.5467 158.708 80.056 158.708 79.416C158.708 79.192 158.74 78.8507 158.804 78.392C158.868 77.9227 158.948 77.4053 159.044 76.84C159.151 76.264 159.263 75.688 159.38 75.112C159.497 74.536 159.609 74.024 159.716 73.576L158.884 72.296C159.439 72.0507 159.951 71.8427 160.42 71.672C160.9 71.4907 161.327 71.4 161.7 71.4C161.977 71.4 162.18 71.496 162.308 71.688C162.436 71.88 162.5 72.1253 162.5 72.424C162.5 72.7653 162.441 73.1493 162.324 73.576C162.207 73.992 162.089 74.3867 161.972 74.76L162.132 74.84C162.505 73.7413 162.927 72.8933 163.396 72.296C163.876 71.6987 164.409 71.4 164.996 71.4C165.38 71.4 165.689 71.4853 165.924 71.656C166.159 71.816 166.329 72.0187 166.436 72.264C166.553 72.4987 166.612 72.728 166.612 72.952C166.612 73.304 166.521 73.6453 166.34 73.976C166.169 74.296 165.892 74.5627 165.508 74.776C165.124 74.9787 164.617 75.08 163.988 75.08C163.743 75.08 163.503 75.1333 163.268 75.24C163.033 75.3467 162.82 75.5493 162.628 75.848C162.436 76.136 162.281 76.5467 162.164 77.08C162.057 77.6133 162.004 78.3067 162.004 79.16C162.004 79.8213 162.116 80.3067 162.34 80.616C161.679 81.1387 161.071 81.4 160.516 81.4ZM170.985 81.4C169.982 81.4 169.182 81.32 168.585 81.16C167.998 81.0107 167.577 80.8027 167.321 80.536C167.065 80.2693 166.937 79.976 166.937 79.656C166.937 79.4107 167.001 79.128 167.129 78.808C167.268 78.488 167.465 78.184 167.721 77.896C167.902 78.1413 168.142 78.3707 168.441 78.584C168.75 78.7867 169.086 78.952 169.449 79.08C169.812 79.1973 170.164 79.256 170.505 79.256C170.878 79.256 171.214 79.1707 171.513 79C171.812 78.8187 172.009 78.5147 172.105 78.088C170.462 77.896 169.284 77.5333 168.569 77C167.854 76.456 167.497 75.704 167.497 74.744C167.497 74.136 167.641 73.6187 167.929 73.192C168.217 72.7653 168.601 72.424 169.081 72.168C169.572 71.9013 170.126 71.7093 170.745 71.592C171.374 71.464 172.025 71.4 172.697 71.4C173.326 71.4 173.886 71.4853 174.377 71.656C174.868 71.816 175.252 72.0347 175.529 72.312C175.806 72.5893 175.945 72.9093 175.945 73.272C175.945 73.784 175.758 74.1733 175.385 74.44C175.022 74.7067 174.606 74.84 174.137 74.84C173.817 74.84 173.481 74.7333 173.129 74.52C172.777 74.3067 172.494 73.976 172.281 73.528C171.886 73.6453 171.572 73.816 171.337 74.04C171.102 74.2533 170.894 74.5627 170.713 74.968C171.929 75.1493 172.894 75.3787 173.609 75.656C174.324 75.9333 174.836 76.2853 175.145 76.712C175.465 77.128 175.625 77.6453 175.625 78.264C175.625 78.7547 175.513 79.1813 175.289 79.544C175.076 79.9067 174.793 80.2053 174.441 80.44C174.089 80.6747 173.705 80.8613 173.289 81C172.873 81.1493 172.462 81.2507 172.057 81.304C171.652 81.368 171.294 81.4 170.985 81.4ZM181.874 81.4C180.882 81.4 180.045 81.224 179.362 80.872C178.679 80.52 178.162 80.0293 177.81 79.4C177.469 78.76 177.298 78.024 177.298 77.192C177.298 76.328 177.453 75.544 177.762 74.84C178.082 74.1253 178.525 73.512 179.09 73C179.655 72.488 180.311 72.0933 181.058 71.816C181.815 71.5387 182.631 71.4 183.506 71.4C184.541 71.4 185.303 71.6293 185.794 72.088C186.285 72.5467 186.53 73.1227 186.53 73.816C186.53 74.4133 186.333 74.9787 185.938 75.512C185.554 76.0347 184.93 76.4613 184.066 76.792C183.202 77.112 182.05 77.2773 180.61 77.288C180.642 77.9707 180.797 78.5093 181.074 78.904C181.362 79.288 181.719 79.48 182.146 79.48C182.359 79.48 182.583 79.432 182.818 79.336C183.053 79.2293 183.25 79.048 183.41 78.792C183.57 78.5253 183.65 78.1627 183.65 77.704C184.375 77.704 184.946 77.784 185.362 77.944C185.778 78.104 185.986 78.392 185.986 78.808C185.986 79.192 185.821 79.5867 185.49 79.992C185.159 80.3867 184.685 80.7227 184.066 81C183.458 81.2667 182.727 81.4 181.874 81.4ZM180.754 76.008C181.533 75.944 182.157 75.8 182.626 75.576C183.095 75.352 183.437 75.096 183.65 74.808C183.863 74.52 183.97 74.2533 183.97 74.008C183.97 73.7947 183.906 73.6187 183.778 73.48C183.65 73.3413 183.469 73.272 183.234 73.272C182.85 73.272 182.493 73.4053 182.162 73.672C181.831 73.9387 181.543 74.2853 181.298 74.712C181.063 75.128 180.882 75.56 180.754 76.008Z" fill="white"/>
</svg>
