<svg width="200" height="150" viewBox="0 0 200 150" fill="none" xmlns="http://www.w3.org/2000/svg">
<rect width="200" height="150" fill="#264DB1"/>
<path d="M28.1472 73.76C27.4112 73.76 26.7925 73.6 26.2912 73.28C25.7899 72.96 25.5392 72.512 25.5392 71.936C25.5392 71.7013 25.5872 71.4507 25.6832 71.184C25.7792 70.9173 25.9285 70.6347 26.1312 70.336C26.3765 70.688 26.6699 70.9547 27.0112 71.136C27.3525 71.328 27.6992 71.424 28.0512 71.424C28.4672 71.424 28.8672 71.2853 29.2512 71.008C29.6352 70.7307 29.9445 70.288 30.1792 69.68C29.9125 69.776 29.6619 69.8453 29.4272 69.888C29.1925 69.9307 28.9685 69.952 28.7552 69.952C28.2005 69.952 27.7525 69.808 27.4112 69.52C27.0699 69.2213 26.8725 68.7947 26.8192 68.24C26.7445 67.536 26.6965 66.8053 26.6752 66.048C26.6539 65.2907 26.6112 64.6027 26.5472 63.984C26.4725 63.2587 26.3179 62.656 26.0832 62.176C25.8485 61.696 25.5765 61.3333 25.2672 61.088C25.5232 60.8533 25.7899 60.6827 26.0672 60.576C26.3552 60.4587 26.7179 60.4 27.1552 60.4C27.6885 60.4 28.1205 60.56 28.4512 60.88C28.7925 61.2 29.0539 61.6533 29.2352 62.24C29.4165 62.816 29.5392 63.4933 29.6032 64.272C29.6779 65.04 29.7152 65.8773 29.7152 66.784C29.7152 66.912 29.7099 67.1093 29.6992 67.376C29.6992 67.6427 29.6885 67.9093 29.6672 68.176H30.5952C30.7659 67.7067 30.9472 67.2053 31.1392 66.672C31.3312 66.1387 31.5072 65.6 31.6672 65.056C31.8379 64.5013 31.9765 63.9733 32.0832 63.472C32.1899 62.96 32.2432 62.5067 32.2432 62.112C32.2432 61.8773 32.2165 61.68 32.1632 61.52C32.1205 61.36 32.0672 61.216 32.0032 61.088C32.3765 60.8533 32.7445 60.6827 33.1072 60.576C33.4699 60.4587 33.7952 60.4 34.0832 60.4C34.5739 60.4 34.9312 60.5653 35.1552 60.896C35.3899 61.2267 35.5072 61.6587 35.5072 62.192C35.5072 62.5867 35.4485 63.0453 35.3312 63.568C35.2139 64.08 35.0645 64.6133 34.8832 65.168C34.7125 65.712 34.5365 66.2293 34.3552 66.72C34.1845 67.2107 34.0405 67.6267 33.9232 67.968C33.4112 69.44 32.8352 70.5973 32.1952 71.44C31.5659 72.2827 30.9045 72.88 30.2112 73.232C29.5285 73.584 28.8405 73.76 28.1472 73.76ZM39.6242 70.4C39.0269 70.4 38.4989 70.2453 38.0402 69.936C37.5922 69.6267 37.2455 69.1893 37.0002 68.624C36.7549 68.0587 36.6322 67.3973 36.6322 66.64C36.6322 65.7547 36.7869 64.9333 37.0962 64.176C37.4162 63.4187 37.8535 62.7573 38.4082 62.192C38.9735 61.6267 39.6349 61.1893 40.3922 60.88C41.1495 60.56 41.9709 60.4 42.8562 60.4C43.1122 60.4 43.3309 60.4107 43.5122 60.432C43.7042 60.4427 43.9069 60.4747 44.1202 60.528C44.1842 60.8267 44.2215 61.088 44.2322 61.312C44.4775 61.152 44.7495 61.0293 45.0482 60.944C45.3469 60.848 45.6242 60.8 45.8802 60.8C46.6589 60.8 47.0482 61.2213 47.0482 62.064C47.0482 62.3413 46.9949 62.72 46.8882 63.2C46.7922 63.6693 46.6749 64.192 46.5362 64.768C46.4082 65.3333 46.2909 65.9147 46.1842 66.512C46.0882 67.0987 46.0402 67.648 46.0402 68.16C46.0402 68.8533 46.2055 69.3387 46.5362 69.616C45.9389 70.1387 45.3042 70.4 44.6322 70.4C44.0135 70.4 43.5549 70.208 43.2562 69.824C42.9682 69.44 42.8242 68.8427 42.8242 68.032L42.6642 67.952C42.3762 68.72 41.9602 69.3227 41.4162 69.76C40.8829 70.1867 40.2855 70.4 39.6242 70.4ZM40.8882 67.488C41.3042 67.488 41.7095 67.3387 42.1042 67.04C42.4989 66.7413 42.8295 66.3307 43.0962 65.808C43.1389 65.392 43.1815 65.0027 43.2242 64.64C43.2775 64.2667 43.3415 63.872 43.4162 63.456C43.5015 63.04 43.6029 62.5493 43.7202 61.984C43.1762 61.984 42.6589 62.0907 42.1682 62.304C41.6882 62.5067 41.2562 62.7893 40.8722 63.152C40.4882 63.5147 40.1842 63.9307 39.9602 64.4C39.7469 64.8587 39.6402 65.344 39.6402 65.856C39.6402 66.3787 39.7469 66.784 39.9602 67.072C40.1842 67.3493 40.4935 67.488 40.8882 67.488ZM50.4614 70.4C49.8108 70.4 49.3468 70.2293 49.0694 69.888C48.7921 69.5467 48.6534 69.056 48.6534 68.416C48.6534 68.192 48.6854 67.8507 48.7494 67.392C48.8134 66.9227 48.8934 66.4053 48.9894 65.84C49.0961 65.264 49.2081 64.688 49.3254 64.112C49.4428 63.536 49.5548 63.024 49.6614 62.576L48.8294 61.296C49.3841 61.0507 49.8961 60.8427 50.3654 60.672C50.8454 60.4907 51.2721 60.4 51.6454 60.4C51.9228 60.4 52.1254 60.496 52.2534 60.688C52.3814 60.88 52.4454 61.1253 52.4454 61.424C52.4454 61.7653 52.3868 62.1493 52.2694 62.576C52.1521 62.992 52.0348 63.3867 51.9174 63.76L52.0774 63.84C52.4508 62.7413 52.8721 61.8933 53.3414 61.296C53.8214 60.6987 54.3548 60.4 54.9414 60.4C55.3254 60.4 55.6348 60.4853 55.8694 60.656C56.1041 60.816 56.2748 61.0187 56.3814 61.264C56.4988 61.4987 56.5574 61.728 56.5574 61.952C56.5574 62.304 56.4668 62.6453 56.2854 62.976C56.1148 63.296 55.8374 63.5627 55.4534 63.776C55.0694 63.9787 54.5628 64.08 53.9334 64.08C53.6881 64.08 53.4481 64.1333 53.2134 64.24C52.9788 64.3467 52.7654 64.5493 52.5734 64.848C52.3814 65.136 52.2268 65.5467 52.1094 66.08C52.0028 66.6133 51.9494 67.3067 51.9494 68.16C51.9494 68.8213 52.0614 69.3067 52.2854 69.616C51.6241 70.1387 51.0161 70.4 50.4614 70.4ZM58.9942 70.4C58.3222 70.4 57.8422 70.2293 57.5542 69.888C57.2662 69.5467 57.1222 69.056 57.1222 68.416C57.1222 68.192 57.1542 67.8507 57.2182 67.392C57.2822 66.9227 57.3622 66.4053 57.4582 65.84C57.5649 65.264 57.6769 64.688 57.7942 64.112C57.9115 63.536 58.0235 63.024 58.1302 62.576L57.2982 61.296C57.7355 61.0507 58.2049 60.8427 58.7062 60.672C59.2182 60.4907 59.7355 60.4 60.2582 60.4C60.7062 60.4 61.0369 60.512 61.2502 60.736C61.4635 60.9493 61.5702 61.2427 61.5702 61.616C61.5702 61.8933 61.5329 62.1813 61.4582 62.48C61.3835 62.7787 61.2982 63.0347 61.2022 63.248L61.3622 63.328C61.9915 62.2507 62.6795 61.4933 63.4262 61.056C64.1729 60.6187 64.9355 60.4 65.7142 60.4C66.3649 60.4 66.8502 60.56 67.1702 60.88C67.4902 61.1893 67.6502 61.6747 67.6502 62.336C67.6502 62.912 67.5702 63.5253 67.4102 64.176C67.2609 64.816 67.1062 65.4773 66.9462 66.16C66.7862 66.832 66.7062 67.4987 66.7062 68.16C66.7062 68.8213 66.8182 69.3067 67.0422 69.616C66.4769 70.1387 65.8902 70.4 65.2822 70.4C64.6102 70.4 64.1302 70.2293 63.8422 69.888C63.5542 69.5467 63.4102 69.056 63.4102 68.416C63.4102 68.064 63.4582 67.6747 63.5542 67.248C63.6502 66.8107 63.7622 66.368 63.8902 65.92C64.0182 65.472 64.1302 65.0507 64.2262 64.656C64.3222 64.2613 64.3702 63.92 64.3702 63.632C64.3702 63.408 64.3275 63.232 64.2422 63.104C64.1675 62.976 64.0289 62.912 63.8262 62.912C63.5382 62.912 63.2022 63.04 62.8182 63.296C62.4342 63.552 62.0555 63.9147 61.6822 64.384C61.3195 64.8427 61.0155 65.392 60.7702 66.032C60.5355 66.672 60.4182 67.3813 60.4182 68.16C60.4182 68.8213 60.5302 69.3067 60.7542 69.616C60.1889 70.1387 59.6022 70.4 58.9942 70.4ZM76.8921 70.4C76.5401 70.4 76.1934 70.3467 75.8521 70.24C75.5214 70.1333 75.2441 69.9467 75.0201 69.68C74.8067 69.4133 74.7001 69.0453 74.7001 68.576C74.7001 68.576 74.7001 68.4533 74.7001 68.208C74.7107 67.9627 74.7161 67.648 74.7161 67.264C74.7267 66.88 74.7321 66.4747 74.7321 66.048C74.7321 65.6107 74.7321 65.1947 74.7321 64.8C74.7427 64.4053 74.7481 64.0853 74.7481 63.84C74.7481 63.1147 74.6627 62.5387 74.4921 62.112C74.3321 61.6747 74.1294 61.3333 73.8841 61.088C74.4387 60.6293 75.0467 60.4 75.7081 60.4C76.3054 60.4 76.7587 60.576 77.0681 60.928C77.3774 61.2693 77.5854 61.7387 77.6921 62.336C77.8094 62.9333 77.8681 63.6 77.8681 64.336C77.8681 64.7307 77.8627 65.1787 77.8521 65.68C77.8521 66.1707 77.8467 66.6613 77.8361 67.152C77.8254 67.632 77.8094 68.064 77.7881 68.448H78.3321C78.7054 67.7973 79.0361 67.1787 79.3241 66.592C79.6121 66.0053 79.8147 65.4293 79.9321 64.864C79.9321 64.5013 79.8947 64.096 79.8201 63.648C79.7561 63.2 79.6707 62.7787 79.5641 62.384C79.4574 61.9787 79.3454 61.68 79.2281 61.488C79.3881 61.2747 79.6334 61.104 79.9641 60.976C80.2947 60.848 80.6361 60.784 80.9881 60.784C81.2654 60.784 81.5321 60.832 81.7881 60.928C82.0547 61.024 82.2734 61.1787 82.4441 61.392C82.6254 61.6053 82.7161 61.888 82.7161 62.24C82.7161 62.5707 82.6467 62.9227 82.5081 63.296C82.3694 63.6587 82.2147 64.096 82.0441 64.608L81.9801 68.448H82.5241C82.7694 67.9787 83.0307 67.4453 83.3081 66.848C83.5854 66.24 83.8467 65.6213 84.0921 64.992C84.3481 64.3627 84.5561 63.7707 84.7161 63.216C84.8761 62.6507 84.9561 62.1813 84.9561 61.808C84.9561 61.6587 84.9401 61.5253 84.9081 61.408C84.8867 61.2907 84.8547 61.184 84.8121 61.088C85.1854 60.8533 85.5534 60.6827 85.9161 60.576C86.2787 60.4587 86.6094 60.4 86.9081 60.4C87.3774 60.4 87.7134 60.5387 87.9161 60.816C88.1187 61.0933 88.2201 61.456 88.2201 61.904C88.2201 62.288 88.1347 62.7467 87.9641 63.28C87.8041 63.8133 87.6014 64.3733 87.3561 64.96C87.1107 65.536 86.8654 66.0907 86.6201 66.624C86.3747 67.1467 86.1774 67.5947 86.0281 67.968L86.2521 68.896C86.0921 69.024 85.8574 69.1733 85.5481 69.344C85.2387 69.5147 84.8867 69.68 84.4921 69.84C84.1081 70 83.7027 70.1333 83.2761 70.24C82.8601 70.3467 82.4601 70.4 82.0761 70.4C81.6067 70.4 81.1854 70.2933 80.8121 70.08C80.4494 69.8667 80.2041 69.488 80.0761 68.944C79.6067 69.4027 79.1161 69.76 78.6041 70.016C78.1027 70.272 77.5321 70.4 76.8921 70.4ZM93.8652 70.4C92.9265 70.4 92.1159 70.224 91.4332 69.872C90.7612 69.5093 90.2439 69.0133 89.8812 68.384C89.5185 67.7547 89.3372 67.024 89.3372 66.192C89.3372 65.04 89.5879 64.032 90.0892 63.168C90.6012 62.2933 91.2999 61.616 92.1852 61.136C93.0705 60.6453 94.0785 60.4 95.2092 60.4C95.3905 60.4 95.5719 60.4107 95.7532 60.432C95.9452 60.4427 96.1479 60.4747 96.3612 60.528C96.4145 60.6773 96.4572 60.8587 96.4892 61.072C96.5212 61.2747 96.5425 61.4933 96.5532 61.728C96.6492 61.696 96.7505 61.6693 96.8572 61.648C96.9745 61.6267 97.0972 61.616 97.2252 61.616C97.5985 61.616 97.9505 61.7173 98.2812 61.92C98.6119 62.112 98.8839 62.416 99.0972 62.832C99.3105 63.248 99.4172 63.776 99.4172 64.416C99.4172 65.3653 99.2572 66.2133 98.9372 66.96C98.6279 67.696 98.2065 68.32 97.6732 68.832C97.1399 69.344 96.5425 69.7333 95.8812 70C95.2305 70.2667 94.5585 70.4 93.8652 70.4ZM94.3612 68.432C94.6065 68.432 94.8625 68.3733 95.1292 68.256C95.3959 68.1387 95.6572 67.9253 95.9132 67.616C96.1692 67.3067 96.3825 66.8693 96.5532 66.304C96.0945 66.016 95.7639 65.664 95.5612 65.248C95.3585 64.8213 95.2572 64.352 95.2572 63.84C95.2572 63.6907 95.2839 63.4987 95.3372 63.264C95.3905 63.0293 95.4812 62.7893 95.6092 62.544C95.7479 62.2987 95.9345 62.096 96.1692 61.936C95.4332 62.0853 94.8305 62.3093 94.3612 62.608C93.8919 62.9067 93.5239 63.2533 93.2572 63.648C93.0012 64.032 92.8199 64.432 92.7132 64.848C92.6172 65.2533 92.5692 65.6427 92.5692 66.016C92.5692 66.4427 92.6385 66.8427 92.7772 67.216C92.9159 67.5787 93.1185 67.872 93.3852 68.096C93.6519 68.32 93.9772 68.432 94.3612 68.432ZM102.743 70.4C102.092 70.4 101.628 70.2293 101.351 69.888C101.073 69.5467 100.935 69.056 100.935 68.416C100.935 68.192 100.967 67.8507 101.031 67.392C101.095 66.9227 101.175 66.4053 101.271 65.84C101.377 65.264 101.489 64.688 101.607 64.112C101.724 63.536 101.836 63.024 101.943 62.576L101.111 61.296C101.665 61.0507 102.177 60.8427 102.647 60.672C103.127 60.4907 103.553 60.4 103.927 60.4C104.204 60.4 104.407 60.496 104.535 60.688C104.663 60.88 104.727 61.1253 104.727 61.424C104.727 61.7653 104.668 62.1493 104.551 62.576C104.433 62.992 104.316 63.3867 104.199 63.76L104.359 63.84C104.732 62.7413 105.153 61.8933 105.623 61.296C106.103 60.6987 106.636 60.4 107.223 60.4C107.607 60.4 107.916 60.4853 108.151 60.656C108.385 60.816 108.556 61.0187 108.663 61.264C108.78 61.4987 108.839 61.728 108.839 61.952C108.839 62.304 108.748 62.6453 108.567 62.976C108.396 63.296 108.119 63.5627 107.735 63.776C107.351 63.9787 106.844 64.08 106.215 64.08C105.969 64.08 105.729 64.1333 105.495 64.24C105.26 64.3467 105.047 64.5493 104.855 64.848C104.663 65.136 104.508 65.5467 104.391 66.08C104.284 66.6133 104.231 67.3067 104.231 68.16C104.231 68.8213 104.343 69.3067 104.567 69.616C103.905 70.1387 103.297 70.4 102.743 70.4ZM111.371 70.4C110.721 70.4 110.257 70.1973 109.979 69.792C109.702 69.3867 109.563 68.768 109.563 67.936C109.563 67.7013 109.59 67.3547 109.643 66.896C109.707 66.4373 109.787 65.9147 109.883 65.328C109.979 64.7413 110.086 64.1333 110.203 63.504C110.321 62.864 110.433 62.2453 110.539 61.648C110.646 61.0507 110.742 60.5173 110.827 60.048L109.931 58.768C110.497 58.4373 111.035 58.16 111.547 57.936C112.059 57.712 112.571 57.6 113.083 57.6C113.531 57.6 113.841 57.6907 114.011 57.872C114.193 58.0427 114.283 58.3307 114.283 58.736C114.283 59.088 114.241 59.52 114.155 60.032C114.07 60.544 113.963 61.1093 113.835 61.728C113.707 62.336 113.574 62.9653 113.435 63.616C113.297 64.256 113.179 64.88 113.083 65.488L114.091 64.592C114.475 64.2507 114.827 63.936 115.147 63.648C115.478 63.36 115.739 63.072 115.931 62.784C116.134 62.4853 116.235 62.1653 116.235 61.824C116.235 61.6747 116.225 61.5413 116.203 61.424C116.182 61.3067 116.15 61.1947 116.107 61.088C116.865 60.6293 117.579 60.4 118.251 60.4C118.699 60.4 119.057 60.544 119.323 60.832C119.59 61.1093 119.723 61.4773 119.723 61.936C119.723 62.3733 119.595 62.7893 119.339 63.184C119.094 63.5787 118.774 63.936 118.379 64.256C117.995 64.5653 117.601 64.8373 117.195 65.072C117.43 65.8187 117.702 66.528 118.011 67.2C118.331 67.872 118.651 68.4373 118.971 68.896C119.291 69.344 119.563 69.6267 119.787 69.744C119.574 69.968 119.275 70.1333 118.891 70.24C118.507 70.3467 118.145 70.4 117.803 70.4C117.142 70.4 116.587 70.176 116.139 69.728C115.691 69.28 115.286 68.544 114.923 67.52L114.523 66.384L112.875 67.2C112.865 67.2853 112.859 67.376 112.859 67.472C112.859 67.5573 112.859 67.6427 112.859 67.728C112.859 68.144 112.897 68.5173 112.971 68.848C113.057 69.168 113.185 69.424 113.355 69.616C112.609 70.1387 111.947 70.4 111.371 70.4ZM124.79 70.4C123.787 70.4 122.987 70.32 122.39 70.16C121.803 70.0107 121.382 69.8027 121.126 69.536C120.87 69.2693 120.742 68.976 120.742 68.656C120.742 68.4107 120.806 68.128 120.934 67.808C121.072 67.488 121.27 67.184 121.526 66.896C121.707 67.1413 121.947 67.3707 122.246 67.584C122.555 67.7867 122.891 67.952 123.254 68.08C123.616 68.1973 123.968 68.256 124.31 68.256C124.683 68.256 125.019 68.1707 125.318 68C125.616 67.8187 125.814 67.5147 125.91 67.088C124.267 66.896 123.088 66.5333 122.374 66C121.659 65.456 121.302 64.704 121.302 63.744C121.302 63.136 121.446 62.6187 121.734 62.192C122.022 61.7653 122.406 61.424 122.886 61.168C123.376 60.9013 123.931 60.7093 124.55 60.592C125.179 60.464 125.83 60.4 126.502 60.4C127.131 60.4 127.691 60.4853 128.182 60.656C128.672 60.816 129.056 61.0347 129.334 61.312C129.611 61.5893 129.75 61.9093 129.75 62.272C129.75 62.784 129.563 63.1733 129.19 63.44C128.827 63.7067 128.411 63.84 127.942 63.84C127.622 63.84 127.286 63.7333 126.934 63.52C126.582 63.3067 126.299 62.976 126.086 62.528C125.691 62.6453 125.376 62.816 125.142 63.04C124.907 63.2533 124.699 63.5627 124.518 63.968C125.734 64.1493 126.699 64.3787 127.414 64.656C128.128 64.9333 128.64 65.2853 128.95 65.712C129.27 66.128 129.43 66.6453 129.43 67.264C129.43 67.7547 129.318 68.1813 129.094 68.544C128.88 68.9067 128.598 69.2053 128.246 69.44C127.894 69.6747 127.51 69.8613 127.094 70C126.678 70.1493 126.267 70.2507 125.862 70.304C125.456 70.368 125.099 70.4 124.79 70.4ZM133.023 73.184C132.34 73.184 131.876 73.0133 131.631 72.672C131.385 72.3307 131.263 71.84 131.263 71.2C131.263 70.9653 131.289 70.6027 131.343 70.112C131.396 69.6213 131.46 69.0613 131.535 68.432C131.62 67.792 131.716 67.1307 131.823 66.448C131.929 65.7653 132.031 65.1093 132.127 64.48C132.233 63.8507 132.329 63.3013 132.415 62.832L131.519 61.552C132.084 61.2213 132.617 60.944 133.119 60.72C133.631 60.496 134.143 60.384 134.655 60.384C135.103 60.384 135.407 60.5387 135.567 60.848C135.727 61.1467 135.807 61.4987 135.807 61.904C135.807 62.0213 135.801 62.1547 135.791 62.304C135.78 62.4427 135.764 62.592 135.743 62.752L135.903 62.832C136.212 62.064 136.66 61.4667 137.247 61.04C137.833 60.6027 138.505 60.384 139.263 60.384C139.839 60.384 140.324 60.56 140.719 60.912C141.113 61.2533 141.412 61.7067 141.615 62.272C141.817 62.8373 141.919 63.4613 141.919 64.144C141.919 64.8053 141.791 65.4827 141.535 66.176C141.289 66.8587 140.911 67.488 140.399 68.064C139.887 68.64 139.241 69.104 138.463 69.456C137.684 69.808 136.761 69.984 135.695 69.984C135.492 69.984 135.295 69.9787 135.103 69.968C134.911 69.9467 134.703 69.9253 134.479 69.904C134.447 70.2667 134.431 70.6133 134.431 70.944C134.431 71.264 134.468 71.5467 134.543 71.792C134.628 72.048 134.756 72.2507 134.927 72.4C134.329 72.9227 133.695 73.184 133.023 73.184ZM134.767 68.416C135.46 68.3947 136.068 68.2667 136.591 68.032C137.124 67.7867 137.572 67.472 137.935 67.088C138.297 66.6933 138.569 66.2667 138.751 65.808C138.932 65.3493 139.023 64.9013 139.023 64.464C139.023 63.9733 138.927 63.5733 138.735 63.264C138.543 62.9547 138.255 62.8 137.871 62.8C137.476 62.8 137.103 62.9227 136.751 63.168C136.409 63.4027 136.1 63.792 135.823 64.336C135.556 64.88 135.327 65.6213 135.135 66.56L134.767 68.416ZM146.265 70.4C145.667 70.4 145.139 70.2453 144.681 69.936C144.233 69.6267 143.886 69.1893 143.641 68.624C143.395 68.0587 143.273 67.3973 143.273 66.64C143.273 65.7547 143.427 64.9333 143.737 64.176C144.057 63.4187 144.494 62.7573 145.049 62.192C145.614 61.6267 146.275 61.1893 147.033 60.88C147.79 60.56 148.611 60.4 149.497 60.4C149.753 60.4 149.971 60.4107 150.153 60.432C150.345 60.4427 150.547 60.4747 150.761 60.528C150.825 60.8267 150.862 61.088 150.873 61.312C151.118 61.152 151.39 61.0293 151.689 60.944C151.987 60.848 152.265 60.8 152.521 60.8C153.299 60.8 153.689 61.2213 153.689 62.064C153.689 62.3413 153.635 62.72 153.529 63.2C153.433 63.6693 153.315 64.192 153.177 64.768C153.049 65.3333 152.931 65.9147 152.825 66.512C152.729 67.0987 152.681 67.648 152.681 68.16C152.681 68.8533 152.846 69.3387 153.177 69.616C152.579 70.1387 151.945 70.4 151.273 70.4C150.654 70.4 150.195 70.208 149.897 69.824C149.609 69.44 149.465 68.8427 149.465 68.032L149.305 67.952C149.017 68.72 148.601 69.3227 148.057 69.76C147.523 70.1867 146.926 70.4 146.265 70.4ZM147.529 67.488C147.945 67.488 148.35 67.3387 148.745 67.04C149.139 66.7413 149.47 66.3307 149.737 65.808C149.779 65.392 149.822 65.0027 149.865 64.64C149.918 64.2667 149.982 63.872 150.057 63.456C150.142 63.04 150.243 62.5493 150.361 61.984C149.817 61.984 149.299 62.0907 148.809 62.304C148.329 62.5067 147.897 62.7893 147.513 63.152C147.129 63.5147 146.825 63.9307 146.601 64.4C146.387 64.8587 146.281 65.344 146.281 65.856C146.281 66.3787 146.387 66.784 146.601 67.072C146.825 67.3493 147.134 67.488 147.529 67.488ZM159.662 70.4C158.734 70.4 157.929 70.224 157.246 69.872C156.574 69.5093 156.051 69.0133 155.678 68.384C155.315 67.7547 155.134 67.024 155.134 66.192C155.134 65.328 155.289 64.544 155.598 63.84C155.907 63.1253 156.345 62.512 156.91 62C157.475 61.488 158.131 61.0933 158.878 60.816C159.635 60.5387 160.451 60.4 161.326 60.4C162.275 60.4 163.006 60.5813 163.518 60.944C164.041 61.296 164.302 61.7387 164.302 62.272C164.302 62.784 164.115 63.1733 163.742 63.44C163.379 63.7067 162.963 63.84 162.494 63.84C162.174 63.84 161.838 63.7333 161.486 63.52C161.134 63.3067 160.851 62.976 160.638 62.528C160.169 62.72 159.769 63.0187 159.438 63.424C159.118 63.8187 158.873 64.2613 158.702 64.752C158.542 65.232 158.462 65.7067 158.462 66.176C158.462 66.8053 158.595 67.3493 158.862 67.808C159.129 68.256 159.523 68.48 160.046 68.48C160.409 68.48 160.739 68.3413 161.038 68.064C161.337 67.776 161.486 67.3227 161.486 66.704C162.211 66.704 162.782 66.784 163.198 66.944C163.614 67.104 163.822 67.392 163.822 67.808C163.822 68.192 163.651 68.5867 163.31 68.992C162.969 69.3867 162.489 69.7227 161.87 70C161.251 70.2667 160.515 70.4 159.662 70.4ZM169.913 70.4C168.921 70.4 168.084 70.224 167.401 69.872C166.719 69.52 166.201 69.0293 165.849 68.4C165.508 67.76 165.337 67.024 165.337 66.192C165.337 65.328 165.492 64.544 165.801 63.84C166.121 63.1253 166.564 62.512 167.129 62C167.695 61.488 168.351 61.0933 169.097 60.816C169.855 60.5387 170.671 60.4 171.545 60.4C172.58 60.4 173.343 60.6293 173.833 61.088C174.324 61.5467 174.569 62.1227 174.569 62.816C174.569 63.4133 174.372 63.9787 173.977 64.512C173.593 65.0347 172.969 65.4613 172.105 65.792C171.241 66.112 170.089 66.2773 168.649 66.288C168.681 66.9707 168.836 67.5093 169.113 67.904C169.401 68.288 169.759 68.48 170.185 68.48C170.399 68.48 170.623 68.432 170.857 68.336C171.092 68.2293 171.289 68.048 171.449 67.792C171.609 67.5253 171.689 67.1627 171.689 66.704C172.415 66.704 172.985 66.784 173.401 66.944C173.817 67.104 174.025 67.392 174.025 67.808C174.025 68.192 173.86 68.5867 173.529 68.992C173.199 69.3867 172.724 69.7227 172.105 70C171.497 70.2667 170.767 70.4 169.913 70.4ZM168.793 65.008C169.572 64.944 170.196 64.8 170.665 64.576C171.135 64.352 171.476 64.096 171.689 63.808C171.903 63.52 172.009 63.2533 172.009 63.008C172.009 62.7947 171.945 62.6187 171.817 62.48C171.689 62.3413 171.508 62.272 171.273 62.272C170.889 62.272 170.532 62.4053 170.201 62.672C169.871 62.9387 169.583 63.2853 169.337 63.712C169.103 64.128 168.921 64.56 168.793 65.008ZM41.127 91.4C40.455 91.4 39.975 91.2293 39.687 90.888C39.399 90.5467 39.255 90.056 39.255 89.416C39.255 89.192 39.287 88.8507 39.351 88.392C39.415 87.9227 39.495 87.4053 39.591 86.84C39.6977 86.264 39.8097 85.688 39.927 85.112C40.0443 84.536 40.1563 84.024 40.263 83.576L39.431 82.296C39.8683 82.0507 40.3377 81.8427 40.839 81.672C41.351 81.4907 41.8683 81.4 42.391 81.4C42.839 81.4 43.1697 81.512 43.383 81.736C43.5963 81.9493 43.703 82.2427 43.703 82.616C43.703 82.8933 43.6657 83.1813 43.591 83.48C43.5163 83.7787 43.431 84.0347 43.335 84.248L43.495 84.328C44.1243 83.2507 44.7857 82.4933 45.479 82.056C46.1723 81.6187 46.9083 81.4 47.687 81.4C48.2523 81.4 48.7163 81.544 49.079 81.832C49.4417 82.1093 49.623 82.5627 49.623 83.192C49.623 83.512 49.5697 83.864 49.463 84.248L49.623 84.328C50.2523 83.2507 50.9137 82.4933 51.607 82.056C52.3003 81.6187 53.0363 81.4 53.815 81.4C54.4657 81.4 54.951 81.56 55.271 81.88C55.591 82.1893 55.751 82.6747 55.751 83.336C55.751 83.912 55.671 84.5253 55.511 85.176C55.3617 85.816 55.207 86.4773 55.047 87.16C54.887 87.832 54.807 88.4987 54.807 89.16C54.807 89.8213 54.919 90.3067 55.143 90.616C54.5777 91.1387 53.991 91.4 53.383 91.4C52.711 91.4 52.231 91.2293 51.943 90.888C51.655 90.5467 51.511 90.056 51.511 89.416C51.511 89.064 51.559 88.6747 51.655 88.248C51.751 87.8107 51.863 87.368 51.991 86.92C52.119 86.472 52.231 86.0507 52.327 85.656C52.423 85.2613 52.471 84.92 52.471 84.632C52.471 84.408 52.4283 84.232 52.343 84.104C52.2683 83.976 52.1297 83.912 51.927 83.912C51.639 83.912 51.3083 84.04 50.935 84.296C50.5723 84.552 50.215 84.9147 49.863 85.384C49.5217 85.8427 49.239 86.392 49.015 87.032C48.791 87.672 48.679 88.3813 48.679 89.16C48.679 89.8213 48.791 90.3067 49.015 90.616C48.4497 91.1387 47.863 91.4 47.255 91.4C46.583 91.4 46.103 91.2293 45.815 90.888C45.527 90.5467 45.383 90.056 45.383 89.416C45.383 89.064 45.431 88.6747 45.527 88.248C45.623 87.8107 45.735 87.368 45.863 86.92C45.991 86.472 46.103 86.0507 46.199 85.656C46.295 85.2613 46.343 84.92 46.343 84.632C46.343 84.408 46.3003 84.232 46.215 84.104C46.1403 83.976 46.0017 83.912 45.799 83.912C45.511 83.912 45.1803 84.04 44.807 84.296C44.4443 84.552 44.087 84.9147 43.735 85.384C43.3937 85.8427 43.111 86.392 42.887 87.032C42.663 87.672 42.551 88.3813 42.551 89.16C42.551 89.8213 42.663 90.3067 42.887 90.616C42.3217 91.1387 41.735 91.4 41.127 91.4ZM61.7168 91.4C60.7781 91.4 59.9674 91.224 59.2848 90.872C58.6128 90.5093 58.0954 90.0133 57.7328 89.384C57.3701 88.7547 57.1888 88.024 57.1888 87.192C57.1888 86.04 57.4394 85.032 57.9408 84.168C58.4528 83.2933 59.1514 82.616 60.0368 82.136C60.9221 81.6453 61.9301 81.4 63.0608 81.4C63.2421 81.4 63.4234 81.4107 63.6048 81.432C63.7968 81.4427 63.9994 81.4747 64.2128 81.528C64.2661 81.6773 64.3088 81.8587 64.3408 82.072C64.3728 82.2747 64.3941 82.4933 64.4048 82.728C64.5008 82.696 64.6021 82.6693 64.7088 82.648C64.8261 82.6267 64.9488 82.616 65.0768 82.616C65.4501 82.616 65.8021 82.7173 66.1328 82.92C66.4634 83.112 66.7354 83.416 66.9488 83.832C67.1621 84.248 67.2688 84.776 67.2688 85.416C67.2688 86.3653 67.1088 87.2133 66.7888 87.96C66.4794 88.696 66.0581 89.32 65.5248 89.832C64.9914 90.344 64.3941 90.7333 63.7328 91C63.0821 91.2667 62.4101 91.4 61.7168 91.4ZM62.2128 89.432C62.4581 89.432 62.7141 89.3733 62.9808 89.256C63.2474 89.1387 63.5088 88.9253 63.7648 88.616C64.0208 88.3067 64.2341 87.8693 64.4048 87.304C63.9461 87.016 63.6154 86.664 63.4128 86.248C63.2101 85.8213 63.1088 85.352 63.1088 84.84C63.1088 84.6907 63.1354 84.4987 63.1888 84.264C63.2421 84.0293 63.3328 83.7893 63.4608 83.544C63.5994 83.2987 63.7861 83.096 64.0208 82.936C63.2848 83.0853 62.6821 83.3093 62.2128 83.608C61.7434 83.9067 61.3754 84.2533 61.1088 84.648C60.8528 85.032 60.6714 85.432 60.5648 85.848C60.4688 86.2533 60.4208 86.6427 60.4208 87.016C60.4208 87.4427 60.4901 87.8427 60.6288 88.216C60.7674 88.5787 60.9701 88.872 61.2368 89.096C61.5034 89.32 61.8288 89.432 62.2128 89.432ZM70.6583 91.4C69.9863 91.4 69.5063 91.2293 69.2183 90.888C68.9303 90.5467 68.7863 90.056 68.7863 89.416C68.7863 89.192 68.8183 88.8507 68.8823 88.392C68.9463 87.9227 69.0263 87.4053 69.1223 86.84C69.2289 86.264 69.3409 85.688 69.4583 85.112C69.5756 84.536 69.6876 84.024 69.7943 83.576L68.9622 82.296C69.3996 82.0507 69.8689 81.8427 70.3703 81.672C70.8823 81.4907 71.3996 81.4 71.9223 81.4C72.3703 81.4 72.7009 81.512 72.9143 81.736C73.1276 81.9493 73.2343 82.2427 73.2343 82.616C73.2343 82.8933 73.1969 83.1813 73.1223 83.48C73.0476 83.7787 72.9623 84.0347 72.8663 84.248L73.0263 84.328C73.6556 83.2507 74.3436 82.4933 75.0903 82.056C75.8369 81.6187 76.5996 81.4 77.3783 81.4C78.0289 81.4 78.5143 81.56 78.8343 81.88C79.1543 82.1893 79.3143 82.6747 79.3143 83.336C79.3143 83.912 79.2343 84.5253 79.0743 85.176C78.9249 85.816 78.7703 86.4773 78.6103 87.16C78.4503 87.832 78.3703 88.4987 78.3703 89.16C78.3703 89.8213 78.4823 90.3067 78.7063 90.616C78.1409 91.1387 77.5543 91.4 76.9462 91.4C76.2743 91.4 75.7943 91.2293 75.5063 90.888C75.2183 90.5467 75.0743 90.056 75.0743 89.416C75.0743 89.064 75.1223 88.6747 75.2183 88.248C75.3143 87.8107 75.4263 87.368 75.5543 86.92C75.6823 86.472 75.7943 86.0507 75.8903 85.656C75.9863 85.2613 76.0343 84.92 76.0343 84.632C76.0343 84.408 75.9916 84.232 75.9062 84.104C75.8316 83.976 75.6929 83.912 75.4903 83.912C75.2023 83.912 74.8663 84.04 74.4823 84.296C74.0983 84.552 73.7196 84.9147 73.3463 85.384C72.9836 85.8427 72.6796 86.392 72.4343 87.032C72.1996 87.672 72.0823 88.3813 72.0823 89.16C72.0823 89.8213 72.1943 90.3067 72.4183 90.616C71.8529 91.1387 71.2663 91.4 70.6583 91.4ZM85.2793 91.4C84.3406 91.4 83.5299 91.224 82.8473 90.872C82.1753 90.5093 81.6579 90.0133 81.2953 89.384C80.9326 88.7547 80.7513 88.024 80.7513 87.192C80.7513 86.04 81.0019 85.032 81.5033 84.168C82.0153 83.2933 82.7139 82.616 83.5993 82.136C84.4846 81.6453 85.4926 81.4 86.6233 81.4C86.8046 81.4 86.9859 81.4107 87.1673 81.432C87.3593 81.4427 87.5619 81.4747 87.7753 81.528C87.8286 81.6773 87.8713 81.8587 87.9033 82.072C87.9353 82.2747 87.9566 82.4933 87.9673 82.728C88.0633 82.696 88.1646 82.6693 88.2713 82.648C88.3886 82.6267 88.5113 82.616 88.6393 82.616C89.0126 82.616 89.3646 82.7173 89.6953 82.92C90.0259 83.112 90.2979 83.416 90.5113 83.832C90.7246 84.248 90.8313 84.776 90.8313 85.416C90.8313 86.3653 90.6713 87.2133 90.3513 87.96C90.0419 88.696 89.6206 89.32 89.0873 89.832C88.5539 90.344 87.9566 90.7333 87.2953 91C86.6446 91.2667 85.9726 91.4 85.2793 91.4ZM85.7753 89.432C86.0206 89.432 86.2766 89.3733 86.5433 89.256C86.8099 89.1387 87.0713 88.9253 87.3273 88.616C87.5833 88.3067 87.7966 87.8693 87.9673 87.304C87.5086 87.016 87.1779 86.664 86.9753 86.248C86.7726 85.8213 86.6713 85.352 86.6713 84.84C86.6713 84.6907 86.6979 84.4987 86.7513 84.264C86.8046 84.0293 86.8953 83.7893 87.0233 83.544C87.1619 83.2987 87.3486 83.096 87.5833 82.936C86.8473 83.0853 86.2446 83.3093 85.7753 83.608C85.3059 83.9067 84.9379 84.2533 84.6713 84.648C84.4153 85.032 84.2339 85.432 84.1273 85.848C84.0313 86.2533 83.9833 86.6427 83.9833 87.016C83.9833 87.4427 84.0526 87.8427 84.1913 88.216C84.3299 88.5787 84.5326 88.872 84.7993 89.096C85.0659 89.32 85.3913 89.432 85.7753 89.432ZM94.1568 91.4C93.5061 91.4 93.0421 91.2293 92.7648 90.888C92.4874 90.5467 92.3488 90.056 92.3488 89.416C92.3488 89.192 92.3808 88.8507 92.4448 88.392C92.5088 87.9227 92.5888 87.4053 92.6848 86.84C92.7914 86.264 92.9034 85.688 93.0208 85.112C93.1381 84.536 93.2501 84.024 93.3568 83.576L92.5247 82.296C93.0794 82.0507 93.5914 81.8427 94.0608 81.672C94.5408 81.4907 94.9674 81.4 95.3408 81.4C95.6181 81.4 95.8208 81.496 95.9488 81.688C96.0768 81.88 96.1408 82.1253 96.1408 82.424C96.1408 82.7653 96.0821 83.1493 95.9648 83.576C95.8474 83.992 95.7301 84.3867 95.6128 84.76L95.7728 84.84C96.1461 83.7413 96.5674 82.8933 97.0368 82.296C97.5168 81.6987 98.0501 81.4 98.6368 81.4C99.0208 81.4 99.3301 81.4853 99.5648 81.656C99.7994 81.816 99.9701 82.0187 100.077 82.264C100.194 82.4987 100.253 82.728 100.253 82.952C100.253 83.304 100.162 83.6453 99.9808 83.976C99.8101 84.296 99.5328 84.5627 99.1488 84.776C98.7648 84.9787 98.2581 85.08 97.6288 85.08C97.3834 85.08 97.1434 85.1333 96.9088 85.24C96.6741 85.3467 96.4608 85.5493 96.2688 85.848C96.0768 86.136 95.9221 86.5467 95.8048 87.08C95.6981 87.6133 95.6448 88.3067 95.6448 89.16C95.6448 89.8213 95.7568 90.3067 95.9808 90.616C95.3194 91.1387 94.7114 91.4 94.1568 91.4ZM104.749 91.4C103.757 91.4 102.92 91.224 102.237 90.872C101.554 90.52 101.037 90.0293 100.685 89.4C100.344 88.76 100.173 88.024 100.173 87.192C100.173 86.328 100.328 85.544 100.637 84.84C100.957 84.1253 101.4 83.512 101.965 83C102.53 82.488 103.186 82.0933 103.933 81.816C104.69 81.5387 105.506 81.4 106.381 81.4C107.416 81.4 108.178 81.6293 108.669 82.088C109.16 82.5467 109.405 83.1227 109.405 83.816C109.405 84.4133 109.208 84.9787 108.813 85.512C108.429 86.0347 107.805 86.4613 106.941 86.792C106.077 87.112 104.925 87.2773 103.485 87.288C103.517 87.9707 103.672 88.5093 103.949 88.904C104.237 89.288 104.594 89.48 105.021 89.48C105.234 89.48 105.458 89.432 105.693 89.336C105.928 89.2293 106.125 89.048 106.285 88.792C106.445 88.5253 106.525 88.1627 106.525 87.704C107.25 87.704 107.821 87.784 108.237 87.944C108.653 88.104 108.861 88.392 108.861 88.808C108.861 89.192 108.696 89.5867 108.365 89.992C108.034 90.3867 107.56 90.7227 106.941 91C106.333 91.2667 105.602 91.4 104.749 91.4ZM103.629 86.008C104.408 85.944 105.032 85.8 105.501 85.576C105.97 85.352 106.312 85.096 106.525 84.808C106.738 84.52 106.845 84.2533 106.845 84.008C106.845 83.7947 106.781 83.6187 106.653 83.48C106.525 83.3413 106.344 83.272 106.109 83.272C105.725 83.272 105.368 83.4053 105.037 83.672C104.706 83.9387 104.418 84.2853 104.173 84.712C103.938 85.128 103.757 85.56 103.629 86.008ZM112.609 94.184C111.926 94.184 111.462 94.0133 111.217 93.672C110.971 93.3307 110.849 92.84 110.849 92.2C110.849 91.9653 110.875 91.6027 110.929 91.112C110.982 90.6213 111.046 90.0613 111.121 89.432C111.206 88.792 111.302 88.1307 111.409 87.448C111.515 86.7653 111.617 86.1093 111.713 85.48C111.819 84.8507 111.915 84.3013 112.001 83.832L111.105 82.552C111.67 82.2213 112.203 81.944 112.705 81.72C113.217 81.496 113.729 81.384 114.241 81.384C114.689 81.384 114.993 81.5387 115.153 81.848C115.313 82.1467 115.393 82.4987 115.393 82.904C115.393 83.0213 115.387 83.1547 115.377 83.304C115.366 83.4427 115.35 83.592 115.329 83.752L115.489 83.832C115.798 83.064 116.246 82.4667 116.833 82.04C117.419 81.6027 118.091 81.384 118.849 81.384C119.425 81.384 119.91 81.56 120.305 81.912C120.699 82.2533 120.998 82.7067 121.201 83.272C121.403 83.8373 121.505 84.4613 121.505 85.144C121.505 85.8053 121.377 86.4827 121.121 87.176C120.875 87.8587 120.497 88.488 119.985 89.064C119.473 89.64 118.827 90.104 118.049 90.456C117.27 90.808 116.347 90.984 115.281 90.984C115.078 90.984 114.881 90.9787 114.689 90.968C114.497 90.9467 114.289 90.9253 114.065 90.904C114.033 91.2667 114.017 91.6133 114.017 91.944C114.017 92.264 114.054 92.5467 114.129 92.792C114.214 93.048 114.342 93.2507 114.513 93.4C113.915 93.9227 113.281 94.184 112.609 94.184ZM114.353 89.416C115.046 89.3947 115.654 89.2667 116.177 89.032C116.71 88.7867 117.158 88.472 117.521 88.088C117.883 87.6933 118.155 87.2667 118.337 86.808C118.518 86.3493 118.609 85.9013 118.609 85.464C118.609 84.9733 118.513 84.5733 118.321 84.264C118.129 83.9547 117.841 83.8 117.457 83.8C117.062 83.8 116.689 83.9227 116.337 84.168C115.995 84.4027 115.686 84.792 115.409 85.336C115.142 85.88 114.913 86.6213 114.721 87.56L114.353 89.416ZM127.467 91.4C126.528 91.4 125.717 91.224 125.035 90.872C124.363 90.5093 123.845 90.0133 123.483 89.384C123.12 88.7547 122.939 88.024 122.939 87.192C122.939 86.04 123.189 85.032 123.691 84.168C124.203 83.2933 124.901 82.616 125.787 82.136C126.672 81.6453 127.68 81.4 128.811 81.4C128.992 81.4 129.173 81.4107 129.355 81.432C129.547 81.4427 129.749 81.4747 129.963 81.528C130.016 81.6773 130.059 81.8587 130.091 82.072C130.123 82.2747 130.144 82.4933 130.155 82.728C130.251 82.696 130.352 82.6693 130.459 82.648C130.576 82.6267 130.699 82.616 130.827 82.616C131.2 82.616 131.552 82.7173 131.883 82.92C132.213 83.112 132.485 83.416 132.699 83.832C132.912 84.248 133.019 84.776 133.019 85.416C133.019 86.3653 132.859 87.2133 132.539 87.96C132.229 88.696 131.808 89.32 131.275 89.832C130.741 90.344 130.144 90.7333 129.483 91C128.832 91.2667 128.16 91.4 127.467 91.4ZM127.963 89.432C128.208 89.432 128.464 89.3733 128.731 89.256C128.997 89.1387 129.259 88.9253 129.515 88.616C129.771 88.3067 129.984 87.8693 130.155 87.304C129.696 87.016 129.365 86.664 129.163 86.248C128.96 85.8213 128.859 85.352 128.859 84.84C128.859 84.6907 128.885 84.4987 128.939 84.264C128.992 84.0293 129.083 83.7893 129.211 83.544C129.349 83.2987 129.536 83.096 129.771 82.936C129.035 83.0853 128.432 83.3093 127.963 83.608C127.493 83.9067 127.125 84.2533 126.859 84.648C126.603 85.032 126.421 85.432 126.315 85.848C126.219 86.2533 126.171 86.6427 126.171 87.016C126.171 87.4427 126.24 87.8427 126.379 88.216C126.517 88.5787 126.72 88.872 126.987 89.096C127.253 89.32 127.579 89.432 127.963 89.432ZM139.573 92.648C139.349 92.648 139.114 92.6107 138.869 92.536C138.634 92.472 138.389 92.3387 138.133 92.136C138.4 91.8907 138.645 91.496 138.869 90.952C139.093 90.3973 139.296 89.8 139.477 89.16C139.861 87.816 140.202 86.5093 140.501 85.24C140.81 83.9707 141.088 82.7973 141.333 81.72C141.589 80.632 141.813 79.704 142.005 78.936C142.08 78.6373 142.213 78.392 142.405 78.2C142.597 78.008 142.885 77.912 143.269 77.912C143.632 77.912 143.968 77.9813 144.277 78.12C144.586 78.248 144.869 78.4293 145.125 78.664C144.944 78.9413 144.762 79.272 144.581 79.656C144.41 80.04 144.256 80.4293 144.117 80.824C143.978 81.208 143.866 81.5547 143.781 81.864C143.546 82.6853 143.333 83.4587 143.141 84.184C142.949 84.9093 142.762 85.624 142.581 86.328C142.4 87.0213 142.208 87.7413 142.005 88.488C141.813 89.2347 141.594 90.0453 141.349 90.92C141.2 91.464 140.981 91.8853 140.693 92.184C140.416 92.4933 140.042 92.648 139.573 92.648ZM144.597 92.648C144.373 92.648 144.138 92.6107 143.893 92.536C143.658 92.472 143.413 92.3387 143.157 92.136C143.424 91.8907 143.669 91.496 143.893 90.952C144.117 90.3973 144.32 89.8 144.501 89.16C144.885 87.816 145.226 86.5093 145.525 85.24C145.834 83.9707 146.112 82.7973 146.357 81.72C146.613 80.632 146.837 79.704 147.029 78.936C147.104 78.6373 147.237 78.392 147.429 78.2C147.621 78.008 147.909 77.912 148.293 77.912C148.656 77.912 148.992 77.9813 149.301 78.12C149.61 78.248 149.893 78.4293 150.149 78.664C149.968 78.9413 149.786 79.272 149.605 79.656C149.434 80.04 149.28 80.4293 149.141 80.824C149.002 81.208 148.89 81.5547 148.805 81.864C148.57 82.6853 148.357 83.4587 148.165 84.184C147.973 84.9093 147.786 85.624 147.605 86.328C147.424 87.0213 147.232 87.7413 147.029 88.488C146.837 89.2347 146.618 90.0453 146.373 90.92C146.224 91.464 146.005 91.8853 145.717 92.184C145.44 92.4933 145.066 92.648 144.597 92.648ZM140.085 83.928C139.893 83.928 139.728 83.864 139.589 83.736C139.45 83.5973 139.381 83.352 139.381 83C139.381 82.6587 139.429 82.3227 139.525 81.992C139.621 81.6613 139.754 81.368 139.925 81.112C140.234 81.2293 140.581 81.3093 140.965 81.352C141.36 81.3947 141.706 81.416 142.005 81.416C142.56 81.416 143.125 81.4107 143.701 81.4C144.288 81.3893 144.874 81.3787 145.461 81.368C146.677 81.336 147.898 81.32 149.125 81.32C149.552 81.32 149.882 81.4107 150.117 81.592C150.352 81.7733 150.469 82.088 150.469 82.536C150.469 82.7387 150.448 82.952 150.405 83.176C150.362 83.4 150.277 83.6187 150.149 83.832C149.925 83.736 149.642 83.6667 149.301 83.624C148.96 83.5707 148.586 83.544 148.181 83.544C147.402 83.544 146.56 83.5707 145.653 83.624C144.746 83.6667 143.888 83.7147 143.077 83.768C142.458 83.8107 141.888 83.848 141.365 83.88C140.853 83.912 140.426 83.928 140.085 83.928ZM138.869 88.76C138.677 88.76 138.512 88.696 138.373 88.568C138.234 88.4293 138.165 88.184 138.165 87.832C138.165 87.4907 138.213 87.1547 138.309 86.824C138.405 86.4933 138.538 86.2 138.709 85.944C139.018 86.0613 139.365 86.1413 139.749 86.184C140.144 86.2267 140.49 86.248 140.789 86.248C141.344 86.248 141.909 86.2427 142.485 86.232C143.072 86.2213 143.658 86.2107 144.245 86.2C145.461 86.168 146.682 86.152 147.909 86.152C148.336 86.152 148.666 86.2427 148.901 86.424C149.136 86.6053 149.253 86.92 149.253 87.368C149.253 87.5707 149.232 87.784 149.189 88.008C149.146 88.232 149.061 88.4507 148.933 88.664C148.709 88.568 148.426 88.4987 148.085 88.456C147.744 88.4027 147.37 88.376 146.965 88.376C146.186 88.376 145.344 88.4027 144.437 88.456C143.53 88.4987 142.672 88.5467 141.861 88.6C141.242 88.6427 140.672 88.68 140.149 88.712C139.637 88.744 139.21 88.76 138.869 88.76ZM158.092 91.4C157.42 91.4 156.774 91.3147 156.156 91.144C155.537 90.9733 154.849 90.7547 154.092 90.488C153.708 90.7867 153.334 90.9947 152.972 91.112C152.609 91.24 152.294 91.304 152.028 91.304C151.484 91.304 151.073 91.1227 150.796 90.76C150.518 90.3867 150.38 89.96 150.38 89.48C150.38 89.1067 150.476 88.744 150.668 88.392C150.87 88.0293 151.164 87.7307 151.548 87.496C151.932 87.2613 152.401 87.144 152.956 87.144C153.105 87.144 153.244 87.1547 153.372 87.176C153.5 87.1867 153.601 87.2027 153.676 87.224C154.518 86.5093 155.18 85.864 155.66 85.288C156.14 84.7013 156.38 84.1573 156.38 83.656C156.38 83.2933 156.262 83 156.028 82.776C155.804 82.552 155.5 82.44 155.116 82.44C154.924 82.44 154.71 82.4773 154.476 82.552C154.252 82.6267 154.022 82.7973 153.788 83.064C153.553 83.3307 153.334 83.752 153.132 84.328C152.641 84.2747 152.273 84.104 152.028 83.816C151.793 83.528 151.676 83.1867 151.676 82.792C151.676 82.3227 151.825 81.8587 152.124 81.4C152.433 80.9413 152.929 80.5627 153.612 80.264C154.305 79.9547 155.222 79.8 156.364 79.8C157.068 79.8 157.665 79.896 158.156 80.088C158.646 80.2693 159.046 80.5093 159.356 80.808C159.665 81.1067 159.889 81.4373 160.028 81.8C160.166 82.152 160.236 82.4987 160.236 82.84C160.236 83.3947 160.065 83.96 159.724 84.536C159.382 85.112 158.924 85.688 158.348 86.264C157.782 86.8293 157.148 87.3893 156.444 87.944C156.881 88.0187 157.276 88.0773 157.628 88.12C157.98 88.152 158.305 88.168 158.604 88.168L160.476 87.448C160.529 87.6507 160.572 87.8747 160.604 88.12C160.636 88.3547 160.652 88.5787 160.652 88.792C160.652 89.4 160.534 89.896 160.3 90.28C160.065 90.664 159.756 90.9467 159.372 91.128C158.988 91.3093 158.561 91.4 158.092 91.4Z" fill="white"/>
</svg>
