<svg width="200" height="150" viewBox="0 0 200 150" fill="none" xmlns="http://www.w3.org/2000/svg">
<rect width="200" height="150" fill="#264DB1"/>
<path d="M28.1472 73.76C27.4112 73.76 26.7925 73.6 26.2912 73.28C25.7899 72.96 25.5392 72.512 25.5392 71.936C25.5392 71.7013 25.5872 71.4507 25.6832 71.184C25.7792 70.9173 25.9285 70.6347 26.1312 70.336C26.3765 70.688 26.6699 70.9547 27.0112 71.136C27.3525 71.328 27.6992 71.424 28.0512 71.424C28.4672 71.424 28.8672 71.2853 29.2512 71.008C29.6352 70.7307 29.9445 70.288 30.1792 69.68C29.9125 69.776 29.6619 69.8453 29.4272 69.888C29.1925 69.9307 28.9685 69.952 28.7552 69.952C28.2005 69.952 27.7525 69.808 27.4112 69.52C27.0699 69.2213 26.8725 68.7947 26.8192 68.24C26.7445 67.536 26.6965 66.8053 26.6752 66.048C26.6539 65.2907 26.6112 64.6027 26.5472 63.984C26.4725 63.2587 26.3179 62.656 26.0832 62.176C25.8485 61.696 25.5765 61.3333 25.2672 61.088C25.5232 60.8533 25.7899 60.6827 26.0672 60.576C26.3552 60.4587 26.7179 60.4 27.1552 60.4C27.6885 60.4 28.1205 60.56 28.4512 60.88C28.7925 61.2 29.0539 61.6533 29.2352 62.24C29.4165 62.816 29.5392 63.4933 29.6032 64.272C29.6779 65.04 29.7152 65.8773 29.7152 66.784C29.7152 66.912 29.7099 67.1093 29.6992 67.376C29.6992 67.6427 29.6885 67.9093 29.6672 68.176H30.5952C30.7659 67.7067 30.9472 67.2053 31.1392 66.672C31.3312 66.1387 31.5072 65.6 31.6672 65.056C31.8379 64.5013 31.9765 63.9733 32.0832 63.472C32.1899 62.96 32.2432 62.5067 32.2432 62.112C32.2432 61.8773 32.2165 61.68 32.1632 61.52C32.1205 61.36 32.0672 61.216 32.0032 61.088C32.3765 60.8533 32.7445 60.6827 33.1072 60.576C33.4699 60.4587 33.7952 60.4 34.0832 60.4C34.5739 60.4 34.9312 60.5653 35.1552 60.896C35.3899 61.2267 35.5072 61.6587 35.5072 62.192C35.5072 62.5867 35.4485 63.0453 35.3312 63.568C35.2139 64.08 35.0645 64.6133 34.8832 65.168C34.7125 65.712 34.5365 66.2293 34.3552 66.72C34.1845 67.2107 34.0405 67.6267 33.9232 67.968C33.4112 69.44 32.8352 70.5973 32.1952 71.44C31.5659 72.2827 30.9045 72.88 30.2112 73.232C29.5285 73.584 28.8405 73.76 28.1472 73.76ZM39.6242 70.4C39.0269 70.4 38.4989 70.2453 38.0402 69.936C37.5922 69.6267 37.2455 69.1893 37.0002 68.624C36.7549 68.0587 36.6322 67.3973 36.6322 66.64C36.6322 65.7547 36.7869 64.9333 37.0962 64.176C37.4162 63.4187 37.8535 62.7573 38.4082 62.192C38.9735 61.6267 39.6349 61.1893 40.3922 60.88C41.1495 60.56 41.9709 60.4 42.8562 60.4C43.1122 60.4 43.3309 60.4107 43.5122 60.432C43.7042 60.4427 43.9069 60.4747 44.1202 60.528C44.1842 60.8267 44.2215 61.088 44.2322 61.312C44.4775 61.152 44.7495 61.0293 45.0482 60.944C45.3469 60.848 45.6242 60.8 45.8802 60.8C46.6589 60.8 47.0482 61.2213 47.0482 62.064C47.0482 62.3413 46.9949 62.72 46.8882 63.2C46.7922 63.6693 46.6749 64.192 46.5362 64.768C46.4082 65.3333 46.2909 65.9147 46.1842 66.512C46.0882 67.0987 46.0402 67.648 46.0402 68.16C46.0402 68.8533 46.2055 69.3387 46.5362 69.616C45.9389 70.1387 45.3042 70.4 44.6322 70.4C44.0135 70.4 43.5549 70.208 43.2562 69.824C42.9682 69.44 42.8242 68.8427 42.8242 68.032L42.6642 67.952C42.3762 68.72 41.9602 69.3227 41.4162 69.76C40.8829 70.1867 40.2855 70.4 39.6242 70.4ZM40.8882 67.488C41.3042 67.488 41.7095 67.3387 42.1042 67.04C42.4989 66.7413 42.8295 66.3307 43.0962 65.808C43.1389 65.392 43.1815 65.0027 43.2242 64.64C43.2775 64.2667 43.3415 63.872 43.4162 63.456C43.5015 63.04 43.6029 62.5493 43.7202 61.984C43.1762 61.984 42.6589 62.0907 42.1682 62.304C41.6882 62.5067 41.2562 62.7893 40.8722 63.152C40.4882 63.5147 40.1842 63.9307 39.9602 64.4C39.7469 64.8587 39.6402 65.344 39.6402 65.856C39.6402 66.3787 39.7469 66.784 39.9602 67.072C40.1842 67.3493 40.4935 67.488 40.8882 67.488ZM50.4614 70.4C49.8108 70.4 49.3468 70.2293 49.0694 69.888C48.7921 69.5467 48.6534 69.056 48.6534 68.416C48.6534 68.192 48.6854 67.8507 48.7494 67.392C48.8134 66.9227 48.8934 66.4053 48.9894 65.84C49.0961 65.264 49.2081 64.688 49.3254 64.112C49.4428 63.536 49.5548 63.024 49.6614 62.576L48.8294 61.296C49.3841 61.0507 49.8961 60.8427 50.3654 60.672C50.8454 60.4907 51.2721 60.4 51.6454 60.4C51.9228 60.4 52.1254 60.496 52.2534 60.688C52.3814 60.88 52.4454 61.1253 52.4454 61.424C52.4454 61.7653 52.3868 62.1493 52.2694 62.576C52.1521 62.992 52.0348 63.3867 51.9174 63.76L52.0774 63.84C52.4508 62.7413 52.8721 61.8933 53.3414 61.296C53.8214 60.6987 54.3548 60.4 54.9414 60.4C55.3254 60.4 55.6348 60.4853 55.8694 60.656C56.1041 60.816 56.2748 61.0187 56.3814 61.264C56.4988 61.4987 56.5574 61.728 56.5574 61.952C56.5574 62.304 56.4668 62.6453 56.2854 62.976C56.1148 63.296 55.8374 63.5627 55.4534 63.776C55.0694 63.9787 54.5628 64.08 53.9334 64.08C53.6881 64.08 53.4481 64.1333 53.2134 64.24C52.9788 64.3467 52.7654 64.5493 52.5734 64.848C52.3814 65.136 52.2268 65.5467 52.1094 66.08C52.0028 66.6133 51.9494 67.3067 51.9494 68.16C51.9494 68.8213 52.0614 69.3067 52.2854 69.616C51.6241 70.1387 51.0161 70.4 50.4614 70.4ZM58.9942 70.4C58.3222 70.4 57.8422 70.2293 57.5542 69.888C57.2662 69.5467 57.1222 69.056 57.1222 68.416C57.1222 68.192 57.1542 67.8507 57.2182 67.392C57.2822 66.9227 57.3622 66.4053 57.4582 65.84C57.5649 65.264 57.6769 64.688 57.7942 64.112C57.9115 63.536 58.0235 63.024 58.1302 62.576L57.2982 61.296C57.7355 61.0507 58.2049 60.8427 58.7062 60.672C59.2182 60.4907 59.7355 60.4 60.2582 60.4C60.7062 60.4 61.0369 60.512 61.2502 60.736C61.4635 60.9493 61.5702 61.2427 61.5702 61.616C61.5702 61.8933 61.5329 62.1813 61.4582 62.48C61.3835 62.7787 61.2982 63.0347 61.2022 63.248L61.3622 63.328C61.9915 62.2507 62.6795 61.4933 63.4262 61.056C64.1729 60.6187 64.9355 60.4 65.7142 60.4C66.3649 60.4 66.8502 60.56 67.1702 60.88C67.4902 61.1893 67.6502 61.6747 67.6502 62.336C67.6502 62.912 67.5702 63.5253 67.4102 64.176C67.2609 64.816 67.1062 65.4773 66.9462 66.16C66.7862 66.832 66.7062 67.4987 66.7062 68.16C66.7062 68.8213 66.8182 69.3067 67.0422 69.616C66.4769 70.1387 65.8902 70.4 65.2822 70.4C64.6102 70.4 64.1302 70.2293 63.8422 69.888C63.5542 69.5467 63.4102 69.056 63.4102 68.416C63.4102 68.064 63.4582 67.6747 63.5542 67.248C63.6502 66.8107 63.7622 66.368 63.8902 65.92C64.0182 65.472 64.1302 65.0507 64.2262 64.656C64.3222 64.2613 64.3702 63.92 64.3702 63.632C64.3702 63.408 64.3275 63.232 64.2422 63.104C64.1675 62.976 64.0289 62.912 63.8262 62.912C63.5382 62.912 63.2022 63.04 62.8182 63.296C62.4342 63.552 62.0555 63.9147 61.6822 64.384C61.3195 64.8427 61.0155 65.392 60.7702 66.032C60.5355 66.672 60.4182 67.3813 60.4182 68.16C60.4182 68.8213 60.5302 69.3067 60.7542 69.616C60.1889 70.1387 59.6022 70.4 58.9942 70.4ZM76.8921 70.4C76.5401 70.4 76.1934 70.3467 75.8521 70.24C75.5214 70.1333 75.2441 69.9467 75.0201 69.68C74.8067 69.4133 74.7001 69.0453 74.7001 68.576C74.7001 68.576 74.7001 68.4533 74.7001 68.208C74.7107 67.9627 74.7161 67.648 74.7161 67.264C74.7267 66.88 74.7321 66.4747 74.7321 66.048C74.7321 65.6107 74.7321 65.1947 74.7321 64.8C74.7427 64.4053 74.7481 64.0853 74.7481 63.84C74.7481 63.1147 74.6627 62.5387 74.4921 62.112C74.3321 61.6747 74.1294 61.3333 73.8841 61.088C74.4387 60.6293 75.0467 60.4 75.7081 60.4C76.3054 60.4 76.7587 60.576 77.0681 60.928C77.3774 61.2693 77.5854 61.7387 77.6921 62.336C77.8094 62.9333 77.8681 63.6 77.8681 64.336C77.8681 64.7307 77.8627 65.1787 77.8521 65.68C77.8521 66.1707 77.8467 66.6613 77.8361 67.152C77.8254 67.632 77.8094 68.064 77.7881 68.448H78.3321C78.7054 67.7973 79.0361 67.1787 79.3241 66.592C79.6121 66.0053 79.8147 65.4293 79.9321 64.864C79.9321 64.5013 79.8947 64.096 79.8201 63.648C79.7561 63.2 79.6707 62.7787 79.5641 62.384C79.4574 61.9787 79.3454 61.68 79.2281 61.488C79.3881 61.2747 79.6334 61.104 79.9641 60.976C80.2947 60.848 80.6361 60.784 80.9881 60.784C81.2654 60.784 81.5321 60.832 81.7881 60.928C82.0547 61.024 82.2734 61.1787 82.4441 61.392C82.6254 61.6053 82.7161 61.888 82.7161 62.24C82.7161 62.5707 82.6467 62.9227 82.5081 63.296C82.3694 63.6587 82.2147 64.096 82.0441 64.608L81.9801 68.448H82.5241C82.7694 67.9787 83.0307 67.4453 83.3081 66.848C83.5854 66.24 83.8467 65.6213 84.0921 64.992C84.3481 64.3627 84.5561 63.7707 84.7161 63.216C84.8761 62.6507 84.9561 62.1813 84.9561 61.808C84.9561 61.6587 84.9401 61.5253 84.9081 61.408C84.8867 61.2907 84.8547 61.184 84.8121 61.088C85.1854 60.8533 85.5534 60.6827 85.9161 60.576C86.2787 60.4587 86.6094 60.4 86.9081 60.4C87.3774 60.4 87.7134 60.5387 87.9161 60.816C88.1187 61.0933 88.2201 61.456 88.2201 61.904C88.2201 62.288 88.1347 62.7467 87.9641 63.28C87.8041 63.8133 87.6014 64.3733 87.3561 64.96C87.1107 65.536 86.8654 66.0907 86.6201 66.624C86.3747 67.1467 86.1774 67.5947 86.0281 67.968L86.2521 68.896C86.0921 69.024 85.8574 69.1733 85.5481 69.344C85.2387 69.5147 84.8867 69.68 84.4921 69.84C84.1081 70 83.7027 70.1333 83.2761 70.24C82.8601 70.3467 82.4601 70.4 82.0761 70.4C81.6067 70.4 81.1854 70.2933 80.8121 70.08C80.4494 69.8667 80.2041 69.488 80.0761 68.944C79.6067 69.4027 79.1161 69.76 78.6041 70.016C78.1027 70.272 77.5321 70.4 76.8921 70.4ZM93.8652 70.4C92.9265 70.4 92.1159 70.224 91.4332 69.872C90.7612 69.5093 90.2439 69.0133 89.8812 68.384C89.5185 67.7547 89.3372 67.024 89.3372 66.192C89.3372 65.04 89.5879 64.032 90.0892 63.168C90.6012 62.2933 91.2999 61.616 92.1852 61.136C93.0705 60.6453 94.0785 60.4 95.2092 60.4C95.3905 60.4 95.5719 60.4107 95.7532 60.432C95.9452 60.4427 96.1479 60.4747 96.3612 60.528C96.4145 60.6773 96.4572 60.8587 96.4892 61.072C96.5212 61.2747 96.5425 61.4933 96.5532 61.728C96.6492 61.696 96.7505 61.6693 96.8572 61.648C96.9745 61.6267 97.0972 61.616 97.2252 61.616C97.5985 61.616 97.9505 61.7173 98.2812 61.92C98.6119 62.112 98.8839 62.416 99.0972 62.832C99.3105 63.248 99.4172 63.776 99.4172 64.416C99.4172 65.3653 99.2572 66.2133 98.9372 66.96C98.6279 67.696 98.2065 68.32 97.6732 68.832C97.1399 69.344 96.5425 69.7333 95.8812 70C95.2305 70.2667 94.5585 70.4 93.8652 70.4ZM94.3612 68.432C94.6065 68.432 94.8625 68.3733 95.1292 68.256C95.3959 68.1387 95.6572 67.9253 95.9132 67.616C96.1692 67.3067 96.3825 66.8693 96.5532 66.304C96.0945 66.016 95.7639 65.664 95.5612 65.248C95.3585 64.8213 95.2572 64.352 95.2572 63.84C95.2572 63.6907 95.2839 63.4987 95.3372 63.264C95.3905 63.0293 95.4812 62.7893 95.6092 62.544C95.7479 62.2987 95.9345 62.096 96.1692 61.936C95.4332 62.0853 94.8305 62.3093 94.3612 62.608C93.8919 62.9067 93.5239 63.2533 93.2572 63.648C93.0012 64.032 92.8199 64.432 92.7132 64.848C92.6172 65.2533 92.5692 65.6427 92.5692 66.016C92.5692 66.4427 92.6385 66.8427 92.7772 67.216C92.9159 67.5787 93.1185 67.872 93.3852 68.096C93.6519 68.32 93.9772 68.432 94.3612 68.432ZM102.743 70.4C102.092 70.4 101.628 70.2293 101.351 69.888C101.073 69.5467 100.935 69.056 100.935 68.416C100.935 68.192 100.967 67.8507 101.031 67.392C101.095 66.9227 101.175 66.4053 101.271 65.84C101.377 65.264 101.489 64.688 101.607 64.112C101.724 63.536 101.836 63.024 101.943 62.576L101.111 61.296C101.665 61.0507 102.177 60.8427 102.647 60.672C103.127 60.4907 103.553 60.4 103.927 60.4C104.204 60.4 104.407 60.496 104.535 60.688C104.663 60.88 104.727 61.1253 104.727 61.424C104.727 61.7653 104.668 62.1493 104.551 62.576C104.433 62.992 104.316 63.3867 104.199 63.76L104.359 63.84C104.732 62.7413 105.153 61.8933 105.623 61.296C106.103 60.6987 106.636 60.4 107.223 60.4C107.607 60.4 107.916 60.4853 108.151 60.656C108.385 60.816 108.556 61.0187 108.663 61.264C108.78 61.4987 108.839 61.728 108.839 61.952C108.839 62.304 108.748 62.6453 108.567 62.976C108.396 63.296 108.119 63.5627 107.735 63.776C107.351 63.9787 106.844 64.08 106.215 64.08C105.969 64.08 105.729 64.1333 105.495 64.24C105.26 64.3467 105.047 64.5493 104.855 64.848C104.663 65.136 104.508 65.5467 104.391 66.08C104.284 66.6133 104.231 67.3067 104.231 68.16C104.231 68.8213 104.343 69.3067 104.567 69.616C103.905 70.1387 103.297 70.4 102.743 70.4ZM111.371 70.4C110.721 70.4 110.257 70.1973 109.979 69.792C109.702 69.3867 109.563 68.768 109.563 67.936C109.563 67.7013 109.59 67.3547 109.643 66.896C109.707 66.4373 109.787 65.9147 109.883 65.328C109.979 64.7413 110.086 64.1333 110.203 63.504C110.321 62.864 110.433 62.2453 110.539 61.648C110.646 61.0507 110.742 60.5173 110.827 60.048L109.931 58.768C110.497 58.4373 111.035 58.16 111.547 57.936C112.059 57.712 112.571 57.6 113.083 57.6C113.531 57.6 113.841 57.6907 114.011 57.872C114.193 58.0427 114.283 58.3307 114.283 58.736C114.283 59.088 114.241 59.52 114.155 60.032C114.07 60.544 113.963 61.1093 113.835 61.728C113.707 62.336 113.574 62.9653 113.435 63.616C113.297 64.256 113.179 64.88 113.083 65.488L114.091 64.592C114.475 64.2507 114.827 63.936 115.147 63.648C115.478 63.36 115.739 63.072 115.931 62.784C116.134 62.4853 116.235 62.1653 116.235 61.824C116.235 61.6747 116.225 61.5413 116.203 61.424C116.182 61.3067 116.15 61.1947 116.107 61.088C116.865 60.6293 117.579 60.4 118.251 60.4C118.699 60.4 119.057 60.544 119.323 60.832C119.59 61.1093 119.723 61.4773 119.723 61.936C119.723 62.3733 119.595 62.7893 119.339 63.184C119.094 63.5787 118.774 63.936 118.379 64.256C117.995 64.5653 117.601 64.8373 117.195 65.072C117.43 65.8187 117.702 66.528 118.011 67.2C118.331 67.872 118.651 68.4373 118.971 68.896C119.291 69.344 119.563 69.6267 119.787 69.744C119.574 69.968 119.275 70.1333 118.891 70.24C118.507 70.3467 118.145 70.4 117.803 70.4C117.142 70.4 116.587 70.176 116.139 69.728C115.691 69.28 115.286 68.544 114.923 67.52L114.523 66.384L112.875 67.2C112.865 67.2853 112.859 67.376 112.859 67.472C112.859 67.5573 112.859 67.6427 112.859 67.728C112.859 68.144 112.897 68.5173 112.971 68.848C113.057 69.168 113.185 69.424 113.355 69.616C112.609 70.1387 111.947 70.4 111.371 70.4ZM124.79 70.4C123.787 70.4 122.987 70.32 122.39 70.16C121.803 70.0107 121.382 69.8027 121.126 69.536C120.87 69.2693 120.742 68.976 120.742 68.656C120.742 68.4107 120.806 68.128 120.934 67.808C121.072 67.488 121.27 67.184 121.526 66.896C121.707 67.1413 121.947 67.3707 122.246 67.584C122.555 67.7867 122.891 67.952 123.254 68.08C123.616 68.1973 123.968 68.256 124.31 68.256C124.683 68.256 125.019 68.1707 125.318 68C125.616 67.8187 125.814 67.5147 125.91 67.088C124.267 66.896 123.088 66.5333 122.374 66C121.659 65.456 121.302 64.704 121.302 63.744C121.302 63.136 121.446 62.6187 121.734 62.192C122.022 61.7653 122.406 61.424 122.886 61.168C123.376 60.9013 123.931 60.7093 124.55 60.592C125.179 60.464 125.83 60.4 126.502 60.4C127.131 60.4 127.691 60.4853 128.182 60.656C128.672 60.816 129.056 61.0347 129.334 61.312C129.611 61.5893 129.75 61.9093 129.75 62.272C129.75 62.784 129.563 63.1733 129.19 63.44C128.827 63.7067 128.411 63.84 127.942 63.84C127.622 63.84 127.286 63.7333 126.934 63.52C126.582 63.3067 126.299 62.976 126.086 62.528C125.691 62.6453 125.376 62.816 125.142 63.04C124.907 63.2533 124.699 63.5627 124.518 63.968C125.734 64.1493 126.699 64.3787 127.414 64.656C128.128 64.9333 128.64 65.2853 128.95 65.712C129.27 66.128 129.43 66.6453 129.43 67.264C129.43 67.7547 129.318 68.1813 129.094 68.544C128.88 68.9067 128.598 69.2053 128.246 69.44C127.894 69.6747 127.51 69.8613 127.094 70C126.678 70.1493 126.267 70.2507 125.862 70.304C125.456 70.368 125.099 70.4 124.79 70.4ZM133.023 73.184C132.34 73.184 131.876 73.0133 131.631 72.672C131.385 72.3307 131.263 71.84 131.263 71.2C131.263 70.9653 131.289 70.6027 131.343 70.112C131.396 69.6213 131.46 69.0613 131.535 68.432C131.62 67.792 131.716 67.1307 131.823 66.448C131.929 65.7653 132.031 65.1093 132.127 64.48C132.233 63.8507 132.329 63.3013 132.415 62.832L131.519 61.552C132.084 61.2213 132.617 60.944 133.119 60.72C133.631 60.496 134.143 60.384 134.655 60.384C135.103 60.384 135.407 60.5387 135.567 60.848C135.727 61.1467 135.807 61.4987 135.807 61.904C135.807 62.0213 135.801 62.1547 135.791 62.304C135.78 62.4427 135.764 62.592 135.743 62.752L135.903 62.832C136.212 62.064 136.66 61.4667 137.247 61.04C137.833 60.6027 138.505 60.384 139.263 60.384C139.839 60.384 140.324 60.56 140.719 60.912C141.113 61.2533 141.412 61.7067 141.615 62.272C141.817 62.8373 141.919 63.4613 141.919 64.144C141.919 64.8053 141.791 65.4827 141.535 66.176C141.289 66.8587 140.911 67.488 140.399 68.064C139.887 68.64 139.241 69.104 138.463 69.456C137.684 69.808 136.761 69.984 135.695 69.984C135.492 69.984 135.295 69.9787 135.103 69.968C134.911 69.9467 134.703 69.9253 134.479 69.904C134.447 70.2667 134.431 70.6133 134.431 70.944C134.431 71.264 134.468 71.5467 134.543 71.792C134.628 72.048 134.756 72.2507 134.927 72.4C134.329 72.9227 133.695 73.184 133.023 73.184ZM134.767 68.416C135.46 68.3947 136.068 68.2667 136.591 68.032C137.124 67.7867 137.572 67.472 137.935 67.088C138.297 66.6933 138.569 66.2667 138.751 65.808C138.932 65.3493 139.023 64.9013 139.023 64.464C139.023 63.9733 138.927 63.5733 138.735 63.264C138.543 62.9547 138.255 62.8 137.871 62.8C137.476 62.8 137.103 62.9227 136.751 63.168C136.409 63.4027 136.1 63.792 135.823 64.336C135.556 64.88 135.327 65.6213 135.135 66.56L134.767 68.416ZM146.265 70.4C145.667 70.4 145.139 70.2453 144.681 69.936C144.233 69.6267 143.886 69.1893 143.641 68.624C143.395 68.0587 143.273 67.3973 143.273 66.64C143.273 65.7547 143.427 64.9333 143.737 64.176C144.057 63.4187 144.494 62.7573 145.049 62.192C145.614 61.6267 146.275 61.1893 147.033 60.88C147.79 60.56 148.611 60.4 149.497 60.4C149.753 60.4 149.971 60.4107 150.153 60.432C150.345 60.4427 150.547 60.4747 150.761 60.528C150.825 60.8267 150.862 61.088 150.873 61.312C151.118 61.152 151.39 61.0293 151.689 60.944C151.987 60.848 152.265 60.8 152.521 60.8C153.299 60.8 153.689 61.2213 153.689 62.064C153.689 62.3413 153.635 62.72 153.529 63.2C153.433 63.6693 153.315 64.192 153.177 64.768C153.049 65.3333 152.931 65.9147 152.825 66.512C152.729 67.0987 152.681 67.648 152.681 68.16C152.681 68.8533 152.846 69.3387 153.177 69.616C152.579 70.1387 151.945 70.4 151.273 70.4C150.654 70.4 150.195 70.208 149.897 69.824C149.609 69.44 149.465 68.8427 149.465 68.032L149.305 67.952C149.017 68.72 148.601 69.3227 148.057 69.76C147.523 70.1867 146.926 70.4 146.265 70.4ZM147.529 67.488C147.945 67.488 148.35 67.3387 148.745 67.04C149.139 66.7413 149.47 66.3307 149.737 65.808C149.779 65.392 149.822 65.0027 149.865 64.64C149.918 64.2667 149.982 63.872 150.057 63.456C150.142 63.04 150.243 62.5493 150.361 61.984C149.817 61.984 149.299 62.0907 148.809 62.304C148.329 62.5067 147.897 62.7893 147.513 63.152C147.129 63.5147 146.825 63.9307 146.601 64.4C146.387 64.8587 146.281 65.344 146.281 65.856C146.281 66.3787 146.387 66.784 146.601 67.072C146.825 67.3493 147.134 67.488 147.529 67.488ZM159.662 70.4C158.734 70.4 157.929 70.224 157.246 69.872C156.574 69.5093 156.051 69.0133 155.678 68.384C155.315 67.7547 155.134 67.024 155.134 66.192C155.134 65.328 155.289 64.544 155.598 63.84C155.907 63.1253 156.345 62.512 156.91 62C157.475 61.488 158.131 61.0933 158.878 60.816C159.635 60.5387 160.451 60.4 161.326 60.4C162.275 60.4 163.006 60.5813 163.518 60.944C164.041 61.296 164.302 61.7387 164.302 62.272C164.302 62.784 164.115 63.1733 163.742 63.44C163.379 63.7067 162.963 63.84 162.494 63.84C162.174 63.84 161.838 63.7333 161.486 63.52C161.134 63.3067 160.851 62.976 160.638 62.528C160.169 62.72 159.769 63.0187 159.438 63.424C159.118 63.8187 158.873 64.2613 158.702 64.752C158.542 65.232 158.462 65.7067 158.462 66.176C158.462 66.8053 158.595 67.3493 158.862 67.808C159.129 68.256 159.523 68.48 160.046 68.48C160.409 68.48 160.739 68.3413 161.038 68.064C161.337 67.776 161.486 67.3227 161.486 66.704C162.211 66.704 162.782 66.784 163.198 66.944C163.614 67.104 163.822 67.392 163.822 67.808C163.822 68.192 163.651 68.5867 163.31 68.992C162.969 69.3867 162.489 69.7227 161.87 70C161.251 70.2667 160.515 70.4 159.662 70.4ZM169.913 70.4C168.921 70.4 168.084 70.224 167.401 69.872C166.719 69.52 166.201 69.0293 165.849 68.4C165.508 67.76 165.337 67.024 165.337 66.192C165.337 65.328 165.492 64.544 165.801 63.84C166.121 63.1253 166.564 62.512 167.129 62C167.695 61.488 168.351 61.0933 169.097 60.816C169.855 60.5387 170.671 60.4 171.545 60.4C172.58 60.4 173.343 60.6293 173.833 61.088C174.324 61.5467 174.569 62.1227 174.569 62.816C174.569 63.4133 174.372 63.9787 173.977 64.512C173.593 65.0347 172.969 65.4613 172.105 65.792C171.241 66.112 170.089 66.2773 168.649 66.288C168.681 66.9707 168.836 67.5093 169.113 67.904C169.401 68.288 169.759 68.48 170.185 68.48C170.399 68.48 170.623 68.432 170.857 68.336C171.092 68.2293 171.289 68.048 171.449 67.792C171.609 67.5253 171.689 67.1627 171.689 66.704C172.415 66.704 172.985 66.784 173.401 66.944C173.817 67.104 174.025 67.392 174.025 67.808C174.025 68.192 173.86 68.5867 173.529 68.992C173.199 69.3867 172.724 69.7227 172.105 70C171.497 70.2667 170.767 70.4 169.913 70.4ZM168.793 65.008C169.572 64.944 170.196 64.8 170.665 64.576C171.135 64.352 171.476 64.096 171.689 63.808C171.903 63.52 172.009 63.2533 172.009 63.008C172.009 62.7947 171.945 62.6187 171.817 62.48C171.689 62.3413 171.508 62.272 171.273 62.272C170.889 62.272 170.532 62.4053 170.201 62.672C169.871 62.9387 169.583 63.2853 169.337 63.712C169.103 64.128 168.921 64.56 168.793 65.008ZM41.7676 91.4C41.0956 91.4 40.6156 91.2293 40.3276 90.888C40.0396 90.5467 39.8956 90.056 39.8956 89.416C39.8956 89.192 39.9276 88.8507 39.9916 88.392C40.0556 87.9227 40.1356 87.4053 40.2316 86.84C40.3383 86.264 40.4503 85.688 40.5676 85.112C40.685 84.536 40.797 84.024 40.9036 83.576L40.0716 82.296C40.509 82.0507 40.9783 81.8427 41.4796 81.672C41.9916 81.4907 42.509 81.4 43.0316 81.4C43.4796 81.4 43.8103 81.512 44.0236 81.736C44.237 81.9493 44.3436 82.2427 44.3436 82.616C44.3436 82.8933 44.3063 83.1813 44.2316 83.48C44.157 83.7787 44.0716 84.0347 43.9756 84.248L44.1356 84.328C44.765 83.2507 45.4263 82.4933 46.1196 82.056C46.813 81.6187 47.549 81.4 48.3276 81.4C48.893 81.4 49.357 81.544 49.7196 81.832C50.0823 82.1093 50.2636 82.5627 50.2636 83.192C50.2636 83.512 50.2103 83.864 50.1036 84.248L50.2636 84.328C50.893 83.2507 51.5543 82.4933 52.2476 82.056C52.941 81.6187 53.677 81.4 54.4556 81.4C55.1063 81.4 55.5916 81.56 55.9116 81.88C56.2316 82.1893 56.3916 82.6747 56.3916 83.336C56.3916 83.912 56.3116 84.5253 56.1516 85.176C56.0023 85.816 55.8476 86.4773 55.6876 87.16C55.5276 87.832 55.4476 88.4987 55.4476 89.16C55.4476 89.8213 55.5596 90.3067 55.7836 90.616C55.2183 91.1387 54.6316 91.4 54.0236 91.4C53.3516 91.4 52.8716 91.2293 52.5836 90.888C52.2956 90.5467 52.1516 90.056 52.1516 89.416C52.1516 89.064 52.1996 88.6747 52.2956 88.248C52.3916 87.8107 52.5036 87.368 52.6316 86.92C52.7596 86.472 52.8716 86.0507 52.9676 85.656C53.0636 85.2613 53.1116 84.92 53.1116 84.632C53.1116 84.408 53.069 84.232 52.9836 84.104C52.909 83.976 52.7703 83.912 52.5676 83.912C52.2796 83.912 51.949 84.04 51.5756 84.296C51.213 84.552 50.8556 84.9147 50.5036 85.384C50.1623 85.8427 49.8796 86.392 49.6556 87.032C49.4316 87.672 49.3196 88.3813 49.3196 89.16C49.3196 89.8213 49.4316 90.3067 49.6556 90.616C49.0903 91.1387 48.5036 91.4 47.8956 91.4C47.2236 91.4 46.7436 91.2293 46.4556 90.888C46.1676 90.5467 46.0236 90.056 46.0236 89.416C46.0236 89.064 46.0716 88.6747 46.1676 88.248C46.2636 87.8107 46.3756 87.368 46.5036 86.92C46.6316 86.472 46.7436 86.0507 46.8396 85.656C46.9356 85.2613 46.9836 84.92 46.9836 84.632C46.9836 84.408 46.941 84.232 46.8556 84.104C46.781 83.976 46.6423 83.912 46.4396 83.912C46.1516 83.912 45.821 84.04 45.4476 84.296C45.085 84.552 44.7276 84.9147 44.3756 85.384C44.0343 85.8427 43.7516 86.392 43.5276 87.032C43.3036 87.672 43.1916 88.3813 43.1916 89.16C43.1916 89.8213 43.3036 90.3067 43.5276 90.616C42.9623 91.1387 42.3756 91.4 41.7676 91.4ZM62.3574 91.4C61.4187 91.4 60.608 91.224 59.9254 90.872C59.2534 90.5093 58.736 90.0133 58.3734 89.384C58.0107 88.7547 57.8294 88.024 57.8294 87.192C57.8294 86.04 58.08 85.032 58.5814 84.168C59.0934 83.2933 59.792 82.616 60.6774 82.136C61.5627 81.6453 62.5707 81.4 63.7014 81.4C63.8827 81.4 64.064 81.4107 64.2454 81.432C64.4374 81.4427 64.64 81.4747 64.8534 81.528C64.9067 81.6773 64.9494 81.8587 64.9814 82.072C65.0134 82.2747 65.0347 82.4933 65.0454 82.728C65.1414 82.696 65.2427 82.6693 65.3494 82.648C65.4667 82.6267 65.5894 82.616 65.7174 82.616C66.0907 82.616 66.4427 82.7173 66.7734 82.92C67.104 83.112 67.376 83.416 67.5894 83.832C67.8027 84.248 67.9094 84.776 67.9094 85.416C67.9094 86.3653 67.7494 87.2133 67.4294 87.96C67.12 88.696 66.6987 89.32 66.1654 89.832C65.632 90.344 65.0347 90.7333 64.3734 91C63.7227 91.2667 63.0507 91.4 62.3574 91.4ZM62.8534 89.432C63.0987 89.432 63.3547 89.3733 63.6214 89.256C63.888 89.1387 64.1494 88.9253 64.4054 88.616C64.6614 88.3067 64.8747 87.8693 65.0454 87.304C64.5867 87.016 64.256 86.664 64.0534 86.248C63.8507 85.8213 63.7494 85.352 63.7494 84.84C63.7494 84.6907 63.776 84.4987 63.8294 84.264C63.8827 84.0293 63.9734 83.7893 64.1014 83.544C64.24 83.2987 64.4267 83.096 64.6614 82.936C63.9254 83.0853 63.3227 83.3093 62.8534 83.608C62.384 83.9067 62.016 84.2533 61.7494 84.648C61.4934 85.032 61.312 85.432 61.2054 85.848C61.1094 86.2533 61.0614 86.6427 61.0614 87.016C61.0614 87.4427 61.1307 87.8427 61.2694 88.216C61.408 88.5787 61.6107 88.872 61.8774 89.096C62.144 89.32 62.4694 89.432 62.8534 89.432ZM71.2989 91.4C70.6269 91.4 70.1469 91.2293 69.8589 90.888C69.5709 90.5467 69.4269 90.056 69.4269 89.416C69.4269 89.192 69.4589 88.8507 69.5229 88.392C69.5869 87.9227 69.6669 87.4053 69.7629 86.84C69.8695 86.264 69.9815 85.688 70.0989 85.112C70.2162 84.536 70.3282 84.024 70.4349 83.576L69.6029 82.296C70.0402 82.0507 70.5095 81.8427 71.0109 81.672C71.5229 81.4907 72.0402 81.4 72.5629 81.4C73.0109 81.4 73.3415 81.512 73.5549 81.736C73.7682 81.9493 73.8749 82.2427 73.8749 82.616C73.8749 82.8933 73.8375 83.1813 73.7629 83.48C73.6882 83.7787 73.6029 84.0347 73.5069 84.248L73.6669 84.328C74.2962 83.2507 74.9842 82.4933 75.7309 82.056C76.4775 81.6187 77.2402 81.4 78.0189 81.4C78.6695 81.4 79.1549 81.56 79.4749 81.88C79.7949 82.1893 79.9549 82.6747 79.9549 83.336C79.9549 83.912 79.8749 84.5253 79.7149 85.176C79.5655 85.816 79.4109 86.4773 79.2509 87.16C79.0909 87.832 79.0109 88.4987 79.0109 89.16C79.0109 89.8213 79.1229 90.3067 79.3469 90.616C78.7815 91.1387 78.1949 91.4 77.5869 91.4C76.9149 91.4 76.4349 91.2293 76.1469 90.888C75.8589 90.5467 75.7149 90.056 75.7149 89.416C75.7149 89.064 75.7629 88.6747 75.8589 88.248C75.9549 87.8107 76.0669 87.368 76.1949 86.92C76.3229 86.472 76.4349 86.0507 76.5309 85.656C76.6269 85.2613 76.6749 84.92 76.6749 84.632C76.6749 84.408 76.6322 84.232 76.5469 84.104C76.4722 83.976 76.3335 83.912 76.1309 83.912C75.8429 83.912 75.5069 84.04 75.1229 84.296C74.7389 84.552 74.3602 84.9147 73.9869 85.384C73.6242 85.8427 73.3202 86.392 73.0749 87.032C72.8402 87.672 72.7229 88.3813 72.7229 89.16C72.7229 89.8213 72.8349 90.3067 73.0589 90.616C72.4935 91.1387 71.9069 91.4 71.2989 91.4ZM85.9199 91.4C84.9812 91.4 84.1705 91.224 83.4879 90.872C82.8159 90.5093 82.2985 90.0133 81.9359 89.384C81.5732 88.7547 81.3919 88.024 81.3919 87.192C81.3919 86.04 81.6425 85.032 82.1439 84.168C82.6559 83.2933 83.3545 82.616 84.2399 82.136C85.1252 81.6453 86.1332 81.4 87.2639 81.4C87.4452 81.4 87.6265 81.4107 87.8079 81.432C87.9999 81.4427 88.2025 81.4747 88.4159 81.528C88.4692 81.6773 88.5119 81.8587 88.5439 82.072C88.5759 82.2747 88.5972 82.4933 88.6079 82.728C88.7039 82.696 88.8052 82.6693 88.9119 82.648C89.0292 82.6267 89.1519 82.616 89.2799 82.616C89.6532 82.616 90.0052 82.7173 90.3359 82.92C90.6665 83.112 90.9385 83.416 91.1519 83.832C91.3652 84.248 91.4719 84.776 91.4719 85.416C91.4719 86.3653 91.3119 87.2133 90.9919 87.96C90.6825 88.696 90.2612 89.32 89.7279 89.832C89.1945 90.344 88.5972 90.7333 87.9359 91C87.2852 91.2667 86.6132 91.4 85.9199 91.4ZM86.4159 89.432C86.6612 89.432 86.9172 89.3733 87.1839 89.256C87.4505 89.1387 87.7119 88.9253 87.9679 88.616C88.2239 88.3067 88.4372 87.8693 88.6079 87.304C88.1492 87.016 87.8185 86.664 87.6159 86.248C87.4132 85.8213 87.3119 85.352 87.3119 84.84C87.3119 84.6907 87.3385 84.4987 87.3919 84.264C87.4452 84.0293 87.5359 83.7893 87.6639 83.544C87.8025 83.2987 87.9892 83.096 88.2239 82.936C87.4879 83.0853 86.8852 83.3093 86.4159 83.608C85.9465 83.9067 85.5785 84.2533 85.3119 84.648C85.0559 85.032 84.8745 85.432 84.7679 85.848C84.6719 86.2533 84.6239 86.6427 84.6239 87.016C84.6239 87.4427 84.6932 87.8427 84.8319 88.216C84.9705 88.5787 85.1732 88.872 85.4399 89.096C85.7065 89.32 86.0319 89.432 86.4159 89.432ZM94.7974 91.4C94.1467 91.4 93.6827 91.2293 93.4054 90.888C93.128 90.5467 92.9894 90.056 92.9894 89.416C92.9894 89.192 93.0214 88.8507 93.0854 88.392C93.1494 87.9227 93.2294 87.4053 93.3254 86.84C93.432 86.264 93.544 85.688 93.6614 85.112C93.7787 84.536 93.8907 84.024 93.9974 83.576L93.1654 82.296C93.72 82.0507 94.232 81.8427 94.7014 81.672C95.1814 81.4907 95.608 81.4 95.9814 81.4C96.2587 81.4 96.4614 81.496 96.5894 81.688C96.7174 81.88 96.7814 82.1253 96.7814 82.424C96.7814 82.7653 96.7227 83.1493 96.6054 83.576C96.488 83.992 96.3707 84.3867 96.2534 84.76L96.4134 84.84C96.7867 83.7413 97.208 82.8933 97.6774 82.296C98.1574 81.6987 98.6907 81.4 99.2774 81.4C99.6614 81.4 99.9707 81.4853 100.205 81.656C100.44 81.816 100.611 82.0187 100.717 82.264C100.835 82.4987 100.893 82.728 100.893 82.952C100.893 83.304 100.803 83.6453 100.621 83.976C100.451 84.296 100.173 84.5627 99.7894 84.776C99.4054 84.9787 98.8987 85.08 98.2694 85.08C98.024 85.08 97.784 85.1333 97.5494 85.24C97.3147 85.3467 97.1014 85.5493 96.9094 85.848C96.7174 86.136 96.5627 86.5467 96.4454 87.08C96.3387 87.6133 96.2854 88.3067 96.2854 89.16C96.2854 89.8213 96.3974 90.3067 96.6214 90.616C95.96 91.1387 95.352 91.4 94.7974 91.4ZM105.39 91.4C104.398 91.4 103.56 91.224 102.878 90.872C102.195 90.52 101.678 90.0293 101.326 89.4C100.984 88.76 100.814 88.024 100.814 87.192C100.814 86.328 100.968 85.544 101.278 84.84C101.598 84.1253 102.04 83.512 102.606 83C103.171 82.488 103.827 82.0933 104.574 81.816C105.331 81.5387 106.147 81.4 107.022 81.4C108.056 81.4 108.819 81.6293 109.31 82.088C109.8 82.5467 110.046 83.1227 110.046 83.816C110.046 84.4133 109.848 84.9787 109.454 85.512C109.07 86.0347 108.446 86.4613 107.582 86.792C106.718 87.112 105.566 87.2773 104.126 87.288C104.158 87.9707 104.312 88.5093 104.59 88.904C104.878 89.288 105.235 89.48 105.662 89.48C105.875 89.48 106.099 89.432 106.334 89.336C106.568 89.2293 106.766 89.048 106.926 88.792C107.086 88.5253 107.166 88.1627 107.166 87.704C107.891 87.704 108.462 87.784 108.878 87.944C109.294 88.104 109.502 88.392 109.502 88.808C109.502 89.192 109.336 89.5867 109.006 89.992C108.675 90.3867 108.2 90.7227 107.582 91C106.974 91.2667 106.243 91.4 105.39 91.4ZM104.27 86.008C105.048 85.944 105.672 85.8 106.142 85.576C106.611 85.352 106.952 85.096 107.166 84.808C107.379 84.52 107.486 84.2533 107.486 84.008C107.486 83.7947 107.422 83.6187 107.294 83.48C107.166 83.3413 106.984 83.272 106.75 83.272C106.366 83.272 106.008 83.4053 105.678 83.672C105.347 83.9387 105.059 84.2853 104.814 84.712C104.579 85.128 104.398 85.56 104.27 86.008ZM113.249 94.184C112.567 94.184 112.103 94.0133 111.857 93.672C111.612 93.3307 111.489 92.84 111.489 92.2C111.489 91.9653 111.516 91.6027 111.569 91.112C111.623 90.6213 111.687 90.0613 111.761 89.432C111.847 88.792 111.943 88.1307 112.049 87.448C112.156 86.7653 112.257 86.1093 112.353 85.48C112.46 84.8507 112.556 84.3013 112.641 83.832L111.745 82.552C112.311 82.2213 112.844 81.944 113.345 81.72C113.857 81.496 114.369 81.384 114.881 81.384C115.329 81.384 115.633 81.5387 115.793 81.848C115.953 82.1467 116.033 82.4987 116.033 82.904C116.033 83.0213 116.028 83.1547 116.017 83.304C116.007 83.4427 115.991 83.592 115.969 83.752L116.129 83.832C116.439 83.064 116.887 82.4667 117.473 82.04C118.06 81.6027 118.732 81.384 119.489 81.384C120.065 81.384 120.551 81.56 120.945 81.912C121.34 82.2533 121.639 82.7067 121.841 83.272C122.044 83.8373 122.145 84.4613 122.145 85.144C122.145 85.8053 122.017 86.4827 121.761 87.176C121.516 87.8587 121.137 88.488 120.625 89.064C120.113 89.64 119.468 90.104 118.689 90.456C117.911 90.808 116.988 90.984 115.921 90.984C115.719 90.984 115.521 90.9787 115.329 90.968C115.137 90.9467 114.929 90.9253 114.705 90.904C114.673 91.2667 114.657 91.6133 114.657 91.944C114.657 92.264 114.695 92.5467 114.769 92.792C114.855 93.048 114.983 93.2507 115.153 93.4C114.556 93.9227 113.921 94.184 113.249 94.184ZM114.993 89.416C115.687 89.3947 116.295 89.2667 116.817 89.032C117.351 88.7867 117.799 88.472 118.161 88.088C118.524 87.6933 118.796 87.2667 118.977 86.808C119.159 86.3493 119.249 85.9013 119.249 85.464C119.249 84.9733 119.153 84.5733 118.961 84.264C118.769 83.9547 118.481 83.8 118.097 83.8C117.703 83.8 117.329 83.9227 116.977 84.168C116.636 84.4027 116.327 84.792 116.049 85.336C115.783 85.88 115.553 86.6213 115.361 87.56L114.993 89.416ZM128.107 91.4C127.169 91.4 126.358 91.224 125.675 90.872C125.003 90.5093 124.486 90.0133 124.123 89.384C123.761 88.7547 123.579 88.024 123.579 87.192C123.579 86.04 123.83 85.032 124.331 84.168C124.843 83.2933 125.542 82.616 126.427 82.136C127.313 81.6453 128.321 81.4 129.451 81.4C129.633 81.4 129.814 81.4107 129.995 81.432C130.187 81.4427 130.39 81.4747 130.603 81.528C130.657 81.6773 130.699 81.8587 130.731 82.072C130.763 82.2747 130.785 82.4933 130.795 82.728C130.891 82.696 130.993 82.6693 131.099 82.648C131.217 82.6267 131.339 82.616 131.467 82.616C131.841 82.616 132.193 82.7173 132.523 82.92C132.854 83.112 133.126 83.416 133.339 83.832C133.553 84.248 133.659 84.776 133.659 85.416C133.659 86.3653 133.499 87.2133 133.179 87.96C132.87 88.696 132.449 89.32 131.915 89.832C131.382 90.344 130.785 90.7333 130.123 91C129.473 91.2667 128.801 91.4 128.107 91.4ZM128.603 89.432C128.849 89.432 129.105 89.3733 129.371 89.256C129.638 89.1387 129.899 88.9253 130.155 88.616C130.411 88.3067 130.625 87.8693 130.795 87.304C130.337 87.016 130.006 86.664 129.803 86.248C129.601 85.8213 129.499 85.352 129.499 84.84C129.499 84.6907 129.526 84.4987 129.579 84.264C129.633 84.0293 129.723 83.7893 129.851 83.544C129.99 83.2987 130.177 83.096 130.411 82.936C129.675 83.0853 129.073 83.3093 128.603 83.608C128.134 83.9067 127.766 84.2533 127.499 84.648C127.243 85.032 127.062 85.432 126.955 85.848C126.859 86.2533 126.811 86.6427 126.811 87.016C126.811 87.4427 126.881 87.8427 127.019 88.216C127.158 88.5787 127.361 88.872 127.627 89.096C127.894 89.32 128.219 89.432 128.603 89.432ZM140.214 92.648C139.99 92.648 139.755 92.6107 139.51 92.536C139.275 92.472 139.03 92.3387 138.774 92.136C139.04 91.8907 139.286 91.496 139.51 90.952C139.734 90.3973 139.936 89.8 140.118 89.16C140.502 87.816 140.843 86.5093 141.142 85.24C141.451 83.9707 141.728 82.7973 141.974 81.72C142.23 80.632 142.454 79.704 142.646 78.936C142.72 78.6373 142.854 78.392 143.046 78.2C143.238 78.008 143.526 77.912 143.91 77.912C144.272 77.912 144.608 77.9813 144.918 78.12C145.227 78.248 145.51 78.4293 145.766 78.664C145.584 78.9413 145.403 79.272 145.222 79.656C145.051 80.04 144.896 80.4293 144.758 80.824C144.619 81.208 144.507 81.5547 144.422 81.864C144.187 82.6853 143.974 83.4587 143.782 84.184C143.59 84.9093 143.403 85.624 143.222 86.328C143.04 87.0213 142.848 87.7413 142.646 88.488C142.454 89.2347 142.235 90.0453 141.99 90.92C141.84 91.464 141.622 91.8853 141.334 92.184C141.056 92.4933 140.683 92.648 140.214 92.648ZM145.238 92.648C145.014 92.648 144.779 92.6107 144.534 92.536C144.299 92.472 144.054 92.3387 143.798 92.136C144.064 91.8907 144.31 91.496 144.534 90.952C144.758 90.3973 144.96 89.8 145.142 89.16C145.526 87.816 145.867 86.5093 146.166 85.24C146.475 83.9707 146.752 82.7973 146.998 81.72C147.254 80.632 147.478 79.704 147.67 78.936C147.744 78.6373 147.878 78.392 148.07 78.2C148.262 78.008 148.55 77.912 148.934 77.912C149.296 77.912 149.632 77.9813 149.942 78.12C150.251 78.248 150.534 78.4293 150.79 78.664C150.608 78.9413 150.427 79.272 150.246 79.656C150.075 80.04 149.92 80.4293 149.782 80.824C149.643 81.208 149.531 81.5547 149.446 81.864C149.211 82.6853 148.998 83.4587 148.806 84.184C148.614 84.9093 148.427 85.624 148.246 86.328C148.064 87.0213 147.872 87.7413 147.67 88.488C147.478 89.2347 147.259 90.0453 147.014 90.92C146.864 91.464 146.646 91.8853 146.358 92.184C146.08 92.4933 145.707 92.648 145.238 92.648ZM140.726 83.928C140.534 83.928 140.368 83.864 140.23 83.736C140.091 83.5973 140.022 83.352 140.022 83C140.022 82.6587 140.07 82.3227 140.166 81.992C140.262 81.6613 140.395 81.368 140.566 81.112C140.875 81.2293 141.222 81.3093 141.606 81.352C142 81.3947 142.347 81.416 142.646 81.416C143.2 81.416 143.766 81.4107 144.342 81.4C144.928 81.3893 145.515 81.3787 146.102 81.368C147.318 81.336 148.539 81.32 149.766 81.32C150.192 81.32 150.523 81.4107 150.758 81.592C150.992 81.7733 151.11 82.088 151.11 82.536C151.11 82.7387 151.088 82.952 151.046 83.176C151.003 83.4 150.918 83.6187 150.79 83.832C150.566 83.736 150.283 83.6667 149.942 83.624C149.6 83.5707 149.227 83.544 148.822 83.544C148.043 83.544 147.2 83.5707 146.294 83.624C145.387 83.6667 144.528 83.7147 143.718 83.768C143.099 83.8107 142.528 83.848 142.006 83.88C141.494 83.912 141.067 83.928 140.726 83.928ZM139.51 88.76C139.318 88.76 139.152 88.696 139.014 88.568C138.875 88.4293 138.806 88.184 138.806 87.832C138.806 87.4907 138.854 87.1547 138.95 86.824C139.046 86.4933 139.179 86.2 139.35 85.944C139.659 86.0613 140.006 86.1413 140.39 86.184C140.784 86.2267 141.131 86.248 141.43 86.248C141.984 86.248 142.55 86.2427 143.126 86.232C143.712 86.2213 144.299 86.2107 144.886 86.2C146.102 86.168 147.323 86.152 148.55 86.152C148.976 86.152 149.307 86.2427 149.542 86.424C149.776 86.6053 149.894 86.92 149.894 87.368C149.894 87.5707 149.872 87.784 149.83 88.008C149.787 88.232 149.702 88.4507 149.574 88.664C149.35 88.568 149.067 88.4987 148.726 88.456C148.384 88.4027 148.011 88.376 147.606 88.376C146.827 88.376 145.984 88.4027 145.078 88.456C144.171 88.4987 143.312 88.5467 142.502 88.6C141.883 88.6427 141.312 88.68 140.79 88.712C140.278 88.744 139.851 88.76 139.51 88.76ZM154.188 93.496C153.175 93.496 152.38 93.336 151.804 93.016C151.228 92.7067 150.94 92.2587 150.94 91.672C150.94 91.1707 151.127 90.7867 151.5 90.52C151.884 90.2427 152.311 90.104 152.78 90.104C153.089 90.104 153.42 90.2107 153.772 90.424C154.124 90.6373 154.417 90.968 154.652 91.416C155.217 91.3307 155.66 91.0907 155.98 90.696C156.311 90.2907 156.476 89.864 156.476 89.416C156.476 89.096 156.396 88.792 156.236 88.504C156.087 88.216 155.841 87.9813 155.5 87.8C155.159 87.608 154.716 87.512 154.172 87.512C154.001 87.512 153.804 87.528 153.58 87.56C153.356 87.5813 153.116 87.6187 152.86 87.672C152.721 87.6613 152.609 87.624 152.524 87.56C152.439 87.4853 152.396 87.4 152.396 87.304L152.988 82.568C152.593 82.12 152.396 81.64 152.396 81.128C152.396 80.776 152.519 80.4667 152.764 80.2C153.009 79.9333 153.367 79.8 153.836 79.8C154.167 79.8 154.481 79.8907 154.78 80.072C155.089 80.2427 155.361 80.5253 155.596 80.92C155.959 80.92 156.407 80.8773 156.94 80.792C157.484 80.7067 158.055 80.5893 158.652 80.44C159.249 80.28 159.809 80.104 160.332 79.912C160.375 80.1147 160.401 80.3067 160.412 80.488C160.423 80.6693 160.428 80.824 160.428 80.952C160.428 81.816 160.193 82.4933 159.724 82.984C159.255 83.464 158.471 83.704 157.372 83.704C157.329 83.704 157.255 83.704 157.148 83.704C157.052 83.6933 156.887 83.6827 156.652 83.672C156.417 83.6507 156.081 83.6293 155.644 83.608L155.468 85.432C156.044 85.464 156.609 85.5547 157.164 85.704C157.729 85.8533 158.241 86.0773 158.7 86.376C159.169 86.6747 159.543 87.0587 159.82 87.528C160.097 87.9867 160.236 88.536 160.236 89.176C160.236 89.9653 159.985 90.6853 159.484 91.336C158.983 91.9973 158.279 92.52 157.372 92.904C156.465 93.2987 155.404 93.496 154.188 93.496Z" fill="white"/>
</svg>
