<svg width="200" height="150" viewBox="0 0 200 150" fill="none" xmlns="http://www.w3.org/2000/svg">
<rect width="200" height="150" fill="#264DB1"/>
<path d="M28.1472 73.76C27.4112 73.76 26.7925 73.6 26.2912 73.28C25.7899 72.96 25.5392 72.512 25.5392 71.936C25.5392 71.7013 25.5872 71.4507 25.6832 71.184C25.7792 70.9173 25.9285 70.6347 26.1312 70.336C26.3765 70.688 26.6699 70.9547 27.0112 71.136C27.3525 71.328 27.6992 71.424 28.0512 71.424C28.4672 71.424 28.8672 71.2853 29.2512 71.008C29.6352 70.7307 29.9445 70.288 30.1792 69.68C29.9125 69.776 29.6619 69.8453 29.4272 69.888C29.1925 69.9307 28.9685 69.952 28.7552 69.952C28.2005 69.952 27.7525 69.808 27.4112 69.52C27.0699 69.2213 26.8725 68.7947 26.8192 68.24C26.7445 67.536 26.6965 66.8053 26.6752 66.048C26.6539 65.2907 26.6112 64.6027 26.5472 63.984C26.4725 63.2587 26.3179 62.656 26.0832 62.176C25.8485 61.696 25.5765 61.3333 25.2672 61.088C25.5232 60.8533 25.7899 60.6827 26.0672 60.576C26.3552 60.4587 26.7179 60.4 27.1552 60.4C27.6885 60.4 28.1205 60.56 28.4512 60.88C28.7925 61.2 29.0539 61.6533 29.2352 62.24C29.4165 62.816 29.5392 63.4933 29.6032 64.272C29.6779 65.04 29.7152 65.8773 29.7152 66.784C29.7152 66.912 29.7099 67.1093 29.6992 67.376C29.6992 67.6427 29.6885 67.9093 29.6672 68.176H30.5952C30.7659 67.7067 30.9472 67.2053 31.1392 66.672C31.3312 66.1387 31.5072 65.6 31.6672 65.056C31.8379 64.5013 31.9765 63.9733 32.0832 63.472C32.1899 62.96 32.2432 62.5067 32.2432 62.112C32.2432 61.8773 32.2165 61.68 32.1632 61.52C32.1205 61.36 32.0672 61.216 32.0032 61.088C32.3765 60.8533 32.7445 60.6827 33.1072 60.576C33.4699 60.4587 33.7952 60.4 34.0832 60.4C34.5739 60.4 34.9312 60.5653 35.1552 60.896C35.3899 61.2267 35.5072 61.6587 35.5072 62.192C35.5072 62.5867 35.4485 63.0453 35.3312 63.568C35.2139 64.08 35.0645 64.6133 34.8832 65.168C34.7125 65.712 34.5365 66.2293 34.3552 66.72C34.1845 67.2107 34.0405 67.6267 33.9232 67.968C33.4112 69.44 32.8352 70.5973 32.1952 71.44C31.5659 72.2827 30.9045 72.88 30.2112 73.232C29.5285 73.584 28.8405 73.76 28.1472 73.76ZM39.6242 70.4C39.0269 70.4 38.4989 70.2453 38.0402 69.936C37.5922 69.6267 37.2455 69.1893 37.0002 68.624C36.7549 68.0587 36.6322 67.3973 36.6322 66.64C36.6322 65.7547 36.7869 64.9333 37.0962 64.176C37.4162 63.4187 37.8535 62.7573 38.4082 62.192C38.9735 61.6267 39.6349 61.1893 40.3922 60.88C41.1495 60.56 41.9709 60.4 42.8562 60.4C43.1122 60.4 43.3309 60.4107 43.5122 60.432C43.7042 60.4427 43.9069 60.4747 44.1202 60.528C44.1842 60.8267 44.2215 61.088 44.2322 61.312C44.4775 61.152 44.7495 61.0293 45.0482 60.944C45.3469 60.848 45.6242 60.8 45.8802 60.8C46.6589 60.8 47.0482 61.2213 47.0482 62.064C47.0482 62.3413 46.9949 62.72 46.8882 63.2C46.7922 63.6693 46.6749 64.192 46.5362 64.768C46.4082 65.3333 46.2909 65.9147 46.1842 66.512C46.0882 67.0987 46.0402 67.648 46.0402 68.16C46.0402 68.8533 46.2055 69.3387 46.5362 69.616C45.9389 70.1387 45.3042 70.4 44.6322 70.4C44.0135 70.4 43.5549 70.208 43.2562 69.824C42.9682 69.44 42.8242 68.8427 42.8242 68.032L42.6642 67.952C42.3762 68.72 41.9602 69.3227 41.4162 69.76C40.8829 70.1867 40.2855 70.4 39.6242 70.4ZM40.8882 67.488C41.3042 67.488 41.7095 67.3387 42.1042 67.04C42.4989 66.7413 42.8295 66.3307 43.0962 65.808C43.1389 65.392 43.1815 65.0027 43.2242 64.64C43.2775 64.2667 43.3415 63.872 43.4162 63.456C43.5015 63.04 43.6029 62.5493 43.7202 61.984C43.1762 61.984 42.6589 62.0907 42.1682 62.304C41.6882 62.5067 41.2562 62.7893 40.8722 63.152C40.4882 63.5147 40.1842 63.9307 39.9602 64.4C39.7469 64.8587 39.6402 65.344 39.6402 65.856C39.6402 66.3787 39.7469 66.784 39.9602 67.072C40.1842 67.3493 40.4935 67.488 40.8882 67.488ZM50.4614 70.4C49.8108 70.4 49.3468 70.2293 49.0694 69.888C48.7921 69.5467 48.6534 69.056 48.6534 68.416C48.6534 68.192 48.6854 67.8507 48.7494 67.392C48.8134 66.9227 48.8934 66.4053 48.9894 65.84C49.0961 65.264 49.2081 64.688 49.3254 64.112C49.4428 63.536 49.5548 63.024 49.6614 62.576L48.8294 61.296C49.3841 61.0507 49.8961 60.8427 50.3654 60.672C50.8454 60.4907 51.2721 60.4 51.6454 60.4C51.9228 60.4 52.1254 60.496 52.2534 60.688C52.3814 60.88 52.4454 61.1253 52.4454 61.424C52.4454 61.7653 52.3868 62.1493 52.2694 62.576C52.1521 62.992 52.0348 63.3867 51.9174 63.76L52.0774 63.84C52.4508 62.7413 52.8721 61.8933 53.3414 61.296C53.8214 60.6987 54.3548 60.4 54.9414 60.4C55.3254 60.4 55.6348 60.4853 55.8694 60.656C56.1041 60.816 56.2748 61.0187 56.3814 61.264C56.4988 61.4987 56.5574 61.728 56.5574 61.952C56.5574 62.304 56.4668 62.6453 56.2854 62.976C56.1148 63.296 55.8374 63.5627 55.4534 63.776C55.0694 63.9787 54.5628 64.08 53.9334 64.08C53.6881 64.08 53.4481 64.1333 53.2134 64.24C52.9788 64.3467 52.7654 64.5493 52.5734 64.848C52.3814 65.136 52.2268 65.5467 52.1094 66.08C52.0028 66.6133 51.9494 67.3067 51.9494 68.16C51.9494 68.8213 52.0614 69.3067 52.2854 69.616C51.6241 70.1387 51.0161 70.4 50.4614 70.4ZM58.9942 70.4C58.3222 70.4 57.8422 70.2293 57.5542 69.888C57.2662 69.5467 57.1222 69.056 57.1222 68.416C57.1222 68.192 57.1542 67.8507 57.2182 67.392C57.2822 66.9227 57.3622 66.4053 57.4582 65.84C57.5649 65.264 57.6769 64.688 57.7942 64.112C57.9115 63.536 58.0235 63.024 58.1302 62.576L57.2982 61.296C57.7355 61.0507 58.2049 60.8427 58.7062 60.672C59.2182 60.4907 59.7355 60.4 60.2582 60.4C60.7062 60.4 61.0369 60.512 61.2502 60.736C61.4635 60.9493 61.5702 61.2427 61.5702 61.616C61.5702 61.8933 61.5329 62.1813 61.4582 62.48C61.3835 62.7787 61.2982 63.0347 61.2022 63.248L61.3622 63.328C61.9915 62.2507 62.6795 61.4933 63.4262 61.056C64.1729 60.6187 64.9355 60.4 65.7142 60.4C66.3649 60.4 66.8502 60.56 67.1702 60.88C67.4902 61.1893 67.6502 61.6747 67.6502 62.336C67.6502 62.912 67.5702 63.5253 67.4102 64.176C67.2609 64.816 67.1062 65.4773 66.9462 66.16C66.7862 66.832 66.7062 67.4987 66.7062 68.16C66.7062 68.8213 66.8182 69.3067 67.0422 69.616C66.4769 70.1387 65.8902 70.4 65.2822 70.4C64.6102 70.4 64.1302 70.2293 63.8422 69.888C63.5542 69.5467 63.4102 69.056 63.4102 68.416C63.4102 68.064 63.4582 67.6747 63.5542 67.248C63.6502 66.8107 63.7622 66.368 63.8902 65.92C64.0182 65.472 64.1302 65.0507 64.2262 64.656C64.3222 64.2613 64.3702 63.92 64.3702 63.632C64.3702 63.408 64.3275 63.232 64.2422 63.104C64.1675 62.976 64.0289 62.912 63.8262 62.912C63.5382 62.912 63.2022 63.04 62.8182 63.296C62.4342 63.552 62.0555 63.9147 61.6822 64.384C61.3195 64.8427 61.0155 65.392 60.7702 66.032C60.5355 66.672 60.4182 67.3813 60.4182 68.16C60.4182 68.8213 60.5302 69.3067 60.7542 69.616C60.1889 70.1387 59.6022 70.4 58.9942 70.4ZM76.8921 70.4C76.5401 70.4 76.1934 70.3467 75.8521 70.24C75.5214 70.1333 75.2441 69.9467 75.0201 69.68C74.8067 69.4133 74.7001 69.0453 74.7001 68.576C74.7001 68.576 74.7001 68.4533 74.7001 68.208C74.7107 67.9627 74.7161 67.648 74.7161 67.264C74.7267 66.88 74.7321 66.4747 74.7321 66.048C74.7321 65.6107 74.7321 65.1947 74.7321 64.8C74.7427 64.4053 74.7481 64.0853 74.7481 63.84C74.7481 63.1147 74.6627 62.5387 74.4921 62.112C74.3321 61.6747 74.1294 61.3333 73.8841 61.088C74.4387 60.6293 75.0467 60.4 75.7081 60.4C76.3054 60.4 76.7587 60.576 77.0681 60.928C77.3774 61.2693 77.5854 61.7387 77.6921 62.336C77.8094 62.9333 77.8681 63.6 77.8681 64.336C77.8681 64.7307 77.8627 65.1787 77.8521 65.68C77.8521 66.1707 77.8467 66.6613 77.8361 67.152C77.8254 67.632 77.8094 68.064 77.7881 68.448H78.3321C78.7054 67.7973 79.0361 67.1787 79.3241 66.592C79.6121 66.0053 79.8147 65.4293 79.9321 64.864C79.9321 64.5013 79.8947 64.096 79.8201 63.648C79.7561 63.2 79.6707 62.7787 79.5641 62.384C79.4574 61.9787 79.3454 61.68 79.2281 61.488C79.3881 61.2747 79.6334 61.104 79.9641 60.976C80.2947 60.848 80.6361 60.784 80.9881 60.784C81.2654 60.784 81.5321 60.832 81.7881 60.928C82.0547 61.024 82.2734 61.1787 82.4441 61.392C82.6254 61.6053 82.7161 61.888 82.7161 62.24C82.7161 62.5707 82.6467 62.9227 82.5081 63.296C82.3694 63.6587 82.2147 64.096 82.0441 64.608L81.9801 68.448H82.5241C82.7694 67.9787 83.0307 67.4453 83.3081 66.848C83.5854 66.24 83.8467 65.6213 84.0921 64.992C84.3481 64.3627 84.5561 63.7707 84.7161 63.216C84.8761 62.6507 84.9561 62.1813 84.9561 61.808C84.9561 61.6587 84.9401 61.5253 84.9081 61.408C84.8867 61.2907 84.8547 61.184 84.8121 61.088C85.1854 60.8533 85.5534 60.6827 85.9161 60.576C86.2787 60.4587 86.6094 60.4 86.9081 60.4C87.3774 60.4 87.7134 60.5387 87.9161 60.816C88.1187 61.0933 88.2201 61.456 88.2201 61.904C88.2201 62.288 88.1347 62.7467 87.9641 63.28C87.8041 63.8133 87.6014 64.3733 87.3561 64.96C87.1107 65.536 86.8654 66.0907 86.6201 66.624C86.3747 67.1467 86.1774 67.5947 86.0281 67.968L86.2521 68.896C86.0921 69.024 85.8574 69.1733 85.5481 69.344C85.2387 69.5147 84.8867 69.68 84.4921 69.84C84.1081 70 83.7027 70.1333 83.2761 70.24C82.8601 70.3467 82.4601 70.4 82.0761 70.4C81.6067 70.4 81.1854 70.2933 80.8121 70.08C80.4494 69.8667 80.2041 69.488 80.0761 68.944C79.6067 69.4027 79.1161 69.76 78.6041 70.016C78.1027 70.272 77.5321 70.4 76.8921 70.4ZM93.8652 70.4C92.9265 70.4 92.1159 70.224 91.4332 69.872C90.7612 69.5093 90.2439 69.0133 89.8812 68.384C89.5185 67.7547 89.3372 67.024 89.3372 66.192C89.3372 65.04 89.5879 64.032 90.0892 63.168C90.6012 62.2933 91.2999 61.616 92.1852 61.136C93.0705 60.6453 94.0785 60.4 95.2092 60.4C95.3905 60.4 95.5719 60.4107 95.7532 60.432C95.9452 60.4427 96.1479 60.4747 96.3612 60.528C96.4145 60.6773 96.4572 60.8587 96.4892 61.072C96.5212 61.2747 96.5425 61.4933 96.5532 61.728C96.6492 61.696 96.7505 61.6693 96.8572 61.648C96.9745 61.6267 97.0972 61.616 97.2252 61.616C97.5985 61.616 97.9505 61.7173 98.2812 61.92C98.6119 62.112 98.8839 62.416 99.0972 62.832C99.3105 63.248 99.4172 63.776 99.4172 64.416C99.4172 65.3653 99.2572 66.2133 98.9372 66.96C98.6279 67.696 98.2065 68.32 97.6732 68.832C97.1399 69.344 96.5425 69.7333 95.8812 70C95.2305 70.2667 94.5585 70.4 93.8652 70.4ZM94.3612 68.432C94.6065 68.432 94.8625 68.3733 95.1292 68.256C95.3959 68.1387 95.6572 67.9253 95.9132 67.616C96.1692 67.3067 96.3825 66.8693 96.5532 66.304C96.0945 66.016 95.7639 65.664 95.5612 65.248C95.3585 64.8213 95.2572 64.352 95.2572 63.84C95.2572 63.6907 95.2839 63.4987 95.3372 63.264C95.3905 63.0293 95.4812 62.7893 95.6092 62.544C95.7479 62.2987 95.9345 62.096 96.1692 61.936C95.4332 62.0853 94.8305 62.3093 94.3612 62.608C93.8919 62.9067 93.5239 63.2533 93.2572 63.648C93.0012 64.032 92.8199 64.432 92.7132 64.848C92.6172 65.2533 92.5692 65.6427 92.5692 66.016C92.5692 66.4427 92.6385 66.8427 92.7772 67.216C92.9159 67.5787 93.1185 67.872 93.3852 68.096C93.6519 68.32 93.9772 68.432 94.3612 68.432ZM102.743 70.4C102.092 70.4 101.628 70.2293 101.351 69.888C101.073 69.5467 100.935 69.056 100.935 68.416C100.935 68.192 100.967 67.8507 101.031 67.392C101.095 66.9227 101.175 66.4053 101.271 65.84C101.377 65.264 101.489 64.688 101.607 64.112C101.724 63.536 101.836 63.024 101.943 62.576L101.111 61.296C101.665 61.0507 102.177 60.8427 102.647 60.672C103.127 60.4907 103.553 60.4 103.927 60.4C104.204 60.4 104.407 60.496 104.535 60.688C104.663 60.88 104.727 61.1253 104.727 61.424C104.727 61.7653 104.668 62.1493 104.551 62.576C104.433 62.992 104.316 63.3867 104.199 63.76L104.359 63.84C104.732 62.7413 105.153 61.8933 105.623 61.296C106.103 60.6987 106.636 60.4 107.223 60.4C107.607 60.4 107.916 60.4853 108.151 60.656C108.385 60.816 108.556 61.0187 108.663 61.264C108.78 61.4987 108.839 61.728 108.839 61.952C108.839 62.304 108.748 62.6453 108.567 62.976C108.396 63.296 108.119 63.5627 107.735 63.776C107.351 63.9787 106.844 64.08 106.215 64.08C105.969 64.08 105.729 64.1333 105.495 64.24C105.26 64.3467 105.047 64.5493 104.855 64.848C104.663 65.136 104.508 65.5467 104.391 66.08C104.284 66.6133 104.231 67.3067 104.231 68.16C104.231 68.8213 104.343 69.3067 104.567 69.616C103.905 70.1387 103.297 70.4 102.743 70.4ZM111.371 70.4C110.721 70.4 110.257 70.1973 109.979 69.792C109.702 69.3867 109.563 68.768 109.563 67.936C109.563 67.7013 109.59 67.3547 109.643 66.896C109.707 66.4373 109.787 65.9147 109.883 65.328C109.979 64.7413 110.086 64.1333 110.203 63.504C110.321 62.864 110.433 62.2453 110.539 61.648C110.646 61.0507 110.742 60.5173 110.827 60.048L109.931 58.768C110.497 58.4373 111.035 58.16 111.547 57.936C112.059 57.712 112.571 57.6 113.083 57.6C113.531 57.6 113.841 57.6907 114.011 57.872C114.193 58.0427 114.283 58.3307 114.283 58.736C114.283 59.088 114.241 59.52 114.155 60.032C114.07 60.544 113.963 61.1093 113.835 61.728C113.707 62.336 113.574 62.9653 113.435 63.616C113.297 64.256 113.179 64.88 113.083 65.488L114.091 64.592C114.475 64.2507 114.827 63.936 115.147 63.648C115.478 63.36 115.739 63.072 115.931 62.784C116.134 62.4853 116.235 62.1653 116.235 61.824C116.235 61.6747 116.225 61.5413 116.203 61.424C116.182 61.3067 116.15 61.1947 116.107 61.088C116.865 60.6293 117.579 60.4 118.251 60.4C118.699 60.4 119.057 60.544 119.323 60.832C119.59 61.1093 119.723 61.4773 119.723 61.936C119.723 62.3733 119.595 62.7893 119.339 63.184C119.094 63.5787 118.774 63.936 118.379 64.256C117.995 64.5653 117.601 64.8373 117.195 65.072C117.43 65.8187 117.702 66.528 118.011 67.2C118.331 67.872 118.651 68.4373 118.971 68.896C119.291 69.344 119.563 69.6267 119.787 69.744C119.574 69.968 119.275 70.1333 118.891 70.24C118.507 70.3467 118.145 70.4 117.803 70.4C117.142 70.4 116.587 70.176 116.139 69.728C115.691 69.28 115.286 68.544 114.923 67.52L114.523 66.384L112.875 67.2C112.865 67.2853 112.859 67.376 112.859 67.472C112.859 67.5573 112.859 67.6427 112.859 67.728C112.859 68.144 112.897 68.5173 112.971 68.848C113.057 69.168 113.185 69.424 113.355 69.616C112.609 70.1387 111.947 70.4 111.371 70.4ZM124.79 70.4C123.787 70.4 122.987 70.32 122.39 70.16C121.803 70.0107 121.382 69.8027 121.126 69.536C120.87 69.2693 120.742 68.976 120.742 68.656C120.742 68.4107 120.806 68.128 120.934 67.808C121.072 67.488 121.27 67.184 121.526 66.896C121.707 67.1413 121.947 67.3707 122.246 67.584C122.555 67.7867 122.891 67.952 123.254 68.08C123.616 68.1973 123.968 68.256 124.31 68.256C124.683 68.256 125.019 68.1707 125.318 68C125.616 67.8187 125.814 67.5147 125.91 67.088C124.267 66.896 123.088 66.5333 122.374 66C121.659 65.456 121.302 64.704 121.302 63.744C121.302 63.136 121.446 62.6187 121.734 62.192C122.022 61.7653 122.406 61.424 122.886 61.168C123.376 60.9013 123.931 60.7093 124.55 60.592C125.179 60.464 125.83 60.4 126.502 60.4C127.131 60.4 127.691 60.4853 128.182 60.656C128.672 60.816 129.056 61.0347 129.334 61.312C129.611 61.5893 129.75 61.9093 129.75 62.272C129.75 62.784 129.563 63.1733 129.19 63.44C128.827 63.7067 128.411 63.84 127.942 63.84C127.622 63.84 127.286 63.7333 126.934 63.52C126.582 63.3067 126.299 62.976 126.086 62.528C125.691 62.6453 125.376 62.816 125.142 63.04C124.907 63.2533 124.699 63.5627 124.518 63.968C125.734 64.1493 126.699 64.3787 127.414 64.656C128.128 64.9333 128.64 65.2853 128.95 65.712C129.27 66.128 129.43 66.6453 129.43 67.264C129.43 67.7547 129.318 68.1813 129.094 68.544C128.88 68.9067 128.598 69.2053 128.246 69.44C127.894 69.6747 127.51 69.8613 127.094 70C126.678 70.1493 126.267 70.2507 125.862 70.304C125.456 70.368 125.099 70.4 124.79 70.4ZM133.023 73.184C132.34 73.184 131.876 73.0133 131.631 72.672C131.385 72.3307 131.263 71.84 131.263 71.2C131.263 70.9653 131.289 70.6027 131.343 70.112C131.396 69.6213 131.46 69.0613 131.535 68.432C131.62 67.792 131.716 67.1307 131.823 66.448C131.929 65.7653 132.031 65.1093 132.127 64.48C132.233 63.8507 132.329 63.3013 132.415 62.832L131.519 61.552C132.084 61.2213 132.617 60.944 133.119 60.72C133.631 60.496 134.143 60.384 134.655 60.384C135.103 60.384 135.407 60.5387 135.567 60.848C135.727 61.1467 135.807 61.4987 135.807 61.904C135.807 62.0213 135.801 62.1547 135.791 62.304C135.78 62.4427 135.764 62.592 135.743 62.752L135.903 62.832C136.212 62.064 136.66 61.4667 137.247 61.04C137.833 60.6027 138.505 60.384 139.263 60.384C139.839 60.384 140.324 60.56 140.719 60.912C141.113 61.2533 141.412 61.7067 141.615 62.272C141.817 62.8373 141.919 63.4613 141.919 64.144C141.919 64.8053 141.791 65.4827 141.535 66.176C141.289 66.8587 140.911 67.488 140.399 68.064C139.887 68.64 139.241 69.104 138.463 69.456C137.684 69.808 136.761 69.984 135.695 69.984C135.492 69.984 135.295 69.9787 135.103 69.968C134.911 69.9467 134.703 69.9253 134.479 69.904C134.447 70.2667 134.431 70.6133 134.431 70.944C134.431 71.264 134.468 71.5467 134.543 71.792C134.628 72.048 134.756 72.2507 134.927 72.4C134.329 72.9227 133.695 73.184 133.023 73.184ZM134.767 68.416C135.46 68.3947 136.068 68.2667 136.591 68.032C137.124 67.7867 137.572 67.472 137.935 67.088C138.297 66.6933 138.569 66.2667 138.751 65.808C138.932 65.3493 139.023 64.9013 139.023 64.464C139.023 63.9733 138.927 63.5733 138.735 63.264C138.543 62.9547 138.255 62.8 137.871 62.8C137.476 62.8 137.103 62.9227 136.751 63.168C136.409 63.4027 136.1 63.792 135.823 64.336C135.556 64.88 135.327 65.6213 135.135 66.56L134.767 68.416ZM146.265 70.4C145.667 70.4 145.139 70.2453 144.681 69.936C144.233 69.6267 143.886 69.1893 143.641 68.624C143.395 68.0587 143.273 67.3973 143.273 66.64C143.273 65.7547 143.427 64.9333 143.737 64.176C144.057 63.4187 144.494 62.7573 145.049 62.192C145.614 61.6267 146.275 61.1893 147.033 60.88C147.79 60.56 148.611 60.4 149.497 60.4C149.753 60.4 149.971 60.4107 150.153 60.432C150.345 60.4427 150.547 60.4747 150.761 60.528C150.825 60.8267 150.862 61.088 150.873 61.312C151.118 61.152 151.39 61.0293 151.689 60.944C151.987 60.848 152.265 60.8 152.521 60.8C153.299 60.8 153.689 61.2213 153.689 62.064C153.689 62.3413 153.635 62.72 153.529 63.2C153.433 63.6693 153.315 64.192 153.177 64.768C153.049 65.3333 152.931 65.9147 152.825 66.512C152.729 67.0987 152.681 67.648 152.681 68.16C152.681 68.8533 152.846 69.3387 153.177 69.616C152.579 70.1387 151.945 70.4 151.273 70.4C150.654 70.4 150.195 70.208 149.897 69.824C149.609 69.44 149.465 68.8427 149.465 68.032L149.305 67.952C149.017 68.72 148.601 69.3227 148.057 69.76C147.523 70.1867 146.926 70.4 146.265 70.4ZM147.529 67.488C147.945 67.488 148.35 67.3387 148.745 67.04C149.139 66.7413 149.47 66.3307 149.737 65.808C149.779 65.392 149.822 65.0027 149.865 64.64C149.918 64.2667 149.982 63.872 150.057 63.456C150.142 63.04 150.243 62.5493 150.361 61.984C149.817 61.984 149.299 62.0907 148.809 62.304C148.329 62.5067 147.897 62.7893 147.513 63.152C147.129 63.5147 146.825 63.9307 146.601 64.4C146.387 64.8587 146.281 65.344 146.281 65.856C146.281 66.3787 146.387 66.784 146.601 67.072C146.825 67.3493 147.134 67.488 147.529 67.488ZM159.662 70.4C158.734 70.4 157.929 70.224 157.246 69.872C156.574 69.5093 156.051 69.0133 155.678 68.384C155.315 67.7547 155.134 67.024 155.134 66.192C155.134 65.328 155.289 64.544 155.598 63.84C155.907 63.1253 156.345 62.512 156.91 62C157.475 61.488 158.131 61.0933 158.878 60.816C159.635 60.5387 160.451 60.4 161.326 60.4C162.275 60.4 163.006 60.5813 163.518 60.944C164.041 61.296 164.302 61.7387 164.302 62.272C164.302 62.784 164.115 63.1733 163.742 63.44C163.379 63.7067 162.963 63.84 162.494 63.84C162.174 63.84 161.838 63.7333 161.486 63.52C161.134 63.3067 160.851 62.976 160.638 62.528C160.169 62.72 159.769 63.0187 159.438 63.424C159.118 63.8187 158.873 64.2613 158.702 64.752C158.542 65.232 158.462 65.7067 158.462 66.176C158.462 66.8053 158.595 67.3493 158.862 67.808C159.129 68.256 159.523 68.48 160.046 68.48C160.409 68.48 160.739 68.3413 161.038 68.064C161.337 67.776 161.486 67.3227 161.486 66.704C162.211 66.704 162.782 66.784 163.198 66.944C163.614 67.104 163.822 67.392 163.822 67.808C163.822 68.192 163.651 68.5867 163.31 68.992C162.969 69.3867 162.489 69.7227 161.87 70C161.251 70.2667 160.515 70.4 159.662 70.4ZM169.913 70.4C168.921 70.4 168.084 70.224 167.401 69.872C166.719 69.52 166.201 69.0293 165.849 68.4C165.508 67.76 165.337 67.024 165.337 66.192C165.337 65.328 165.492 64.544 165.801 63.84C166.121 63.1253 166.564 62.512 167.129 62C167.695 61.488 168.351 61.0933 169.097 60.816C169.855 60.5387 170.671 60.4 171.545 60.4C172.58 60.4 173.343 60.6293 173.833 61.088C174.324 61.5467 174.569 62.1227 174.569 62.816C174.569 63.4133 174.372 63.9787 173.977 64.512C173.593 65.0347 172.969 65.4613 172.105 65.792C171.241 66.112 170.089 66.2773 168.649 66.288C168.681 66.9707 168.836 67.5093 169.113 67.904C169.401 68.288 169.759 68.48 170.185 68.48C170.399 68.48 170.623 68.432 170.857 68.336C171.092 68.2293 171.289 68.048 171.449 67.792C171.609 67.5253 171.689 67.1627 171.689 66.704C172.415 66.704 172.985 66.784 173.401 66.944C173.817 67.104 174.025 67.392 174.025 67.808C174.025 68.192 173.86 68.5867 173.529 68.992C173.199 69.3867 172.724 69.7227 172.105 70C171.497 70.2667 170.767 70.4 169.913 70.4ZM168.793 65.008C169.572 64.944 170.196 64.8 170.665 64.576C171.135 64.352 171.476 64.096 171.689 63.808C171.903 63.52 172.009 63.2533 172.009 63.008C172.009 62.7947 171.945 62.6187 171.817 62.48C171.689 62.3413 171.508 62.272 171.273 62.272C170.889 62.272 170.532 62.4053 170.201 62.672C169.871 62.9387 169.583 63.2853 169.337 63.712C169.103 64.128 168.921 64.56 168.793 65.008ZM41.6192 91.4C40.9472 91.4 40.4672 91.2293 40.1792 90.888C39.8912 90.5467 39.7472 90.056 39.7472 89.416C39.7472 89.192 39.7792 88.8507 39.8432 88.392C39.9072 87.9227 39.9872 87.4053 40.0832 86.84C40.1899 86.264 40.3019 85.688 40.4192 85.112C40.5365 84.536 40.6485 84.024 40.7552 83.576L39.9232 82.296C40.3605 82.0507 40.8299 81.8427 41.3312 81.672C41.8432 81.4907 42.3605 81.4 42.8832 81.4C43.3312 81.4 43.6619 81.512 43.8752 81.736C44.0885 81.9493 44.1952 82.2427 44.1952 82.616C44.1952 82.8933 44.1579 83.1813 44.0832 83.48C44.0085 83.7787 43.9232 84.0347 43.8272 84.248L43.9872 84.328C44.6165 83.2507 45.2779 82.4933 45.9712 82.056C46.6645 81.6187 47.4005 81.4 48.1792 81.4C48.7445 81.4 49.2085 81.544 49.5712 81.832C49.9339 82.1093 50.1152 82.5627 50.1152 83.192C50.1152 83.512 50.0619 83.864 49.9552 84.248L50.1152 84.328C50.7445 83.2507 51.4059 82.4933 52.0992 82.056C52.7925 81.6187 53.5285 81.4 54.3072 81.4C54.9579 81.4 55.4432 81.56 55.7632 81.88C56.0832 82.1893 56.2432 82.6747 56.2432 83.336C56.2432 83.912 56.1632 84.5253 56.0032 85.176C55.8539 85.816 55.6992 86.4773 55.5392 87.16C55.3792 87.832 55.2992 88.4987 55.2992 89.16C55.2992 89.8213 55.4112 90.3067 55.6352 90.616C55.0699 91.1387 54.4832 91.4 53.8752 91.4C53.2032 91.4 52.7232 91.2293 52.4352 90.888C52.1472 90.5467 52.0032 90.056 52.0032 89.416C52.0032 89.064 52.0512 88.6747 52.1472 88.248C52.2432 87.8107 52.3552 87.368 52.4832 86.92C52.6112 86.472 52.7232 86.0507 52.8192 85.656C52.9152 85.2613 52.9632 84.92 52.9632 84.632C52.9632 84.408 52.9205 84.232 52.8352 84.104C52.7605 83.976 52.6219 83.912 52.4192 83.912C52.1312 83.912 51.8005 84.04 51.4272 84.296C51.0645 84.552 50.7072 84.9147 50.3552 85.384C50.0139 85.8427 49.7312 86.392 49.5072 87.032C49.2832 87.672 49.1712 88.3813 49.1712 89.16C49.1712 89.8213 49.2832 90.3067 49.5072 90.616C48.9419 91.1387 48.3552 91.4 47.7472 91.4C47.0752 91.4 46.5952 91.2293 46.3072 90.888C46.0192 90.5467 45.8752 90.056 45.8752 89.416C45.8752 89.064 45.9232 88.6747 46.0192 88.248C46.1152 87.8107 46.2272 87.368 46.3552 86.92C46.4832 86.472 46.5952 86.0507 46.6912 85.656C46.7872 85.2613 46.8352 84.92 46.8352 84.632C46.8352 84.408 46.7925 84.232 46.7072 84.104C46.6325 83.976 46.4939 83.912 46.2912 83.912C46.0032 83.912 45.6725 84.04 45.2992 84.296C44.9365 84.552 44.5792 84.9147 44.2272 85.384C43.8859 85.8427 43.6032 86.392 43.3792 87.032C43.1552 87.672 43.0432 88.3813 43.0432 89.16C43.0432 89.8213 43.1552 90.3067 43.3792 90.616C42.8139 91.1387 42.2272 91.4 41.6192 91.4ZM62.2089 91.4C61.2703 91.4 60.4596 91.224 59.7769 90.872C59.1049 90.5093 58.5876 90.0133 58.2249 89.384C57.8623 88.7547 57.6809 88.024 57.6809 87.192C57.6809 86.04 57.9316 85.032 58.4329 84.168C58.9449 83.2933 59.6436 82.616 60.5289 82.136C61.4143 81.6453 62.4223 81.4 63.5529 81.4C63.7343 81.4 63.9156 81.4107 64.0969 81.432C64.2889 81.4427 64.4916 81.4747 64.7049 81.528C64.7583 81.6773 64.8009 81.8587 64.8329 82.072C64.8649 82.2747 64.8863 82.4933 64.8969 82.728C64.9929 82.696 65.0943 82.6693 65.2009 82.648C65.3183 82.6267 65.4409 82.616 65.5689 82.616C65.9423 82.616 66.2943 82.7173 66.6249 82.92C66.9556 83.112 67.2276 83.416 67.4409 83.832C67.6543 84.248 67.7609 84.776 67.7609 85.416C67.7609 86.3653 67.6009 87.2133 67.2809 87.96C66.9716 88.696 66.5503 89.32 66.0169 89.832C65.4836 90.344 64.8863 90.7333 64.2249 91C63.5743 91.2667 62.9023 91.4 62.2089 91.4ZM62.7049 89.432C62.9503 89.432 63.2063 89.3733 63.4729 89.256C63.7396 89.1387 64.0009 88.9253 64.2569 88.616C64.5129 88.3067 64.7263 87.8693 64.8969 87.304C64.4383 87.016 64.1076 86.664 63.9049 86.248C63.7023 85.8213 63.6009 85.352 63.6009 84.84C63.6009 84.6907 63.6276 84.4987 63.6809 84.264C63.7343 84.0293 63.8249 83.7893 63.9529 83.544C64.0916 83.2987 64.2783 83.096 64.5129 82.936C63.7769 83.0853 63.1743 83.3093 62.7049 83.608C62.2356 83.9067 61.8676 84.2533 61.6009 84.648C61.3449 85.032 61.1636 85.432 61.0569 85.848C60.9609 86.2533 60.9129 86.6427 60.9129 87.016C60.9129 87.4427 60.9823 87.8427 61.1209 88.216C61.2596 88.5787 61.4623 88.872 61.7289 89.096C61.9956 89.32 62.3209 89.432 62.7049 89.432ZM71.1504 91.4C70.4784 91.4 69.9984 91.2293 69.7104 90.888C69.4224 90.5467 69.2784 90.056 69.2784 89.416C69.2784 89.192 69.3104 88.8507 69.3744 88.392C69.4384 87.9227 69.5184 87.4053 69.6144 86.84C69.7211 86.264 69.8331 85.688 69.9504 85.112C70.0678 84.536 70.1798 84.024 70.2864 83.576L69.4544 82.296C69.8918 82.0507 70.3611 81.8427 70.8624 81.672C71.3744 81.4907 71.8918 81.4 72.4144 81.4C72.8624 81.4 73.1931 81.512 73.4064 81.736C73.6198 81.9493 73.7264 82.2427 73.7264 82.616C73.7264 82.8933 73.6891 83.1813 73.6144 83.48C73.5398 83.7787 73.4544 84.0347 73.3584 84.248L73.5184 84.328C74.1478 83.2507 74.8358 82.4933 75.5824 82.056C76.3291 81.6187 77.0918 81.4 77.8704 81.4C78.5211 81.4 79.0064 81.56 79.3264 81.88C79.6464 82.1893 79.8064 82.6747 79.8064 83.336C79.8064 83.912 79.7264 84.5253 79.5664 85.176C79.4171 85.816 79.2624 86.4773 79.1024 87.16C78.9424 87.832 78.8624 88.4987 78.8624 89.16C78.8624 89.8213 78.9744 90.3067 79.1984 90.616C78.6331 91.1387 78.0464 91.4 77.4384 91.4C76.7664 91.4 76.2864 91.2293 75.9984 90.888C75.7104 90.5467 75.5664 90.056 75.5664 89.416C75.5664 89.064 75.6144 88.6747 75.7104 88.248C75.8064 87.8107 75.9184 87.368 76.0464 86.92C76.1744 86.472 76.2864 86.0507 76.3824 85.656C76.4784 85.2613 76.5264 84.92 76.5264 84.632C76.5264 84.408 76.4838 84.232 76.3984 84.104C76.3238 83.976 76.1851 83.912 75.9824 83.912C75.6944 83.912 75.3584 84.04 74.9744 84.296C74.5904 84.552 74.2118 84.9147 73.8384 85.384C73.4758 85.8427 73.1718 86.392 72.9264 87.032C72.6918 87.672 72.5744 88.3813 72.5744 89.16C72.5744 89.8213 72.6864 90.3067 72.9104 90.616C72.3451 91.1387 71.7584 91.4 71.1504 91.4ZM85.7714 91.4C84.8328 91.4 84.0221 91.224 83.3394 90.872C82.6674 90.5093 82.1501 90.0133 81.7874 89.384C81.4248 88.7547 81.2434 88.024 81.2434 87.192C81.2434 86.04 81.4941 85.032 81.9954 84.168C82.5074 83.2933 83.2061 82.616 84.0914 82.136C84.9768 81.6453 85.9848 81.4 87.1154 81.4C87.2968 81.4 87.4781 81.4107 87.6594 81.432C87.8514 81.4427 88.0541 81.4747 88.2674 81.528C88.3208 81.6773 88.3634 81.8587 88.3954 82.072C88.4274 82.2747 88.4488 82.4933 88.4594 82.728C88.5554 82.696 88.6568 82.6693 88.7634 82.648C88.8808 82.6267 89.0034 82.616 89.1314 82.616C89.5048 82.616 89.8568 82.7173 90.1874 82.92C90.5181 83.112 90.7901 83.416 91.0034 83.832C91.2168 84.248 91.3234 84.776 91.3234 85.416C91.3234 86.3653 91.1634 87.2133 90.8434 87.96C90.5341 88.696 90.1128 89.32 89.5794 89.832C89.0461 90.344 88.4488 90.7333 87.7874 91C87.1368 91.2667 86.4648 91.4 85.7714 91.4ZM86.2674 89.432C86.5128 89.432 86.7688 89.3733 87.0354 89.256C87.3021 89.1387 87.5634 88.9253 87.8194 88.616C88.0754 88.3067 88.2888 87.8693 88.4594 87.304C88.0008 87.016 87.6701 86.664 87.4674 86.248C87.2648 85.8213 87.1634 85.352 87.1634 84.84C87.1634 84.6907 87.1901 84.4987 87.2434 84.264C87.2968 84.0293 87.3874 83.7893 87.5154 83.544C87.6541 83.2987 87.8408 83.096 88.0754 82.936C87.3394 83.0853 86.7368 83.3093 86.2674 83.608C85.7981 83.9067 85.4301 84.2533 85.1634 84.648C84.9074 85.032 84.7261 85.432 84.6194 85.848C84.5234 86.2533 84.4754 86.6427 84.4754 87.016C84.4754 87.4427 84.5448 87.8427 84.6834 88.216C84.8221 88.5787 85.0248 88.872 85.2914 89.096C85.5581 89.32 85.8834 89.432 86.2674 89.432ZM94.6489 91.4C93.9983 91.4 93.5343 91.2293 93.2569 90.888C92.9796 90.5467 92.8409 90.056 92.8409 89.416C92.8409 89.192 92.8729 88.8507 92.9369 88.392C93.0009 87.9227 93.0809 87.4053 93.1769 86.84C93.2836 86.264 93.3956 85.688 93.5129 85.112C93.6303 84.536 93.7423 84.024 93.8489 83.576L93.0169 82.296C93.5716 82.0507 94.0836 81.8427 94.5529 81.672C95.0329 81.4907 95.4596 81.4 95.8329 81.4C96.1103 81.4 96.3129 81.496 96.4409 81.688C96.5689 81.88 96.6329 82.1253 96.6329 82.424C96.6329 82.7653 96.5743 83.1493 96.4569 83.576C96.3396 83.992 96.2223 84.3867 96.1049 84.76L96.2649 84.84C96.6383 83.7413 97.0596 82.8933 97.5289 82.296C98.0089 81.6987 98.5423 81.4 99.1289 81.4C99.5129 81.4 99.8223 81.4853 100.057 81.656C100.292 81.816 100.462 82.0187 100.569 82.264C100.686 82.4987 100.745 82.728 100.745 82.952C100.745 83.304 100.654 83.6453 100.473 83.976C100.302 84.296 100.025 84.5627 99.6409 84.776C99.2569 84.9787 98.7503 85.08 98.1209 85.08C97.8756 85.08 97.6356 85.1333 97.4009 85.24C97.1663 85.3467 96.9529 85.5493 96.7609 85.848C96.5689 86.136 96.4143 86.5467 96.2969 87.08C96.1903 87.6133 96.1369 88.3067 96.1369 89.16C96.1369 89.8213 96.2489 90.3067 96.4729 90.616C95.8116 91.1387 95.2036 91.4 94.6489 91.4ZM105.241 91.4C104.249 91.4 103.412 91.224 102.729 90.872C102.047 90.52 101.529 90.0293 101.177 89.4C100.836 88.76 100.665 88.024 100.665 87.192C100.665 86.328 100.82 85.544 101.129 84.84C101.449 84.1253 101.892 83.512 102.457 83C103.023 82.488 103.679 82.0933 104.425 81.816C105.183 81.5387 105.999 81.4 106.873 81.4C107.908 81.4 108.671 81.6293 109.161 82.088C109.652 82.5467 109.897 83.1227 109.897 83.816C109.897 84.4133 109.7 84.9787 109.305 85.512C108.921 86.0347 108.297 86.4613 107.433 86.792C106.569 87.112 105.417 87.2773 103.977 87.288C104.009 87.9707 104.164 88.5093 104.441 88.904C104.729 89.288 105.087 89.48 105.513 89.48C105.727 89.48 105.951 89.432 106.185 89.336C106.42 89.2293 106.617 89.048 106.777 88.792C106.937 88.5253 107.017 88.1627 107.017 87.704C107.743 87.704 108.313 87.784 108.729 87.944C109.145 88.104 109.353 88.392 109.353 88.808C109.353 89.192 109.188 89.5867 108.857 89.992C108.527 90.3867 108.052 90.7227 107.433 91C106.825 91.2667 106.095 91.4 105.241 91.4ZM104.121 86.008C104.9 85.944 105.524 85.8 105.993 85.576C106.463 85.352 106.804 85.096 107.017 84.808C107.231 84.52 107.337 84.2533 107.337 84.008C107.337 83.7947 107.273 83.6187 107.145 83.48C107.017 83.3413 106.836 83.272 106.601 83.272C106.217 83.272 105.86 83.4053 105.529 83.672C105.199 83.9387 104.911 84.2853 104.665 84.712C104.431 85.128 104.249 85.56 104.121 86.008ZM113.101 94.184C112.418 94.184 111.954 94.0133 111.709 93.672C111.464 93.3307 111.341 92.84 111.341 92.2C111.341 91.9653 111.368 91.6027 111.421 91.112C111.474 90.6213 111.538 90.0613 111.613 89.432C111.698 88.792 111.794 88.1307 111.901 87.448C112.008 86.7653 112.109 86.1093 112.205 85.48C112.312 84.8507 112.408 84.3013 112.493 83.832L111.597 82.552C112.162 82.2213 112.696 81.944 113.197 81.72C113.709 81.496 114.221 81.384 114.733 81.384C115.181 81.384 115.485 81.5387 115.645 81.848C115.805 82.1467 115.885 82.4987 115.885 82.904C115.885 83.0213 115.88 83.1547 115.869 83.304C115.858 83.4427 115.842 83.592 115.821 83.752L115.981 83.832C116.29 83.064 116.738 82.4667 117.325 82.04C117.912 81.6027 118.584 81.384 119.341 81.384C119.917 81.384 120.402 81.56 120.797 81.912C121.192 82.2533 121.49 82.7067 121.693 83.272C121.896 83.8373 121.997 84.4613 121.997 85.144C121.997 85.8053 121.869 86.4827 121.613 87.176C121.368 87.8587 120.989 88.488 120.477 89.064C119.965 89.64 119.32 90.104 118.541 90.456C117.762 90.808 116.84 90.984 115.773 90.984C115.57 90.984 115.373 90.9787 115.181 90.968C114.989 90.9467 114.781 90.9253 114.557 90.904C114.525 91.2667 114.509 91.6133 114.509 91.944C114.509 92.264 114.546 92.5467 114.621 92.792C114.706 93.048 114.834 93.2507 115.005 93.4C114.408 93.9227 113.773 94.184 113.101 94.184ZM114.845 89.416C115.538 89.3947 116.146 89.2667 116.669 89.032C117.202 88.7867 117.65 88.472 118.013 88.088C118.376 87.6933 118.648 87.2667 118.829 86.808C119.01 86.3493 119.101 85.9013 119.101 85.464C119.101 84.9733 119.005 84.5733 118.813 84.264C118.621 83.9547 118.333 83.8 117.949 83.8C117.554 83.8 117.181 83.9227 116.829 84.168C116.488 84.4027 116.178 84.792 115.901 85.336C115.634 85.88 115.405 86.6213 115.213 87.56L114.845 89.416ZM127.959 91.4C127.02 91.4 126.21 91.224 125.527 90.872C124.855 90.5093 124.338 90.0133 123.975 89.384C123.612 88.7547 123.431 88.024 123.431 87.192C123.431 86.04 123.682 85.032 124.183 84.168C124.695 83.2933 125.394 82.616 126.279 82.136C127.164 81.6453 128.172 81.4 129.303 81.4C129.484 81.4 129.666 81.4107 129.847 81.432C130.039 81.4427 130.242 81.4747 130.455 81.528C130.508 81.6773 130.551 81.8587 130.583 82.072C130.615 82.2747 130.636 82.4933 130.647 82.728C130.743 82.696 130.844 82.6693 130.951 82.648C131.068 82.6267 131.191 82.616 131.319 82.616C131.692 82.616 132.044 82.7173 132.375 82.92C132.706 83.112 132.978 83.416 133.191 83.832C133.404 84.248 133.511 84.776 133.511 85.416C133.511 86.3653 133.351 87.2133 133.031 87.96C132.722 88.696 132.3 89.32 131.767 89.832C131.234 90.344 130.636 90.7333 129.975 91C129.324 91.2667 128.652 91.4 127.959 91.4ZM128.455 89.432C128.7 89.432 128.956 89.3733 129.223 89.256C129.49 89.1387 129.751 88.9253 130.007 88.616C130.263 88.3067 130.476 87.8693 130.647 87.304C130.188 87.016 129.858 86.664 129.655 86.248C129.452 85.8213 129.351 85.352 129.351 84.84C129.351 84.6907 129.378 84.4987 129.431 84.264C129.484 84.0293 129.575 83.7893 129.703 83.544C129.842 83.2987 130.028 83.096 130.263 82.936C129.527 83.0853 128.924 83.3093 128.455 83.608C127.986 83.9067 127.618 84.2533 127.351 84.648C127.095 85.032 126.914 85.432 126.807 85.848C126.711 86.2533 126.663 86.6427 126.663 87.016C126.663 87.4427 126.732 87.8427 126.871 88.216C127.01 88.5787 127.212 88.872 127.479 89.096C127.746 89.32 128.071 89.432 128.455 89.432ZM140.065 92.648C139.841 92.648 139.607 92.6107 139.361 92.536C139.127 92.472 138.881 92.3387 138.625 92.136C138.892 91.8907 139.137 91.496 139.361 90.952C139.585 90.3973 139.788 89.8 139.969 89.16C140.353 87.816 140.695 86.5093 140.993 85.24C141.303 83.9707 141.58 82.7973 141.825 81.72C142.081 80.632 142.305 79.704 142.497 78.936C142.572 78.6373 142.705 78.392 142.897 78.2C143.089 78.008 143.377 77.912 143.761 77.912C144.124 77.912 144.46 77.9813 144.769 78.12C145.079 78.248 145.361 78.4293 145.617 78.664C145.436 78.9413 145.255 79.272 145.073 79.656C144.903 80.04 144.748 80.4293 144.609 80.824C144.471 81.208 144.359 81.5547 144.273 81.864C144.039 82.6853 143.825 83.4587 143.633 84.184C143.441 84.9093 143.255 85.624 143.073 86.328C142.892 87.0213 142.7 87.7413 142.497 88.488C142.305 89.2347 142.087 90.0453 141.841 90.92C141.692 91.464 141.473 91.8853 141.185 92.184C140.908 92.4933 140.535 92.648 140.065 92.648ZM145.089 92.648C144.865 92.648 144.631 92.6107 144.385 92.536C144.151 92.472 143.905 92.3387 143.649 92.136C143.916 91.8907 144.161 91.496 144.385 90.952C144.609 90.3973 144.812 89.8 144.993 89.16C145.377 87.816 145.719 86.5093 146.017 85.24C146.327 83.9707 146.604 82.7973 146.849 81.72C147.105 80.632 147.329 79.704 147.521 78.936C147.596 78.6373 147.729 78.392 147.921 78.2C148.113 78.008 148.401 77.912 148.785 77.912C149.148 77.912 149.484 77.9813 149.793 78.12C150.103 78.248 150.385 78.4293 150.641 78.664C150.46 78.9413 150.279 79.272 150.097 79.656C149.927 80.04 149.772 80.4293 149.633 80.824C149.495 81.208 149.383 81.5547 149.297 81.864C149.063 82.6853 148.849 83.4587 148.657 84.184C148.465 84.9093 148.279 85.624 148.097 86.328C147.916 87.0213 147.724 87.7413 147.521 88.488C147.329 89.2347 147.111 90.0453 146.865 90.92C146.716 91.464 146.497 91.8853 146.209 92.184C145.932 92.4933 145.559 92.648 145.089 92.648ZM140.577 83.928C140.385 83.928 140.22 83.864 140.081 83.736C139.943 83.5973 139.873 83.352 139.873 83C139.873 82.6587 139.921 82.3227 140.017 81.992C140.113 81.6613 140.247 81.368 140.417 81.112C140.727 81.2293 141.073 81.3093 141.457 81.352C141.852 81.3947 142.199 81.416 142.497 81.416C143.052 81.416 143.617 81.4107 144.193 81.4C144.78 81.3893 145.367 81.3787 145.953 81.368C147.169 81.336 148.391 81.32 149.617 81.32C150.044 81.32 150.375 81.4107 150.609 81.592C150.844 81.7733 150.961 82.088 150.961 82.536C150.961 82.7387 150.94 82.952 150.897 83.176C150.855 83.4 150.769 83.6187 150.641 83.832C150.417 83.736 150.135 83.6667 149.793 83.624C149.452 83.5707 149.079 83.544 148.673 83.544C147.895 83.544 147.052 83.5707 146.145 83.624C145.239 83.6667 144.38 83.7147 143.569 83.768C142.951 83.8107 142.38 83.848 141.857 83.88C141.345 83.912 140.919 83.928 140.577 83.928ZM139.361 88.76C139.169 88.76 139.004 88.696 138.865 88.568C138.727 88.4293 138.657 88.184 138.657 87.832C138.657 87.4907 138.705 87.1547 138.801 86.824C138.897 86.4933 139.031 86.2 139.201 85.944C139.511 86.0613 139.857 86.1413 140.241 86.184C140.636 86.2267 140.983 86.248 141.281 86.248C141.836 86.248 142.401 86.2427 142.977 86.232C143.564 86.2213 144.151 86.2107 144.737 86.2C145.953 86.168 147.175 86.152 148.401 86.152C148.828 86.152 149.159 86.2427 149.393 86.424C149.628 86.6053 149.745 86.92 149.745 87.368C149.745 87.5707 149.724 87.784 149.681 88.008C149.639 88.232 149.553 88.4507 149.425 88.664C149.201 88.568 148.919 88.4987 148.577 88.456C148.236 88.4027 147.863 88.376 147.457 88.376C146.679 88.376 145.836 88.4027 144.929 88.456C144.023 88.4987 143.164 88.5467 142.353 88.6C141.735 88.6427 141.164 88.68 140.641 88.712C140.129 88.744 139.703 88.76 139.361 88.76ZM153.832 93.496C152.786 93.496 151.97 93.336 151.384 93.016C150.808 92.7067 150.52 92.2587 150.52 91.672C150.52 91.1707 150.706 90.7867 151.08 90.52C151.464 90.2427 151.89 90.104 152.36 90.104C152.712 90.104 153.085 90.216 153.48 90.44C153.885 90.6533 154.221 90.9947 154.488 91.464C154.808 91.3787 155.117 91.224 155.416 91C155.714 90.7653 155.96 90.488 156.152 90.168C156.344 89.848 156.44 89.5173 156.44 89.176C156.44 88.952 156.392 88.7333 156.296 88.52C156.21 88.296 156.061 88.0827 155.848 87.88C155.624 88.008 155.325 88.136 154.952 88.264C154.578 88.3813 154.21 88.44 153.848 88.44C153.496 88.44 153.192 88.3547 152.936 88.184C152.69 88.0133 152.568 87.704 152.568 87.256C152.568 86.84 152.754 86.472 153.128 86.152C153.512 85.832 154.125 85.672 154.968 85.672C155.074 85.672 155.181 85.672 155.288 85.672C155.405 85.672 155.522 85.6827 155.64 85.704C155.928 85.48 156.152 85.192 156.312 84.84C156.482 84.488 156.568 84.1413 156.568 83.8C156.568 83.4373 156.461 83.128 156.248 82.872C156.034 82.6053 155.693 82.472 155.224 82.472C155.074 82.472 154.877 82.5307 154.632 82.648C154.397 82.7547 154.162 82.9413 153.928 83.208C153.693 83.4747 153.506 83.8533 153.368 84.344C152.76 84.312 152.317 84.152 152.04 83.864C151.762 83.5653 151.624 83.208 151.624 82.792C151.624 82.3227 151.778 81.8587 152.088 81.4C152.397 80.9413 152.888 80.5627 153.56 80.264C154.242 79.9547 155.133 79.8 156.232 79.8C156.978 79.8 157.597 79.8907 158.088 80.072C158.578 80.2533 158.962 80.488 159.24 80.776C159.517 81.0533 159.709 81.3573 159.816 81.688C159.933 82.0187 159.992 82.3333 159.992 82.632C159.992 83.2933 159.81 83.944 159.448 84.584C159.096 85.224 158.594 85.8533 157.944 86.472C159.32 87.1227 160.008 88.0827 160.008 89.352C160.008 90.0773 159.757 90.7547 159.256 91.384C158.754 92.024 158.04 92.536 157.112 92.92C156.194 93.304 155.101 93.496 153.832 93.496Z" fill="white"/>
</svg>
