<svg width="200" height="150" viewBox="0 0 200 150" fill="none" xmlns="http://www.w3.org/2000/svg">
<rect width="200" height="150" fill="#264DB1"/>
<path d="M16.5219 86.7C15.6019 86.7 14.8285 86.5 14.2019 86.1C13.5752 85.7 13.2619 85.14 13.2619 84.42C13.2619 84.1267 13.3219 83.8133 13.4419 83.48C13.5619 83.1467 13.7485 82.7933 14.0019 82.42C14.3085 82.86 14.6752 83.1933 15.1019 83.42C15.5285 83.66 15.9619 83.78 16.4019 83.78C16.9219 83.78 17.4219 83.6067 17.9019 83.26C18.3819 82.9133 18.7685 82.36 19.0619 81.6C18.7285 81.72 18.4152 81.8067 18.1219 81.86C17.8285 81.9133 17.5485 81.94 17.2819 81.94C16.5885 81.94 16.0285 81.76 15.6019 81.4C15.1752 81.0267 14.9285 80.4933 14.8619 79.8C14.7685 78.92 14.7085 78.0067 14.6819 77.06C14.6552 76.1133 14.6019 75.2533 14.5219 74.48C14.4285 73.5733 14.2352 72.82 13.9419 72.22C13.6485 71.62 13.3085 71.1667 12.9219 70.86C13.2419 70.5667 13.5752 70.3533 13.9219 70.22C14.2819 70.0733 14.7352 70 15.2819 70C15.9485 70 16.4885 70.2 16.9019 70.6C17.3285 71 17.6552 71.5667 17.8819 72.3C18.1085 73.02 18.2619 73.8667 18.3419 74.84C18.4352 75.8 18.4819 76.8467 18.4819 77.98C18.4819 78.14 18.4752 78.3867 18.4619 78.72C18.4619 79.0533 18.4485 79.3867 18.4219 79.72H19.5819C19.7952 79.1333 20.0219 78.5067 20.2619 77.84C20.5019 77.1733 20.7219 76.5 20.9219 75.82C21.1352 75.1267 21.3085 74.4667 21.4419 73.84C21.5752 73.2 21.6419 72.6333 21.6419 72.14C21.6419 71.8467 21.6085 71.6 21.5419 71.4C21.4885 71.2 21.4219 71.02 21.3419 70.86C21.8085 70.5667 22.2685 70.3533 22.7219 70.22C23.1752 70.0733 23.5819 70 23.9419 70C24.5552 70 25.0019 70.2067 25.2819 70.62C25.5752 71.0333 25.7219 71.5733 25.7219 72.24C25.7219 72.7333 25.6485 73.3067 25.5019 73.96C25.3552 74.6 25.1685 75.2667 24.9419 75.96C24.7285 76.64 24.5085 77.2867 24.2819 77.9C24.0685 78.5133 23.8885 79.0333 23.7419 79.46C23.1019 81.3 22.3819 82.7467 21.5819 83.8C20.7952 84.8533 19.9685 85.6 19.1019 86.04C18.2485 86.48 17.3885 86.7 16.5219 86.7ZM30.8681 82.5C30.1215 82.5 29.4615 82.3067 28.8881 81.92C28.3281 81.5333 27.8948 80.9867 27.5881 80.28C27.2815 79.5733 27.1281 78.7467 27.1281 77.8C27.1281 76.6933 27.3215 75.6667 27.7081 74.72C28.1081 73.7733 28.6548 72.9467 29.3481 72.24C30.0548 71.5333 30.8815 70.9867 31.8281 70.6C32.7748 70.2 33.8015 70 34.9081 70C35.2281 70 35.5015 70.0133 35.7281 70.04C35.9681 70.0533 36.2215 70.0933 36.4881 70.16C36.5681 70.5333 36.6148 70.86 36.6281 71.14C36.9348 70.94 37.2748 70.7867 37.6481 70.68C38.0215 70.56 38.3681 70.5 38.6881 70.5C39.6615 70.5 40.1481 71.0267 40.1481 72.08C40.1481 72.4267 40.0815 72.9 39.9481 73.5C39.8281 74.0867 39.6815 74.74 39.5081 75.46C39.3481 76.1667 39.2015 76.8933 39.0681 77.64C38.9481 78.3733 38.8881 79.06 38.8881 79.7C38.8881 80.5667 39.0948 81.1733 39.5081 81.52C38.7615 82.1733 37.9681 82.5 37.1281 82.5C36.3548 82.5 35.7815 82.26 35.4081 81.78C35.0481 81.3 34.8681 80.5533 34.8681 79.54L34.6681 79.44C34.3081 80.4 33.7881 81.1533 33.1081 81.7C32.4415 82.2333 31.6948 82.5 30.8681 82.5ZM32.4481 78.86C32.9681 78.86 33.4748 78.6733 33.9681 78.3C34.4615 77.9267 34.8748 77.4133 35.2081 76.76C35.2615 76.24 35.3148 75.7533 35.3681 75.3C35.4348 74.8333 35.5148 74.34 35.6081 73.82C35.7148 73.3 35.8415 72.6867 35.9881 71.98C35.3081 71.98 34.6615 72.1133 34.0481 72.38C33.4481 72.6333 32.9081 72.9867 32.4281 73.44C31.9481 73.8933 31.5681 74.4133 31.2881 75C31.0215 75.5733 30.8881 76.18 30.8881 76.82C30.8881 77.4733 31.0215 77.98 31.2881 78.34C31.5681 78.6867 31.9548 78.86 32.4481 78.86ZM44.4147 82.5C43.6014 82.5 43.0214 82.2867 42.6747 81.86C42.328 81.4333 42.1547 80.82 42.1547 80.02C42.1547 79.74 42.1947 79.3133 42.2747 78.74C42.3547 78.1533 42.4547 77.5067 42.5747 76.8C42.708 76.08 42.848 75.36 42.9947 74.64C43.1414 73.92 43.2814 73.28 43.4147 72.72L42.3747 71.12C43.068 70.8133 43.708 70.5533 44.2947 70.34C44.8947 70.1133 45.428 70 45.8947 70C46.2414 70 46.4947 70.12 46.6547 70.36C46.8147 70.6 46.8947 70.9067 46.8947 71.28C46.8947 71.7067 46.8214 72.1867 46.6747 72.72C46.528 73.24 46.3814 73.7333 46.2347 74.2L46.4347 74.3C46.9014 72.9267 47.428 71.8667 48.0147 71.12C48.6147 70.3733 49.2814 70 50.0147 70C50.4947 70 50.8814 70.1067 51.1747 70.32C51.468 70.52 51.6814 70.7733 51.8147 71.08C51.9614 71.3733 52.0347 71.66 52.0347 71.94C52.0347 72.38 51.9214 72.8067 51.6947 73.22C51.4814 73.62 51.1347 73.9533 50.6547 74.22C50.1747 74.4733 49.5414 74.6 48.7547 74.6C48.448 74.6 48.148 74.6667 47.8547 74.8C47.5614 74.9333 47.2947 75.1867 47.0547 75.56C46.8147 75.92 46.6214 76.4333 46.4747 77.1C46.3414 77.7667 46.2747 78.6333 46.2747 79.7C46.2747 80.5267 46.4147 81.1333 46.6947 81.52C45.868 82.1733 45.108 82.5 44.4147 82.5ZM55.0806 82.5C54.2406 82.5 53.6406 82.2867 53.2806 81.86C52.9206 81.4333 52.7406 80.82 52.7406 80.02C52.7406 79.74 52.7806 79.3133 52.8606 78.74C52.9406 78.1533 53.0406 77.5067 53.1606 76.8C53.294 76.08 53.434 75.36 53.5806 74.64C53.7273 73.92 53.8673 73.28 54.0006 72.72L52.9606 71.12C53.5073 70.8133 54.094 70.5533 54.7206 70.34C55.3606 70.1133 56.0073 70 56.6606 70C57.2206 70 57.634 70.14 57.9006 70.42C58.1673 70.6867 58.3006 71.0533 58.3006 71.52C58.3006 71.8667 58.254 72.2267 58.1606 72.6C58.0673 72.9733 57.9606 73.2933 57.8406 73.56L58.0406 73.66C58.8273 72.3133 59.6873 71.3667 60.6206 70.82C61.554 70.2733 62.5073 70 63.4806 70C64.294 70 64.9006 70.2 65.3006 70.6C65.7006 70.9867 65.9006 71.5933 65.9006 72.42C65.9006 73.14 65.8006 73.9067 65.6006 74.72C65.414 75.52 65.2206 76.3467 65.0206 77.2C64.8206 78.04 64.7206 78.8733 64.7206 79.7C64.7206 80.5267 64.8606 81.1333 65.1406 81.52C64.434 82.1733 63.7006 82.5 62.9406 82.5C62.1006 82.5 61.5006 82.2867 61.1406 81.86C60.7806 81.4333 60.6006 80.82 60.6006 80.02C60.6006 79.58 60.6606 79.0933 60.7806 78.56C60.9006 78.0133 61.0406 77.46 61.2006 76.9C61.3606 76.34 61.5006 75.8133 61.6206 75.32C61.7406 74.8267 61.8006 74.4 61.8006 74.04C61.8006 73.76 61.7473 73.54 61.6406 73.38C61.5473 73.22 61.374 73.14 61.1206 73.14C60.7606 73.14 60.3406 73.3 59.8606 73.62C59.3806 73.94 58.9073 74.3933 58.4406 74.98C57.9873 75.5533 57.6073 76.24 57.3006 77.04C57.0073 77.84 56.8606 78.7267 56.8606 79.7C56.8606 80.5267 57.0006 81.1333 57.2806 81.52C56.574 82.1733 55.8406 82.5 55.0806 82.5ZM78.613 82.5C77.1196 82.5 75.993 82.16 75.233 81.48C74.4863 80.7867 74.113 79.6933 74.113 78.2C74.113 77.7733 74.173 77.1267 74.293 76.26C74.413 75.3933 74.5663 74.38 74.753 73.22C74.953 72.06 75.173 70.84 75.413 69.56L74.293 67.96C74.9863 67.5467 75.633 67.2 76.233 66.92C76.8463 66.64 77.4596 66.5 78.073 66.5C78.6463 66.5 79.0663 66.6133 79.333 66.84C79.5996 67.0533 79.733 67.4133 79.733 67.92C79.733 68.2667 79.693 68.72 79.613 69.28C79.533 69.8267 79.433 70.42 79.313 71.06C79.2063 71.7 79.0863 72.3267 78.953 72.94L79.153 73.04C79.633 72.0933 80.213 71.38 80.893 70.9C81.5863 70.42 82.4063 70.18 83.353 70.18C84.073 70.18 84.6796 70.3933 85.173 70.82C85.6663 71.2333 86.0396 71.7933 86.293 72.5C86.5463 73.1933 86.673 73.96 86.673 74.8C86.673 76.0667 86.4263 77.18 85.933 78.14C85.4396 79.1 84.7863 79.9067 83.973 80.56C83.173 81.2 82.2996 81.68 81.353 82C80.4196 82.3333 79.5063 82.5 78.613 82.5ZM78.073 80.18C78.8596 80.18 79.5596 80.04 80.173 79.76C80.7863 79.4667 81.3063 79.08 81.733 78.6C82.173 78.12 82.5063 77.5933 82.733 77.02C82.9596 76.4333 83.073 75.8467 83.073 75.26C83.073 74.9 83.0063 74.5467 82.873 74.2C82.7396 73.8533 82.5463 73.5667 82.293 73.34C82.053 73.1133 81.773 73 81.453 73C80.9596 73 80.5263 73.14 80.153 73.42C79.793 73.7 79.4863 74.0733 79.233 74.54C78.993 74.9933 78.793 75.5 78.633 76.06C78.4863 76.6067 78.3663 77.1533 78.273 77.7C78.193 78.2333 78.1396 78.72 78.113 79.16C78.0863 79.6 78.073 79.94 78.073 80.18ZM94.1981 82.5C92.9581 82.5 91.9115 82.28 91.0581 81.84C90.2048 81.4 89.5581 80.7867 89.1181 80C88.6915 79.2 88.4781 78.28 88.4781 77.24C88.4781 76.16 88.6715 75.18 89.0581 74.3C89.4581 73.4067 90.0115 72.64 90.7181 72C91.4248 71.36 92.2448 70.8667 93.1781 70.52C94.1248 70.1733 95.1448 70 96.2381 70C97.5315 70 98.4848 70.2867 99.0981 70.86C99.7115 71.4333 100.018 72.1533 100.018 73.02C100.018 73.7667 99.7715 74.4733 99.2781 75.14C98.7981 75.7933 98.0181 76.3267 96.9381 76.74C95.8581 77.14 94.4181 77.3467 92.6181 77.36C92.6581 78.2133 92.8515 78.8867 93.1981 79.38C93.5581 79.86 94.0048 80.1 94.5381 80.1C94.8048 80.1 95.0848 80.04 95.3781 79.92C95.6715 79.7867 95.9181 79.56 96.1181 79.24C96.3181 78.9067 96.4181 78.4533 96.4181 77.88C97.3248 77.88 98.0381 77.98 98.5581 78.18C99.0781 78.38 99.3381 78.74 99.3381 79.26C99.3381 79.74 99.1315 80.2333 98.7181 80.74C98.3048 81.2333 97.7115 81.6533 96.9381 82C96.1781 82.3333 95.2648 82.5 94.1981 82.5ZM92.7981 75.76C93.7715 75.68 94.5515 75.5 95.1381 75.22C95.7248 74.94 96.1515 74.62 96.4181 74.26C96.6848 73.9 96.8181 73.5667 96.8181 73.26C96.8181 72.9933 96.7381 72.7733 96.5781 72.6C96.4181 72.4267 96.1915 72.34 95.8981 72.34C95.4181 72.34 94.9715 72.5067 94.5581 72.84C94.1448 73.1733 93.7848 73.6067 93.4781 74.14C93.1848 74.66 92.9581 75.2 92.7981 75.76ZM104.083 82.5C103.269 82.5 102.689 82.2867 102.343 81.86C101.996 81.4333 101.823 80.82 101.823 80.02C101.823 79.74 101.863 79.3133 101.943 78.74C102.023 78.1533 102.123 77.5067 102.243 76.8C102.376 76.08 102.516 75.36 102.663 74.64C102.809 73.92 102.949 73.28 103.083 72.72L102.043 71.12C102.736 70.8133 103.376 70.5533 103.963 70.34C104.563 70.1133 105.096 70 105.563 70C105.909 70 106.163 70.12 106.323 70.36C106.483 70.6 106.563 70.9067 106.563 71.28C106.563 71.7067 106.489 72.1867 106.343 72.72C106.196 73.24 106.049 73.7333 105.903 74.2L106.103 74.3C106.569 72.9267 107.096 71.8667 107.683 71.12C108.283 70.3733 108.949 70 109.683 70C110.163 70 110.549 70.1067 110.843 70.32C111.136 70.52 111.349 70.7733 111.483 71.08C111.629 71.3733 111.703 71.66 111.703 71.94C111.703 72.38 111.589 72.8067 111.363 73.22C111.149 73.62 110.803 73.9533 110.323 74.22C109.843 74.4733 109.209 74.6 108.423 74.6C108.116 74.6 107.816 74.6667 107.523 74.8C107.229 74.9333 106.963 75.1867 106.723 75.56C106.483 75.92 106.289 76.4333 106.143 77.1C106.009 77.7667 105.943 78.6333 105.943 79.7C105.943 80.5267 106.083 81.1333 106.363 81.52C105.536 82.1733 104.776 82.5 104.083 82.5ZM114.669 82.5C113.855 82.5 113.275 82.2867 112.929 81.86C112.582 81.4333 112.409 80.82 112.409 80.02C112.409 79.74 112.449 79.3133 112.529 78.74C112.609 78.1533 112.709 77.5067 112.829 76.8C112.962 76.08 113.102 75.36 113.249 74.64C113.395 73.92 113.535 73.28 113.669 72.72L112.629 71.12C113.322 70.8133 113.962 70.5533 114.549 70.34C115.149 70.1133 115.682 70 116.149 70C116.495 70 116.749 70.12 116.909 70.36C117.069 70.6 117.149 70.9067 117.149 71.28C117.149 71.7067 117.075 72.1867 116.929 72.72C116.782 73.24 116.635 73.7333 116.489 74.2L116.689 74.3C117.155 72.9267 117.682 71.8667 118.269 71.12C118.869 70.3733 119.535 70 120.269 70C120.749 70 121.135 70.1067 121.429 70.32C121.722 70.52 121.935 70.7733 122.069 71.08C122.215 71.3733 122.289 71.66 122.289 71.94C122.289 72.38 122.175 72.8067 121.949 73.22C121.735 73.62 121.389 73.9533 120.909 74.22C120.429 74.4733 119.795 74.6 119.009 74.6C118.702 74.6 118.402 74.6667 118.109 74.8C117.815 74.9333 117.549 75.1867 117.309 75.56C117.069 75.92 116.875 76.4333 116.729 77.1C116.595 77.7667 116.529 78.6333 116.529 79.7C116.529 80.5267 116.669 81.1333 116.949 81.52C116.122 82.1733 115.362 82.5 114.669 82.5ZM125.995 86.7C125.075 86.7 124.301 86.5 123.675 86.1C123.048 85.7 122.735 85.14 122.735 84.42C122.735 84.1267 122.795 83.8133 122.915 83.48C123.035 83.1467 123.221 82.7933 123.475 82.42C123.781 82.86 124.148 83.1933 124.575 83.42C125.001 83.66 125.435 83.78 125.875 83.78C126.395 83.78 126.895 83.6067 127.375 83.26C127.855 82.9133 128.241 82.36 128.535 81.6C128.201 81.72 127.888 81.8067 127.595 81.86C127.301 81.9133 127.021 81.94 126.755 81.94C126.061 81.94 125.501 81.76 125.075 81.4C124.648 81.0267 124.401 80.4933 124.335 79.8C124.241 78.92 124.181 78.0067 124.155 77.06C124.128 76.1133 124.075 75.2533 123.995 74.48C123.901 73.5733 123.708 72.82 123.415 72.22C123.121 71.62 122.781 71.1667 122.395 70.86C122.715 70.5667 123.048 70.3533 123.395 70.22C123.755 70.0733 124.208 70 124.755 70C125.421 70 125.961 70.2 126.375 70.6C126.801 71 127.128 71.5667 127.355 72.3C127.581 73.02 127.735 73.8667 127.815 74.84C127.908 75.8 127.955 76.8467 127.955 77.98C127.955 78.14 127.948 78.3867 127.935 78.72C127.935 79.0533 127.921 79.3867 127.895 79.72H129.055C129.268 79.1333 129.495 78.5067 129.735 77.84C129.975 77.1733 130.195 76.5 130.395 75.82C130.608 75.1267 130.781 74.4667 130.915 73.84C131.048 73.2 131.115 72.6333 131.115 72.14C131.115 71.8467 131.081 71.6 131.015 71.4C130.961 71.2 130.895 71.02 130.815 70.86C131.281 70.5667 131.741 70.3533 132.195 70.22C132.648 70.0733 133.055 70 133.415 70C134.028 70 134.475 70.2067 134.755 70.62C135.048 71.0333 135.195 71.5733 135.195 72.24C135.195 72.7333 135.121 73.3067 134.975 73.96C134.828 74.6 134.641 75.2667 134.415 75.96C134.201 76.64 133.981 77.2867 133.755 77.9C133.541 78.5133 133.361 79.0333 133.215 79.46C132.575 81.3 131.855 82.7467 131.055 83.8C130.268 84.8533 129.441 85.6 128.575 86.04C127.721 86.48 126.861 86.7 125.995 86.7ZM145.097 85.98C144.244 85.98 143.664 85.7667 143.357 85.34C143.05 84.9133 142.897 84.3 142.897 83.5C142.897 83.2067 142.93 82.7533 142.997 82.14C143.064 81.5267 143.144 80.8267 143.237 80.04C143.344 79.24 143.464 78.4133 143.597 77.56C143.73 76.7067 143.857 75.8867 143.977 75.1C144.11 74.3133 144.23 73.6267 144.337 73.04L143.217 71.44C143.924 71.0267 144.59 70.68 145.217 70.4C145.857 70.12 146.497 69.98 147.137 69.98C147.697 69.98 148.077 70.1733 148.277 70.56C148.477 70.9333 148.577 71.3733 148.577 71.88C148.577 72.0267 148.57 72.1933 148.557 72.38C148.544 72.5533 148.524 72.74 148.497 72.94L148.697 73.04C149.084 72.08 149.644 71.3333 150.377 70.8C151.11 70.2533 151.95 69.98 152.897 69.98C153.617 69.98 154.224 70.2 154.717 70.64C155.21 71.0667 155.584 71.6333 155.837 72.34C156.09 73.0467 156.217 73.8267 156.217 74.68C156.217 75.5067 156.057 76.3533 155.737 77.22C155.43 78.0733 154.957 78.86 154.317 79.58C153.677 80.3 152.87 80.88 151.897 81.32C150.924 81.76 149.77 81.98 148.437 81.98C148.184 81.98 147.937 81.9733 147.697 81.96C147.457 81.9333 147.197 81.9067 146.917 81.88C146.877 82.3333 146.857 82.7667 146.857 83.18C146.857 83.58 146.904 83.9333 146.997 84.24C147.104 84.56 147.264 84.8133 147.477 85C146.73 85.6533 145.937 85.98 145.097 85.98ZM147.277 80.02C148.144 79.9933 148.904 79.8333 149.557 79.54C150.224 79.2333 150.784 78.84 151.237 78.36C151.69 77.8667 152.03 77.3333 152.257 76.76C152.484 76.1867 152.597 75.6267 152.597 75.08C152.597 74.4667 152.477 73.9667 152.237 73.58C151.997 73.1933 151.637 73 151.157 73C150.664 73 150.197 73.1533 149.757 73.46C149.33 73.7533 148.944 74.24 148.597 74.92C148.264 75.6 147.977 76.5267 147.737 77.7L147.277 80.02ZM160.549 82.5C159.709 82.5 159.109 82.2867 158.749 81.86C158.389 81.4333 158.209 80.82 158.209 80.02C158.209 79.74 158.249 79.3133 158.329 78.74C158.409 78.1533 158.509 77.5067 158.629 76.8C158.763 76.08 158.903 75.36 159.049 74.64C159.196 73.92 159.336 73.28 159.469 72.72L158.429 71.12C158.976 70.8133 159.563 70.5533 160.189 70.34C160.829 70.1133 161.476 70 162.129 70C162.689 70 163.103 70.14 163.369 70.42C163.636 70.6867 163.769 71.0533 163.769 71.52C163.769 71.8667 163.723 72.2267 163.629 72.6C163.536 72.9733 163.429 73.2933 163.309 73.56L163.509 73.66C164.296 72.3133 165.156 71.3667 166.089 70.82C167.023 70.2733 167.976 70 168.949 70C169.763 70 170.369 70.2 170.769 70.6C171.169 70.9867 171.369 71.5933 171.369 72.42C171.369 73.14 171.269 73.9067 171.069 74.72C170.883 75.52 170.689 76.3467 170.489 77.2C170.289 78.04 170.189 78.8733 170.189 79.7C170.189 80.5267 170.329 81.1333 170.609 81.52C169.903 82.1733 169.169 82.5 168.409 82.5C167.569 82.5 166.969 82.2867 166.609 81.86C166.249 81.4333 166.069 80.82 166.069 80.02C166.069 79.58 166.129 79.0933 166.249 78.56C166.369 78.0133 166.509 77.46 166.669 76.9C166.829 76.34 166.969 75.8133 167.089 75.32C167.209 74.8267 167.269 74.4 167.269 74.04C167.269 73.76 167.216 73.54 167.109 73.38C167.016 73.22 166.843 73.14 166.589 73.14C166.229 73.14 165.809 73.3 165.329 73.62C164.849 73.94 164.376 74.3933 163.909 74.98C163.456 75.5533 163.076 76.24 162.769 77.04C162.476 77.84 162.329 78.7267 162.329 79.7C162.329 80.5267 162.469 81.1333 162.749 81.52C162.043 82.1733 161.309 82.5 160.549 82.5ZM175.566 85.98C174.712 85.98 174.132 85.7667 173.826 85.34C173.519 84.9133 173.366 84.3 173.366 83.5C173.366 83.2067 173.399 82.7533 173.466 82.14C173.532 81.5267 173.612 80.8267 173.706 80.04C173.812 79.24 173.932 78.4133 174.066 77.56C174.199 76.7067 174.326 75.8867 174.446 75.1C174.579 74.3133 174.699 73.6267 174.806 73.04L173.686 71.44C174.392 71.0267 175.059 70.68 175.686 70.4C176.326 70.12 176.966 69.98 177.606 69.98C178.166 69.98 178.546 70.1733 178.746 70.56C178.946 70.9333 179.046 71.3733 179.046 71.88C179.046 72.0267 179.039 72.1933 179.026 72.38C179.012 72.5533 178.992 72.74 178.966 72.94L179.166 73.04C179.552 72.08 180.112 71.3333 180.846 70.8C181.579 70.2533 182.419 69.98 183.366 69.98C184.086 69.98 184.692 70.2 185.186 70.64C185.679 71.0667 186.052 71.6333 186.306 72.34C186.559 73.0467 186.686 73.8267 186.686 74.68C186.686 75.5067 186.526 76.3533 186.206 77.22C185.899 78.0733 185.426 78.86 184.786 79.58C184.146 80.3 183.339 80.88 182.366 81.32C181.392 81.76 180.239 81.98 178.906 81.98C178.652 81.98 178.406 81.9733 178.166 81.96C177.926 81.9333 177.666 81.9067 177.386 81.88C177.346 82.3333 177.326 82.7667 177.326 83.18C177.326 83.58 177.372 83.9333 177.466 84.24C177.572 84.56 177.732 84.8133 177.946 85C177.199 85.6533 176.406 85.98 175.566 85.98ZM177.746 80.02C178.612 79.9933 179.372 79.8333 180.026 79.54C180.692 79.2333 181.252 78.84 181.706 78.36C182.159 77.8667 182.499 77.3333 182.726 76.76C182.952 76.1867 183.066 75.6267 183.066 75.08C183.066 74.4667 182.946 73.9667 182.706 73.58C182.466 73.1933 182.106 73 181.626 73C181.132 73 180.666 73.1533 180.226 73.46C179.799 73.7533 179.412 74.24 179.066 74.92C178.732 75.6 178.446 76.5267 178.206 77.7L177.746 80.02Z" fill="white"/>
</svg>
