<svg width="200" height="150" viewBox="0 0 200 150" fill="none" xmlns="http://www.w3.org/2000/svg">
<rect width="200" height="150" fill="#264DB1"/>
<path d="M28.1472 73.76C27.4112 73.76 26.7925 73.6 26.2912 73.28C25.7899 72.96 25.5392 72.512 25.5392 71.936C25.5392 71.7013 25.5872 71.4507 25.6832 71.184C25.7792 70.9173 25.9285 70.6347 26.1312 70.336C26.3765 70.688 26.6699 70.9547 27.0112 71.136C27.3525 71.328 27.6992 71.424 28.0512 71.424C28.4672 71.424 28.8672 71.2853 29.2512 71.008C29.6352 70.7307 29.9445 70.288 30.1792 69.68C29.9125 69.776 29.6619 69.8453 29.4272 69.888C29.1925 69.9307 28.9685 69.952 28.7552 69.952C28.2005 69.952 27.7525 69.808 27.4112 69.52C27.0699 69.2213 26.8725 68.7947 26.8192 68.24C26.7445 67.536 26.6965 66.8053 26.6752 66.048C26.6539 65.2907 26.6112 64.6027 26.5472 63.984C26.4725 63.2587 26.3179 62.656 26.0832 62.176C25.8485 61.696 25.5765 61.3333 25.2672 61.088C25.5232 60.8533 25.7899 60.6827 26.0672 60.576C26.3552 60.4587 26.7179 60.4 27.1552 60.4C27.6885 60.4 28.1205 60.56 28.4512 60.88C28.7925 61.2 29.0539 61.6533 29.2352 62.24C29.4165 62.816 29.5392 63.4933 29.6032 64.272C29.6779 65.04 29.7152 65.8773 29.7152 66.784C29.7152 66.912 29.7099 67.1093 29.6992 67.376C29.6992 67.6427 29.6885 67.9093 29.6672 68.176H30.5952C30.7659 67.7067 30.9472 67.2053 31.1392 66.672C31.3312 66.1387 31.5072 65.6 31.6672 65.056C31.8379 64.5013 31.9765 63.9733 32.0832 63.472C32.1899 62.96 32.2432 62.5067 32.2432 62.112C32.2432 61.8773 32.2165 61.68 32.1632 61.52C32.1205 61.36 32.0672 61.216 32.0032 61.088C32.3765 60.8533 32.7445 60.6827 33.1072 60.576C33.4699 60.4587 33.7952 60.4 34.0832 60.4C34.5739 60.4 34.9312 60.5653 35.1552 60.896C35.3899 61.2267 35.5072 61.6587 35.5072 62.192C35.5072 62.5867 35.4485 63.0453 35.3312 63.568C35.2139 64.08 35.0645 64.6133 34.8832 65.168C34.7125 65.712 34.5365 66.2293 34.3552 66.72C34.1845 67.2107 34.0405 67.6267 33.9232 67.968C33.4112 69.44 32.8352 70.5973 32.1952 71.44C31.5659 72.2827 30.9045 72.88 30.2112 73.232C29.5285 73.584 28.8405 73.76 28.1472 73.76ZM39.6242 70.4C39.0269 70.4 38.4989 70.2453 38.0402 69.936C37.5922 69.6267 37.2455 69.1893 37.0002 68.624C36.7549 68.0587 36.6322 67.3973 36.6322 66.64C36.6322 65.7547 36.7869 64.9333 37.0962 64.176C37.4162 63.4187 37.8535 62.7573 38.4082 62.192C38.9735 61.6267 39.6349 61.1893 40.3922 60.88C41.1495 60.56 41.9709 60.4 42.8562 60.4C43.1122 60.4 43.3309 60.4107 43.5122 60.432C43.7042 60.4427 43.9069 60.4747 44.1202 60.528C44.1842 60.8267 44.2215 61.088 44.2322 61.312C44.4775 61.152 44.7495 61.0293 45.0482 60.944C45.3469 60.848 45.6242 60.8 45.8802 60.8C46.6589 60.8 47.0482 61.2213 47.0482 62.064C47.0482 62.3413 46.9949 62.72 46.8882 63.2C46.7922 63.6693 46.6749 64.192 46.5362 64.768C46.4082 65.3333 46.2909 65.9147 46.1842 66.512C46.0882 67.0987 46.0402 67.648 46.0402 68.16C46.0402 68.8533 46.2055 69.3387 46.5362 69.616C45.9389 70.1387 45.3042 70.4 44.6322 70.4C44.0135 70.4 43.5549 70.208 43.2562 69.824C42.9682 69.44 42.8242 68.8427 42.8242 68.032L42.6642 67.952C42.3762 68.72 41.9602 69.3227 41.4162 69.76C40.8829 70.1867 40.2855 70.4 39.6242 70.4ZM40.8882 67.488C41.3042 67.488 41.7095 67.3387 42.1042 67.04C42.4989 66.7413 42.8295 66.3307 43.0962 65.808C43.1389 65.392 43.1815 65.0027 43.2242 64.64C43.2775 64.2667 43.3415 63.872 43.4162 63.456C43.5015 63.04 43.6029 62.5493 43.7202 61.984C43.1762 61.984 42.6589 62.0907 42.1682 62.304C41.6882 62.5067 41.2562 62.7893 40.8722 63.152C40.4882 63.5147 40.1842 63.9307 39.9602 64.4C39.7469 64.8587 39.6402 65.344 39.6402 65.856C39.6402 66.3787 39.7469 66.784 39.9602 67.072C40.1842 67.3493 40.4935 67.488 40.8882 67.488ZM50.4614 70.4C49.8108 70.4 49.3468 70.2293 49.0694 69.888C48.7921 69.5467 48.6534 69.056 48.6534 68.416C48.6534 68.192 48.6854 67.8507 48.7494 67.392C48.8134 66.9227 48.8934 66.4053 48.9894 65.84C49.0961 65.264 49.2081 64.688 49.3254 64.112C49.4428 63.536 49.5548 63.024 49.6614 62.576L48.8294 61.296C49.3841 61.0507 49.8961 60.8427 50.3654 60.672C50.8454 60.4907 51.2721 60.4 51.6454 60.4C51.9228 60.4 52.1254 60.496 52.2534 60.688C52.3814 60.88 52.4454 61.1253 52.4454 61.424C52.4454 61.7653 52.3868 62.1493 52.2694 62.576C52.1521 62.992 52.0348 63.3867 51.9174 63.76L52.0774 63.84C52.4508 62.7413 52.8721 61.8933 53.3414 61.296C53.8214 60.6987 54.3548 60.4 54.9414 60.4C55.3254 60.4 55.6348 60.4853 55.8694 60.656C56.1041 60.816 56.2748 61.0187 56.3814 61.264C56.4988 61.4987 56.5574 61.728 56.5574 61.952C56.5574 62.304 56.4668 62.6453 56.2854 62.976C56.1148 63.296 55.8374 63.5627 55.4534 63.776C55.0694 63.9787 54.5628 64.08 53.9334 64.08C53.6881 64.08 53.4481 64.1333 53.2134 64.24C52.9788 64.3467 52.7654 64.5493 52.5734 64.848C52.3814 65.136 52.2268 65.5467 52.1094 66.08C52.0028 66.6133 51.9494 67.3067 51.9494 68.16C51.9494 68.8213 52.0614 69.3067 52.2854 69.616C51.6241 70.1387 51.0161 70.4 50.4614 70.4ZM58.9942 70.4C58.3222 70.4 57.8422 70.2293 57.5542 69.888C57.2662 69.5467 57.1222 69.056 57.1222 68.416C57.1222 68.192 57.1542 67.8507 57.2182 67.392C57.2822 66.9227 57.3622 66.4053 57.4582 65.84C57.5649 65.264 57.6769 64.688 57.7942 64.112C57.9115 63.536 58.0235 63.024 58.1302 62.576L57.2982 61.296C57.7355 61.0507 58.2049 60.8427 58.7062 60.672C59.2182 60.4907 59.7355 60.4 60.2582 60.4C60.7062 60.4 61.0369 60.512 61.2502 60.736C61.4635 60.9493 61.5702 61.2427 61.5702 61.616C61.5702 61.8933 61.5329 62.1813 61.4582 62.48C61.3835 62.7787 61.2982 63.0347 61.2022 63.248L61.3622 63.328C61.9915 62.2507 62.6795 61.4933 63.4262 61.056C64.1729 60.6187 64.9355 60.4 65.7142 60.4C66.3649 60.4 66.8502 60.56 67.1702 60.88C67.4902 61.1893 67.6502 61.6747 67.6502 62.336C67.6502 62.912 67.5702 63.5253 67.4102 64.176C67.2609 64.816 67.1062 65.4773 66.9462 66.16C66.7862 66.832 66.7062 67.4987 66.7062 68.16C66.7062 68.8213 66.8182 69.3067 67.0422 69.616C66.4769 70.1387 65.8902 70.4 65.2822 70.4C64.6102 70.4 64.1302 70.2293 63.8422 69.888C63.5542 69.5467 63.4102 69.056 63.4102 68.416C63.4102 68.064 63.4582 67.6747 63.5542 67.248C63.6502 66.8107 63.7622 66.368 63.8902 65.92C64.0182 65.472 64.1302 65.0507 64.2262 64.656C64.3222 64.2613 64.3702 63.92 64.3702 63.632C64.3702 63.408 64.3275 63.232 64.2422 63.104C64.1675 62.976 64.0289 62.912 63.8262 62.912C63.5382 62.912 63.2022 63.04 62.8182 63.296C62.4342 63.552 62.0555 63.9147 61.6822 64.384C61.3195 64.8427 61.0155 65.392 60.7702 66.032C60.5355 66.672 60.4182 67.3813 60.4182 68.16C60.4182 68.8213 60.5302 69.3067 60.7542 69.616C60.1889 70.1387 59.6022 70.4 58.9942 70.4ZM76.8921 70.4C76.5401 70.4 76.1934 70.3467 75.8521 70.24C75.5214 70.1333 75.2441 69.9467 75.0201 69.68C74.8067 69.4133 74.7001 69.0453 74.7001 68.576C74.7001 68.576 74.7001 68.4533 74.7001 68.208C74.7107 67.9627 74.7161 67.648 74.7161 67.264C74.7267 66.88 74.7321 66.4747 74.7321 66.048C74.7321 65.6107 74.7321 65.1947 74.7321 64.8C74.7427 64.4053 74.7481 64.0853 74.7481 63.84C74.7481 63.1147 74.6627 62.5387 74.4921 62.112C74.3321 61.6747 74.1294 61.3333 73.8841 61.088C74.4387 60.6293 75.0467 60.4 75.7081 60.4C76.3054 60.4 76.7587 60.576 77.0681 60.928C77.3774 61.2693 77.5854 61.7387 77.6921 62.336C77.8094 62.9333 77.8681 63.6 77.8681 64.336C77.8681 64.7307 77.8627 65.1787 77.8521 65.68C77.8521 66.1707 77.8467 66.6613 77.8361 67.152C77.8254 67.632 77.8094 68.064 77.7881 68.448H78.3321C78.7054 67.7973 79.0361 67.1787 79.3241 66.592C79.6121 66.0053 79.8147 65.4293 79.9321 64.864C79.9321 64.5013 79.8947 64.096 79.8201 63.648C79.7561 63.2 79.6707 62.7787 79.5641 62.384C79.4574 61.9787 79.3454 61.68 79.2281 61.488C79.3881 61.2747 79.6334 61.104 79.9641 60.976C80.2947 60.848 80.6361 60.784 80.9881 60.784C81.2654 60.784 81.5321 60.832 81.7881 60.928C82.0547 61.024 82.2734 61.1787 82.4441 61.392C82.6254 61.6053 82.7161 61.888 82.7161 62.24C82.7161 62.5707 82.6467 62.9227 82.5081 63.296C82.3694 63.6587 82.2147 64.096 82.0441 64.608L81.9801 68.448H82.5241C82.7694 67.9787 83.0307 67.4453 83.3081 66.848C83.5854 66.24 83.8467 65.6213 84.0921 64.992C84.3481 64.3627 84.5561 63.7707 84.7161 63.216C84.8761 62.6507 84.9561 62.1813 84.9561 61.808C84.9561 61.6587 84.9401 61.5253 84.9081 61.408C84.8867 61.2907 84.8547 61.184 84.8121 61.088C85.1854 60.8533 85.5534 60.6827 85.9161 60.576C86.2787 60.4587 86.6094 60.4 86.9081 60.4C87.3774 60.4 87.7134 60.5387 87.9161 60.816C88.1187 61.0933 88.2201 61.456 88.2201 61.904C88.2201 62.288 88.1347 62.7467 87.9641 63.28C87.8041 63.8133 87.6014 64.3733 87.3561 64.96C87.1107 65.536 86.8654 66.0907 86.6201 66.624C86.3747 67.1467 86.1774 67.5947 86.0281 67.968L86.2521 68.896C86.0921 69.024 85.8574 69.1733 85.5481 69.344C85.2387 69.5147 84.8867 69.68 84.4921 69.84C84.1081 70 83.7027 70.1333 83.2761 70.24C82.8601 70.3467 82.4601 70.4 82.0761 70.4C81.6067 70.4 81.1854 70.2933 80.8121 70.08C80.4494 69.8667 80.2041 69.488 80.0761 68.944C79.6067 69.4027 79.1161 69.76 78.6041 70.016C78.1027 70.272 77.5321 70.4 76.8921 70.4ZM93.8652 70.4C92.9265 70.4 92.1159 70.224 91.4332 69.872C90.7612 69.5093 90.2439 69.0133 89.8812 68.384C89.5185 67.7547 89.3372 67.024 89.3372 66.192C89.3372 65.04 89.5879 64.032 90.0892 63.168C90.6012 62.2933 91.2999 61.616 92.1852 61.136C93.0705 60.6453 94.0785 60.4 95.2092 60.4C95.3905 60.4 95.5719 60.4107 95.7532 60.432C95.9452 60.4427 96.1479 60.4747 96.3612 60.528C96.4145 60.6773 96.4572 60.8587 96.4892 61.072C96.5212 61.2747 96.5425 61.4933 96.5532 61.728C96.6492 61.696 96.7505 61.6693 96.8572 61.648C96.9745 61.6267 97.0972 61.616 97.2252 61.616C97.5985 61.616 97.9505 61.7173 98.2812 61.92C98.6119 62.112 98.8839 62.416 99.0972 62.832C99.3105 63.248 99.4172 63.776 99.4172 64.416C99.4172 65.3653 99.2572 66.2133 98.9372 66.96C98.6279 67.696 98.2065 68.32 97.6732 68.832C97.1399 69.344 96.5425 69.7333 95.8812 70C95.2305 70.2667 94.5585 70.4 93.8652 70.4ZM94.3612 68.432C94.6065 68.432 94.8625 68.3733 95.1292 68.256C95.3959 68.1387 95.6572 67.9253 95.9132 67.616C96.1692 67.3067 96.3825 66.8693 96.5532 66.304C96.0945 66.016 95.7639 65.664 95.5612 65.248C95.3585 64.8213 95.2572 64.352 95.2572 63.84C95.2572 63.6907 95.2839 63.4987 95.3372 63.264C95.3905 63.0293 95.4812 62.7893 95.6092 62.544C95.7479 62.2987 95.9345 62.096 96.1692 61.936C95.4332 62.0853 94.8305 62.3093 94.3612 62.608C93.8919 62.9067 93.5239 63.2533 93.2572 63.648C93.0012 64.032 92.8199 64.432 92.7132 64.848C92.6172 65.2533 92.5692 65.6427 92.5692 66.016C92.5692 66.4427 92.6385 66.8427 92.7772 67.216C92.9159 67.5787 93.1185 67.872 93.3852 68.096C93.6519 68.32 93.9772 68.432 94.3612 68.432ZM102.743 70.4C102.092 70.4 101.628 70.2293 101.351 69.888C101.073 69.5467 100.935 69.056 100.935 68.416C100.935 68.192 100.967 67.8507 101.031 67.392C101.095 66.9227 101.175 66.4053 101.271 65.84C101.377 65.264 101.489 64.688 101.607 64.112C101.724 63.536 101.836 63.024 101.943 62.576L101.111 61.296C101.665 61.0507 102.177 60.8427 102.647 60.672C103.127 60.4907 103.553 60.4 103.927 60.4C104.204 60.4 104.407 60.496 104.535 60.688C104.663 60.88 104.727 61.1253 104.727 61.424C104.727 61.7653 104.668 62.1493 104.551 62.576C104.433 62.992 104.316 63.3867 104.199 63.76L104.359 63.84C104.732 62.7413 105.153 61.8933 105.623 61.296C106.103 60.6987 106.636 60.4 107.223 60.4C107.607 60.4 107.916 60.4853 108.151 60.656C108.385 60.816 108.556 61.0187 108.663 61.264C108.78 61.4987 108.839 61.728 108.839 61.952C108.839 62.304 108.748 62.6453 108.567 62.976C108.396 63.296 108.119 63.5627 107.735 63.776C107.351 63.9787 106.844 64.08 106.215 64.08C105.969 64.08 105.729 64.1333 105.495 64.24C105.26 64.3467 105.047 64.5493 104.855 64.848C104.663 65.136 104.508 65.5467 104.391 66.08C104.284 66.6133 104.231 67.3067 104.231 68.16C104.231 68.8213 104.343 69.3067 104.567 69.616C103.905 70.1387 103.297 70.4 102.743 70.4ZM111.371 70.4C110.721 70.4 110.257 70.1973 109.979 69.792C109.702 69.3867 109.563 68.768 109.563 67.936C109.563 67.7013 109.59 67.3547 109.643 66.896C109.707 66.4373 109.787 65.9147 109.883 65.328C109.979 64.7413 110.086 64.1333 110.203 63.504C110.321 62.864 110.433 62.2453 110.539 61.648C110.646 61.0507 110.742 60.5173 110.827 60.048L109.931 58.768C110.497 58.4373 111.035 58.16 111.547 57.936C112.059 57.712 112.571 57.6 113.083 57.6C113.531 57.6 113.841 57.6907 114.011 57.872C114.193 58.0427 114.283 58.3307 114.283 58.736C114.283 59.088 114.241 59.52 114.155 60.032C114.07 60.544 113.963 61.1093 113.835 61.728C113.707 62.336 113.574 62.9653 113.435 63.616C113.297 64.256 113.179 64.88 113.083 65.488L114.091 64.592C114.475 64.2507 114.827 63.936 115.147 63.648C115.478 63.36 115.739 63.072 115.931 62.784C116.134 62.4853 116.235 62.1653 116.235 61.824C116.235 61.6747 116.225 61.5413 116.203 61.424C116.182 61.3067 116.15 61.1947 116.107 61.088C116.865 60.6293 117.579 60.4 118.251 60.4C118.699 60.4 119.057 60.544 119.323 60.832C119.59 61.1093 119.723 61.4773 119.723 61.936C119.723 62.3733 119.595 62.7893 119.339 63.184C119.094 63.5787 118.774 63.936 118.379 64.256C117.995 64.5653 117.601 64.8373 117.195 65.072C117.43 65.8187 117.702 66.528 118.011 67.2C118.331 67.872 118.651 68.4373 118.971 68.896C119.291 69.344 119.563 69.6267 119.787 69.744C119.574 69.968 119.275 70.1333 118.891 70.24C118.507 70.3467 118.145 70.4 117.803 70.4C117.142 70.4 116.587 70.176 116.139 69.728C115.691 69.28 115.286 68.544 114.923 67.52L114.523 66.384L112.875 67.2C112.865 67.2853 112.859 67.376 112.859 67.472C112.859 67.5573 112.859 67.6427 112.859 67.728C112.859 68.144 112.897 68.5173 112.971 68.848C113.057 69.168 113.185 69.424 113.355 69.616C112.609 70.1387 111.947 70.4 111.371 70.4ZM124.79 70.4C123.787 70.4 122.987 70.32 122.39 70.16C121.803 70.0107 121.382 69.8027 121.126 69.536C120.87 69.2693 120.742 68.976 120.742 68.656C120.742 68.4107 120.806 68.128 120.934 67.808C121.072 67.488 121.27 67.184 121.526 66.896C121.707 67.1413 121.947 67.3707 122.246 67.584C122.555 67.7867 122.891 67.952 123.254 68.08C123.616 68.1973 123.968 68.256 124.31 68.256C124.683 68.256 125.019 68.1707 125.318 68C125.616 67.8187 125.814 67.5147 125.91 67.088C124.267 66.896 123.088 66.5333 122.374 66C121.659 65.456 121.302 64.704 121.302 63.744C121.302 63.136 121.446 62.6187 121.734 62.192C122.022 61.7653 122.406 61.424 122.886 61.168C123.376 60.9013 123.931 60.7093 124.55 60.592C125.179 60.464 125.83 60.4 126.502 60.4C127.131 60.4 127.691 60.4853 128.182 60.656C128.672 60.816 129.056 61.0347 129.334 61.312C129.611 61.5893 129.75 61.9093 129.75 62.272C129.75 62.784 129.563 63.1733 129.19 63.44C128.827 63.7067 128.411 63.84 127.942 63.84C127.622 63.84 127.286 63.7333 126.934 63.52C126.582 63.3067 126.299 62.976 126.086 62.528C125.691 62.6453 125.376 62.816 125.142 63.04C124.907 63.2533 124.699 63.5627 124.518 63.968C125.734 64.1493 126.699 64.3787 127.414 64.656C128.128 64.9333 128.64 65.2853 128.95 65.712C129.27 66.128 129.43 66.6453 129.43 67.264C129.43 67.7547 129.318 68.1813 129.094 68.544C128.88 68.9067 128.598 69.2053 128.246 69.44C127.894 69.6747 127.51 69.8613 127.094 70C126.678 70.1493 126.267 70.2507 125.862 70.304C125.456 70.368 125.099 70.4 124.79 70.4ZM133.023 73.184C132.34 73.184 131.876 73.0133 131.631 72.672C131.385 72.3307 131.263 71.84 131.263 71.2C131.263 70.9653 131.289 70.6027 131.343 70.112C131.396 69.6213 131.46 69.0613 131.535 68.432C131.62 67.792 131.716 67.1307 131.823 66.448C131.929 65.7653 132.031 65.1093 132.127 64.48C132.233 63.8507 132.329 63.3013 132.415 62.832L131.519 61.552C132.084 61.2213 132.617 60.944 133.119 60.72C133.631 60.496 134.143 60.384 134.655 60.384C135.103 60.384 135.407 60.5387 135.567 60.848C135.727 61.1467 135.807 61.4987 135.807 61.904C135.807 62.0213 135.801 62.1547 135.791 62.304C135.78 62.4427 135.764 62.592 135.743 62.752L135.903 62.832C136.212 62.064 136.66 61.4667 137.247 61.04C137.833 60.6027 138.505 60.384 139.263 60.384C139.839 60.384 140.324 60.56 140.719 60.912C141.113 61.2533 141.412 61.7067 141.615 62.272C141.817 62.8373 141.919 63.4613 141.919 64.144C141.919 64.8053 141.791 65.4827 141.535 66.176C141.289 66.8587 140.911 67.488 140.399 68.064C139.887 68.64 139.241 69.104 138.463 69.456C137.684 69.808 136.761 69.984 135.695 69.984C135.492 69.984 135.295 69.9787 135.103 69.968C134.911 69.9467 134.703 69.9253 134.479 69.904C134.447 70.2667 134.431 70.6133 134.431 70.944C134.431 71.264 134.468 71.5467 134.543 71.792C134.628 72.048 134.756 72.2507 134.927 72.4C134.329 72.9227 133.695 73.184 133.023 73.184ZM134.767 68.416C135.46 68.3947 136.068 68.2667 136.591 68.032C137.124 67.7867 137.572 67.472 137.935 67.088C138.297 66.6933 138.569 66.2667 138.751 65.808C138.932 65.3493 139.023 64.9013 139.023 64.464C139.023 63.9733 138.927 63.5733 138.735 63.264C138.543 62.9547 138.255 62.8 137.871 62.8C137.476 62.8 137.103 62.9227 136.751 63.168C136.409 63.4027 136.1 63.792 135.823 64.336C135.556 64.88 135.327 65.6213 135.135 66.56L134.767 68.416ZM146.265 70.4C145.667 70.4 145.139 70.2453 144.681 69.936C144.233 69.6267 143.886 69.1893 143.641 68.624C143.395 68.0587 143.273 67.3973 143.273 66.64C143.273 65.7547 143.427 64.9333 143.737 64.176C144.057 63.4187 144.494 62.7573 145.049 62.192C145.614 61.6267 146.275 61.1893 147.033 60.88C147.79 60.56 148.611 60.4 149.497 60.4C149.753 60.4 149.971 60.4107 150.153 60.432C150.345 60.4427 150.547 60.4747 150.761 60.528C150.825 60.8267 150.862 61.088 150.873 61.312C151.118 61.152 151.39 61.0293 151.689 60.944C151.987 60.848 152.265 60.8 152.521 60.8C153.299 60.8 153.689 61.2213 153.689 62.064C153.689 62.3413 153.635 62.72 153.529 63.2C153.433 63.6693 153.315 64.192 153.177 64.768C153.049 65.3333 152.931 65.9147 152.825 66.512C152.729 67.0987 152.681 67.648 152.681 68.16C152.681 68.8533 152.846 69.3387 153.177 69.616C152.579 70.1387 151.945 70.4 151.273 70.4C150.654 70.4 150.195 70.208 149.897 69.824C149.609 69.44 149.465 68.8427 149.465 68.032L149.305 67.952C149.017 68.72 148.601 69.3227 148.057 69.76C147.523 70.1867 146.926 70.4 146.265 70.4ZM147.529 67.488C147.945 67.488 148.35 67.3387 148.745 67.04C149.139 66.7413 149.47 66.3307 149.737 65.808C149.779 65.392 149.822 65.0027 149.865 64.64C149.918 64.2667 149.982 63.872 150.057 63.456C150.142 63.04 150.243 62.5493 150.361 61.984C149.817 61.984 149.299 62.0907 148.809 62.304C148.329 62.5067 147.897 62.7893 147.513 63.152C147.129 63.5147 146.825 63.9307 146.601 64.4C146.387 64.8587 146.281 65.344 146.281 65.856C146.281 66.3787 146.387 66.784 146.601 67.072C146.825 67.3493 147.134 67.488 147.529 67.488ZM159.662 70.4C158.734 70.4 157.929 70.224 157.246 69.872C156.574 69.5093 156.051 69.0133 155.678 68.384C155.315 67.7547 155.134 67.024 155.134 66.192C155.134 65.328 155.289 64.544 155.598 63.84C155.907 63.1253 156.345 62.512 156.91 62C157.475 61.488 158.131 61.0933 158.878 60.816C159.635 60.5387 160.451 60.4 161.326 60.4C162.275 60.4 163.006 60.5813 163.518 60.944C164.041 61.296 164.302 61.7387 164.302 62.272C164.302 62.784 164.115 63.1733 163.742 63.44C163.379 63.7067 162.963 63.84 162.494 63.84C162.174 63.84 161.838 63.7333 161.486 63.52C161.134 63.3067 160.851 62.976 160.638 62.528C160.169 62.72 159.769 63.0187 159.438 63.424C159.118 63.8187 158.873 64.2613 158.702 64.752C158.542 65.232 158.462 65.7067 158.462 66.176C158.462 66.8053 158.595 67.3493 158.862 67.808C159.129 68.256 159.523 68.48 160.046 68.48C160.409 68.48 160.739 68.3413 161.038 68.064C161.337 67.776 161.486 67.3227 161.486 66.704C162.211 66.704 162.782 66.784 163.198 66.944C163.614 67.104 163.822 67.392 163.822 67.808C163.822 68.192 163.651 68.5867 163.31 68.992C162.969 69.3867 162.489 69.7227 161.87 70C161.251 70.2667 160.515 70.4 159.662 70.4ZM169.913 70.4C168.921 70.4 168.084 70.224 167.401 69.872C166.719 69.52 166.201 69.0293 165.849 68.4C165.508 67.76 165.337 67.024 165.337 66.192C165.337 65.328 165.492 64.544 165.801 63.84C166.121 63.1253 166.564 62.512 167.129 62C167.695 61.488 168.351 61.0933 169.097 60.816C169.855 60.5387 170.671 60.4 171.545 60.4C172.58 60.4 173.343 60.6293 173.833 61.088C174.324 61.5467 174.569 62.1227 174.569 62.816C174.569 63.4133 174.372 63.9787 173.977 64.512C173.593 65.0347 172.969 65.4613 172.105 65.792C171.241 66.112 170.089 66.2773 168.649 66.288C168.681 66.9707 168.836 67.5093 169.113 67.904C169.401 68.288 169.759 68.48 170.185 68.48C170.399 68.48 170.623 68.432 170.857 68.336C171.092 68.2293 171.289 68.048 171.449 67.792C171.609 67.5253 171.689 67.1627 171.689 66.704C172.415 66.704 172.985 66.784 173.401 66.944C173.817 67.104 174.025 67.392 174.025 67.808C174.025 68.192 173.86 68.5867 173.529 68.992C173.199 69.3867 172.724 69.7227 172.105 70C171.497 70.2667 170.767 70.4 169.913 70.4ZM168.793 65.008C169.572 64.944 170.196 64.8 170.665 64.576C171.135 64.352 171.476 64.096 171.689 63.808C171.903 63.52 172.009 63.2533 172.009 63.008C172.009 62.7947 171.945 62.6187 171.817 62.48C171.689 62.3413 171.508 62.272 171.273 62.272C170.889 62.272 170.532 62.4053 170.201 62.672C169.871 62.9387 169.583 63.2853 169.337 63.712C169.103 64.128 168.921 64.56 168.793 65.008ZM42.2911 91.4C41.6191 91.4 41.1391 91.2293 40.8511 90.888C40.5631 90.5467 40.4191 90.056 40.4191 89.416C40.4191 89.192 40.4511 88.8507 40.5151 88.392C40.5791 87.9227 40.6591 87.4053 40.7551 86.84C40.8617 86.264 40.9737 85.688 41.0911 85.112C41.2084 84.536 41.3204 84.024 41.4271 83.576L40.5951 82.296C41.0324 82.0507 41.5017 81.8427 42.0031 81.672C42.5151 81.4907 43.0324 81.4 43.5551 81.4C44.0031 81.4 44.3337 81.512 44.5471 81.736C44.7604 81.9493 44.8671 82.2427 44.8671 82.616C44.8671 82.8933 44.8297 83.1813 44.7551 83.48C44.6804 83.7787 44.5951 84.0347 44.4991 84.248L44.6591 84.328C45.2884 83.2507 45.9497 82.4933 46.6431 82.056C47.3364 81.6187 48.0724 81.4 48.8511 81.4C49.4164 81.4 49.8804 81.544 50.2431 81.832C50.6057 82.1093 50.7871 82.5627 50.7871 83.192C50.7871 83.512 50.7337 83.864 50.6271 84.248L50.7871 84.328C51.4164 83.2507 52.0777 82.4933 52.7711 82.056C53.4644 81.6187 54.2004 81.4 54.9791 81.4C55.6297 81.4 56.1151 81.56 56.4351 81.88C56.7551 82.1893 56.9151 82.6747 56.9151 83.336C56.9151 83.912 56.8351 84.5253 56.6751 85.176C56.5257 85.816 56.3711 86.4773 56.2111 87.16C56.0511 87.832 55.9711 88.4987 55.9711 89.16C55.9711 89.8213 56.0831 90.3067 56.3071 90.616C55.7417 91.1387 55.1551 91.4 54.5471 91.4C53.8751 91.4 53.3951 91.2293 53.1071 90.888C52.8191 90.5467 52.6751 90.056 52.6751 89.416C52.6751 89.064 52.7231 88.6747 52.8191 88.248C52.9151 87.8107 53.0271 87.368 53.1551 86.92C53.2831 86.472 53.3951 86.0507 53.4911 85.656C53.5871 85.2613 53.6351 84.92 53.6351 84.632C53.6351 84.408 53.5924 84.232 53.5071 84.104C53.4324 83.976 53.2937 83.912 53.0911 83.912C52.8031 83.912 52.4724 84.04 52.0991 84.296C51.7364 84.552 51.3791 84.9147 51.0271 85.384C50.6857 85.8427 50.4031 86.392 50.1791 87.032C49.9551 87.672 49.8431 88.3813 49.8431 89.16C49.8431 89.8213 49.9551 90.3067 50.1791 90.616C49.6137 91.1387 49.0271 91.4 48.4191 91.4C47.7471 91.4 47.2671 91.2293 46.9791 90.888C46.6911 90.5467 46.5471 90.056 46.5471 89.416C46.5471 89.064 46.5951 88.6747 46.6911 88.248C46.7871 87.8107 46.8991 87.368 47.0271 86.92C47.1551 86.472 47.2671 86.0507 47.3631 85.656C47.4591 85.2613 47.5071 84.92 47.5071 84.632C47.5071 84.408 47.4644 84.232 47.3791 84.104C47.3044 83.976 47.1657 83.912 46.9631 83.912C46.6751 83.912 46.3444 84.04 45.9711 84.296C45.6084 84.552 45.2511 84.9147 44.8991 85.384C44.5577 85.8427 44.2751 86.392 44.0511 87.032C43.8271 87.672 43.7151 88.3813 43.7151 89.16C43.7151 89.8213 43.8271 90.3067 44.0511 90.616C43.4857 91.1387 42.8991 91.4 42.2911 91.4ZM62.8808 91.4C61.9421 91.4 61.1315 91.224 60.4488 90.872C59.7768 90.5093 59.2595 90.0133 58.8968 89.384C58.5341 88.7547 58.3528 88.024 58.3528 87.192C58.3528 86.04 58.6035 85.032 59.1048 84.168C59.6168 83.2933 60.3155 82.616 61.2008 82.136C62.0861 81.6453 63.0941 81.4 64.2248 81.4C64.4061 81.4 64.5875 81.4107 64.7688 81.432C64.9608 81.4427 65.1635 81.4747 65.3768 81.528C65.4301 81.6773 65.4728 81.8587 65.5048 82.072C65.5368 82.2747 65.5581 82.4933 65.5688 82.728C65.6648 82.696 65.7661 82.6693 65.8728 82.648C65.9901 82.6267 66.1128 82.616 66.2408 82.616C66.6141 82.616 66.9661 82.7173 67.2968 82.92C67.6275 83.112 67.8995 83.416 68.1128 83.832C68.3261 84.248 68.4328 84.776 68.4328 85.416C68.4328 86.3653 68.2728 87.2133 67.9528 87.96C67.6435 88.696 67.2221 89.32 66.6888 89.832C66.1555 90.344 65.5581 90.7333 64.8968 91C64.2461 91.2667 63.5741 91.4 62.8808 91.4ZM63.3768 89.432C63.6221 89.432 63.8781 89.3733 64.1448 89.256C64.4115 89.1387 64.6728 88.9253 64.9288 88.616C65.1848 88.3067 65.3981 87.8693 65.5688 87.304C65.1101 87.016 64.7795 86.664 64.5768 86.248C64.3741 85.8213 64.2728 85.352 64.2728 84.84C64.2728 84.6907 64.2995 84.4987 64.3528 84.264C64.4061 84.0293 64.4968 83.7893 64.6248 83.544C64.7635 83.2987 64.9501 83.096 65.1848 82.936C64.4488 83.0853 63.8461 83.3093 63.3768 83.608C62.9075 83.9067 62.5395 84.2533 62.2728 84.648C62.0168 85.032 61.8355 85.432 61.7288 85.848C61.6328 86.2533 61.5848 86.6427 61.5848 87.016C61.5848 87.4427 61.6541 87.8427 61.7928 88.216C61.9315 88.5787 62.1341 88.872 62.4008 89.096C62.6675 89.32 62.9928 89.432 63.3768 89.432ZM71.8223 91.4C71.1503 91.4 70.6703 91.2293 70.3823 90.888C70.0943 90.5467 69.9503 90.056 69.9503 89.416C69.9503 89.192 69.9823 88.8507 70.0463 88.392C70.1103 87.9227 70.1903 87.4053 70.2863 86.84C70.393 86.264 70.505 85.688 70.6223 85.112C70.7396 84.536 70.8516 84.024 70.9583 83.576L70.1263 82.296C70.5636 82.0507 71.033 81.8427 71.5343 81.672C72.0463 81.4907 72.5636 81.4 73.0863 81.4C73.5343 81.4 73.865 81.512 74.0783 81.736C74.2916 81.9493 74.3983 82.2427 74.3983 82.616C74.3983 82.8933 74.361 83.1813 74.2863 83.48C74.2116 83.7787 74.1263 84.0347 74.0303 84.248L74.1903 84.328C74.8196 83.2507 75.5076 82.4933 76.2543 82.056C77.001 81.6187 77.7636 81.4 78.5423 81.4C79.193 81.4 79.6783 81.56 79.9983 81.88C80.3183 82.1893 80.4783 82.6747 80.4783 83.336C80.4783 83.912 80.3983 84.5253 80.2383 85.176C80.089 85.816 79.9343 86.4773 79.7743 87.16C79.6143 87.832 79.5343 88.4987 79.5343 89.16C79.5343 89.8213 79.6463 90.3067 79.8703 90.616C79.305 91.1387 78.7183 91.4 78.1103 91.4C77.4383 91.4 76.9583 91.2293 76.6703 90.888C76.3823 90.5467 76.2383 90.056 76.2383 89.416C76.2383 89.064 76.2863 88.6747 76.3823 88.248C76.4783 87.8107 76.5903 87.368 76.7183 86.92C76.8463 86.472 76.9583 86.0507 77.0543 85.656C77.1503 85.2613 77.1983 84.92 77.1983 84.632C77.1983 84.408 77.1556 84.232 77.0703 84.104C76.9956 83.976 76.857 83.912 76.6543 83.912C76.3663 83.912 76.0303 84.04 75.6463 84.296C75.2623 84.552 74.8836 84.9147 74.5103 85.384C74.1476 85.8427 73.8436 86.392 73.5983 87.032C73.3636 87.672 73.2463 88.3813 73.2463 89.16C73.2463 89.8213 73.3583 90.3067 73.5823 90.616C73.017 91.1387 72.4303 91.4 71.8223 91.4ZM86.4433 91.4C85.5046 91.4 84.694 91.224 84.0113 90.872C83.3393 90.5093 82.822 90.0133 82.4593 89.384C82.0966 88.7547 81.9153 88.024 81.9153 87.192C81.9153 86.04 82.166 85.032 82.6673 84.168C83.1793 83.2933 83.878 82.616 84.7633 82.136C85.6486 81.6453 86.6566 81.4 87.7873 81.4C87.9686 81.4 88.15 81.4107 88.3313 81.432C88.5233 81.4427 88.726 81.4747 88.9393 81.528C88.9926 81.6773 89.0353 81.8587 89.0673 82.072C89.0993 82.2747 89.1206 82.4933 89.1313 82.728C89.2273 82.696 89.3286 82.6693 89.4353 82.648C89.5526 82.6267 89.6753 82.616 89.8033 82.616C90.1766 82.616 90.5286 82.7173 90.8593 82.92C91.19 83.112 91.462 83.416 91.6753 83.832C91.8886 84.248 91.9953 84.776 91.9953 85.416C91.9953 86.3653 91.8353 87.2133 91.5153 87.96C91.206 88.696 90.7846 89.32 90.2513 89.832C89.718 90.344 89.1206 90.7333 88.4593 91C87.8086 91.2667 87.1366 91.4 86.4433 91.4ZM86.9393 89.432C87.1846 89.432 87.4406 89.3733 87.7073 89.256C87.974 89.1387 88.2353 88.9253 88.4913 88.616C88.7473 88.3067 88.9606 87.8693 89.1313 87.304C88.6726 87.016 88.342 86.664 88.1393 86.248C87.9366 85.8213 87.8353 85.352 87.8353 84.84C87.8353 84.6907 87.862 84.4987 87.9153 84.264C87.9686 84.0293 88.0593 83.7893 88.1873 83.544C88.326 83.2987 88.5126 83.096 88.7473 82.936C88.0113 83.0853 87.4086 83.3093 86.9393 83.608C86.47 83.9067 86.102 84.2533 85.8353 84.648C85.5793 85.032 85.398 85.432 85.2913 85.848C85.1953 86.2533 85.1473 86.6427 85.1473 87.016C85.1473 87.4427 85.2166 87.8427 85.3553 88.216C85.494 88.5787 85.6966 88.872 85.9633 89.096C86.23 89.32 86.5553 89.432 86.9393 89.432ZM95.3208 91.4C94.6701 91.4 94.2061 91.2293 93.9288 90.888C93.6515 90.5467 93.5128 90.056 93.5128 89.416C93.5128 89.192 93.5448 88.8507 93.6088 88.392C93.6728 87.9227 93.7528 87.4053 93.8488 86.84C93.9555 86.264 94.0675 85.688 94.1848 85.112C94.3021 84.536 94.4141 84.024 94.5208 83.576L93.6888 82.296C94.2435 82.0507 94.7555 81.8427 95.2248 81.672C95.7048 81.4907 96.1315 81.4 96.5048 81.4C96.7821 81.4 96.9848 81.496 97.1128 81.688C97.2408 81.88 97.3048 82.1253 97.3048 82.424C97.3048 82.7653 97.2461 83.1493 97.1288 83.576C97.0115 83.992 96.8941 84.3867 96.7768 84.76L96.9368 84.84C97.3101 83.7413 97.7315 82.8933 98.2008 82.296C98.6808 81.6987 99.2141 81.4 99.8008 81.4C100.185 81.4 100.494 81.4853 100.729 81.656C100.963 81.816 101.134 82.0187 101.241 82.264C101.358 82.4987 101.417 82.728 101.417 82.952C101.417 83.304 101.326 83.6453 101.145 83.976C100.974 84.296 100.697 84.5627 100.313 84.776C99.9288 84.9787 99.4221 85.08 98.7928 85.08C98.5475 85.08 98.3075 85.1333 98.0728 85.24C97.8381 85.3467 97.6248 85.5493 97.4328 85.848C97.2408 86.136 97.0861 86.5467 96.9688 87.08C96.8621 87.6133 96.8088 88.3067 96.8088 89.16C96.8088 89.8213 96.9208 90.3067 97.1448 90.616C96.4835 91.1387 95.8755 91.4 95.3208 91.4ZM105.913 91.4C104.921 91.4 104.084 91.224 103.401 90.872C102.719 90.52 102.201 90.0293 101.849 89.4C101.508 88.76 101.337 88.024 101.337 87.192C101.337 86.328 101.492 85.544 101.801 84.84C102.121 84.1253 102.564 83.512 103.129 83C103.695 82.488 104.351 82.0933 105.097 81.816C105.855 81.5387 106.671 81.4 107.545 81.4C108.58 81.4 109.343 81.6293 109.833 82.088C110.324 82.5467 110.569 83.1227 110.569 83.816C110.569 84.4133 110.372 84.9787 109.977 85.512C109.593 86.0347 108.969 86.4613 108.105 86.792C107.241 87.112 106.089 87.2773 104.649 87.288C104.681 87.9707 104.836 88.5093 105.113 88.904C105.401 89.288 105.759 89.48 106.185 89.48C106.399 89.48 106.623 89.432 106.857 89.336C107.092 89.2293 107.289 89.048 107.449 88.792C107.609 88.5253 107.689 88.1627 107.689 87.704C108.415 87.704 108.985 87.784 109.401 87.944C109.817 88.104 110.025 88.392 110.025 88.808C110.025 89.192 109.86 89.5867 109.529 89.992C109.199 90.3867 108.724 90.7227 108.105 91C107.497 91.2667 106.767 91.4 105.913 91.4ZM104.793 86.008C105.572 85.944 106.196 85.8 106.665 85.576C107.135 85.352 107.476 85.096 107.689 84.808C107.903 84.52 108.009 84.2533 108.009 84.008C108.009 83.7947 107.945 83.6187 107.817 83.48C107.689 83.3413 107.508 83.272 107.273 83.272C106.889 83.272 106.532 83.4053 106.201 83.672C105.871 83.9387 105.583 84.2853 105.337 84.712C105.103 85.128 104.921 85.56 104.793 86.008ZM113.773 94.184C113.09 94.184 112.626 94.0133 112.381 93.672C112.135 93.3307 112.013 92.84 112.013 92.2C112.013 91.9653 112.039 91.6027 112.093 91.112C112.146 90.6213 112.21 90.0613 112.285 89.432C112.37 88.792 112.466 88.1307 112.573 87.448C112.679 86.7653 112.781 86.1093 112.877 85.48C112.983 84.8507 113.079 84.3013 113.165 83.832L112.269 82.552C112.834 82.2213 113.367 81.944 113.869 81.72C114.381 81.496 114.893 81.384 115.405 81.384C115.853 81.384 116.157 81.5387 116.317 81.848C116.477 82.1467 116.557 82.4987 116.557 82.904C116.557 83.0213 116.551 83.1547 116.541 83.304C116.53 83.4427 116.514 83.592 116.493 83.752L116.653 83.832C116.962 83.064 117.41 82.4667 117.997 82.04C118.583 81.6027 119.255 81.384 120.013 81.384C120.589 81.384 121.074 81.56 121.469 81.912C121.863 82.2533 122.162 82.7067 122.365 83.272C122.567 83.8373 122.669 84.4613 122.669 85.144C122.669 85.8053 122.541 86.4827 122.285 87.176C122.039 87.8587 121.661 88.488 121.149 89.064C120.637 89.64 119.991 90.104 119.213 90.456C118.434 90.808 117.511 90.984 116.445 90.984C116.242 90.984 116.045 90.9787 115.853 90.968C115.661 90.9467 115.453 90.9253 115.229 90.904C115.197 91.2667 115.181 91.6133 115.181 91.944C115.181 92.264 115.218 92.5467 115.293 92.792C115.378 93.048 115.506 93.2507 115.677 93.4C115.079 93.9227 114.445 94.184 113.773 94.184ZM115.517 89.416C116.21 89.3947 116.818 89.2667 117.341 89.032C117.874 88.7867 118.322 88.472 118.685 88.088C119.047 87.6933 119.319 87.2667 119.501 86.808C119.682 86.3493 119.773 85.9013 119.773 85.464C119.773 84.9733 119.677 84.5733 119.485 84.264C119.293 83.9547 119.005 83.8 118.621 83.8C118.226 83.8 117.853 83.9227 117.501 84.168C117.159 84.4027 116.85 84.792 116.573 85.336C116.306 85.88 116.077 86.6213 115.885 87.56L115.517 89.416ZM128.631 91.4C127.692 91.4 126.881 91.224 126.199 90.872C125.527 90.5093 125.009 90.0133 124.647 89.384C124.284 88.7547 124.103 88.024 124.103 87.192C124.103 86.04 124.353 85.032 124.855 84.168C125.367 83.2933 126.065 82.616 126.951 82.136C127.836 81.6453 128.844 81.4 129.975 81.4C130.156 81.4 130.337 81.4107 130.519 81.432C130.711 81.4427 130.913 81.4747 131.127 81.528C131.18 81.6773 131.223 81.8587 131.255 82.072C131.287 82.2747 131.308 82.4933 131.319 82.728C131.415 82.696 131.516 82.6693 131.623 82.648C131.74 82.6267 131.863 82.616 131.991 82.616C132.364 82.616 132.716 82.7173 133.047 82.92C133.377 83.112 133.649 83.416 133.863 83.832C134.076 84.248 134.183 84.776 134.183 85.416C134.183 86.3653 134.023 87.2133 133.703 87.96C133.393 88.696 132.972 89.32 132.439 89.832C131.905 90.344 131.308 90.7333 130.647 91C129.996 91.2667 129.324 91.4 128.631 91.4ZM129.127 89.432C129.372 89.432 129.628 89.3733 129.895 89.256C130.161 89.1387 130.423 88.9253 130.679 88.616C130.935 88.3067 131.148 87.8693 131.319 87.304C130.86 87.016 130.529 86.664 130.327 86.248C130.124 85.8213 130.023 85.352 130.023 84.84C130.023 84.6907 130.049 84.4987 130.103 84.264C130.156 84.0293 130.247 83.7893 130.375 83.544C130.513 83.2987 130.7 83.096 130.935 82.936C130.199 83.0853 129.596 83.3093 129.127 83.608C128.657 83.9067 128.289 84.2533 128.023 84.648C127.767 85.032 127.585 85.432 127.479 85.848C127.383 86.2533 127.335 86.6427 127.335 87.016C127.335 87.4427 127.404 87.8427 127.543 88.216C127.681 88.5787 127.884 88.872 128.151 89.096C128.417 89.32 128.743 89.432 129.127 89.432ZM140.737 92.648C140.513 92.648 140.279 92.6107 140.033 92.536C139.799 92.472 139.553 92.3387 139.297 92.136C139.564 91.8907 139.809 91.496 140.033 90.952C140.257 90.3973 140.46 89.8 140.641 89.16C141.025 87.816 141.367 86.5093 141.665 85.24C141.975 83.9707 142.252 82.7973 142.497 81.72C142.753 80.632 142.977 79.704 143.169 78.936C143.244 78.6373 143.377 78.392 143.569 78.2C143.761 78.008 144.049 77.912 144.433 77.912C144.796 77.912 145.132 77.9813 145.441 78.12C145.751 78.248 146.033 78.4293 146.289 78.664C146.108 78.9413 145.927 79.272 145.745 79.656C145.575 80.04 145.42 80.4293 145.281 80.824C145.143 81.208 145.031 81.5547 144.945 81.864C144.711 82.6853 144.497 83.4587 144.305 84.184C144.113 84.9093 143.927 85.624 143.745 86.328C143.564 87.0213 143.372 87.7413 143.169 88.488C142.977 89.2347 142.759 90.0453 142.513 90.92C142.364 91.464 142.145 91.8853 141.857 92.184C141.58 92.4933 141.207 92.648 140.737 92.648ZM145.761 92.648C145.537 92.648 145.303 92.6107 145.057 92.536C144.823 92.472 144.577 92.3387 144.321 92.136C144.588 91.8907 144.833 91.496 145.057 90.952C145.281 90.3973 145.484 89.8 145.665 89.16C146.049 87.816 146.391 86.5093 146.689 85.24C146.999 83.9707 147.276 82.7973 147.521 81.72C147.777 80.632 148.001 79.704 148.193 78.936C148.268 78.6373 148.401 78.392 148.593 78.2C148.785 78.008 149.073 77.912 149.457 77.912C149.82 77.912 150.156 77.9813 150.465 78.12C150.775 78.248 151.057 78.4293 151.313 78.664C151.132 78.9413 150.951 79.272 150.769 79.656C150.599 80.04 150.444 80.4293 150.305 80.824C150.167 81.208 150.055 81.5547 149.969 81.864C149.735 82.6853 149.521 83.4587 149.329 84.184C149.137 84.9093 148.951 85.624 148.769 86.328C148.588 87.0213 148.396 87.7413 148.193 88.488C148.001 89.2347 147.783 90.0453 147.537 90.92C147.388 91.464 147.169 91.8853 146.881 92.184C146.604 92.4933 146.231 92.648 145.761 92.648ZM141.249 83.928C141.057 83.928 140.892 83.864 140.753 83.736C140.615 83.5973 140.545 83.352 140.545 83C140.545 82.6587 140.593 82.3227 140.689 81.992C140.785 81.6613 140.919 81.368 141.089 81.112C141.399 81.2293 141.745 81.3093 142.129 81.352C142.524 81.3947 142.871 81.416 143.169 81.416C143.724 81.416 144.289 81.4107 144.865 81.4C145.452 81.3893 146.039 81.3787 146.625 81.368C147.841 81.336 149.063 81.32 150.289 81.32C150.716 81.32 151.047 81.4107 151.281 81.592C151.516 81.7733 151.633 82.088 151.633 82.536C151.633 82.7387 151.612 82.952 151.569 83.176C151.527 83.4 151.441 83.6187 151.313 83.832C151.089 83.736 150.807 83.6667 150.465 83.624C150.124 83.5707 149.751 83.544 149.345 83.544C148.567 83.544 147.724 83.5707 146.817 83.624C145.911 83.6667 145.052 83.7147 144.241 83.768C143.623 83.8107 143.052 83.848 142.529 83.88C142.017 83.912 141.591 83.928 141.249 83.928ZM140.033 88.76C139.841 88.76 139.676 88.696 139.537 88.568C139.399 88.4293 139.329 88.184 139.329 87.832C139.329 87.4907 139.377 87.1547 139.473 86.824C139.569 86.4933 139.703 86.2 139.873 85.944C140.183 86.0613 140.529 86.1413 140.913 86.184C141.308 86.2267 141.655 86.248 141.953 86.248C142.508 86.248 143.073 86.2427 143.649 86.232C144.236 86.2213 144.823 86.2107 145.409 86.2C146.625 86.168 147.847 86.152 149.073 86.152C149.5 86.152 149.831 86.2427 150.065 86.424C150.3 86.6053 150.417 86.92 150.417 87.368C150.417 87.5707 150.396 87.784 150.353 88.008C150.311 88.232 150.225 88.4507 150.097 88.664C149.873 88.568 149.591 88.4987 149.249 88.456C148.908 88.4027 148.535 88.376 148.129 88.376C147.351 88.376 146.508 88.4027 145.601 88.456C144.695 88.4987 143.836 88.5467 143.025 88.6C142.407 88.6427 141.836 88.68 141.313 88.712C140.801 88.744 140.375 88.76 140.033 88.76ZM156.216 91.4C155.49 91.4 154.978 91.144 154.68 90.632C154.381 90.12 154.232 89.4693 154.232 88.68C154.232 88.168 154.29 87.5867 154.408 86.936C154.525 86.2747 154.69 85.4053 154.904 84.328C154.466 84.328 154.045 84.248 153.64 84.088C153.245 83.9173 152.909 83.6507 152.632 83.288C152.354 82.9253 152.178 82.44 152.104 81.832C152.882 81.6827 153.549 81.496 154.104 81.272C154.669 81.0373 155.165 80.808 155.592 80.584C156.029 80.36 156.429 80.1733 156.792 80.024C157.154 79.8747 157.528 79.8 157.912 79.8C158.36 79.8 158.658 79.928 158.808 80.184C158.968 80.44 159.048 80.7387 159.048 81.08C159.048 81.5173 158.984 82.056 158.856 82.696C158.728 83.3253 158.584 84.0027 158.424 84.728C158.264 85.4533 158.12 86.1733 157.992 86.888C157.864 87.6027 157.8 88.264 157.8 88.872C157.8 89.64 157.954 90.2853 158.264 90.808C157.549 91.2027 156.866 91.4 156.216 91.4Z" fill="white"/>
</svg>
