<svg width="200" height="150" viewBox="0 0 200 150" fill="none" xmlns="http://www.w3.org/2000/svg">
<rect width="200" height="150" fill="#264DB1"/>
<path d="M28.1472 73.76C27.4112 73.76 26.7925 73.6 26.2912 73.28C25.7899 72.96 25.5392 72.512 25.5392 71.936C25.5392 71.7013 25.5872 71.4507 25.6832 71.184C25.7792 70.9173 25.9285 70.6347 26.1312 70.336C26.3765 70.688 26.6699 70.9547 27.0112 71.136C27.3525 71.328 27.6992 71.424 28.0512 71.424C28.4672 71.424 28.8672 71.2853 29.2512 71.008C29.6352 70.7307 29.9445 70.288 30.1792 69.68C29.9125 69.776 29.6619 69.8453 29.4272 69.888C29.1925 69.9307 28.9685 69.952 28.7552 69.952C28.2005 69.952 27.7525 69.808 27.4112 69.52C27.0699 69.2213 26.8725 68.7947 26.8192 68.24C26.7445 67.536 26.6965 66.8053 26.6752 66.048C26.6539 65.2907 26.6112 64.6027 26.5472 63.984C26.4725 63.2587 26.3179 62.656 26.0832 62.176C25.8485 61.696 25.5765 61.3333 25.2672 61.088C25.5232 60.8533 25.7899 60.6827 26.0672 60.576C26.3552 60.4587 26.7179 60.4 27.1552 60.4C27.6885 60.4 28.1205 60.56 28.4512 60.88C28.7925 61.2 29.0539 61.6533 29.2352 62.24C29.4165 62.816 29.5392 63.4933 29.6032 64.272C29.6779 65.04 29.7152 65.8773 29.7152 66.784C29.7152 66.912 29.7099 67.1093 29.6992 67.376C29.6992 67.6427 29.6885 67.9093 29.6672 68.176H30.5952C30.7659 67.7067 30.9472 67.2053 31.1392 66.672C31.3312 66.1387 31.5072 65.6 31.6672 65.056C31.8379 64.5013 31.9765 63.9733 32.0832 63.472C32.1899 62.96 32.2432 62.5067 32.2432 62.112C32.2432 61.8773 32.2165 61.68 32.1632 61.52C32.1205 61.36 32.0672 61.216 32.0032 61.088C32.3765 60.8533 32.7445 60.6827 33.1072 60.576C33.4699 60.4587 33.7952 60.4 34.0832 60.4C34.5739 60.4 34.9312 60.5653 35.1552 60.896C35.3899 61.2267 35.5072 61.6587 35.5072 62.192C35.5072 62.5867 35.4485 63.0453 35.3312 63.568C35.2139 64.08 35.0645 64.6133 34.8832 65.168C34.7125 65.712 34.5365 66.2293 34.3552 66.72C34.1845 67.2107 34.0405 67.6267 33.9232 67.968C33.4112 69.44 32.8352 70.5973 32.1952 71.44C31.5659 72.2827 30.9045 72.88 30.2112 73.232C29.5285 73.584 28.8405 73.76 28.1472 73.76ZM39.6242 70.4C39.0269 70.4 38.4989 70.2453 38.0402 69.936C37.5922 69.6267 37.2455 69.1893 37.0002 68.624C36.7549 68.0587 36.6322 67.3973 36.6322 66.64C36.6322 65.7547 36.7869 64.9333 37.0962 64.176C37.4162 63.4187 37.8535 62.7573 38.4082 62.192C38.9735 61.6267 39.6349 61.1893 40.3922 60.88C41.1495 60.56 41.9709 60.4 42.8562 60.4C43.1122 60.4 43.3309 60.4107 43.5122 60.432C43.7042 60.4427 43.9069 60.4747 44.1202 60.528C44.1842 60.8267 44.2215 61.088 44.2322 61.312C44.4775 61.152 44.7495 61.0293 45.0482 60.944C45.3469 60.848 45.6242 60.8 45.8802 60.8C46.6589 60.8 47.0482 61.2213 47.0482 62.064C47.0482 62.3413 46.9949 62.72 46.8882 63.2C46.7922 63.6693 46.6749 64.192 46.5362 64.768C46.4082 65.3333 46.2909 65.9147 46.1842 66.512C46.0882 67.0987 46.0402 67.648 46.0402 68.16C46.0402 68.8533 46.2055 69.3387 46.5362 69.616C45.9389 70.1387 45.3042 70.4 44.6322 70.4C44.0135 70.4 43.5549 70.208 43.2562 69.824C42.9682 69.44 42.8242 68.8427 42.8242 68.032L42.6642 67.952C42.3762 68.72 41.9602 69.3227 41.4162 69.76C40.8829 70.1867 40.2855 70.4 39.6242 70.4ZM40.8882 67.488C41.3042 67.488 41.7095 67.3387 42.1042 67.04C42.4989 66.7413 42.8295 66.3307 43.0962 65.808C43.1389 65.392 43.1815 65.0027 43.2242 64.64C43.2775 64.2667 43.3415 63.872 43.4162 63.456C43.5015 63.04 43.6029 62.5493 43.7202 61.984C43.1762 61.984 42.6589 62.0907 42.1682 62.304C41.6882 62.5067 41.2562 62.7893 40.8722 63.152C40.4882 63.5147 40.1842 63.9307 39.9602 64.4C39.7469 64.8587 39.6402 65.344 39.6402 65.856C39.6402 66.3787 39.7469 66.784 39.9602 67.072C40.1842 67.3493 40.4935 67.488 40.8882 67.488ZM50.4614 70.4C49.8108 70.4 49.3468 70.2293 49.0694 69.888C48.7921 69.5467 48.6534 69.056 48.6534 68.416C48.6534 68.192 48.6854 67.8507 48.7494 67.392C48.8134 66.9227 48.8934 66.4053 48.9894 65.84C49.0961 65.264 49.2081 64.688 49.3254 64.112C49.4428 63.536 49.5548 63.024 49.6614 62.576L48.8294 61.296C49.3841 61.0507 49.8961 60.8427 50.3654 60.672C50.8454 60.4907 51.2721 60.4 51.6454 60.4C51.9228 60.4 52.1254 60.496 52.2534 60.688C52.3814 60.88 52.4454 61.1253 52.4454 61.424C52.4454 61.7653 52.3868 62.1493 52.2694 62.576C52.1521 62.992 52.0348 63.3867 51.9174 63.76L52.0774 63.84C52.4508 62.7413 52.8721 61.8933 53.3414 61.296C53.8214 60.6987 54.3548 60.4 54.9414 60.4C55.3254 60.4 55.6348 60.4853 55.8694 60.656C56.1041 60.816 56.2748 61.0187 56.3814 61.264C56.4988 61.4987 56.5574 61.728 56.5574 61.952C56.5574 62.304 56.4668 62.6453 56.2854 62.976C56.1148 63.296 55.8374 63.5627 55.4534 63.776C55.0694 63.9787 54.5628 64.08 53.9334 64.08C53.6881 64.08 53.4481 64.1333 53.2134 64.24C52.9788 64.3467 52.7654 64.5493 52.5734 64.848C52.3814 65.136 52.2268 65.5467 52.1094 66.08C52.0028 66.6133 51.9494 67.3067 51.9494 68.16C51.9494 68.8213 52.0614 69.3067 52.2854 69.616C51.6241 70.1387 51.0161 70.4 50.4614 70.4ZM58.9942 70.4C58.3222 70.4 57.8422 70.2293 57.5542 69.888C57.2662 69.5467 57.1222 69.056 57.1222 68.416C57.1222 68.192 57.1542 67.8507 57.2182 67.392C57.2822 66.9227 57.3622 66.4053 57.4582 65.84C57.5649 65.264 57.6769 64.688 57.7942 64.112C57.9115 63.536 58.0235 63.024 58.1302 62.576L57.2982 61.296C57.7355 61.0507 58.2049 60.8427 58.7062 60.672C59.2182 60.4907 59.7355 60.4 60.2582 60.4C60.7062 60.4 61.0369 60.512 61.2502 60.736C61.4635 60.9493 61.5702 61.2427 61.5702 61.616C61.5702 61.8933 61.5329 62.1813 61.4582 62.48C61.3835 62.7787 61.2982 63.0347 61.2022 63.248L61.3622 63.328C61.9915 62.2507 62.6795 61.4933 63.4262 61.056C64.1729 60.6187 64.9355 60.4 65.7142 60.4C66.3649 60.4 66.8502 60.56 67.1702 60.88C67.4902 61.1893 67.6502 61.6747 67.6502 62.336C67.6502 62.912 67.5702 63.5253 67.4102 64.176C67.2609 64.816 67.1062 65.4773 66.9462 66.16C66.7862 66.832 66.7062 67.4987 66.7062 68.16C66.7062 68.8213 66.8182 69.3067 67.0422 69.616C66.4769 70.1387 65.8902 70.4 65.2822 70.4C64.6102 70.4 64.1302 70.2293 63.8422 69.888C63.5542 69.5467 63.4102 69.056 63.4102 68.416C63.4102 68.064 63.4582 67.6747 63.5542 67.248C63.6502 66.8107 63.7622 66.368 63.8902 65.92C64.0182 65.472 64.1302 65.0507 64.2262 64.656C64.3222 64.2613 64.3702 63.92 64.3702 63.632C64.3702 63.408 64.3275 63.232 64.2422 63.104C64.1675 62.976 64.0289 62.912 63.8262 62.912C63.5382 62.912 63.2022 63.04 62.8182 63.296C62.4342 63.552 62.0555 63.9147 61.6822 64.384C61.3195 64.8427 61.0155 65.392 60.7702 66.032C60.5355 66.672 60.4182 67.3813 60.4182 68.16C60.4182 68.8213 60.5302 69.3067 60.7542 69.616C60.1889 70.1387 59.6022 70.4 58.9942 70.4ZM76.8921 70.4C76.5401 70.4 76.1934 70.3467 75.8521 70.24C75.5214 70.1333 75.2441 69.9467 75.0201 69.68C74.8067 69.4133 74.7001 69.0453 74.7001 68.576C74.7001 68.576 74.7001 68.4533 74.7001 68.208C74.7107 67.9627 74.7161 67.648 74.7161 67.264C74.7267 66.88 74.7321 66.4747 74.7321 66.048C74.7321 65.6107 74.7321 65.1947 74.7321 64.8C74.7427 64.4053 74.7481 64.0853 74.7481 63.84C74.7481 63.1147 74.6627 62.5387 74.4921 62.112C74.3321 61.6747 74.1294 61.3333 73.8841 61.088C74.4387 60.6293 75.0467 60.4 75.7081 60.4C76.3054 60.4 76.7587 60.576 77.0681 60.928C77.3774 61.2693 77.5854 61.7387 77.6921 62.336C77.8094 62.9333 77.8681 63.6 77.8681 64.336C77.8681 64.7307 77.8627 65.1787 77.8521 65.68C77.8521 66.1707 77.8467 66.6613 77.8361 67.152C77.8254 67.632 77.8094 68.064 77.7881 68.448H78.3321C78.7054 67.7973 79.0361 67.1787 79.3241 66.592C79.6121 66.0053 79.8147 65.4293 79.9321 64.864C79.9321 64.5013 79.8947 64.096 79.8201 63.648C79.7561 63.2 79.6707 62.7787 79.5641 62.384C79.4574 61.9787 79.3454 61.68 79.2281 61.488C79.3881 61.2747 79.6334 61.104 79.9641 60.976C80.2947 60.848 80.6361 60.784 80.9881 60.784C81.2654 60.784 81.5321 60.832 81.7881 60.928C82.0547 61.024 82.2734 61.1787 82.4441 61.392C82.6254 61.6053 82.7161 61.888 82.7161 62.24C82.7161 62.5707 82.6467 62.9227 82.5081 63.296C82.3694 63.6587 82.2147 64.096 82.0441 64.608L81.9801 68.448H82.5241C82.7694 67.9787 83.0307 67.4453 83.3081 66.848C83.5854 66.24 83.8467 65.6213 84.0921 64.992C84.3481 64.3627 84.5561 63.7707 84.7161 63.216C84.8761 62.6507 84.9561 62.1813 84.9561 61.808C84.9561 61.6587 84.9401 61.5253 84.9081 61.408C84.8867 61.2907 84.8547 61.184 84.8121 61.088C85.1854 60.8533 85.5534 60.6827 85.9161 60.576C86.2787 60.4587 86.6094 60.4 86.9081 60.4C87.3774 60.4 87.7134 60.5387 87.9161 60.816C88.1187 61.0933 88.2201 61.456 88.2201 61.904C88.2201 62.288 88.1347 62.7467 87.9641 63.28C87.8041 63.8133 87.6014 64.3733 87.3561 64.96C87.1107 65.536 86.8654 66.0907 86.6201 66.624C86.3747 67.1467 86.1774 67.5947 86.0281 67.968L86.2521 68.896C86.0921 69.024 85.8574 69.1733 85.5481 69.344C85.2387 69.5147 84.8867 69.68 84.4921 69.84C84.1081 70 83.7027 70.1333 83.2761 70.24C82.8601 70.3467 82.4601 70.4 82.0761 70.4C81.6067 70.4 81.1854 70.2933 80.8121 70.08C80.4494 69.8667 80.2041 69.488 80.0761 68.944C79.6067 69.4027 79.1161 69.76 78.6041 70.016C78.1027 70.272 77.5321 70.4 76.8921 70.4ZM93.8652 70.4C92.9265 70.4 92.1159 70.224 91.4332 69.872C90.7612 69.5093 90.2439 69.0133 89.8812 68.384C89.5185 67.7547 89.3372 67.024 89.3372 66.192C89.3372 65.04 89.5879 64.032 90.0892 63.168C90.6012 62.2933 91.2999 61.616 92.1852 61.136C93.0705 60.6453 94.0785 60.4 95.2092 60.4C95.3905 60.4 95.5719 60.4107 95.7532 60.432C95.9452 60.4427 96.1479 60.4747 96.3612 60.528C96.4145 60.6773 96.4572 60.8587 96.4892 61.072C96.5212 61.2747 96.5425 61.4933 96.5532 61.728C96.6492 61.696 96.7505 61.6693 96.8572 61.648C96.9745 61.6267 97.0972 61.616 97.2252 61.616C97.5985 61.616 97.9505 61.7173 98.2812 61.92C98.6119 62.112 98.8839 62.416 99.0972 62.832C99.3105 63.248 99.4172 63.776 99.4172 64.416C99.4172 65.3653 99.2572 66.2133 98.9372 66.96C98.6279 67.696 98.2065 68.32 97.6732 68.832C97.1399 69.344 96.5425 69.7333 95.8812 70C95.2305 70.2667 94.5585 70.4 93.8652 70.4ZM94.3612 68.432C94.6065 68.432 94.8625 68.3733 95.1292 68.256C95.3959 68.1387 95.6572 67.9253 95.9132 67.616C96.1692 67.3067 96.3825 66.8693 96.5532 66.304C96.0945 66.016 95.7639 65.664 95.5612 65.248C95.3585 64.8213 95.2572 64.352 95.2572 63.84C95.2572 63.6907 95.2839 63.4987 95.3372 63.264C95.3905 63.0293 95.4812 62.7893 95.6092 62.544C95.7479 62.2987 95.9345 62.096 96.1692 61.936C95.4332 62.0853 94.8305 62.3093 94.3612 62.608C93.8919 62.9067 93.5239 63.2533 93.2572 63.648C93.0012 64.032 92.8199 64.432 92.7132 64.848C92.6172 65.2533 92.5692 65.6427 92.5692 66.016C92.5692 66.4427 92.6385 66.8427 92.7772 67.216C92.9159 67.5787 93.1185 67.872 93.3852 68.096C93.6519 68.32 93.9772 68.432 94.3612 68.432ZM102.743 70.4C102.092 70.4 101.628 70.2293 101.351 69.888C101.073 69.5467 100.935 69.056 100.935 68.416C100.935 68.192 100.967 67.8507 101.031 67.392C101.095 66.9227 101.175 66.4053 101.271 65.84C101.377 65.264 101.489 64.688 101.607 64.112C101.724 63.536 101.836 63.024 101.943 62.576L101.111 61.296C101.665 61.0507 102.177 60.8427 102.647 60.672C103.127 60.4907 103.553 60.4 103.927 60.4C104.204 60.4 104.407 60.496 104.535 60.688C104.663 60.88 104.727 61.1253 104.727 61.424C104.727 61.7653 104.668 62.1493 104.551 62.576C104.433 62.992 104.316 63.3867 104.199 63.76L104.359 63.84C104.732 62.7413 105.153 61.8933 105.623 61.296C106.103 60.6987 106.636 60.4 107.223 60.4C107.607 60.4 107.916 60.4853 108.151 60.656C108.385 60.816 108.556 61.0187 108.663 61.264C108.78 61.4987 108.839 61.728 108.839 61.952C108.839 62.304 108.748 62.6453 108.567 62.976C108.396 63.296 108.119 63.5627 107.735 63.776C107.351 63.9787 106.844 64.08 106.215 64.08C105.969 64.08 105.729 64.1333 105.495 64.24C105.26 64.3467 105.047 64.5493 104.855 64.848C104.663 65.136 104.508 65.5467 104.391 66.08C104.284 66.6133 104.231 67.3067 104.231 68.16C104.231 68.8213 104.343 69.3067 104.567 69.616C103.905 70.1387 103.297 70.4 102.743 70.4ZM111.371 70.4C110.721 70.4 110.257 70.1973 109.979 69.792C109.702 69.3867 109.563 68.768 109.563 67.936C109.563 67.7013 109.59 67.3547 109.643 66.896C109.707 66.4373 109.787 65.9147 109.883 65.328C109.979 64.7413 110.086 64.1333 110.203 63.504C110.321 62.864 110.433 62.2453 110.539 61.648C110.646 61.0507 110.742 60.5173 110.827 60.048L109.931 58.768C110.497 58.4373 111.035 58.16 111.547 57.936C112.059 57.712 112.571 57.6 113.083 57.6C113.531 57.6 113.841 57.6907 114.011 57.872C114.193 58.0427 114.283 58.3307 114.283 58.736C114.283 59.088 114.241 59.52 114.155 60.032C114.07 60.544 113.963 61.1093 113.835 61.728C113.707 62.336 113.574 62.9653 113.435 63.616C113.297 64.256 113.179 64.88 113.083 65.488L114.091 64.592C114.475 64.2507 114.827 63.936 115.147 63.648C115.478 63.36 115.739 63.072 115.931 62.784C116.134 62.4853 116.235 62.1653 116.235 61.824C116.235 61.6747 116.225 61.5413 116.203 61.424C116.182 61.3067 116.15 61.1947 116.107 61.088C116.865 60.6293 117.579 60.4 118.251 60.4C118.699 60.4 119.057 60.544 119.323 60.832C119.59 61.1093 119.723 61.4773 119.723 61.936C119.723 62.3733 119.595 62.7893 119.339 63.184C119.094 63.5787 118.774 63.936 118.379 64.256C117.995 64.5653 117.601 64.8373 117.195 65.072C117.43 65.8187 117.702 66.528 118.011 67.2C118.331 67.872 118.651 68.4373 118.971 68.896C119.291 69.344 119.563 69.6267 119.787 69.744C119.574 69.968 119.275 70.1333 118.891 70.24C118.507 70.3467 118.145 70.4 117.803 70.4C117.142 70.4 116.587 70.176 116.139 69.728C115.691 69.28 115.286 68.544 114.923 67.52L114.523 66.384L112.875 67.2C112.865 67.2853 112.859 67.376 112.859 67.472C112.859 67.5573 112.859 67.6427 112.859 67.728C112.859 68.144 112.897 68.5173 112.971 68.848C113.057 69.168 113.185 69.424 113.355 69.616C112.609 70.1387 111.947 70.4 111.371 70.4ZM124.79 70.4C123.787 70.4 122.987 70.32 122.39 70.16C121.803 70.0107 121.382 69.8027 121.126 69.536C120.87 69.2693 120.742 68.976 120.742 68.656C120.742 68.4107 120.806 68.128 120.934 67.808C121.072 67.488 121.27 67.184 121.526 66.896C121.707 67.1413 121.947 67.3707 122.246 67.584C122.555 67.7867 122.891 67.952 123.254 68.08C123.616 68.1973 123.968 68.256 124.31 68.256C124.683 68.256 125.019 68.1707 125.318 68C125.616 67.8187 125.814 67.5147 125.91 67.088C124.267 66.896 123.088 66.5333 122.374 66C121.659 65.456 121.302 64.704 121.302 63.744C121.302 63.136 121.446 62.6187 121.734 62.192C122.022 61.7653 122.406 61.424 122.886 61.168C123.376 60.9013 123.931 60.7093 124.55 60.592C125.179 60.464 125.83 60.4 126.502 60.4C127.131 60.4 127.691 60.4853 128.182 60.656C128.672 60.816 129.056 61.0347 129.334 61.312C129.611 61.5893 129.75 61.9093 129.75 62.272C129.75 62.784 129.563 63.1733 129.19 63.44C128.827 63.7067 128.411 63.84 127.942 63.84C127.622 63.84 127.286 63.7333 126.934 63.52C126.582 63.3067 126.299 62.976 126.086 62.528C125.691 62.6453 125.376 62.816 125.142 63.04C124.907 63.2533 124.699 63.5627 124.518 63.968C125.734 64.1493 126.699 64.3787 127.414 64.656C128.128 64.9333 128.64 65.2853 128.95 65.712C129.27 66.128 129.43 66.6453 129.43 67.264C129.43 67.7547 129.318 68.1813 129.094 68.544C128.88 68.9067 128.598 69.2053 128.246 69.44C127.894 69.6747 127.51 69.8613 127.094 70C126.678 70.1493 126.267 70.2507 125.862 70.304C125.456 70.368 125.099 70.4 124.79 70.4ZM133.023 73.184C132.34 73.184 131.876 73.0133 131.631 72.672C131.385 72.3307 131.263 71.84 131.263 71.2C131.263 70.9653 131.289 70.6027 131.343 70.112C131.396 69.6213 131.46 69.0613 131.535 68.432C131.62 67.792 131.716 67.1307 131.823 66.448C131.929 65.7653 132.031 65.1093 132.127 64.48C132.233 63.8507 132.329 63.3013 132.415 62.832L131.519 61.552C132.084 61.2213 132.617 60.944 133.119 60.72C133.631 60.496 134.143 60.384 134.655 60.384C135.103 60.384 135.407 60.5387 135.567 60.848C135.727 61.1467 135.807 61.4987 135.807 61.904C135.807 62.0213 135.801 62.1547 135.791 62.304C135.78 62.4427 135.764 62.592 135.743 62.752L135.903 62.832C136.212 62.064 136.66 61.4667 137.247 61.04C137.833 60.6027 138.505 60.384 139.263 60.384C139.839 60.384 140.324 60.56 140.719 60.912C141.113 61.2533 141.412 61.7067 141.615 62.272C141.817 62.8373 141.919 63.4613 141.919 64.144C141.919 64.8053 141.791 65.4827 141.535 66.176C141.289 66.8587 140.911 67.488 140.399 68.064C139.887 68.64 139.241 69.104 138.463 69.456C137.684 69.808 136.761 69.984 135.695 69.984C135.492 69.984 135.295 69.9787 135.103 69.968C134.911 69.9467 134.703 69.9253 134.479 69.904C134.447 70.2667 134.431 70.6133 134.431 70.944C134.431 71.264 134.468 71.5467 134.543 71.792C134.628 72.048 134.756 72.2507 134.927 72.4C134.329 72.9227 133.695 73.184 133.023 73.184ZM134.767 68.416C135.46 68.3947 136.068 68.2667 136.591 68.032C137.124 67.7867 137.572 67.472 137.935 67.088C138.297 66.6933 138.569 66.2667 138.751 65.808C138.932 65.3493 139.023 64.9013 139.023 64.464C139.023 63.9733 138.927 63.5733 138.735 63.264C138.543 62.9547 138.255 62.8 137.871 62.8C137.476 62.8 137.103 62.9227 136.751 63.168C136.409 63.4027 136.1 63.792 135.823 64.336C135.556 64.88 135.327 65.6213 135.135 66.56L134.767 68.416ZM146.265 70.4C145.667 70.4 145.139 70.2453 144.681 69.936C144.233 69.6267 143.886 69.1893 143.641 68.624C143.395 68.0587 143.273 67.3973 143.273 66.64C143.273 65.7547 143.427 64.9333 143.737 64.176C144.057 63.4187 144.494 62.7573 145.049 62.192C145.614 61.6267 146.275 61.1893 147.033 60.88C147.79 60.56 148.611 60.4 149.497 60.4C149.753 60.4 149.971 60.4107 150.153 60.432C150.345 60.4427 150.547 60.4747 150.761 60.528C150.825 60.8267 150.862 61.088 150.873 61.312C151.118 61.152 151.39 61.0293 151.689 60.944C151.987 60.848 152.265 60.8 152.521 60.8C153.299 60.8 153.689 61.2213 153.689 62.064C153.689 62.3413 153.635 62.72 153.529 63.2C153.433 63.6693 153.315 64.192 153.177 64.768C153.049 65.3333 152.931 65.9147 152.825 66.512C152.729 67.0987 152.681 67.648 152.681 68.16C152.681 68.8533 152.846 69.3387 153.177 69.616C152.579 70.1387 151.945 70.4 151.273 70.4C150.654 70.4 150.195 70.208 149.897 69.824C149.609 69.44 149.465 68.8427 149.465 68.032L149.305 67.952C149.017 68.72 148.601 69.3227 148.057 69.76C147.523 70.1867 146.926 70.4 146.265 70.4ZM147.529 67.488C147.945 67.488 148.35 67.3387 148.745 67.04C149.139 66.7413 149.47 66.3307 149.737 65.808C149.779 65.392 149.822 65.0027 149.865 64.64C149.918 64.2667 149.982 63.872 150.057 63.456C150.142 63.04 150.243 62.5493 150.361 61.984C149.817 61.984 149.299 62.0907 148.809 62.304C148.329 62.5067 147.897 62.7893 147.513 63.152C147.129 63.5147 146.825 63.9307 146.601 64.4C146.387 64.8587 146.281 65.344 146.281 65.856C146.281 66.3787 146.387 66.784 146.601 67.072C146.825 67.3493 147.134 67.488 147.529 67.488ZM159.662 70.4C158.734 70.4 157.929 70.224 157.246 69.872C156.574 69.5093 156.051 69.0133 155.678 68.384C155.315 67.7547 155.134 67.024 155.134 66.192C155.134 65.328 155.289 64.544 155.598 63.84C155.907 63.1253 156.345 62.512 156.91 62C157.475 61.488 158.131 61.0933 158.878 60.816C159.635 60.5387 160.451 60.4 161.326 60.4C162.275 60.4 163.006 60.5813 163.518 60.944C164.041 61.296 164.302 61.7387 164.302 62.272C164.302 62.784 164.115 63.1733 163.742 63.44C163.379 63.7067 162.963 63.84 162.494 63.84C162.174 63.84 161.838 63.7333 161.486 63.52C161.134 63.3067 160.851 62.976 160.638 62.528C160.169 62.72 159.769 63.0187 159.438 63.424C159.118 63.8187 158.873 64.2613 158.702 64.752C158.542 65.232 158.462 65.7067 158.462 66.176C158.462 66.8053 158.595 67.3493 158.862 67.808C159.129 68.256 159.523 68.48 160.046 68.48C160.409 68.48 160.739 68.3413 161.038 68.064C161.337 67.776 161.486 67.3227 161.486 66.704C162.211 66.704 162.782 66.784 163.198 66.944C163.614 67.104 163.822 67.392 163.822 67.808C163.822 68.192 163.651 68.5867 163.31 68.992C162.969 69.3867 162.489 69.7227 161.87 70C161.251 70.2667 160.515 70.4 159.662 70.4ZM169.913 70.4C168.921 70.4 168.084 70.224 167.401 69.872C166.719 69.52 166.201 69.0293 165.849 68.4C165.508 67.76 165.337 67.024 165.337 66.192C165.337 65.328 165.492 64.544 165.801 63.84C166.121 63.1253 166.564 62.512 167.129 62C167.695 61.488 168.351 61.0933 169.097 60.816C169.855 60.5387 170.671 60.4 171.545 60.4C172.58 60.4 173.343 60.6293 173.833 61.088C174.324 61.5467 174.569 62.1227 174.569 62.816C174.569 63.4133 174.372 63.9787 173.977 64.512C173.593 65.0347 172.969 65.4613 172.105 65.792C171.241 66.112 170.089 66.2773 168.649 66.288C168.681 66.9707 168.836 67.5093 169.113 67.904C169.401 68.288 169.759 68.48 170.185 68.48C170.399 68.48 170.623 68.432 170.857 68.336C171.092 68.2293 171.289 68.048 171.449 67.792C171.609 67.5253 171.689 67.1627 171.689 66.704C172.415 66.704 172.985 66.784 173.401 66.944C173.817 67.104 174.025 67.392 174.025 67.808C174.025 68.192 173.86 68.5867 173.529 68.992C173.199 69.3867 172.724 69.7227 172.105 70C171.497 70.2667 170.767 70.4 169.913 70.4ZM168.793 65.008C169.572 64.944 170.196 64.8 170.665 64.576C171.135 64.352 171.476 64.096 171.689 63.808C171.903 63.52 172.009 63.2533 172.009 63.008C172.009 62.7947 171.945 62.6187 171.817 62.48C171.689 62.3413 171.508 62.272 171.273 62.272C170.889 62.272 170.532 62.4053 170.201 62.672C169.871 62.9387 169.583 63.2853 169.337 63.712C169.103 64.128 168.921 64.56 168.793 65.008ZM41.1895 91.4C40.5175 91.4 40.0375 91.2293 39.7495 90.888C39.4615 90.5467 39.3175 90.056 39.3175 89.416C39.3175 89.192 39.3495 88.8507 39.4135 88.392C39.4775 87.9227 39.5575 87.4053 39.6535 86.84C39.7602 86.264 39.8722 85.688 39.9895 85.112C40.1068 84.536 40.2188 84.024 40.3255 83.576L39.4935 82.296C39.9308 82.0507 40.4002 81.8427 40.9015 81.672C41.4135 81.4907 41.9308 81.4 42.4535 81.4C42.9015 81.4 43.2322 81.512 43.4455 81.736C43.6588 81.9493 43.7655 82.2427 43.7655 82.616C43.7655 82.8933 43.7282 83.1813 43.6535 83.48C43.5788 83.7787 43.4935 84.0347 43.3975 84.248L43.5575 84.328C44.1868 83.2507 44.8482 82.4933 45.5415 82.056C46.2348 81.6187 46.9708 81.4 47.7495 81.4C48.3148 81.4 48.7788 81.544 49.1415 81.832C49.5042 82.1093 49.6855 82.5627 49.6855 83.192C49.6855 83.512 49.6322 83.864 49.5255 84.248L49.6855 84.328C50.3148 83.2507 50.9762 82.4933 51.6695 82.056C52.3628 81.6187 53.0988 81.4 53.8775 81.4C54.5282 81.4 55.0135 81.56 55.3335 81.88C55.6535 82.1893 55.8135 82.6747 55.8135 83.336C55.8135 83.912 55.7335 84.5253 55.5735 85.176C55.4242 85.816 55.2695 86.4773 55.1095 87.16C54.9495 87.832 54.8695 88.4987 54.8695 89.16C54.8695 89.8213 54.9815 90.3067 55.2055 90.616C54.6402 91.1387 54.0535 91.4 53.4455 91.4C52.7735 91.4 52.2935 91.2293 52.0055 90.888C51.7175 90.5467 51.5735 90.056 51.5735 89.416C51.5735 89.064 51.6215 88.6747 51.7175 88.248C51.8135 87.8107 51.9255 87.368 52.0535 86.92C52.1815 86.472 52.2935 86.0507 52.3895 85.656C52.4855 85.2613 52.5335 84.92 52.5335 84.632C52.5335 84.408 52.4908 84.232 52.4055 84.104C52.3308 83.976 52.1922 83.912 51.9895 83.912C51.7015 83.912 51.3708 84.04 50.9975 84.296C50.6348 84.552 50.2775 84.9147 49.9255 85.384C49.5842 85.8427 49.3015 86.392 49.0775 87.032C48.8535 87.672 48.7415 88.3813 48.7415 89.16C48.7415 89.8213 48.8535 90.3067 49.0775 90.616C48.5122 91.1387 47.9255 91.4 47.3175 91.4C46.6455 91.4 46.1655 91.2293 45.8775 90.888C45.5895 90.5467 45.4455 90.056 45.4455 89.416C45.4455 89.064 45.4935 88.6747 45.5895 88.248C45.6855 87.8107 45.7975 87.368 45.9255 86.92C46.0535 86.472 46.1655 86.0507 46.2615 85.656C46.3575 85.2613 46.4055 84.92 46.4055 84.632C46.4055 84.408 46.3628 84.232 46.2775 84.104C46.2028 83.976 46.0642 83.912 45.8615 83.912C45.5735 83.912 45.2428 84.04 44.8695 84.296C44.5068 84.552 44.1495 84.9147 43.7975 85.384C43.4562 85.8427 43.1735 86.392 42.9495 87.032C42.7255 87.672 42.6135 88.3813 42.6135 89.16C42.6135 89.8213 42.7255 90.3067 42.9495 90.616C42.3842 91.1387 41.7975 91.4 41.1895 91.4ZM61.7793 91.4C60.8406 91.4 60.0299 91.224 59.3473 90.872C58.6753 90.5093 58.1579 90.0133 57.7953 89.384C57.4326 88.7547 57.2513 88.024 57.2513 87.192C57.2513 86.04 57.5019 85.032 58.0033 84.168C58.5153 83.2933 59.2139 82.616 60.0993 82.136C60.9846 81.6453 61.9926 81.4 63.1233 81.4C63.3046 81.4 63.4859 81.4107 63.6673 81.432C63.8593 81.4427 64.0619 81.4747 64.2753 81.528C64.3286 81.6773 64.3713 81.8587 64.4033 82.072C64.4353 82.2747 64.4566 82.4933 64.4673 82.728C64.5633 82.696 64.6646 82.6693 64.7713 82.648C64.8886 82.6267 65.0113 82.616 65.1393 82.616C65.5126 82.616 65.8646 82.7173 66.1953 82.92C66.5259 83.112 66.7979 83.416 67.0113 83.832C67.2246 84.248 67.3313 84.776 67.3313 85.416C67.3313 86.3653 67.1713 87.2133 66.8513 87.96C66.5419 88.696 66.1206 89.32 65.5873 89.832C65.0539 90.344 64.4566 90.7333 63.7953 91C63.1446 91.2667 62.4726 91.4 61.7793 91.4ZM62.2753 89.432C62.5206 89.432 62.7766 89.3733 63.0433 89.256C63.3099 89.1387 63.5713 88.9253 63.8273 88.616C64.0833 88.3067 64.2966 87.8693 64.4673 87.304C64.0086 87.016 63.6779 86.664 63.4753 86.248C63.2726 85.8213 63.1713 85.352 63.1713 84.84C63.1713 84.6907 63.1979 84.4987 63.2513 84.264C63.3046 84.0293 63.3953 83.7893 63.5233 83.544C63.6619 83.2987 63.8486 83.096 64.0833 82.936C63.3473 83.0853 62.7446 83.3093 62.2753 83.608C61.8059 83.9067 61.4379 84.2533 61.1713 84.648C60.9153 85.032 60.7339 85.432 60.6273 85.848C60.5313 86.2533 60.4833 86.6427 60.4833 87.016C60.4833 87.4427 60.5526 87.8427 60.6913 88.216C60.8299 88.5787 61.0326 88.872 61.2993 89.096C61.5659 89.32 61.8913 89.432 62.2753 89.432ZM70.7208 91.4C70.0488 91.4 69.5688 91.2293 69.2808 90.888C68.9928 90.5467 68.8488 90.056 68.8488 89.416C68.8488 89.192 68.8808 88.8507 68.9448 88.392C69.0088 87.9227 69.0888 87.4053 69.1848 86.84C69.2914 86.264 69.4034 85.688 69.5208 85.112C69.6381 84.536 69.7501 84.024 69.8568 83.576L69.0247 82.296C69.4621 82.0507 69.9314 81.8427 70.4328 81.672C70.9448 81.4907 71.4621 81.4 71.9848 81.4C72.4328 81.4 72.7634 81.512 72.9768 81.736C73.1901 81.9493 73.2968 82.2427 73.2968 82.616C73.2968 82.8933 73.2594 83.1813 73.1848 83.48C73.1101 83.7787 73.0248 84.0347 72.9288 84.248L73.0888 84.328C73.7181 83.2507 74.4061 82.4933 75.1528 82.056C75.8994 81.6187 76.6621 81.4 77.4408 81.4C78.0914 81.4 78.5768 81.56 78.8968 81.88C79.2168 82.1893 79.3768 82.6747 79.3768 83.336C79.3768 83.912 79.2968 84.5253 79.1368 85.176C78.9874 85.816 78.8328 86.4773 78.6728 87.16C78.5128 87.832 78.4328 88.4987 78.4328 89.16C78.4328 89.8213 78.5448 90.3067 78.7688 90.616C78.2034 91.1387 77.6168 91.4 77.0087 91.4C76.3368 91.4 75.8568 91.2293 75.5688 90.888C75.2808 90.5467 75.1368 90.056 75.1368 89.416C75.1368 89.064 75.1848 88.6747 75.2808 88.248C75.3768 87.8107 75.4888 87.368 75.6168 86.92C75.7448 86.472 75.8568 86.0507 75.9528 85.656C76.0488 85.2613 76.0968 84.92 76.0968 84.632C76.0968 84.408 76.0541 84.232 75.9688 84.104C75.8941 83.976 75.7554 83.912 75.5528 83.912C75.2648 83.912 74.9288 84.04 74.5448 84.296C74.1608 84.552 73.7821 84.9147 73.4088 85.384C73.0461 85.8427 72.7421 86.392 72.4968 87.032C72.2621 87.672 72.1448 88.3813 72.1448 89.16C72.1448 89.8213 72.2568 90.3067 72.4808 90.616C71.9154 91.1387 71.3288 91.4 70.7208 91.4ZM85.3418 91.4C84.4031 91.4 83.5924 91.224 82.9098 90.872C82.2378 90.5093 81.7204 90.0133 81.3578 89.384C80.9951 88.7547 80.8138 88.024 80.8138 87.192C80.8138 86.04 81.0644 85.032 81.5658 84.168C82.0778 83.2933 82.7764 82.616 83.6618 82.136C84.5471 81.6453 85.5551 81.4 86.6858 81.4C86.8671 81.4 87.0484 81.4107 87.2298 81.432C87.4218 81.4427 87.6244 81.4747 87.8378 81.528C87.8911 81.6773 87.9338 81.8587 87.9658 82.072C87.9978 82.2747 88.0191 82.4933 88.0298 82.728C88.1258 82.696 88.2271 82.6693 88.3338 82.648C88.4511 82.6267 88.5738 82.616 88.7018 82.616C89.0751 82.616 89.4271 82.7173 89.7578 82.92C90.0884 83.112 90.3604 83.416 90.5738 83.832C90.7871 84.248 90.8938 84.776 90.8938 85.416C90.8938 86.3653 90.7338 87.2133 90.4138 87.96C90.1044 88.696 89.6831 89.32 89.1498 89.832C88.6164 90.344 88.0191 90.7333 87.3578 91C86.7071 91.2667 86.0351 91.4 85.3418 91.4ZM85.8378 89.432C86.0831 89.432 86.3391 89.3733 86.6058 89.256C86.8724 89.1387 87.1338 88.9253 87.3898 88.616C87.6458 88.3067 87.8591 87.8693 88.0298 87.304C87.5711 87.016 87.2404 86.664 87.0378 86.248C86.8351 85.8213 86.7338 85.352 86.7338 84.84C86.7338 84.6907 86.7604 84.4987 86.8138 84.264C86.8671 84.0293 86.9578 83.7893 87.0858 83.544C87.2244 83.2987 87.4111 83.096 87.6458 82.936C86.9098 83.0853 86.3071 83.3093 85.8378 83.608C85.3684 83.9067 85.0004 84.2533 84.7338 84.648C84.4778 85.032 84.2964 85.432 84.1898 85.848C84.0938 86.2533 84.0458 86.6427 84.0458 87.016C84.0458 87.4427 84.1151 87.8427 84.2538 88.216C84.3924 88.5787 84.5951 88.872 84.8618 89.096C85.1284 89.32 85.4538 89.432 85.8378 89.432ZM94.2193 91.4C93.5686 91.4 93.1046 91.2293 92.8273 90.888C92.5499 90.5467 92.4113 90.056 92.4113 89.416C92.4113 89.192 92.4433 88.8507 92.5073 88.392C92.5713 87.9227 92.6513 87.4053 92.7473 86.84C92.8539 86.264 92.9659 85.688 93.0833 85.112C93.2006 84.536 93.3126 84.024 93.4193 83.576L92.5872 82.296C93.1419 82.0507 93.6539 81.8427 94.1233 81.672C94.6033 81.4907 95.0299 81.4 95.4033 81.4C95.6806 81.4 95.8833 81.496 96.0113 81.688C96.1393 81.88 96.2033 82.1253 96.2033 82.424C96.2033 82.7653 96.1446 83.1493 96.0273 83.576C95.9099 83.992 95.7926 84.3867 95.6753 84.76L95.8353 84.84C96.2086 83.7413 96.6299 82.8933 97.0993 82.296C97.5793 81.6987 98.1126 81.4 98.6993 81.4C99.0833 81.4 99.3926 81.4853 99.6273 81.656C99.8619 81.816 100.033 82.0187 100.139 82.264C100.257 82.4987 100.315 82.728 100.315 82.952C100.315 83.304 100.225 83.6453 100.043 83.976C99.8726 84.296 99.5953 84.5627 99.2113 84.776C98.8273 84.9787 98.3206 85.08 97.6913 85.08C97.4459 85.08 97.2059 85.1333 96.9713 85.24C96.7366 85.3467 96.5233 85.5493 96.3313 85.848C96.1393 86.136 95.9846 86.5467 95.8673 87.08C95.7606 87.6133 95.7073 88.3067 95.7073 89.16C95.7073 89.8213 95.8193 90.3067 96.0433 90.616C95.3819 91.1387 94.7739 91.4 94.2193 91.4ZM104.812 91.4C103.82 91.4 102.982 91.224 102.3 90.872C101.617 90.52 101.1 90.0293 100.748 89.4C100.406 88.76 100.236 88.024 100.236 87.192C100.236 86.328 100.39 85.544 100.7 84.84C101.02 84.1253 101.462 83.512 102.028 83C102.593 82.488 103.249 82.0933 103.996 81.816C104.753 81.5387 105.569 81.4 106.444 81.4C107.478 81.4 108.241 81.6293 108.732 82.088C109.222 82.5467 109.468 83.1227 109.468 83.816C109.468 84.4133 109.27 84.9787 108.876 85.512C108.492 86.0347 107.868 86.4613 107.004 86.792C106.14 87.112 104.988 87.2773 103.548 87.288C103.58 87.9707 103.734 88.5093 104.012 88.904C104.3 89.288 104.657 89.48 105.084 89.48C105.297 89.48 105.521 89.432 105.756 89.336C105.99 89.2293 106.188 89.048 106.348 88.792C106.508 88.5253 106.588 88.1627 106.588 87.704C107.313 87.704 107.884 87.784 108.3 87.944C108.716 88.104 108.924 88.392 108.924 88.808C108.924 89.192 108.758 89.5867 108.428 89.992C108.097 90.3867 107.622 90.7227 107.004 91C106.396 91.2667 105.665 91.4 104.812 91.4ZM103.692 86.008C104.47 85.944 105.094 85.8 105.564 85.576C106.033 85.352 106.374 85.096 106.588 84.808C106.801 84.52 106.908 84.2533 106.908 84.008C106.908 83.7947 106.844 83.6187 106.716 83.48C106.588 83.3413 106.406 83.272 106.172 83.272C105.788 83.272 105.43 83.4053 105.1 83.672C104.769 83.9387 104.481 84.2853 104.236 84.712C104.001 85.128 103.82 85.56 103.692 86.008ZM112.671 94.184C111.989 94.184 111.525 94.0133 111.279 93.672C111.034 93.3307 110.911 92.84 110.911 92.2C110.911 91.9653 110.938 91.6027 110.991 91.112C111.045 90.6213 111.109 90.0613 111.183 89.432C111.269 88.792 111.365 88.1307 111.471 87.448C111.578 86.7653 111.679 86.1093 111.775 85.48C111.882 84.8507 111.978 84.3013 112.063 83.832L111.167 82.552C111.733 82.2213 112.266 81.944 112.767 81.72C113.279 81.496 113.791 81.384 114.303 81.384C114.751 81.384 115.055 81.5387 115.215 81.848C115.375 82.1467 115.455 82.4987 115.455 82.904C115.455 83.0213 115.45 83.1547 115.439 83.304C115.429 83.4427 115.413 83.592 115.391 83.752L115.551 83.832C115.861 83.064 116.309 82.4667 116.895 82.04C117.482 81.6027 118.154 81.384 118.911 81.384C119.487 81.384 119.973 81.56 120.367 81.912C120.762 82.2533 121.061 82.7067 121.263 83.272C121.466 83.8373 121.567 84.4613 121.567 85.144C121.567 85.8053 121.439 86.4827 121.183 87.176C120.938 87.8587 120.559 88.488 120.047 89.064C119.535 89.64 118.89 90.104 118.111 90.456C117.333 90.808 116.41 90.984 115.343 90.984C115.141 90.984 114.943 90.9787 114.751 90.968C114.559 90.9467 114.351 90.9253 114.127 90.904C114.095 91.2667 114.079 91.6133 114.079 91.944C114.079 92.264 114.117 92.5467 114.191 92.792C114.277 93.048 114.405 93.2507 114.575 93.4C113.978 93.9227 113.343 94.184 112.671 94.184ZM114.415 89.416C115.109 89.3947 115.717 89.2667 116.239 89.032C116.773 88.7867 117.221 88.472 117.583 88.088C117.946 87.6933 118.218 87.2667 118.399 86.808C118.581 86.3493 118.671 85.9013 118.671 85.464C118.671 84.9733 118.575 84.5733 118.383 84.264C118.191 83.9547 117.903 83.8 117.519 83.8C117.125 83.8 116.751 83.9227 116.399 84.168C116.058 84.4027 115.749 84.792 115.471 85.336C115.205 85.88 114.975 86.6213 114.783 87.56L114.415 89.416ZM127.529 91.4C126.591 91.4 125.78 91.224 125.097 90.872C124.425 90.5093 123.908 90.0133 123.545 89.384C123.183 88.7547 123.001 88.024 123.001 87.192C123.001 86.04 123.252 85.032 123.753 84.168C124.265 83.2933 124.964 82.616 125.849 82.136C126.735 81.6453 127.743 81.4 128.873 81.4C129.055 81.4 129.236 81.4107 129.417 81.432C129.609 81.4427 129.812 81.4747 130.025 81.528C130.079 81.6773 130.121 81.8587 130.153 82.072C130.185 82.2747 130.207 82.4933 130.217 82.728C130.313 82.696 130.415 82.6693 130.521 82.648C130.639 82.6267 130.761 82.616 130.889 82.616C131.263 82.616 131.615 82.7173 131.945 82.92C132.276 83.112 132.548 83.416 132.761 83.832C132.975 84.248 133.081 84.776 133.081 85.416C133.081 86.3653 132.921 87.2133 132.601 87.96C132.292 88.696 131.871 89.32 131.337 89.832C130.804 90.344 130.207 90.7333 129.545 91C128.895 91.2667 128.223 91.4 127.529 91.4ZM128.025 89.432C128.271 89.432 128.527 89.3733 128.793 89.256C129.06 89.1387 129.321 88.9253 129.577 88.616C129.833 88.3067 130.047 87.8693 130.217 87.304C129.759 87.016 129.428 86.664 129.225 86.248C129.023 85.8213 128.921 85.352 128.921 84.84C128.921 84.6907 128.948 84.4987 129.001 84.264C129.055 84.0293 129.145 83.7893 129.273 83.544C129.412 83.2987 129.599 83.096 129.833 82.936C129.097 83.0853 128.495 83.3093 128.025 83.608C127.556 83.9067 127.188 84.2533 126.921 84.648C126.665 85.032 126.484 85.432 126.377 85.848C126.281 86.2533 126.233 86.6427 126.233 87.016C126.233 87.4427 126.303 87.8427 126.441 88.216C126.58 88.5787 126.783 88.872 127.049 89.096C127.316 89.32 127.641 89.432 128.025 89.432ZM139.636 92.648C139.412 92.648 139.177 92.6107 138.932 92.536C138.697 92.472 138.452 92.3387 138.196 92.136C138.462 91.8907 138.708 91.496 138.932 90.952C139.156 90.3973 139.358 89.8 139.54 89.16C139.924 87.816 140.265 86.5093 140.564 85.24C140.873 83.9707 141.15 82.7973 141.396 81.72C141.652 80.632 141.876 79.704 142.068 78.936C142.142 78.6373 142.276 78.392 142.468 78.2C142.66 78.008 142.948 77.912 143.332 77.912C143.694 77.912 144.03 77.9813 144.34 78.12C144.649 78.248 144.932 78.4293 145.188 78.664C145.006 78.9413 144.825 79.272 144.644 79.656C144.473 80.04 144.318 80.4293 144.18 80.824C144.041 81.208 143.929 81.5547 143.844 81.864C143.609 82.6853 143.396 83.4587 143.204 84.184C143.012 84.9093 142.825 85.624 142.644 86.328C142.462 87.0213 142.27 87.7413 142.068 88.488C141.876 89.2347 141.657 90.0453 141.412 90.92C141.262 91.464 141.044 91.8853 140.756 92.184C140.478 92.4933 140.105 92.648 139.636 92.648ZM144.66 92.648C144.436 92.648 144.201 92.6107 143.956 92.536C143.721 92.472 143.476 92.3387 143.22 92.136C143.486 91.8907 143.732 91.496 143.956 90.952C144.18 90.3973 144.382 89.8 144.564 89.16C144.948 87.816 145.289 86.5093 145.588 85.24C145.897 83.9707 146.174 82.7973 146.42 81.72C146.676 80.632 146.9 79.704 147.092 78.936C147.166 78.6373 147.3 78.392 147.492 78.2C147.684 78.008 147.972 77.912 148.356 77.912C148.718 77.912 149.054 77.9813 149.364 78.12C149.673 78.248 149.956 78.4293 150.212 78.664C150.03 78.9413 149.849 79.272 149.668 79.656C149.497 80.04 149.342 80.4293 149.204 80.824C149.065 81.208 148.953 81.5547 148.868 81.864C148.633 82.6853 148.42 83.4587 148.228 84.184C148.036 84.9093 147.849 85.624 147.668 86.328C147.486 87.0213 147.294 87.7413 147.092 88.488C146.9 89.2347 146.681 90.0453 146.436 90.92C146.286 91.464 146.068 91.8853 145.78 92.184C145.502 92.4933 145.129 92.648 144.66 92.648ZM140.148 83.928C139.956 83.928 139.79 83.864 139.652 83.736C139.513 83.5973 139.444 83.352 139.444 83C139.444 82.6587 139.492 82.3227 139.588 81.992C139.684 81.6613 139.817 81.368 139.988 81.112C140.297 81.2293 140.644 81.3093 141.028 81.352C141.422 81.3947 141.769 81.416 142.068 81.416C142.622 81.416 143.188 81.4107 143.764 81.4C144.35 81.3893 144.937 81.3787 145.524 81.368C146.74 81.336 147.961 81.32 149.188 81.32C149.614 81.32 149.945 81.4107 150.18 81.592C150.414 81.7733 150.532 82.088 150.532 82.536C150.532 82.7387 150.51 82.952 150.468 83.176C150.425 83.4 150.34 83.6187 150.212 83.832C149.988 83.736 149.705 83.6667 149.364 83.624C149.022 83.5707 148.649 83.544 148.244 83.544C147.465 83.544 146.622 83.5707 145.716 83.624C144.809 83.6667 143.95 83.7147 143.14 83.768C142.521 83.8107 141.95 83.848 141.428 83.88C140.916 83.912 140.489 83.928 140.148 83.928ZM138.932 88.76C138.74 88.76 138.574 88.696 138.436 88.568C138.297 88.4293 138.228 88.184 138.228 87.832C138.228 87.4907 138.276 87.1547 138.372 86.824C138.468 86.4933 138.601 86.2 138.772 85.944C139.081 86.0613 139.428 86.1413 139.812 86.184C140.206 86.2267 140.553 86.248 140.852 86.248C141.406 86.248 141.972 86.2427 142.548 86.232C143.134 86.2213 143.721 86.2107 144.308 86.2C145.524 86.168 146.745 86.152 147.972 86.152C148.398 86.152 148.729 86.2427 148.964 86.424C149.198 86.6053 149.316 86.92 149.316 87.368C149.316 87.5707 149.294 87.784 149.252 88.008C149.209 88.232 149.124 88.4507 148.996 88.664C148.772 88.568 148.489 88.4987 148.148 88.456C147.806 88.4027 147.433 88.376 147.028 88.376C146.249 88.376 145.406 88.4027 144.5 88.456C143.593 88.4987 142.734 88.5467 141.924 88.6C141.305 88.6427 140.734 88.68 140.212 88.712C139.7 88.744 139.273 88.76 138.932 88.76ZM158.218 93.72C157.685 93.72 157.258 93.6187 156.938 93.416C156.629 93.2133 156.405 92.9413 156.266 92.6C156.138 92.2693 156.074 91.9067 156.074 91.512C156.074 91.3947 156.079 91.272 156.09 91.144C156.101 91.016 156.117 90.8827 156.138 90.744C155.775 90.8187 155.354 90.8827 154.874 90.936C154.394 90.9787 153.946 91 153.53 91C153.018 91 152.533 90.9467 152.074 90.84C151.626 90.7333 151.258 90.5467 150.97 90.28C150.693 90.0133 150.554 89.64 150.554 89.16C150.554 88.7973 150.655 88.3653 150.858 87.864C151.071 87.352 151.327 86.808 151.626 86.232C151.935 85.6453 152.239 85.0427 152.538 84.424C152.847 83.8053 153.103 83.1973 153.306 82.6C153.519 82.0027 153.626 81.4427 153.626 80.92C153.626 80.6533 153.583 80.4027 153.498 80.168C153.797 80.0507 154.09 79.96 154.378 79.896C154.666 79.832 154.943 79.8 155.21 79.8C155.85 79.8 156.367 79.96 156.762 80.28C157.167 80.5893 157.37 81.144 157.37 81.944C157.37 82.936 157.018 84.0133 156.314 85.176C155.621 86.328 154.591 87.576 153.226 88.92H156.554C156.703 88.4187 156.869 87.9227 157.05 87.432C157.242 86.9413 157.429 86.5093 157.61 86.136C157.791 85.944 158.053 85.7627 158.394 85.592C158.746 85.4107 159.125 85.2613 159.53 85.144C159.935 85.0267 160.319 84.968 160.682 84.968C160.842 84.968 160.949 85 161.002 85.064C161.055 85.128 161.082 85.2347 161.082 85.384C161.082 85.5867 161.023 85.9067 160.906 86.344C160.799 86.7707 160.671 87.272 160.522 87.848C160.383 88.424 160.255 89.0427 160.138 89.704C160.031 90.3547 159.978 91.0053 159.978 91.656C159.978 91.9333 160.01 92.2 160.074 92.456C160.138 92.7227 160.234 92.952 160.362 93.144C159.615 93.528 158.901 93.72 158.218 93.72Z" fill="white"/>
</svg>
