<svg width="100%" height="100%" viewBox="0 0 200 150" fill="none" xmlns="http://www.w3.org/2000/svg">
<rect width="100%" height="100%" fill="#264DB1"/>
<path d="M2.03113 70.416C1.50846 70.416 1.14046 70.2613 0.927125 69.952C0.713792 69.632 0.607125 69.2107 0.607125 68.688C0.607125 68.2933 0.681792 67.8507 0.831125 67.36C0.991125 66.8693 1.19379 66.3573 1.43913 65.824C1.68446 65.28 1.94579 64.736 2.22313 64.192C2.50046 63.648 2.76713 63.1253 3.02313 62.624C3.28979 62.1227 3.51379 61.6693 3.69513 61.264C3.64179 60.9973 3.57779 60.7147 3.50313 60.416C3.42846 60.1173 3.35913 59.8347 3.29513 59.568C3.77513 59.2373 4.27646 58.96 4.79913 58.736C5.32179 58.512 5.95113 58.4 6.68713 58.4C6.96446 58.4 7.19913 58.4373 7.39113 58.512C7.58313 58.5867 7.73246 58.6827 7.83913 58.8C8.11646 58.6827 8.38846 58.5867 8.65513 58.512C8.92179 58.4373 9.20446 58.4 9.50313 58.4C9.90846 58.4 10.2071 58.5173 10.3991 58.752C10.5911 58.976 10.7138 59.2693 10.7671 59.632C10.8311 59.984 10.8631 60.3573 10.8631 60.752C10.8631 61.36 10.8418 61.9733 10.7991 62.592C10.7565 63.2107 10.7351 63.8667 10.7351 64.56C10.7351 65.296 10.7725 66.0107 10.8471 66.704C10.9218 67.3973 11.0711 68.0107 11.2951 68.544C11.5191 69.0773 11.8498 69.472 12.2871 69.728C11.9245 69.952 11.5725 70.1227 11.2311 70.24C10.9005 70.3573 10.5058 70.416 10.0471 70.416C9.52446 70.416 9.09779 70.272 8.76713 69.984C8.43646 69.696 8.17513 69.3067 7.98313 68.816C7.80179 68.3253 7.66846 67.7813 7.58313 67.184H4.31913C4.22313 67.5147 4.14846 67.8187 4.09513 68.096C4.04179 68.3627 4.01513 68.6027 4.01513 68.816C4.01513 69.1573 4.05779 69.44 4.14313 69.664C3.74846 69.9093 3.38046 70.096 3.03913 70.224C2.69779 70.352 2.36179 70.416 2.03113 70.416ZM4.99113 65.504H7.47113C7.47113 64.9067 7.47646 64.368 7.48713 63.888C7.50846 63.408 7.52979 62.9493 7.55113 62.512C7.58313 62.064 7.61513 61.6 7.64713 61.12H7.13513C6.77246 61.8347 6.39913 62.576 6.01513 63.344C5.63113 64.112 5.28979 64.832 4.99113 65.504ZM15.3514 70.416C14.6367 70.416 14.13 70.2133 13.8314 69.808C13.5434 69.392 13.3994 68.768 13.3994 67.936C13.3994 67.4027 13.4847 66.6027 13.6554 65.536C13.8367 64.4587 14.0874 63.0347 14.4074 61.264L13.5594 59.552C14.0607 59.232 14.594 58.96 15.1594 58.736C15.7247 58.5013 16.29 58.384 16.8554 58.384C17.3567 58.384 17.6874 58.5333 17.8474 58.832C18.0074 59.1307 18.0874 59.4827 18.0874 59.888C18.0874 60.0587 18.0554 60.336 17.9914 60.72C17.938 61.0933 17.8634 61.5307 17.7674 62.032C17.6714 62.5227 17.57 63.04 17.4634 63.584C17.3674 64.1173 17.2714 64.64 17.1754 65.152C17.0794 65.6533 16.9994 66.1013 16.9354 66.496C16.882 66.88 16.8554 67.1733 16.8554 67.376C16.8554 67.92 16.8927 68.3787 16.9674 68.752C17.0527 69.1253 17.1754 69.44 17.3354 69.696C16.6954 70.176 16.034 70.416 15.3514 70.416ZM34.7034 56.768H36.0314V71.248H34.7034V56.768ZM30.4634 58.336H31.7754C31.7754 59.3813 31.6474 60.3893 31.3914 61.36C31.146 62.3307 30.7567 63.2533 30.2234 64.128C29.69 64.992 28.9967 65.7973 28.1434 66.544C27.29 67.2907 26.2554 67.9573 25.0394 68.544L24.3354 67.472C25.7327 66.8 26.8847 66.016 27.7914 65.12C28.698 64.224 29.37 63.2267 29.8074 62.128C30.2447 61.0187 30.4634 59.824 30.4634 58.544V58.336ZM25.0074 58.336H31.0234V59.408H25.0074V58.336ZM48.7821 56.784H50.1101V67.408H48.7821V56.784ZM49.6941 61.152H52.2381V62.256H49.6941V61.152ZM41.1021 69.84H50.7501V70.928H41.1021V69.84ZM41.1021 66.384H42.4141V70.08H41.1021V66.384ZM39.4701 57.824H40.7821V60.24H44.8621V57.824H46.1741V64.976H39.4701V57.824ZM40.7821 61.28V63.904H44.8621V61.28H40.7821ZM66.5378 72.656C65.8338 72.656 65.3538 72.4267 65.0978 71.968C64.8418 71.5093 64.7138 70.9013 64.7138 70.144C64.4471 70.2187 64.1644 70.2773 63.8658 70.32C63.5671 70.3733 63.2524 70.4 62.9218 70.4C62.0044 70.4 61.1778 70.2133 60.4418 69.84C59.7164 69.456 59.1404 68.8693 58.7138 68.08C58.2871 67.2907 58.0738 66.2933 58.0738 65.088C58.0738 64.5013 58.1751 63.8987 58.3778 63.28C58.5804 62.6613 58.8738 62.064 59.2578 61.488C59.6524 60.9013 60.1378 60.3787 60.7138 59.92C61.3004 59.4507 61.9778 59.0827 62.7458 58.816C63.5138 58.5387 64.3671 58.4 65.3058 58.4C65.8818 58.4 66.3991 58.48 66.8578 58.64C67.3271 58.8 67.6951 59.04 67.9618 59.36C68.2284 59.6693 68.3618 60.0587 68.3618 60.528C68.3618 60.9867 68.2551 61.3707 68.0418 61.68C67.8391 61.9893 67.5671 62.224 67.2258 62.384C66.8951 62.5333 66.5324 62.608 66.1378 62.608C65.6684 62.608 65.2098 62.4907 64.7618 62.256C64.3138 62.0213 63.9511 61.6747 63.6738 61.216C63.3004 61.3973 62.9484 61.7067 62.6178 62.144C62.2978 62.5707 62.0418 63.072 61.8498 63.648C61.6578 64.224 61.5618 64.8213 61.5618 65.44C61.5618 66.336 61.7431 66.9973 62.1058 67.424C62.4684 67.84 62.8951 68.048 63.3858 68.048C63.7271 68.048 64.0738 67.952 64.4258 67.76C64.7884 67.568 65.1138 67.2907 65.4018 66.928C65.2738 66.6507 65.1351 66.3733 64.9858 66.096C64.8471 65.808 64.7138 65.5253 64.5858 65.248C65.0444 64.9387 65.5404 64.672 66.0738 64.448C66.6178 64.224 67.1511 64.112 67.6738 64.112C68.1324 64.112 68.4364 64.2347 68.5858 64.48C68.7458 64.7253 68.8258 65.0347 68.8258 65.408C68.8258 65.6427 68.7778 65.9573 68.6818 66.352C68.5964 66.7467 68.4951 67.184 68.3778 67.664C68.2711 68.1333 68.1698 68.6187 68.0738 69.12C67.9884 69.6213 67.9458 70.096 67.9458 70.544C67.9458 70.8427 67.9831 71.12 68.0578 71.376C68.1324 71.632 68.2391 71.84 68.3778 72C68.0791 72.2133 67.7644 72.3733 67.4338 72.48C67.1138 72.5973 66.8151 72.656 66.5378 72.656ZM73.0286 59.36C72.538 59.36 72.1326 59.2533 71.8126 59.04C71.4926 58.8267 71.3326 58.5387 71.3326 58.176C71.3326 57.824 71.45 57.536 71.6846 57.312C71.9193 57.0773 72.202 56.9013 72.5326 56.784C72.874 56.6667 73.194 56.608 73.4926 56.608C73.9833 56.608 74.3886 56.7147 74.7086 56.928C75.0286 57.1307 75.1886 57.4187 75.1886 57.792C75.1886 58.1013 75.0873 58.3787 74.8846 58.624C74.682 58.8587 74.4153 59.04 74.0846 59.168C73.7646 59.296 73.4126 59.36 73.0286 59.36ZM72.0686 70.4C71.386 70.4 70.9006 70.2293 70.6126 69.888C70.3246 69.5467 70.1806 69.056 70.1806 68.416C70.1806 68.1813 70.2126 67.856 70.2766 67.44C70.3406 67.0133 70.426 66.544 70.5326 66.032C70.6393 65.5093 70.7513 64.9813 70.8686 64.448C70.986 63.9147 71.098 63.4133 71.2046 62.944L70.3086 61.6C70.874 61.2587 71.4126 60.976 71.9246 60.752C72.4366 60.5173 72.9486 60.4 73.4606 60.4C73.9086 60.4 74.218 60.496 74.3886 60.688C74.57 60.88 74.6606 61.1787 74.6606 61.584C74.6606 61.744 74.618 62.0053 74.5326 62.368C74.458 62.7307 74.362 63.1573 74.2446 63.648C74.1273 64.1387 74.01 64.656 73.8926 65.2C73.7753 65.7333 73.674 66.2613 73.5886 66.784C73.514 67.296 73.4766 67.7547 73.4766 68.16C73.4766 68.48 73.514 68.768 73.5886 69.024C73.674 69.2693 73.802 69.4667 73.9726 69.616C73.3753 70.1387 72.7406 70.4 72.0686 70.4ZM78.9758 70.4C78.2931 70.4 77.8078 70.1973 77.5198 69.792C77.2318 69.3867 77.0878 68.768 77.0878 67.936C77.0878 67.7013 77.1144 67.3707 77.1678 66.944C77.2211 66.5067 77.2904 66.0213 77.3758 65.488C77.4718 64.9547 77.5624 64.4267 77.6478 63.904C77.4238 63.9467 77.2051 63.9947 76.9918 64.048C76.7891 64.1013 76.5971 64.16 76.4158 64.224C76.3731 64.064 76.3411 63.904 76.3198 63.744C76.3091 63.584 76.3038 63.4667 76.3038 63.392C76.3038 62.8373 76.4638 62.4373 76.7838 62.192C77.1144 61.936 77.5091 61.808 77.9678 61.808C77.9678 61.5627 77.9358 61.2907 77.8718 60.992C77.8078 60.6933 77.6958 60.3627 77.5358 60C77.9838 59.6693 78.4318 59.392 78.8798 59.168C79.3278 58.944 79.8238 58.832 80.3678 58.832C80.8371 58.832 81.1624 58.9227 81.3438 59.104C81.5251 59.2747 81.6158 59.5627 81.6158 59.968C81.6158 60.1707 81.5944 60.4107 81.5518 60.688C81.5091 60.9653 81.4558 61.2693 81.3918 61.6C81.6264 61.568 81.8504 61.5307 82.0638 61.488C82.2771 61.4347 82.4851 61.3813 82.6878 61.328C82.7304 61.4453 82.7571 61.568 82.7678 61.696C82.7891 61.8133 82.7998 61.9307 82.7998 62.048C82.7998 62.4747 82.6664 62.848 82.3998 63.168C82.1438 63.4773 81.7438 63.632 81.1998 63.632H80.9598C80.8104 64.3147 80.6771 65.0133 80.5598 65.728C80.4424 66.4427 80.3838 67.1093 80.3838 67.728C80.3838 68.144 80.4211 68.5173 80.4958 68.848C80.5811 69.168 80.7091 69.424 80.8798 69.616C80.2824 70.1387 79.6478 70.4 78.9758 70.4ZM85.8651 70.416C85.1505 70.416 84.6438 70.2133 84.3451 69.808C84.0571 69.392 83.9131 68.768 83.9131 67.936C83.9131 67.4027 83.9985 66.6027 84.1691 65.536C84.3505 64.4587 84.6011 63.0347 84.9211 61.264L84.0731 59.552C84.5745 59.232 85.1078 58.96 85.6731 58.736C86.2385 58.5013 86.8038 58.384 87.3691 58.384C87.8705 58.384 88.2011 58.5333 88.3611 58.832C88.5211 59.1307 88.6011 59.4827 88.6011 59.888C88.6011 60.0693 88.5638 60.368 88.4891 60.784C88.4251 61.1893 88.3398 61.6587 88.2331 62.192C88.1371 62.7253 88.0358 63.2693 87.9291 63.824H91.5131C91.5771 63.4507 91.6465 63.0507 91.7211 62.624C91.8065 62.1973 91.8918 61.744 91.9771 61.264L91.1291 59.552C91.6305 59.232 92.1638 58.96 92.7291 58.736C93.2945 58.5013 93.8598 58.384 94.4251 58.384C94.9265 58.384 95.2571 58.5333 95.4171 58.832C95.5771 59.1307 95.6571 59.4827 95.6571 59.888C95.6571 60.0587 95.6251 60.336 95.5611 60.72C95.5078 61.0933 95.4331 61.5307 95.3371 62.032C95.2411 62.5227 95.1398 63.04 95.0331 63.584C94.9371 64.1173 94.8411 64.64 94.7451 65.152C94.6491 65.6533 94.5691 66.1013 94.5051 66.496C94.4518 66.88 94.4251 67.1733 94.4251 67.376C94.4251 67.92 94.4625 68.3787 94.5371 68.752C94.6225 69.1253 94.7451 69.44 94.9051 69.696C94.2651 70.176 93.6038 70.416 92.9211 70.416C92.2065 70.416 91.6998 70.2133 91.4011 69.808C91.1131 69.392 90.9691 68.768 90.9691 67.936C90.9691 67.6907 90.9851 67.3867 91.0171 67.024C91.0598 66.6507 91.1185 66.2187 91.1931 65.728H87.5771C87.5131 66.0907 87.4598 66.4213 87.4171 66.72C87.3851 67.008 87.3691 67.2267 87.3691 67.376C87.3691 67.92 87.4065 68.3787 87.4811 68.752C87.5665 69.1253 87.6891 69.44 87.8491 69.696C87.2091 70.176 86.5478 70.416 85.8651 70.416ZM99.7086 70.4C99.0473 70.4 98.53 70.2827 98.1566 70.048C97.794 69.824 97.538 69.52 97.3886 69.136C97.25 68.7413 97.1806 68.2987 97.1806 67.808C97.1806 67.2427 97.2393 66.6507 97.3566 66.032C97.474 65.4027 97.5913 64.7947 97.7086 64.208C97.826 63.6107 97.8846 63.088 97.8846 62.64C97.8846 61.9787 97.7726 61.4933 97.5486 61.184C97.986 60.9493 98.4393 60.7627 98.9086 60.624C99.3886 60.4747 99.7726 60.4 100.061 60.4C100.498 60.4 100.813 60.4907 101.005 60.672C101.207 60.8427 101.309 61.1307 101.309 61.536C101.309 61.76 101.277 62.0693 101.213 62.464C101.149 62.848 101.069 63.2693 100.973 63.728C100.877 64.1867 100.775 64.6507 100.669 65.12C100.573 65.5787 100.493 65.9947 100.429 66.368C100.365 66.7413 100.333 67.0347 100.333 67.248C100.333 67.6427 100.434 67.9413 100.637 68.144C100.85 68.3467 101.106 68.448 101.405 68.448C101.746 68.448 102.103 68.32 102.477 68.064C102.85 67.808 103.159 67.4347 103.405 66.944C103.447 66.7093 103.501 66.416 103.565 66.064C103.639 65.712 103.719 65.3387 103.805 64.944C103.901 64.5387 103.986 64.1547 104.061 63.792C104.146 63.4187 104.221 63.104 104.285 62.848L103.325 61.568C103.783 61.2373 104.274 60.96 104.797 60.736C105.319 60.512 105.853 60.4 106.397 60.4C106.877 60.4 107.218 60.4907 107.421 60.672C107.634 60.8427 107.741 61.1307 107.741 61.536C107.741 61.76 107.698 62.0693 107.613 62.464C107.538 62.8587 107.442 63.3013 107.325 63.792C107.218 64.272 107.106 64.7733 106.989 65.296C106.871 65.8187 106.77 66.3307 106.685 66.832C106.61 67.3227 106.573 67.7653 106.573 68.16C106.573 68.48 106.61 68.768 106.685 69.024C106.77 69.2693 106.898 69.4667 107.069 69.616C106.471 70.1387 105.837 70.4 105.165 70.4C104.482 70.4 104.007 70.2453 103.741 69.936C103.474 69.6267 103.341 69.2587 103.341 68.832L103.181 68.752C102.829 69.2747 102.338 69.68 101.709 69.968C101.079 70.256 100.413 70.4 99.7086 70.4ZM113.015 70.4C111.821 70.4 110.919 70.128 110.311 69.584C109.714 69.0293 109.415 68.1547 109.415 66.96C109.415 66.6187 109.463 66.1013 109.559 65.408C109.655 64.7147 109.778 63.904 109.927 62.976C110.087 62.048 110.263 61.072 110.455 60.048L109.559 58.768C110.114 58.4373 110.631 58.16 111.111 57.936C111.602 57.712 112.093 57.6 112.583 57.6C113.042 57.6 113.378 57.6907 113.591 57.872C113.805 58.0427 113.911 58.3307 113.911 58.736C113.911 59.0133 113.879 59.376 113.815 59.824C113.751 60.2613 113.671 60.736 113.575 61.248C113.49 61.76 113.394 62.2613 113.287 62.752L113.447 62.832C113.831 62.0747 114.295 61.504 114.839 61.12C115.394 60.736 116.05 60.544 116.807 60.544C117.383 60.544 117.869 60.7147 118.263 61.056C118.658 61.3867 118.957 61.8347 119.159 62.4C119.362 62.9547 119.463 63.568 119.463 64.24C119.463 65.2533 119.266 66.144 118.871 66.912C118.477 67.68 117.954 68.3253 117.303 68.848C116.663 69.36 115.965 69.744 115.207 70C114.461 70.2667 113.73 70.4 113.015 70.4ZM112.583 68.544C113.213 68.544 113.773 68.432 114.263 68.208C114.754 67.9733 115.17 67.664 115.511 67.28C115.863 66.896 116.13 66.4747 116.311 66.016C116.493 65.5467 116.583 65.0773 116.583 64.608C116.583 64.32 116.53 64.0373 116.423 63.76C116.317 63.4827 116.162 63.2533 115.959 63.072C115.767 62.8907 115.543 62.8 115.287 62.8C114.893 62.8 114.546 62.912 114.247 63.136C113.959 63.36 113.714 63.6587 113.511 64.032C113.319 64.3947 113.159 64.8 113.031 65.248C112.914 65.6853 112.818 66.1227 112.743 66.56C112.679 66.9867 112.637 67.376 112.615 67.728C112.594 68.08 112.583 68.352 112.583 68.544ZM126.312 70.416C125.79 70.416 125.422 70.2613 125.208 69.952C124.995 69.632 124.888 69.2107 124.888 68.688C124.888 68.2933 124.963 67.8507 125.112 67.36C125.272 66.8693 125.475 66.3573 125.72 65.824C125.966 65.28 126.227 64.736 126.504 64.192C126.782 63.648 127.048 63.1253 127.304 62.624C127.571 62.1227 127.795 61.6693 127.976 61.264C127.923 60.9973 127.859 60.7147 127.784 60.416C127.71 60.1173 127.64 59.8347 127.576 59.568C128.056 59.2373 128.558 58.96 129.08 58.736C129.603 58.512 130.232 58.4 130.968 58.4C131.246 58.4 131.48 58.4373 131.672 58.512C131.864 58.5867 132.014 58.6827 132.12 58.8C132.398 58.6827 132.67 58.5867 132.936 58.512C133.203 58.4373 133.486 58.4 133.784 58.4C134.19 58.4 134.488 58.5173 134.68 58.752C134.872 58.976 134.995 59.2693 135.048 59.632C135.112 59.984 135.144 60.3573 135.144 60.752C135.144 61.36 135.123 61.9733 135.08 62.592C135.038 63.2107 135.016 63.8667 135.016 64.56C135.016 65.296 135.054 66.0107 135.128 66.704C135.203 67.3973 135.352 68.0107 135.576 68.544C135.8 69.0773 136.131 69.472 136.568 69.728C136.206 69.952 135.854 70.1227 135.512 70.24C135.182 70.3573 134.787 70.416 134.328 70.416C133.806 70.416 133.379 70.272 133.048 69.984C132.718 69.696 132.456 69.3067 132.264 68.816C132.083 68.3253 131.95 67.7813 131.864 67.184H128.6C128.504 67.5147 128.43 67.8187 128.376 68.096C128.323 68.3627 128.296 68.6027 128.296 68.816C128.296 69.1573 128.339 69.44 128.424 69.664C128.03 69.9093 127.662 70.096 127.32 70.224C126.979 70.352 126.643 70.416 126.312 70.416ZM129.272 65.504H131.752C131.752 64.9067 131.758 64.368 131.768 63.888C131.79 63.408 131.811 62.9493 131.832 62.512C131.864 62.064 131.896 61.6 131.928 61.12H131.416C131.054 61.8347 130.68 62.576 130.296 63.344C129.912 64.112 129.571 64.832 129.272 65.504ZM141.889 70.4C140.961 70.4 140.155 70.224 139.473 69.872C138.801 69.5093 138.278 69.0133 137.905 68.384C137.542 67.7547 137.361 67.024 137.361 66.192C137.361 65.328 137.515 64.544 137.825 63.84C138.134 63.1253 138.571 62.512 139.137 62C139.702 61.488 140.358 61.0933 141.105 60.816C141.862 60.5387 142.678 60.4 143.553 60.4C144.502 60.4 145.233 60.5813 145.745 60.944C146.267 61.296 146.529 61.7387 146.529 62.272C146.529 62.784 146.342 63.1733 145.969 63.44C145.606 63.7067 145.19 63.84 144.721 63.84C144.401 63.84 144.065 63.7333 143.713 63.52C143.361 63.3067 143.078 62.976 142.865 62.528C142.395 62.72 141.995 63.0187 141.665 63.424C141.345 63.8187 141.099 64.2613 140.929 64.752C140.769 65.232 140.689 65.7067 140.689 66.176C140.689 66.8053 140.822 67.3493 141.089 67.808C141.355 68.256 141.75 68.48 142.273 68.48C142.635 68.48 142.966 68.3413 143.265 68.064C143.563 67.776 143.713 67.3227 143.713 66.704C144.438 66.704 145.009 66.784 145.425 66.944C145.841 67.104 146.049 67.392 146.049 67.808C146.049 68.192 145.878 68.5867 145.537 68.992C145.195 69.3867 144.715 69.7227 144.097 70C143.478 70.2667 142.742 70.4 141.889 70.4ZM150.476 70.4C149.793 70.4 149.308 70.1973 149.02 69.792C148.732 69.3867 148.588 68.768 148.588 67.936C148.588 67.7013 148.614 67.3707 148.668 66.944C148.721 66.5067 148.79 66.0213 148.876 65.488C148.972 64.9547 149.062 64.4267 149.148 63.904C148.924 63.9467 148.705 63.9947 148.492 64.048C148.289 64.1013 148.097 64.16 147.916 64.224C147.873 64.064 147.841 63.904 147.82 63.744C147.809 63.584 147.804 63.4667 147.804 63.392C147.804 62.8373 147.964 62.4373 148.284 62.192C148.614 61.936 149.009 61.808 149.468 61.808C149.468 61.5627 149.436 61.2907 149.372 60.992C149.308 60.6933 149.196 60.3627 149.036 60C149.484 59.6693 149.932 59.392 150.38 59.168C150.828 58.944 151.324 58.832 151.868 58.832C152.337 58.832 152.662 58.9227 152.844 59.104C153.025 59.2747 153.116 59.5627 153.116 59.968C153.116 60.1707 153.094 60.4107 153.052 60.688C153.009 60.9653 152.956 61.2693 152.892 61.6C153.126 61.568 153.35 61.5307 153.564 61.488C153.777 61.4347 153.985 61.3813 154.188 61.328C154.23 61.4453 154.257 61.568 154.268 61.696C154.289 61.8133 154.3 61.9307 154.3 62.048C154.3 62.4747 154.166 62.848 153.9 63.168C153.644 63.4773 153.244 63.632 152.7 63.632H152.46C152.31 64.3147 152.177 65.0133 152.06 65.728C151.942 66.4427 151.884 67.1093 151.884 67.728C151.884 68.144 151.921 68.5173 151.996 68.848C152.081 69.168 152.209 69.424 152.38 69.616C151.782 70.1387 151.148 70.4 150.476 70.4ZM158.341 59.36C157.85 59.36 157.445 59.2533 157.125 59.04C156.805 58.8267 156.645 58.5387 156.645 58.176C156.645 57.824 156.762 57.536 156.997 57.312C157.232 57.0773 157.514 56.9013 157.845 56.784C158.186 56.6667 158.506 56.608 158.805 56.608C159.296 56.608 159.701 56.7147 160.021 56.928C160.341 57.1307 160.501 57.4187 160.501 57.792C160.501 58.1013 160.4 58.3787 160.197 58.624C159.994 58.8587 159.728 59.04 159.397 59.168C159.077 59.296 158.725 59.36 158.341 59.36ZM157.381 70.4C156.698 70.4 156.213 70.2293 155.925 69.888C155.637 69.5467 155.493 69.056 155.493 68.416C155.493 68.1813 155.525 67.856 155.589 67.44C155.653 67.0133 155.738 66.544 155.845 66.032C155.952 65.5093 156.064 64.9813 156.181 64.448C156.298 63.9147 156.41 63.4133 156.517 62.944L155.621 61.6C156.186 61.2587 156.725 60.976 157.237 60.752C157.749 60.5173 158.261 60.4 158.773 60.4C159.221 60.4 159.53 60.496 159.701 60.688C159.882 60.88 159.973 61.1787 159.973 61.584C159.973 61.744 159.93 62.0053 159.845 62.368C159.77 62.7307 159.674 63.1573 159.557 63.648C159.44 64.1387 159.322 64.656 159.205 65.2C159.088 65.7333 158.986 66.2613 158.901 66.784C158.826 67.296 158.789 67.7547 158.789 68.16C158.789 68.48 158.826 68.768 158.901 69.024C158.986 69.2693 159.114 69.4667 159.285 69.616C158.688 70.1387 158.053 70.4 157.381 70.4ZM165.904 70.4C164.966 70.4 164.155 70.224 163.472 69.872C162.8 69.5093 162.283 69.0133 161.92 68.384C161.558 67.7547 161.376 67.024 161.376 66.192C161.376 65.04 161.627 64.032 162.128 63.168C162.64 62.2933 163.339 61.616 164.224 61.136C165.11 60.6453 166.118 60.4 167.248 60.4C167.43 60.4 167.611 60.4107 167.792 60.432C167.984 60.4427 168.187 60.4747 168.4 60.528C168.454 60.6773 168.496 60.8587 168.528 61.072C168.56 61.2747 168.582 61.4933 168.592 61.728C168.688 61.696 168.79 61.6693 168.896 61.648C169.014 61.6267 169.136 61.616 169.264 61.616C169.638 61.616 169.99 61.7173 170.32 61.92C170.651 62.112 170.923 62.416 171.136 62.832C171.35 63.248 171.456 63.776 171.456 64.416C171.456 65.3653 171.296 66.2133 170.976 66.96C170.667 67.696 170.246 68.32 169.712 68.832C169.179 69.344 168.582 69.7333 167.92 70C167.27 70.2667 166.598 70.4 165.904 70.4ZM166.4 68.432C166.646 68.432 166.902 68.3733 167.168 68.256C167.435 68.1387 167.696 67.9253 167.952 67.616C168.208 67.3067 168.422 66.8693 168.592 66.304C168.134 66.016 167.803 65.664 167.6 65.248C167.398 64.8213 167.296 64.352 167.296 63.84C167.296 63.6907 167.323 63.4987 167.376 63.264C167.43 63.0293 167.52 62.7893 167.648 62.544C167.787 62.2987 167.974 62.096 168.208 61.936C167.472 62.0853 166.87 62.3093 166.4 62.608C165.931 62.9067 165.563 63.2533 165.296 63.648C165.04 64.032 164.859 64.432 164.752 64.848C164.656 65.2533 164.608 65.6427 164.608 66.016C164.608 66.4427 164.678 66.8427 164.816 67.216C164.955 67.5787 165.158 67.872 165.424 68.096C165.691 68.32 166.016 68.432 166.4 68.432ZM174.846 70.4C174.174 70.4 173.694 70.2293 173.406 69.888C173.118 69.5467 172.974 69.056 172.974 68.416C172.974 68.192 173.006 67.8507 173.07 67.392C173.134 66.9227 173.214 66.4053 173.31 65.84C173.416 65.264 173.528 64.688 173.646 64.112C173.763 63.536 173.875 63.024 173.982 62.576L173.15 61.296C173.587 61.0507 174.056 60.8427 174.558 60.672C175.07 60.4907 175.587 60.4 176.11 60.4C176.558 60.4 176.888 60.512 177.102 60.736C177.315 60.9493 177.422 61.2427 177.422 61.616C177.422 61.8933 177.384 62.1813 177.31 62.48C177.235 62.7787 177.15 63.0347 177.054 63.248L177.214 63.328C177.843 62.2507 178.531 61.4933 179.278 61.056C180.024 60.6187 180.787 60.4 181.566 60.4C182.216 60.4 182.702 60.56 183.022 60.88C183.342 61.1893 183.502 61.6747 183.502 62.336C183.502 62.912 183.422 63.5253 183.262 64.176C183.112 64.816 182.958 65.4773 182.798 66.16C182.638 66.832 182.558 67.4987 182.558 68.16C182.558 68.8213 182.67 69.3067 182.894 69.616C182.328 70.1387 181.742 70.4 181.134 70.4C180.462 70.4 179.982 70.2293 179.694 69.888C179.406 69.5467 179.262 69.056 179.262 68.416C179.262 68.064 179.31 67.6747 179.406 67.248C179.502 66.8107 179.614 66.368 179.742 65.92C179.87 65.472 179.982 65.0507 180.078 64.656C180.174 64.2613 180.222 63.92 180.222 63.632C180.222 63.408 180.179 63.232 180.094 63.104C180.019 62.976 179.88 62.912 179.678 62.912C179.39 62.912 179.054 63.04 178.67 63.296C178.286 63.552 177.907 63.9147 177.534 64.384C177.171 64.8427 176.867 65.392 176.622 66.032C176.387 66.672 176.27 67.3813 176.27 68.16C176.27 68.8213 176.382 69.3067 176.606 69.616C176.04 70.1387 175.454 70.4 174.846 70.4ZM188.907 70.4C187.904 70.4 187.104 70.32 186.507 70.16C185.92 70.0107 185.499 69.8027 185.243 69.536C184.987 69.2693 184.859 68.976 184.859 68.656C184.859 68.4107 184.923 68.128 185.051 67.808C185.189 67.488 185.387 67.184 185.643 66.896C185.824 67.1413 186.064 67.3707 186.363 67.584C186.672 67.7867 187.008 67.952 187.371 68.08C187.733 68.1973 188.085 68.256 188.427 68.256C188.8 68.256 189.136 68.1707 189.435 68C189.733 67.8187 189.931 67.5147 190.027 67.088C188.384 66.896 187.205 66.5333 186.491 66C185.776 65.456 185.419 64.704 185.419 63.744C185.419 63.136 185.563 62.6187 185.851 62.192C186.139 61.7653 186.523 61.424 187.003 61.168C187.493 60.9013 188.048 60.7093 188.667 60.592C189.296 60.464 189.947 60.4 190.619 60.4C191.248 60.4 191.808 60.4853 192.299 60.656C192.789 60.816 193.173 61.0347 193.451 61.312C193.728 61.5893 193.867 61.9093 193.867 62.272C193.867 62.784 193.68 63.1733 193.307 63.44C192.944 63.7067 192.528 63.84 192.059 63.84C191.739 63.84 191.403 63.7333 191.051 63.52C190.699 63.3067 190.416 62.976 190.203 62.528C189.808 62.6453 189.493 62.816 189.259 63.04C189.024 63.2533 188.816 63.5627 188.635 63.968C189.851 64.1493 190.816 64.3787 191.531 64.656C192.245 64.9333 192.757 65.2853 193.067 65.712C193.387 66.128 193.547 66.6453 193.547 67.264C193.547 67.7547 193.435 68.1813 193.211 68.544C192.997 68.9067 192.715 69.2053 192.363 69.44C192.011 69.6747 191.627 69.8613 191.211 70C190.795 70.1493 190.384 70.2507 189.979 70.304C189.573 70.368 189.216 70.4 188.907 70.4ZM9.30106 91.4C8.8104 91.4 8.39973 91.24 8.06906 90.92C7.74906 90.5893 7.58906 90.1893 7.58906 89.72C7.58906 89.3573 7.67973 89.0267 7.86106 88.728C8.0424 88.4187 8.2824 88.168 8.58106 87.976C8.8904 87.784 9.23173 87.688 9.60506 87.688C10.0957 87.688 10.5011 87.8533 10.8211 88.184C11.1517 88.504 11.3171 88.8987 11.3171 89.368C11.3171 89.72 11.2264 90.0507 11.0451 90.36C10.8637 90.6693 10.6184 90.92 10.3091 91.112C10.0104 91.304 9.6744 91.4 9.30106 91.4ZM10.0531 85.752C9.5624 85.752 9.15173 85.592 8.82106 85.272C8.50106 84.9413 8.34106 84.5413 8.34106 84.072C8.34106 83.7093 8.43173 83.3787 8.61306 83.08C8.7944 82.7707 9.0344 82.52 9.33306 82.328C9.6424 82.136 9.98373 82.04 10.3571 82.04C10.8477 82.04 11.2531 82.2053 11.5731 82.536C11.9037 82.856 12.0691 83.2507 12.0691 83.72C12.0691 84.072 11.9784 84.4027 11.7971 84.712C11.6157 85.0213 11.3704 85.272 11.0611 85.464C10.7624 85.656 10.4264 85.752 10.0531 85.752ZM19.2821 79.176H28.4501V80.264H19.2821V79.176ZM17.7141 89.176H30.7861V90.28H17.7141V89.176ZM27.9061 79.176H29.2021V80.552C29.2021 81.1387 29.1914 81.7627 29.1701 82.424C29.1594 83.0853 29.1114 83.8107 29.0261 84.6C28.9514 85.3787 28.8127 86.264 28.6101 87.256L27.2981 87.112C27.5967 85.704 27.7727 84.472 27.8261 83.416C27.8794 82.36 27.9061 81.4053 27.9061 80.552V79.176ZM28.2101 82.648V83.656L19.0741 84.184L18.8661 83.032L28.2101 82.648ZM22.8021 85.432H24.1141V89.576H22.8021V85.432ZM34.0968 84.712H44.0328V85.8H34.0968V84.712ZM32.4328 89.176H45.5528V90.28H32.4328V89.176ZM34.0968 79.112H43.8888V80.2H35.4088V85.192H34.0968V79.112ZM62.4924 77.768H63.8044V92.264H62.4924V77.768ZM52.7804 87.656H53.9804C54.8018 87.656 55.5911 87.6453 56.3484 87.624C57.1164 87.592 57.8898 87.5387 58.6684 87.464C59.4578 87.3893 60.2791 87.2827 61.1324 87.144L61.2604 88.232C59.9591 88.4453 58.7324 88.5893 57.5804 88.664C56.4284 88.728 55.2284 88.76 53.9804 88.76H52.7804V87.656ZM52.7484 79.112H59.4364V84.28H54.1244V88.072H52.7804V83.208H58.0924V80.2H52.7484V79.112ZM69.9472 86.408H71.2912V92.248H69.9472V86.408ZM75.1312 86.408H76.4592V92.248H75.1312V86.408ZM66.6512 86.216H79.7712V87.304H66.6512V86.216ZM68.3152 78.344H69.6272V80.28H76.7792V78.344H78.1072V84.52H68.3152V78.344ZM69.6272 81.352V83.432H76.7792V81.352H69.6272ZM85.0499 85.08H86.3779V88.52H85.0499V85.08ZM85.7059 78.712C86.4419 78.712 87.0979 78.856 87.6739 79.144C88.2499 79.4213 88.7033 79.816 89.0339 80.328C89.3646 80.84 89.5299 81.4373 89.5299 82.12C89.5299 82.7813 89.3646 83.3733 89.0339 83.896C88.7033 84.408 88.2499 84.808 87.6739 85.096C87.0979 85.3733 86.4419 85.512 85.7059 85.512C84.9593 85.512 84.2979 85.3733 83.7219 85.096C83.1459 84.808 82.6926 84.408 82.3619 83.896C82.0313 83.3733 81.8659 82.7813 81.8659 82.12C81.8659 81.4373 82.0313 80.84 82.3619 80.328C82.6926 79.816 83.1459 79.4213 83.7219 79.144C84.2979 78.856 84.9593 78.712 85.7059 78.712ZM85.7059 79.848C85.2153 79.848 84.7779 79.944 84.3939 80.136C84.0099 80.3173 83.7059 80.5787 83.4819 80.92C83.2686 81.2613 83.1619 81.6613 83.1619 82.12C83.1619 82.568 83.2686 82.9627 83.4819 83.304C83.7059 83.6453 84.0099 83.912 84.3939 84.104C84.7779 84.296 85.2153 84.392 85.7059 84.392C86.1966 84.392 86.6286 84.296 87.0019 84.104C87.3859 83.912 87.6846 83.6453 87.8979 83.304C88.1219 82.9627 88.2339 82.568 88.2339 82.12C88.2339 81.6613 88.1219 81.2613 87.8979 80.92C87.6846 80.5787 87.3859 80.3173 87.0019 80.136C86.6286 79.944 86.1966 79.848 85.7059 79.848ZM91.1779 77.768H92.4899V92.248H91.1779V77.768ZM92.1219 83.736H94.7939V84.856H92.1219V83.736ZM81.4179 89.112L81.2099 88.008C82.0846 87.9973 83.0339 87.9867 84.0579 87.976C85.0926 87.9653 86.1379 87.928 87.1939 87.864C88.2606 87.8 89.2846 87.704 90.2659 87.576L90.3619 88.568C89.3486 88.7387 88.3139 88.8667 87.2579 88.952C86.2019 89.0267 85.1726 89.0747 84.1699 89.096C83.1779 89.1067 82.2606 89.112 81.4179 89.112ZM106.918 83.256H109.638V84.344H106.918V83.256ZM101.446 87.688H102.358C103.104 87.688 103.766 87.6773 104.342 87.656C104.918 87.6347 105.456 87.5973 105.958 87.544C106.47 87.4907 106.987 87.4107 107.51 87.304L107.638 88.392C107.094 88.4987 106.56 88.5787 106.038 88.632C105.515 88.6853 104.96 88.7227 104.374 88.744C103.787 88.7653 103.115 88.776 102.358 88.776H101.446V87.688ZM101.446 79.512H106.806V80.584H102.71V88.056H101.446V79.512ZM102.326 83.432H106.134V84.472H102.326V83.432ZM111.91 77.768H113.19V92.248H111.91V77.768ZM108.998 78.104H110.246V91.496H108.998V78.104ZM121.412 78.76H122.58V79.88C122.58 80.5093 122.468 81.1067 122.244 81.672C122.031 82.2373 121.732 82.7653 121.348 83.256C120.975 83.736 120.538 84.168 120.036 84.552C119.546 84.936 119.018 85.2613 118.452 85.528C117.898 85.7947 117.332 85.9973 116.756 86.136L116.164 85.032C116.666 84.9253 117.167 84.76 117.668 84.536C118.18 84.312 118.66 84.04 119.108 83.72C119.556 83.3893 119.951 83.0213 120.292 82.616C120.644 82.2107 120.916 81.7787 121.108 81.32C121.311 80.8507 121.412 80.3707 121.412 79.88V78.76ZM121.668 78.76H122.804V79.88C122.804 80.3707 122.906 80.8507 123.108 81.32C123.311 81.7787 123.583 82.2107 123.924 82.616C124.276 83.0213 124.676 83.3893 125.124 83.72C125.572 84.04 126.047 84.3173 126.548 84.552C127.06 84.776 127.572 84.936 128.084 85.032L127.476 86.136C126.9 85.9973 126.335 85.7947 125.78 85.528C125.226 85.2613 124.698 84.936 124.196 84.552C123.706 84.168 123.268 83.736 122.884 83.256C122.5 82.7653 122.202 82.2373 121.988 81.672C121.775 81.1067 121.668 80.5093 121.668 79.88V78.76ZM115.62 89.192H128.74V90.296H115.62V89.192ZM132.019 85.576H141.955V86.648H132.019V85.576ZM130.339 89.272H143.459V90.376H130.339V89.272ZM132.019 79.016H141.811V80.104H133.363V85.896H132.019V79.016ZM132.947 82.232H141.491V83.304H132.947V82.232ZM153.423 79.848H154.495V82.184C154.495 82.9413 154.388 83.6933 154.175 84.44C153.961 85.176 153.663 85.8747 153.279 86.536C152.905 87.1867 152.473 87.768 151.983 88.28C151.492 88.7813 150.964 89.176 150.399 89.464L149.615 88.408C150.137 88.152 150.623 87.8053 151.071 87.368C151.529 86.92 151.935 86.4133 152.287 85.848C152.639 85.272 152.916 84.6747 153.119 84.056C153.321 83.4267 153.423 82.8027 153.423 82.184V79.848ZM153.679 79.848H154.735V82.184C154.735 82.76 154.825 83.3413 155.007 83.928C155.199 84.5147 155.465 85.0747 155.807 85.608C156.148 86.1413 156.543 86.6213 156.991 87.048C157.449 87.464 157.935 87.8 158.447 88.056L157.695 89.112C157.129 88.824 156.601 88.44 156.111 87.96C155.62 87.4693 155.193 86.9147 154.831 86.296C154.468 85.6773 154.185 85.016 153.983 84.312C153.78 83.608 153.679 82.8987 153.679 82.184V79.848ZM150.127 79.256H157.935V80.36H150.127V79.256ZM159.647 77.768H160.975V92.248H159.647V77.768ZM160.671 83.608H163.343V84.728H160.671V83.608ZM164.573 84.904H177.661V85.976H164.573V84.904ZM170.461 82.584H171.757V85.352H170.461V82.584ZM166.221 82.168H176.125V83.24H166.221V82.168ZM166.221 78.44H176.029V79.496H167.533V82.808H166.221V78.44ZM171.101 87.016C172.648 87.016 173.859 87.2453 174.733 87.704C175.608 88.152 176.045 88.792 176.045 89.624C176.045 90.456 175.608 91.096 174.733 91.544C173.859 92.0027 172.648 92.232 171.101 92.232C169.555 92.232 168.339 92.0027 167.453 91.544C166.579 91.096 166.141 90.456 166.141 89.624C166.141 88.792 166.579 88.152 167.453 87.704C168.339 87.2453 169.555 87.016 171.101 87.016ZM171.085 88.056C170.339 88.056 169.693 88.12 169.149 88.248C168.616 88.3653 168.205 88.5413 167.917 88.776C167.629 89 167.485 89.2827 167.485 89.624C167.485 89.9547 167.629 90.2373 167.917 90.472C168.205 90.7067 168.616 90.8827 169.149 91C169.693 91.128 170.339 91.192 171.085 91.192C171.853 91.192 172.504 91.128 173.037 91C173.581 90.8827 173.997 90.7067 174.285 90.472C174.573 90.2373 174.717 89.9547 174.717 89.624C174.717 89.2827 174.573 89 174.285 88.776C173.997 88.5413 173.581 88.3653 173.037 88.248C172.504 88.12 171.853 88.056 171.085 88.056ZM183.036 86.392H184.364V88.744H183.036V86.392ZM189.116 77.768H190.444V92.248H189.116V77.768ZM190.028 83.912H192.7V85.032H190.028V83.912ZM179.324 89.496L179.116 88.376C179.991 88.376 180.94 88.3707 181.964 88.36C182.999 88.3387 184.055 88.296 185.132 88.232C186.21 88.168 187.25 88.0667 188.252 87.928L188.348 88.904C187.314 89.0853 186.258 89.2187 185.18 89.304C184.114 89.3893 183.079 89.4427 182.076 89.464C181.084 89.4853 180.167 89.496 179.324 89.496ZM179.372 79.528H188.012V80.6H179.372V79.528ZM183.708 81.432C184.38 81.432 184.972 81.544 185.484 81.768C185.996 81.992 186.396 82.3067 186.684 82.712C186.972 83.1067 187.116 83.576 187.116 84.12C187.116 84.6533 186.972 85.1227 186.684 85.528C186.396 85.9333 185.996 86.248 185.484 86.472C184.972 86.6853 184.38 86.792 183.708 86.792C183.036 86.792 182.439 86.6853 181.916 86.472C181.404 86.248 181.004 85.9333 180.716 85.528C180.439 85.1227 180.3 84.6533 180.3 84.12C180.3 83.576 180.439 83.1067 180.716 82.712C181.004 82.3067 181.404 81.992 181.916 81.768C182.439 81.544 183.036 81.432 183.708 81.432ZM183.708 82.472C183.058 82.472 182.535 82.6213 182.14 82.92C181.746 83.2187 181.548 83.6187 181.548 84.12C181.548 84.6107 181.746 85.0053 182.14 85.304C182.535 85.6027 183.058 85.752 183.708 85.752C184.348 85.752 184.866 85.6027 185.26 85.304C185.655 85.0053 185.852 84.6107 185.852 84.12C185.852 83.6187 185.655 83.2187 185.26 82.92C184.866 82.6213 184.348 82.472 183.708 82.472ZM183.036 77.8H184.364V80.232H183.036V77.8Z" fill="white"/>
</svg>
