<svg width="100%" height="100%" viewBox="0 0 200 150" fill="none" xmlns="http://www.w3.org/2000/svg">
<rect width="100%" height="100%" fill="#264DB1"/>
<path d="M20.2851 81.416C19.5705 81.416 19.0638 81.2133 18.7651 80.808C18.4771 80.392 18.3331 79.768 18.3331 78.936C18.3331 78.4027 18.4185 77.6027 18.5891 76.536C18.7705 75.4587 19.0211 74.0347 19.3411 72.264L18.4931 70.552C18.9945 70.232 19.5278 69.96 20.0931 69.736C20.6585 69.512 21.2238 69.4 21.7891 69.4C22.5571 69.4 23.1598 69.5173 23.5971 69.752C24.0345 69.9867 24.3598 70.3173 24.5731 70.744C24.7971 71.1707 24.9625 71.672 25.0691 72.248C25.1865 72.824 25.2931 73.4533 25.3891 74.136C25.4851 74.808 25.6291 75.512 25.8211 76.248C26.0131 76.984 26.3065 77.7307 26.7011 78.488L27.0851 78.232C26.7865 77.6453 26.5358 76.9627 26.3331 76.184C26.1411 75.4053 26.0451 74.6267 26.0451 73.848C26.0451 73.0693 26.1731 72.344 26.4291 71.672C26.6958 71 27.0905 70.456 27.6131 70.04C28.1358 69.6133 28.7865 69.4 29.5651 69.4C29.8105 69.4 30.0665 69.4267 30.3331 69.48C30.6105 69.5227 30.8505 69.5973 31.0531 69.704C30.9571 70.28 30.8451 70.9147 30.7171 71.608C30.5891 72.2907 30.4558 72.984 30.3171 73.688C30.1891 74.392 30.0665 75.0587 29.9491 75.688C29.8425 76.3173 29.7518 76.8667 29.6771 77.336C29.6131 77.7947 29.5811 78.12 29.5811 78.312C29.5811 78.8667 29.6238 79.3253 29.7091 79.688C29.7945 80.04 29.9225 80.3387 30.0931 80.584C29.7838 80.7867 29.4958 80.9467 29.2291 81.064C28.9625 81.1813 28.6745 81.2667 28.3651 81.32C28.0665 81.3733 27.7145 81.4 27.3091 81.4C26.4771 81.4 25.7785 81.2027 25.2131 80.808C24.6585 80.4133 24.2105 79.8693 23.8691 79.176C23.5278 78.4827 23.2718 77.688 23.1011 76.792C22.9411 75.896 22.8345 74.9467 22.7811 73.944H22.5251C22.3971 74.5413 22.2745 75.1387 22.1571 75.736C22.0505 76.3333 21.9598 76.8667 21.8851 77.336C21.8211 77.8053 21.7891 78.152 21.7891 78.376C21.7891 78.92 21.8265 79.3787 21.9011 79.752C21.9865 80.1253 22.1091 80.44 22.2691 80.696C21.6291 81.176 20.9678 81.416 20.2851 81.416ZM36.671 81.4C35.679 81.4 34.8417 81.224 34.159 80.872C33.4763 80.52 32.959 80.0293 32.607 79.4C32.2657 78.76 32.095 78.024 32.095 77.192C32.095 76.328 32.2497 75.544 32.559 74.84C32.879 74.1253 33.3217 73.512 33.887 73C34.4523 72.488 35.1083 72.0933 35.855 71.816C36.6123 71.5387 37.4283 71.4 38.303 71.4C39.3377 71.4 40.1003 71.6293 40.591 72.088C41.0817 72.5467 41.327 73.1227 41.327 73.816C41.327 74.4133 41.1297 74.9787 40.735 75.512C40.351 76.0347 39.727 76.4613 38.863 76.792C37.999 77.112 36.847 77.2773 35.407 77.288C35.439 77.9707 35.5937 78.5093 35.871 78.904C36.159 79.288 36.5163 79.48 36.943 79.48C37.1563 79.48 37.3803 79.432 37.615 79.336C37.8497 79.2293 38.047 79.048 38.207 78.792C38.367 78.5253 38.447 78.1627 38.447 77.704C39.1723 77.704 39.743 77.784 40.159 77.944C40.575 78.104 40.783 78.392 40.783 78.808C40.783 79.192 40.6177 79.5867 40.287 79.992C39.9563 80.3867 39.4817 80.7227 38.863 81C38.255 81.2667 37.5243 81.4 36.671 81.4ZM35.551 76.008C36.3297 75.944 36.9537 75.8 37.423 75.576C37.8923 75.352 38.2337 75.096 38.447 74.808C38.6603 74.52 38.767 74.2533 38.767 74.008C38.767 73.7947 38.703 73.6187 38.575 73.48C38.447 73.3413 38.2657 73.272 38.031 73.272C37.647 73.272 37.2897 73.4053 36.959 73.672C36.6283 73.9387 36.3403 74.2853 36.095 74.712C35.8603 75.128 35.679 75.56 35.551 76.008ZM43.4426 81.4C42.9946 81.4 42.6373 81.2613 42.3706 80.984C42.104 80.696 41.9706 80.3227 41.9706 79.864C41.9706 79.48 42.0613 79.1227 42.2426 78.792C42.4346 78.4507 42.68 78.136 42.9786 77.848C43.288 77.5493 43.6186 77.288 43.9706 77.064C44.3226 76.8293 44.664 76.632 44.9946 76.472L45.4586 76.248L44.4986 74.488C44.328 74.1787 44.0986 73.8853 43.8106 73.608C43.5333 73.32 43.144 73.0907 42.6426 72.92C43.304 71.9067 44.168 71.4 45.2346 71.4C45.7146 71.4 46.12 71.5333 46.4506 71.8C46.7813 72.056 47.1386 72.536 47.5226 73.24L48.2266 74.536C48.5146 74.2587 48.744 73.9867 48.9146 73.72C49.096 73.4533 49.1866 73.1547 49.1866 72.824C49.1866 72.6747 49.176 72.5413 49.1546 72.424C49.1333 72.3067 49.1013 72.1947 49.0586 72.088C49.816 71.6293 50.5306 71.4 51.2026 71.4C51.6506 71.4 52.008 71.544 52.2746 71.832C52.5413 72.1093 52.6746 72.4773 52.6746 72.936C52.6746 73.32 52.5786 73.6827 52.3866 74.024C52.2053 74.3547 51.96 74.6693 51.6506 74.968C51.352 75.256 51.0266 75.5173 50.6746 75.752C50.3226 75.976 49.9813 76.168 49.6506 76.328L49.2986 76.504L50.3066 78.328C50.4666 78.6267 50.68 78.92 50.9466 79.208C51.224 79.496 51.6293 79.7253 52.1626 79.896C51.4906 80.8987 50.6213 81.4 49.5546 81.4C49.2346 81.4 48.952 81.3467 48.7066 81.24C48.4613 81.1333 48.2266 80.9467 48.0026 80.68C47.7786 80.4133 47.5386 80.0453 47.2826 79.576L46.5146 78.168C46.2053 78.456 45.9493 78.744 45.7466 79.032C45.5546 79.32 45.4586 79.6347 45.4586 79.976C45.4586 80.1253 45.4693 80.2587 45.4906 80.376C45.512 80.4933 45.544 80.6053 45.5866 80.712C44.8293 81.1707 44.1146 81.4 43.4426 81.4ZM56.5539 81.4C55.8712 81.4 55.3859 81.1973 55.0979 80.792C54.8099 80.3867 54.6659 79.768 54.6659 78.936C54.6659 78.7013 54.6925 78.3707 54.7459 77.944C54.7992 77.5067 54.8685 77.0213 54.9539 76.488C55.0499 75.9547 55.1405 75.4267 55.2259 74.904C55.0019 74.9467 54.7832 74.9947 54.5699 75.048C54.3672 75.1013 54.1752 75.16 53.9939 75.224C53.9512 75.064 53.9192 74.904 53.8979 74.744C53.8872 74.584 53.8819 74.4667 53.8819 74.392C53.8819 73.8373 54.0419 73.4373 54.3619 73.192C54.6925 72.936 55.0872 72.808 55.5459 72.808C55.5459 72.5627 55.5139 72.2907 55.4499 71.992C55.3859 71.6933 55.2739 71.3627 55.1139 71C55.5619 70.6693 56.0099 70.392 56.4579 70.168C56.9059 69.944 57.4019 69.832 57.9459 69.832C58.4152 69.832 58.7405 69.9227 58.9219 70.104C59.1032 70.2747 59.1939 70.5627 59.1939 70.968C59.1939 71.1707 59.1725 71.4107 59.1299 71.688C59.0872 71.9653 59.0339 72.2693 58.9699 72.6C59.2045 72.568 59.4285 72.5307 59.6419 72.488C59.8552 72.4347 60.0632 72.3813 60.2659 72.328C60.3085 72.4453 60.3352 72.568 60.3459 72.696C60.3672 72.8133 60.3779 72.9307 60.3779 73.048C60.3779 73.4747 60.2445 73.848 59.9779 74.168C59.7219 74.4773 59.3219 74.632 58.7779 74.632H58.5379C58.3885 75.3147 58.2552 76.0133 58.1379 76.728C58.0205 77.4427 57.9619 78.1093 57.9619 78.728C57.9619 79.144 57.9992 79.5173 58.0739 79.848C58.1592 80.168 58.2872 80.424 58.4579 80.616C57.8605 81.1387 57.2259 81.4 56.5539 81.4ZM68.2401 81.416C67.5255 81.416 67.0188 81.2133 66.7201 80.808C66.4321 80.392 66.2881 79.768 66.2881 78.936C66.2881 78.4027 66.3735 77.6027 66.5441 76.536C66.7255 75.4587 66.9761 74.0347 67.2961 72.264L66.4481 70.552C66.9495 70.232 67.4828 69.96 68.0481 69.736C68.6135 69.5013 69.1788 69.384 69.7441 69.384C70.2561 69.384 70.7041 69.464 71.0881 69.624C71.4828 69.7733 71.8241 70.0667 72.1121 70.504C72.4001 70.9307 72.6401 71.56 72.8321 72.392C73.0348 73.2133 73.2001 74.296 73.3281 75.64H73.5201C73.7761 74.904 74.0961 74.168 74.4801 73.432C74.8641 72.696 75.3228 72.024 75.8561 71.416C76.3895 70.808 77.0081 70.3227 77.7121 69.96C78.4268 69.5867 79.2375 69.4 80.1441 69.4C80.6455 69.4 80.9761 69.5493 81.1361 69.848C81.2961 70.136 81.3761 70.4827 81.3761 70.888C81.3761 71.0587 81.3441 71.336 81.2801 71.72C81.2268 72.0933 81.1521 72.5307 81.0561 73.032C80.9601 73.5227 80.8588 74.04 80.7521 74.584C80.6561 75.1173 80.5601 75.64 80.4641 76.152C80.3681 76.6533 80.2881 77.1013 80.2241 77.496C80.1708 77.88 80.1441 78.1733 80.1441 78.376C80.1441 78.92 80.1815 79.3787 80.2561 79.752C80.3415 80.1253 80.4641 80.44 80.6241 80.696C79.9841 81.176 79.3228 81.416 78.6401 81.416C77.9255 81.416 77.4188 81.2133 77.1201 80.808C76.8321 80.392 76.6881 79.768 76.6881 78.936C76.6881 78.4773 76.7521 77.8213 76.8801 76.968C77.0188 76.1147 77.2055 75.016 77.4401 73.672H77.1841C76.7255 74.28 76.3255 74.9627 75.9841 75.72C75.6428 76.4667 75.3708 77.2133 75.1681 77.96C74.9761 78.696 74.8481 79.352 74.7841 79.928C74.5175 80.1733 74.2241 80.36 73.9041 80.488C73.5948 80.6053 73.2855 80.664 72.9761 80.664C72.7201 80.664 72.4801 80.568 72.2561 80.376C72.0321 80.1733 71.8241 79.8213 71.6321 79.32C71.4401 78.8187 71.2695 78.1147 71.1201 77.208C70.9815 76.2907 70.8695 75.112 70.7841 73.672H70.5281C70.3895 74.28 70.2615 74.904 70.1441 75.544C70.0268 76.1733 69.9308 76.744 69.8561 77.256C69.7815 77.768 69.7441 78.1413 69.7441 78.376C69.7441 78.92 69.7815 79.3787 69.8561 79.752C69.9415 80.1253 70.0641 80.44 70.2241 80.696C69.5841 81.176 68.9228 81.416 68.2401 81.416ZM85.7943 70.36C85.3036 70.36 84.8983 70.2533 84.5783 70.04C84.2583 69.8267 84.0983 69.5387 84.0983 69.176C84.0983 68.824 84.2156 68.536 84.4503 68.312C84.6849 68.0773 84.9676 67.9013 85.2983 67.784C85.6396 67.6667 85.9596 67.608 86.2583 67.608C86.7489 67.608 87.1543 67.7147 87.4743 67.928C87.7943 68.1307 87.9543 68.4187 87.9543 68.792C87.9543 69.1013 87.8529 69.3787 87.6503 69.624C87.4476 69.8587 87.1809 70.04 86.8503 70.168C86.5303 70.296 86.1783 70.36 85.7943 70.36ZM84.8343 81.4C84.1516 81.4 83.6663 81.2293 83.3783 80.888C83.0903 80.5467 82.9463 80.056 82.9463 79.416C82.9463 79.1813 82.9783 78.856 83.0423 78.44C83.1063 78.0133 83.1916 77.544 83.2983 77.032C83.4049 76.5093 83.5169 75.9813 83.6343 75.448C83.7516 74.9147 83.8636 74.4133 83.9703 73.944L83.0743 72.6C83.6396 72.2587 84.1783 71.976 84.6903 71.752C85.2023 71.5173 85.7143 71.4 86.2263 71.4C86.6743 71.4 86.9836 71.496 87.1543 71.688C87.3356 71.88 87.4263 72.1787 87.4263 72.584C87.4263 72.744 87.3836 73.0053 87.2983 73.368C87.2236 73.7307 87.1276 74.1573 87.0103 74.648C86.8929 75.1387 86.7756 75.656 86.6583 76.2C86.5409 76.7333 86.4396 77.2613 86.3543 77.784C86.2796 78.296 86.2423 78.7547 86.2423 79.16C86.2423 79.48 86.2796 79.768 86.3543 80.024C86.4396 80.2693 86.5676 80.4667 86.7383 80.616C86.1409 81.1387 85.5063 81.4 84.8343 81.4ZM91.7894 84.76C91.2987 84.76 90.8507 84.6907 90.4454 84.552C90.04 84.4133 89.7147 84.2107 89.4694 83.944C89.2347 83.6773 89.1174 83.3573 89.1174 82.984C89.1174 82.7493 89.1654 82.4933 89.2614 82.216C89.368 81.9387 89.5387 81.6453 89.7734 81.336C90.0187 81.688 90.3174 81.9547 90.6694 82.136C91.032 82.328 91.4694 82.424 91.9814 82.424C92.3654 82.424 92.7547 82.312 93.1494 82.088C93.544 81.864 93.896 81.512 94.2054 81.032C94.5147 80.5627 94.7334 79.9493 94.8614 79.192L94.7014 79.112C94.3067 79.6987 93.848 80.1253 93.3254 80.392C92.8027 80.648 92.2907 80.776 91.7894 80.776C91.192 80.776 90.6747 80.616 90.2374 80.296C89.8107 79.976 89.48 79.5333 89.2454 78.968C89.0214 78.392 88.9094 77.7253 88.9094 76.968C88.9094 76.3387 89.0267 75.6987 89.2614 75.048C89.496 74.3867 89.8587 73.784 90.3494 73.24C90.84 72.6853 91.464 72.2427 92.2214 71.912C92.9894 71.5707 93.9067 71.4 94.9734 71.4C95.1867 71.4 95.3894 71.4107 95.5814 71.432C95.784 71.4427 96.0027 71.4747 96.2374 71.528C96.2587 71.6347 96.28 71.7573 96.3014 71.896C96.3227 72.024 96.3387 72.1627 96.3494 72.312C96.6054 72.1307 96.8614 72.0027 97.1174 71.928C97.384 71.8427 97.6347 71.8 97.8694 71.8C98.264 71.8 98.5467 71.9013 98.7174 72.104C98.888 72.296 98.9734 72.5947 98.9734 73C98.9734 73.6613 98.9254 74.408 98.8294 75.24C98.7334 76.072 98.5787 76.9307 98.3654 77.816C98.152 78.7013 97.864 79.5547 97.5014 80.376C97.1494 81.1973 96.7067 81.9387 96.1734 82.6C95.6507 83.2613 95.0267 83.784 94.3014 84.168C93.576 84.5627 92.7387 84.76 91.7894 84.76ZM93.5174 78.344C93.784 78.344 94.0614 78.2747 94.3494 78.136C94.6374 77.9973 94.904 77.7787 95.1494 77.48C95.2774 76.7867 95.4 76.0453 95.5174 75.256C95.6347 74.4667 95.7467 73.7093 95.8534 72.984C95.032 72.984 94.328 73.1493 93.7414 73.48C93.1547 73.8107 92.7067 74.248 92.3974 74.792C92.088 75.3253 91.9334 75.9013 91.9334 76.52C91.9334 77.0747 92.088 77.5173 92.3974 77.848C92.7174 78.1787 93.0907 78.344 93.5174 78.344ZM102.454 81.4C101.803 81.4 101.339 81.2293 101.062 80.888C100.784 80.5467 100.646 80.056 100.646 79.416C100.646 79.192 100.678 78.8507 100.742 78.392C100.806 77.9227 100.886 77.4053 100.982 76.84C101.088 76.264 101.2 75.688 101.318 75.112C101.435 74.536 101.547 74.024 101.654 73.576L100.822 72.296C101.376 72.0507 101.888 71.8427 102.358 71.672C102.838 71.4907 103.264 71.4 103.638 71.4C103.915 71.4 104.118 71.496 104.246 71.688C104.374 71.88 104.438 72.1253 104.438 72.424C104.438 72.7653 104.379 73.1493 104.262 73.576C104.144 73.992 104.027 74.3867 103.91 74.76L104.07 74.84C104.443 73.7413 104.864 72.8933 105.334 72.296C105.814 71.6987 106.347 71.4 106.934 71.4C107.318 71.4 107.627 71.4853 107.862 71.656C108.096 71.816 108.267 72.0187 108.374 72.264C108.491 72.4987 108.55 72.728 108.55 72.952C108.55 73.304 108.459 73.6453 108.278 73.976C108.107 74.296 107.83 74.5627 107.446 74.776C107.062 74.9787 106.555 75.08 105.926 75.08C105.68 75.08 105.44 75.1333 105.206 75.24C104.971 75.3467 104.758 75.5493 104.566 75.848C104.374 76.136 104.219 76.5467 104.102 77.08C103.995 77.6133 103.942 78.3067 103.942 79.16C103.942 79.8213 104.054 80.3067 104.278 80.616C103.616 81.1387 103.008 81.4 102.454 81.4ZM111.382 81.4C110.785 81.4 110.257 81.2453 109.798 80.936C109.35 80.6267 109.003 80.1893 108.758 79.624C108.513 79.0587 108.39 78.3973 108.39 77.64C108.39 76.7547 108.545 75.9333 108.854 75.176C109.174 74.4187 109.611 73.7573 110.166 73.192C110.731 72.6267 111.393 72.1893 112.15 71.88C112.907 71.56 113.729 71.4 114.614 71.4C114.87 71.4 115.089 71.4107 115.27 71.432C115.462 71.4427 115.665 71.4747 115.878 71.528C115.942 71.8267 115.979 72.088 115.99 72.312C116.235 72.152 116.507 72.0293 116.806 71.944C117.105 71.848 117.382 71.8 117.638 71.8C118.417 71.8 118.806 72.2213 118.806 73.064C118.806 73.3413 118.753 73.72 118.646 74.2C118.55 74.6693 118.433 75.192 118.294 75.768C118.166 76.3333 118.049 76.9147 117.942 77.512C117.846 78.0987 117.798 78.648 117.798 79.16C117.798 79.8533 117.963 80.3387 118.294 80.616C117.697 81.1387 117.062 81.4 116.39 81.4C115.771 81.4 115.313 81.208 115.014 80.824C114.726 80.44 114.582 79.8427 114.582 79.032L114.422 78.952C114.134 79.72 113.718 80.3227 113.174 80.76C112.641 81.1867 112.043 81.4 111.382 81.4ZM112.646 78.488C113.062 78.488 113.467 78.3387 113.862 78.04C114.257 77.7413 114.587 77.3307 114.854 76.808C114.897 76.392 114.939 76.0027 114.982 75.64C115.035 75.2667 115.099 74.872 115.174 74.456C115.259 74.04 115.361 73.5493 115.478 72.984C114.934 72.984 114.417 73.0907 113.926 73.304C113.446 73.5067 113.014 73.7893 112.63 74.152C112.246 74.5147 111.942 74.9307 111.718 75.4C111.505 75.8587 111.398 76.344 111.398 76.856C111.398 77.3787 111.505 77.784 111.718 78.072C111.942 78.3493 112.251 78.488 112.646 78.488ZM123.163 81.4C122.481 81.4 121.995 81.1973 121.707 80.792C121.419 80.3867 121.275 79.768 121.275 78.936C121.275 78.7013 121.302 78.3707 121.355 77.944C121.409 77.5067 121.478 77.0213 121.563 76.488C121.659 75.9547 121.75 75.4267 121.835 74.904C121.611 74.9467 121.393 74.9947 121.179 75.048C120.977 75.1013 120.785 75.16 120.603 75.224C120.561 75.064 120.529 74.904 120.507 74.744C120.497 74.584 120.491 74.4667 120.491 74.392C120.491 73.8373 120.651 73.4373 120.971 73.192C121.302 72.936 121.697 72.808 122.155 72.808C122.155 72.5627 122.123 72.2907 122.059 71.992C121.995 71.6933 121.883 71.3627 121.723 71C122.171 70.6693 122.619 70.392 123.067 70.168C123.515 69.944 124.011 69.832 124.555 69.832C125.025 69.832 125.35 69.9227 125.531 70.104C125.713 70.2747 125.803 70.5627 125.803 70.968C125.803 71.1707 125.782 71.4107 125.739 71.688C125.697 71.9653 125.643 72.2693 125.579 72.6C125.814 72.568 126.038 72.5307 126.251 72.488C126.465 72.4347 126.673 72.3813 126.875 72.328C126.918 72.4453 126.945 72.568 126.955 72.696C126.977 72.8133 126.987 72.9307 126.987 73.048C126.987 73.4747 126.854 73.848 126.587 74.168C126.331 74.4773 125.931 74.632 125.387 74.632H125.147C124.998 75.3147 124.865 76.0133 124.747 76.728C124.63 77.4427 124.571 78.1093 124.571 78.728C124.571 79.144 124.609 79.5173 124.683 79.848C124.769 80.168 124.897 80.424 125.067 80.616C124.47 81.1387 123.835 81.4 123.163 81.4ZM131.029 70.36C130.538 70.36 130.133 70.2533 129.813 70.04C129.493 69.8267 129.333 69.5387 129.333 69.176C129.333 68.824 129.45 68.536 129.685 68.312C129.919 68.0773 130.202 67.9013 130.533 67.784C130.874 67.6667 131.194 67.608 131.493 67.608C131.983 67.608 132.389 67.7147 132.709 67.928C133.029 68.1307 133.189 68.4187 133.189 68.792C133.189 69.1013 133.087 69.3787 132.885 69.624C132.682 69.8587 132.415 70.04 132.085 70.168C131.765 70.296 131.413 70.36 131.029 70.36ZM130.069 81.4C129.386 81.4 128.901 81.2293 128.613 80.888C128.325 80.5467 128.181 80.056 128.181 79.416C128.181 79.1813 128.213 78.856 128.277 78.44C128.341 78.0133 128.426 77.544 128.533 77.032C128.639 76.5093 128.751 75.9813 128.869 75.448C128.986 74.9147 129.098 74.4133 129.205 73.944L128.309 72.6C128.874 72.2587 129.413 71.976 129.925 71.752C130.437 71.5173 130.949 71.4 131.461 71.4C131.909 71.4 132.218 71.496 132.389 71.688C132.57 71.88 132.661 72.1787 132.661 72.584C132.661 72.744 132.618 73.0053 132.533 73.368C132.458 73.7307 132.362 74.1573 132.245 74.648C132.127 75.1387 132.01 75.656 131.893 76.2C131.775 76.7333 131.674 77.2613 131.589 77.784C131.514 78.296 131.477 78.7547 131.477 79.16C131.477 79.48 131.514 79.768 131.589 80.024C131.674 80.2693 131.802 80.4667 131.973 80.616C131.375 81.1387 130.741 81.4 130.069 81.4ZM138.592 81.4C137.653 81.4 136.842 81.224 136.16 80.872C135.488 80.5093 134.97 80.0133 134.608 79.384C134.245 78.7547 134.064 78.024 134.064 77.192C134.064 76.04 134.314 75.032 134.816 74.168C135.328 73.2933 136.026 72.616 136.912 72.136C137.797 71.6453 138.805 71.4 139.936 71.4C140.117 71.4 140.298 71.4107 140.48 71.432C140.672 71.4427 140.874 71.4747 141.088 71.528C141.141 71.6773 141.184 71.8587 141.216 72.072C141.248 72.2747 141.269 72.4933 141.28 72.728C141.376 72.696 141.477 72.6693 141.584 72.648C141.701 72.6267 141.824 72.616 141.952 72.616C142.325 72.616 142.677 72.7173 143.008 72.92C143.338 73.112 143.61 73.416 143.824 73.832C144.037 74.248 144.144 74.776 144.144 75.416C144.144 76.3653 143.984 77.2133 143.664 77.96C143.354 78.696 142.933 79.32 142.4 79.832C141.866 80.344 141.269 80.7333 140.608 81C139.957 81.2667 139.285 81.4 138.592 81.4ZM139.088 79.432C139.333 79.432 139.589 79.3733 139.856 79.256C140.122 79.1387 140.384 78.9253 140.64 78.616C140.896 78.3067 141.109 77.8693 141.28 77.304C140.821 77.016 140.49 76.664 140.288 76.248C140.085 75.8213 139.984 75.352 139.984 74.84C139.984 74.6907 140.01 74.4987 140.064 74.264C140.117 74.0293 140.208 73.7893 140.336 73.544C140.474 73.2987 140.661 73.096 140.896 72.936C140.16 73.0853 139.557 73.3093 139.088 73.608C138.618 73.9067 138.25 74.2533 137.984 74.648C137.728 75.032 137.546 75.432 137.44 75.848C137.344 76.2533 137.296 76.6427 137.296 77.016C137.296 77.4427 137.365 77.8427 137.504 78.216C137.642 78.5787 137.845 78.872 138.112 79.096C138.378 79.32 138.704 79.432 139.088 79.432ZM147.533 81.4C146.861 81.4 146.381 81.2293 146.093 80.888C145.805 80.5467 145.661 80.056 145.661 79.416C145.661 79.192 145.693 78.8507 145.757 78.392C145.821 77.9227 145.901 77.4053 145.997 76.84C146.104 76.264 146.216 75.688 146.333 75.112C146.451 74.536 146.563 74.024 146.669 73.576L145.837 72.296C146.275 72.0507 146.744 71.8427 147.245 71.672C147.757 71.4907 148.275 71.4 148.797 71.4C149.245 71.4 149.576 71.512 149.789 71.736C150.003 71.9493 150.109 72.2427 150.109 72.616C150.109 72.8933 150.072 73.1813 149.997 73.48C149.923 73.7787 149.837 74.0347 149.741 74.248L149.901 74.328C150.531 73.2507 151.219 72.4933 151.965 72.056C152.712 71.6187 153.475 71.4 154.253 71.4C154.904 71.4 155.389 71.56 155.709 71.88C156.029 72.1893 156.189 72.6747 156.189 73.336C156.189 73.912 156.109 74.5253 155.949 75.176C155.8 75.816 155.645 76.4773 155.485 77.16C155.325 77.832 155.245 78.4987 155.245 79.16C155.245 79.8213 155.357 80.3067 155.581 80.616C155.016 81.1387 154.429 81.4 153.821 81.4C153.149 81.4 152.669 81.2293 152.381 80.888C152.093 80.5467 151.949 80.056 151.949 79.416C151.949 79.064 151.997 78.6747 152.093 78.248C152.189 77.8107 152.301 77.368 152.429 76.92C152.557 76.472 152.669 76.0507 152.765 75.656C152.861 75.2613 152.909 74.92 152.909 74.632C152.909 74.408 152.867 74.232 152.781 74.104C152.707 73.976 152.568 73.912 152.365 73.912C152.077 73.912 151.741 74.04 151.357 74.296C150.973 74.552 150.595 74.9147 150.221 75.384C149.859 75.8427 149.555 76.392 149.309 77.032C149.075 77.672 148.957 78.3813 148.957 79.16C148.957 79.8213 149.069 80.3067 149.293 80.616C148.728 81.1387 148.141 81.4 147.533 81.4ZM162.823 82.648C162.599 82.648 162.364 82.6107 162.119 82.536C161.884 82.472 161.639 82.3387 161.383 82.136C161.65 81.8907 161.895 81.496 162.119 80.952C162.343 80.3973 162.546 79.8 162.727 79.16C163.111 77.816 163.452 76.5093 163.751 75.24C164.06 73.9707 164.338 72.7973 164.583 71.72C164.839 70.632 165.063 69.704 165.255 68.936C165.33 68.6373 165.463 68.392 165.655 68.2C165.847 68.008 166.135 67.912 166.519 67.912C166.882 67.912 167.218 67.9813 167.527 68.12C167.836 68.248 168.119 68.4293 168.375 68.664C168.194 68.9413 168.012 69.272 167.831 69.656C167.66 70.04 167.506 70.4293 167.367 70.824C167.228 71.208 167.116 71.5547 167.031 71.864C166.796 72.6853 166.583 73.4587 166.391 74.184C166.199 74.9093 166.012 75.624 165.831 76.328C165.65 77.0213 165.458 77.7413 165.255 78.488C165.063 79.2347 164.844 80.0453 164.599 80.92C164.45 81.464 164.231 81.8853 163.943 82.184C163.666 82.4933 163.292 82.648 162.823 82.648ZM167.847 82.648C167.623 82.648 167.388 82.6107 167.143 82.536C166.908 82.472 166.663 82.3387 166.407 82.136C166.674 81.8907 166.919 81.496 167.143 80.952C167.367 80.3973 167.57 79.8 167.751 79.16C168.135 77.816 168.476 76.5093 168.775 75.24C169.084 73.9707 169.362 72.7973 169.607 71.72C169.863 70.632 170.087 69.704 170.279 68.936C170.354 68.6373 170.487 68.392 170.679 68.2C170.871 68.008 171.159 67.912 171.543 67.912C171.906 67.912 172.242 67.9813 172.551 68.12C172.86 68.248 173.143 68.4293 173.399 68.664C173.218 68.9413 173.036 69.272 172.855 69.656C172.684 70.04 172.53 70.4293 172.391 70.824C172.252 71.208 172.14 71.5547 172.055 71.864C171.82 72.6853 171.607 73.4587 171.415 74.184C171.223 74.9093 171.036 75.624 170.855 76.328C170.674 77.0213 170.482 77.7413 170.279 78.488C170.087 79.2347 169.868 80.0453 169.623 80.92C169.474 81.464 169.255 81.8853 168.967 82.184C168.69 82.4933 168.316 82.648 167.847 82.648ZM163.335 73.928C163.143 73.928 162.978 73.864 162.839 73.736C162.7 73.5973 162.631 73.352 162.631 73C162.631 72.6587 162.679 72.3227 162.775 71.992C162.871 71.6613 163.004 71.368 163.175 71.112C163.484 71.2293 163.831 71.3093 164.215 71.352C164.61 71.3947 164.956 71.416 165.255 71.416C165.81 71.416 166.375 71.4107 166.951 71.4C167.538 71.3893 168.124 71.3787 168.711 71.368C169.927 71.336 171.148 71.32 172.375 71.32C172.802 71.32 173.132 71.4107 173.367 71.592C173.602 71.7733 173.719 72.088 173.719 72.536C173.719 72.7387 173.698 72.952 173.655 73.176C173.612 73.4 173.527 73.6187 173.399 73.832C173.175 73.736 172.892 73.6667 172.551 73.624C172.21 73.5707 171.836 73.544 171.431 73.544C170.652 73.544 169.81 73.5707 168.903 73.624C167.996 73.6667 167.138 73.7147 166.327 73.768C165.708 73.8107 165.138 73.848 164.615 73.88C164.103 73.912 163.676 73.928 163.335 73.928ZM162.119 78.76C161.927 78.76 161.762 78.696 161.623 78.568C161.484 78.4293 161.415 78.184 161.415 77.832C161.415 77.4907 161.463 77.1547 161.559 76.824C161.655 76.4933 161.788 76.2 161.959 75.944C162.268 76.0613 162.615 76.1413 162.999 76.184C163.394 76.2267 163.74 76.248 164.039 76.248C164.594 76.248 165.159 76.2427 165.735 76.232C166.322 76.2213 166.908 76.2107 167.495 76.2C168.711 76.168 169.932 76.152 171.159 76.152C171.586 76.152 171.916 76.2427 172.151 76.424C172.386 76.6053 172.503 76.92 172.503 77.368C172.503 77.5707 172.482 77.784 172.439 78.008C172.396 78.232 172.311 78.4507 172.183 78.664C171.959 78.568 171.676 78.4987 171.335 78.456C170.994 78.4027 170.62 78.376 170.215 78.376C169.436 78.376 168.594 78.4027 167.687 78.456C166.78 78.4987 165.922 78.5467 165.111 78.6C164.492 78.6427 163.922 78.68 163.399 78.712C162.887 78.744 162.46 78.76 162.119 78.76ZM178.302 81.4C177.576 81.4 177.064 81.144 176.766 80.632C176.467 80.12 176.318 79.4693 176.318 78.68C176.318 78.168 176.376 77.5867 176.494 76.936C176.611 76.2747 176.776 75.4053 176.99 74.328C176.552 74.328 176.131 74.248 175.726 74.088C175.331 73.9173 174.995 73.6507 174.718 73.288C174.44 72.9253 174.264 72.44 174.19 71.832C174.968 71.6827 175.635 71.496 176.19 71.272C176.755 71.0373 177.251 70.808 177.678 70.584C178.115 70.36 178.515 70.1733 178.878 70.024C179.24 69.8747 179.614 69.8 179.998 69.8C180.446 69.8 180.744 69.928 180.894 70.184C181.054 70.44 181.134 70.7387 181.134 71.08C181.134 71.5173 181.07 72.056 180.942 72.696C180.814 73.3253 180.67 74.0027 180.51 74.728C180.35 75.4533 180.206 76.1733 180.078 76.888C179.95 77.6027 179.886 78.264 179.886 78.872C179.886 79.64 180.04 80.2853 180.35 80.808C179.635 81.2027 178.952 81.4 178.302 81.4Z" fill="white"/>
</svg>
