<svg width="100%" height="100%" viewBox="0 0 200 150" fill="none" xmlns="http://www.w3.org/2000/svg">
<rect width="100%" height="100%" fill="#264DB1"/>
<path d="M19.1211 81.416C18.4064 81.416 17.8997 81.2133 17.6011 80.808C17.3131 80.392 17.1691 79.768 17.1691 78.936C17.1691 78.4027 17.2544 77.6027 17.4251 76.536C17.6064 75.4587 17.8571 74.0347 18.1771 72.264L17.3291 70.552C17.8304 70.232 18.3637 69.96 18.9291 69.736C19.4944 69.512 20.0597 69.4 20.6251 69.4C21.3931 69.4 21.9957 69.5173 22.4331 69.752C22.8704 69.9867 23.1957 70.3173 23.4091 70.744C23.6331 71.1707 23.7984 71.672 23.9051 72.248C24.0224 72.824 24.1291 73.4533 24.2251 74.136C24.3211 74.808 24.4651 75.512 24.6571 76.248C24.8491 76.984 25.1424 77.7307 25.5371 78.488L25.9211 78.232C25.6224 77.6453 25.3717 76.9627 25.1691 76.184C24.9771 75.4053 24.8811 74.6267 24.8811 73.848C24.8811 73.0693 25.0091 72.344 25.2651 71.672C25.5317 71 25.9264 70.456 26.4491 70.04C26.9717 69.6133 27.6224 69.4 28.4011 69.4C28.6464 69.4 28.9024 69.4267 29.1691 69.48C29.4464 69.5227 29.6864 69.5973 29.8891 69.704C29.7931 70.28 29.6811 70.9147 29.5531 71.608C29.4251 72.2907 29.2917 72.984 29.1531 73.688C29.0251 74.392 28.9024 75.0587 28.7851 75.688C28.6784 76.3173 28.5877 76.8667 28.5131 77.336C28.4491 77.7947 28.4171 78.12 28.4171 78.312C28.4171 78.8667 28.4597 79.3253 28.5451 79.688C28.6304 80.04 28.7584 80.3387 28.9291 80.584C28.6197 80.7867 28.3317 80.9467 28.0651 81.064C27.7984 81.1813 27.5104 81.2667 27.2011 81.32C26.9024 81.3733 26.5504 81.4 26.1451 81.4C25.3131 81.4 24.6144 81.2027 24.0491 80.808C23.4944 80.4133 23.0464 79.8693 22.7051 79.176C22.3637 78.4827 22.1077 77.688 21.9371 76.792C21.7771 75.896 21.6704 74.9467 21.6171 73.944H21.3611C21.2331 74.5413 21.1104 75.1387 20.9931 75.736C20.8864 76.3333 20.7957 76.8667 20.7211 77.336C20.6571 77.8053 20.6251 78.152 20.6251 78.376C20.6251 78.92 20.6624 79.3787 20.7371 79.752C20.8224 80.1253 20.9451 80.44 21.1051 80.696C20.4651 81.176 19.8037 81.416 19.1211 81.416ZM35.5069 81.4C34.5149 81.4 33.6776 81.224 32.9949 80.872C32.3123 80.52 31.7949 80.0293 31.4429 79.4C31.1016 78.76 30.9309 78.024 30.9309 77.192C30.9309 76.328 31.0856 75.544 31.3949 74.84C31.7149 74.1253 32.1576 73.512 32.7229 73C33.2883 72.488 33.9443 72.0933 34.6909 71.816C35.4483 71.5387 36.2643 71.4 37.1389 71.4C38.1736 71.4 38.9363 71.6293 39.4269 72.088C39.9176 72.5467 40.1629 73.1227 40.1629 73.816C40.1629 74.4133 39.9656 74.9787 39.5709 75.512C39.1869 76.0347 38.5629 76.4613 37.6989 76.792C36.8349 77.112 35.6829 77.2773 34.2429 77.288C34.2749 77.9707 34.4296 78.5093 34.7069 78.904C34.9949 79.288 35.3523 79.48 35.7789 79.48C35.9923 79.48 36.2163 79.432 36.4509 79.336C36.6856 79.2293 36.8829 79.048 37.0429 78.792C37.2029 78.5253 37.2829 78.1627 37.2829 77.704C38.0083 77.704 38.5789 77.784 38.9949 77.944C39.4109 78.104 39.6189 78.392 39.6189 78.808C39.6189 79.192 39.4536 79.5867 39.1229 79.992C38.7923 80.3867 38.3176 80.7227 37.6989 81C37.0909 81.2667 36.3603 81.4 35.5069 81.4ZM34.3869 76.008C35.1656 75.944 35.7896 75.8 36.2589 75.576C36.7283 75.352 37.0696 75.096 37.2829 74.808C37.4963 74.52 37.6029 74.2533 37.6029 74.008C37.6029 73.7947 37.5389 73.6187 37.4109 73.48C37.2829 73.3413 37.1016 73.272 36.8669 73.272C36.4829 73.272 36.1256 73.4053 35.7949 73.672C35.4643 73.9387 35.1763 74.2853 34.9309 74.712C34.6963 75.128 34.5149 75.56 34.3869 76.008ZM42.2786 81.4C41.8306 81.4 41.4732 81.2613 41.2066 80.984C40.9399 80.696 40.8066 80.3227 40.8066 79.864C40.8066 79.48 40.8972 79.1227 41.0786 78.792C41.2706 78.4507 41.5159 78.136 41.8146 77.848C42.1239 77.5493 42.4546 77.288 42.8066 77.064C43.1586 76.8293 43.4999 76.632 43.8306 76.472L44.2946 76.248L43.3346 74.488C43.1639 74.1787 42.9346 73.8853 42.6466 73.608C42.3692 73.32 41.9799 73.0907 41.4786 72.92C42.1399 71.9067 43.0039 71.4 44.0706 71.4C44.5506 71.4 44.9559 71.5333 45.2866 71.8C45.6172 72.056 45.9746 72.536 46.3586 73.24L47.0626 74.536C47.3506 74.2587 47.5799 73.9867 47.7506 73.72C47.9319 73.4533 48.0226 73.1547 48.0226 72.824C48.0226 72.6747 48.0119 72.5413 47.9906 72.424C47.9692 72.3067 47.9372 72.1947 47.8946 72.088C48.6519 71.6293 49.3666 71.4 50.0386 71.4C50.4866 71.4 50.8439 71.544 51.1106 71.832C51.3772 72.1093 51.5106 72.4773 51.5106 72.936C51.5106 73.32 51.4146 73.6827 51.2226 74.024C51.0412 74.3547 50.7959 74.6693 50.4866 74.968C50.1879 75.256 49.8626 75.5173 49.5106 75.752C49.1586 75.976 48.8172 76.168 48.4866 76.328L48.1346 76.504L49.1426 78.328C49.3026 78.6267 49.5159 78.92 49.7826 79.208C50.0599 79.496 50.4652 79.7253 50.9986 79.896C50.3266 80.8987 49.4572 81.4 48.3906 81.4C48.0706 81.4 47.7879 81.3467 47.5426 81.24C47.2972 81.1333 47.0626 80.9467 46.8386 80.68C46.6146 80.4133 46.3746 80.0453 46.1186 79.576L45.3506 78.168C45.0412 78.456 44.7852 78.744 44.5826 79.032C44.3906 79.32 44.2946 79.6347 44.2946 79.976C44.2946 80.1253 44.3052 80.2587 44.3266 80.376C44.3479 80.4933 44.3799 80.6053 44.4226 80.712C43.6652 81.1707 42.9506 81.4 42.2786 81.4ZM55.3898 81.4C54.7071 81.4 54.2218 81.1973 53.9338 80.792C53.6458 80.3867 53.5018 79.768 53.5018 78.936C53.5018 78.7013 53.5285 78.3707 53.5818 77.944C53.6351 77.5067 53.7045 77.0213 53.7898 76.488C53.8858 75.9547 53.9765 75.4267 54.0618 74.904C53.8378 74.9467 53.6191 74.9947 53.4058 75.048C53.2031 75.1013 53.0111 75.16 52.8298 75.224C52.7871 75.064 52.7551 74.904 52.7338 74.744C52.7231 74.584 52.7178 74.4667 52.7178 74.392C52.7178 73.8373 52.8778 73.4373 53.1978 73.192C53.5285 72.936 53.9231 72.808 54.3818 72.808C54.3818 72.5627 54.3498 72.2907 54.2858 71.992C54.2218 71.6933 54.1098 71.3627 53.9498 71C54.3978 70.6693 54.8458 70.392 55.2938 70.168C55.7418 69.944 56.2378 69.832 56.7818 69.832C57.2511 69.832 57.5765 69.9227 57.7578 70.104C57.9391 70.2747 58.0298 70.5627 58.0298 70.968C58.0298 71.1707 58.0085 71.4107 57.9658 71.688C57.9231 71.9653 57.8698 72.2693 57.8058 72.6C58.0405 72.568 58.2645 72.5307 58.4778 72.488C58.6911 72.4347 58.8991 72.3813 59.1018 72.328C59.1445 72.4453 59.1711 72.568 59.1818 72.696C59.2031 72.8133 59.2138 72.9307 59.2138 73.048C59.2138 73.4747 59.0805 73.848 58.8138 74.168C58.5578 74.4773 58.1578 74.632 57.6138 74.632H57.3738C57.2245 75.3147 57.0911 76.0133 56.9738 76.728C56.8565 77.4427 56.7978 78.1093 56.7978 78.728C56.7978 79.144 56.8351 79.5173 56.9098 79.848C56.9951 80.168 57.1231 80.424 57.2938 80.616C56.6965 81.1387 56.0618 81.4 55.3898 81.4ZM67.0761 81.416C66.3614 81.416 65.8547 81.2133 65.5561 80.808C65.2681 80.392 65.1241 79.768 65.1241 78.936C65.1241 78.4027 65.2094 77.6027 65.3801 76.536C65.5614 75.4587 65.8121 74.0347 66.1321 72.264L65.2841 70.552C65.7854 70.232 66.3187 69.96 66.8841 69.736C67.4494 69.5013 68.0147 69.384 68.5801 69.384C69.0921 69.384 69.5401 69.464 69.9241 69.624C70.3187 69.7733 70.6601 70.0667 70.9481 70.504C71.2361 70.9307 71.4761 71.56 71.6681 72.392C71.8707 73.2133 72.0361 74.296 72.1641 75.64H72.3561C72.6121 74.904 72.9321 74.168 73.3161 73.432C73.7001 72.696 74.1587 72.024 74.6921 71.416C75.2254 70.808 75.8441 70.3227 76.5481 69.96C77.2627 69.5867 78.0734 69.4 78.9801 69.4C79.4814 69.4 79.8121 69.5493 79.9721 69.848C80.1321 70.136 80.2121 70.4827 80.2121 70.888C80.2121 71.0587 80.1801 71.336 80.1161 71.72C80.0627 72.0933 79.9881 72.5307 79.8921 73.032C79.7961 73.5227 79.6947 74.04 79.5881 74.584C79.4921 75.1173 79.3961 75.64 79.3001 76.152C79.2041 76.6533 79.1241 77.1013 79.0601 77.496C79.0067 77.88 78.9801 78.1733 78.9801 78.376C78.9801 78.92 79.0174 79.3787 79.0921 79.752C79.1774 80.1253 79.3001 80.44 79.4601 80.696C78.8201 81.176 78.1587 81.416 77.4761 81.416C76.7614 81.416 76.2547 81.2133 75.9561 80.808C75.6681 80.392 75.5241 79.768 75.5241 78.936C75.5241 78.4773 75.5881 77.8213 75.7161 76.968C75.8547 76.1147 76.0414 75.016 76.2761 73.672H76.0201C75.5614 74.28 75.1614 74.9627 74.8201 75.72C74.4787 76.4667 74.2067 77.2133 74.0041 77.96C73.8121 78.696 73.6841 79.352 73.6201 79.928C73.3534 80.1733 73.0601 80.36 72.7401 80.488C72.4307 80.6053 72.1214 80.664 71.8121 80.664C71.5561 80.664 71.3161 80.568 71.0921 80.376C70.8681 80.1733 70.6601 79.8213 70.4681 79.32C70.2761 78.8187 70.1054 78.1147 69.9561 77.208C69.8174 76.2907 69.7054 75.112 69.6201 73.672H69.3641C69.2254 74.28 69.0974 74.904 68.9801 75.544C68.8627 76.1733 68.7667 76.744 68.6921 77.256C68.6174 77.768 68.5801 78.1413 68.5801 78.376C68.5801 78.92 68.6174 79.3787 68.6921 79.752C68.7774 80.1253 68.9001 80.44 69.0601 80.696C68.4201 81.176 67.7587 81.416 67.0761 81.416ZM84.6302 70.36C84.1395 70.36 83.7342 70.2533 83.4142 70.04C83.0942 69.8267 82.9342 69.5387 82.9342 69.176C82.9342 68.824 83.0515 68.536 83.2862 68.312C83.5209 68.0773 83.8035 67.9013 84.1342 67.784C84.4755 67.6667 84.7955 67.608 85.0942 67.608C85.5849 67.608 85.9902 67.7147 86.3102 67.928C86.6302 68.1307 86.7902 68.4187 86.7902 68.792C86.7902 69.1013 86.6889 69.3787 86.4862 69.624C86.2835 69.8587 86.0169 70.04 85.6862 70.168C85.3662 70.296 85.0142 70.36 84.6302 70.36ZM83.6702 81.4C82.9875 81.4 82.5022 81.2293 82.2142 80.888C81.9262 80.5467 81.7822 80.056 81.7822 79.416C81.7822 79.1813 81.8142 78.856 81.8782 78.44C81.9422 78.0133 82.0275 77.544 82.1342 77.032C82.2409 76.5093 82.3529 75.9813 82.4702 75.448C82.5875 74.9147 82.6995 74.4133 82.8062 73.944L81.9102 72.6C82.4755 72.2587 83.0142 71.976 83.5262 71.752C84.0382 71.5173 84.5502 71.4 85.0622 71.4C85.5102 71.4 85.8195 71.496 85.9902 71.688C86.1715 71.88 86.2622 72.1787 86.2622 72.584C86.2622 72.744 86.2195 73.0053 86.1342 73.368C86.0595 73.7307 85.9635 74.1573 85.8462 74.648C85.7289 75.1387 85.6115 75.656 85.4942 76.2C85.3769 76.7333 85.2755 77.2613 85.1902 77.784C85.1155 78.296 85.0782 78.7547 85.0782 79.16C85.0782 79.48 85.1155 79.768 85.1902 80.024C85.2755 80.2693 85.4035 80.4667 85.5742 80.616C84.9769 81.1387 84.3422 81.4 83.6702 81.4ZM90.6253 84.76C90.1346 84.76 89.6866 84.6907 89.2813 84.552C88.876 84.4133 88.5506 84.2107 88.3053 83.944C88.0706 83.6773 87.9533 83.3573 87.9533 82.984C87.9533 82.7493 88.0013 82.4933 88.0973 82.216C88.204 81.9387 88.3746 81.6453 88.6093 81.336C88.8546 81.688 89.1533 81.9547 89.5053 82.136C89.868 82.328 90.3053 82.424 90.8173 82.424C91.2013 82.424 91.5906 82.312 91.9853 82.088C92.38 81.864 92.732 81.512 93.0413 81.032C93.3506 80.5627 93.5693 79.9493 93.6973 79.192L93.5373 79.112C93.1426 79.6987 92.684 80.1253 92.1613 80.392C91.6386 80.648 91.1266 80.776 90.6253 80.776C90.028 80.776 89.5106 80.616 89.0733 80.296C88.6466 79.976 88.316 79.5333 88.0813 78.968C87.8573 78.392 87.7453 77.7253 87.7453 76.968C87.7453 76.3387 87.8626 75.6987 88.0973 75.048C88.332 74.3867 88.6946 73.784 89.1853 73.24C89.676 72.6853 90.3 72.2427 91.0573 71.912C91.8253 71.5707 92.7426 71.4 93.8093 71.4C94.0226 71.4 94.2253 71.4107 94.4173 71.432C94.62 71.4427 94.8386 71.4747 95.0733 71.528C95.0946 71.6347 95.116 71.7573 95.1373 71.896C95.1586 72.024 95.1746 72.1627 95.1853 72.312C95.4413 72.1307 95.6973 72.0027 95.9533 71.928C96.22 71.8427 96.4706 71.8 96.7053 71.8C97.1 71.8 97.3826 71.9013 97.5533 72.104C97.724 72.296 97.8093 72.5947 97.8093 73C97.8093 73.6613 97.7613 74.408 97.6653 75.24C97.5693 76.072 97.4146 76.9307 97.2013 77.816C96.988 78.7013 96.7 79.5547 96.3373 80.376C95.9853 81.1973 95.5426 81.9387 95.0093 82.6C94.4866 83.2613 93.8626 83.784 93.1373 84.168C92.412 84.5627 91.5746 84.76 90.6253 84.76ZM92.3533 78.344C92.62 78.344 92.8973 78.2747 93.1853 78.136C93.4733 77.9973 93.74 77.7787 93.9853 77.48C94.1133 76.7867 94.236 76.0453 94.3533 75.256C94.4706 74.4667 94.5826 73.7093 94.6893 72.984C93.868 72.984 93.164 73.1493 92.5773 73.48C91.9906 73.8107 91.5426 74.248 91.2333 74.792C90.924 75.3253 90.7693 75.9013 90.7693 76.52C90.7693 77.0747 90.924 77.5173 91.2333 77.848C91.5533 78.1787 91.9266 78.344 92.3533 78.344ZM101.29 81.4C100.639 81.4 100.175 81.2293 99.8976 80.888C99.6202 80.5467 99.4816 80.056 99.4816 79.416C99.4816 79.192 99.5136 78.8507 99.5776 78.392C99.6416 77.9227 99.7216 77.4053 99.8176 76.84C99.9242 76.264 100.036 75.688 100.154 75.112C100.271 74.536 100.383 74.024 100.49 73.576L99.6576 72.296C100.212 72.0507 100.724 71.8427 101.194 71.672C101.674 71.4907 102.1 71.4 102.474 71.4C102.751 71.4 102.954 71.496 103.082 71.688C103.21 71.88 103.274 72.1253 103.274 72.424C103.274 72.7653 103.215 73.1493 103.098 73.576C102.98 73.992 102.863 74.3867 102.746 74.76L102.906 74.84C103.279 73.7413 103.7 72.8933 104.17 72.296C104.65 71.6987 105.183 71.4 105.77 71.4C106.154 71.4 106.463 71.4853 106.698 71.656C106.932 71.816 107.103 72.0187 107.21 72.264C107.327 72.4987 107.386 72.728 107.386 72.952C107.386 73.304 107.295 73.6453 107.114 73.976C106.943 74.296 106.666 74.5627 106.282 74.776C105.898 74.9787 105.391 75.08 104.762 75.08C104.516 75.08 104.276 75.1333 104.042 75.24C103.807 75.3467 103.594 75.5493 103.402 75.848C103.21 76.136 103.055 76.5467 102.938 77.08C102.831 77.6133 102.778 78.3067 102.778 79.16C102.778 79.8213 102.89 80.3067 103.114 80.616C102.452 81.1387 101.844 81.4 101.29 81.4ZM110.218 81.4C109.621 81.4 109.093 81.2453 108.634 80.936C108.186 80.6267 107.839 80.1893 107.594 79.624C107.349 79.0587 107.226 78.3973 107.226 77.64C107.226 76.7547 107.381 75.9333 107.69 75.176C108.01 74.4187 108.447 73.7573 109.002 73.192C109.567 72.6267 110.229 72.1893 110.986 71.88C111.743 71.56 112.565 71.4 113.45 71.4C113.706 71.4 113.925 71.4107 114.106 71.432C114.298 71.4427 114.501 71.4747 114.714 71.528C114.778 71.8267 114.815 72.088 114.826 72.312C115.071 72.152 115.343 72.0293 115.642 71.944C115.941 71.848 116.218 71.8 116.474 71.8C117.253 71.8 117.642 72.2213 117.642 73.064C117.642 73.3413 117.589 73.72 117.482 74.2C117.386 74.6693 117.269 75.192 117.13 75.768C117.002 76.3333 116.885 76.9147 116.778 77.512C116.682 78.0987 116.634 78.648 116.634 79.16C116.634 79.8533 116.799 80.3387 117.13 80.616C116.533 81.1387 115.898 81.4 115.226 81.4C114.607 81.4 114.149 81.208 113.85 80.824C113.562 80.44 113.418 79.8427 113.418 79.032L113.258 78.952C112.97 79.72 112.554 80.3227 112.01 80.76C111.477 81.1867 110.879 81.4 110.218 81.4ZM111.482 78.488C111.898 78.488 112.303 78.3387 112.698 78.04C113.093 77.7413 113.423 77.3307 113.69 76.808C113.733 76.392 113.775 76.0027 113.818 75.64C113.871 75.2667 113.935 74.872 114.01 74.456C114.095 74.04 114.197 73.5493 114.314 72.984C113.77 72.984 113.253 73.0907 112.762 73.304C112.282 73.5067 111.85 73.7893 111.466 74.152C111.082 74.5147 110.778 74.9307 110.554 75.4C110.341 75.8587 110.234 76.344 110.234 76.856C110.234 77.3787 110.341 77.784 110.554 78.072C110.778 78.3493 111.087 78.488 111.482 78.488ZM121.999 81.4C121.317 81.4 120.831 81.1973 120.543 80.792C120.255 80.3867 120.111 79.768 120.111 78.936C120.111 78.7013 120.138 78.3707 120.191 77.944C120.245 77.5067 120.314 77.0213 120.399 76.488C120.495 75.9547 120.586 75.4267 120.671 74.904C120.447 74.9467 120.229 74.9947 120.015 75.048C119.813 75.1013 119.621 75.16 119.439 75.224C119.397 75.064 119.365 74.904 119.343 74.744C119.333 74.584 119.327 74.4667 119.327 74.392C119.327 73.8373 119.487 73.4373 119.807 73.192C120.138 72.936 120.533 72.808 120.991 72.808C120.991 72.5627 120.959 72.2907 120.895 71.992C120.831 71.6933 120.719 71.3627 120.559 71C121.007 70.6693 121.455 70.392 121.903 70.168C122.351 69.944 122.847 69.832 123.391 69.832C123.861 69.832 124.186 69.9227 124.367 70.104C124.549 70.2747 124.639 70.5627 124.639 70.968C124.639 71.1707 124.618 71.4107 124.575 71.688C124.533 71.9653 124.479 72.2693 124.415 72.6C124.65 72.568 124.874 72.5307 125.087 72.488C125.301 72.4347 125.509 72.3813 125.711 72.328C125.754 72.4453 125.781 72.568 125.791 72.696C125.813 72.8133 125.823 72.9307 125.823 73.048C125.823 73.4747 125.69 73.848 125.423 74.168C125.167 74.4773 124.767 74.632 124.223 74.632H123.983C123.834 75.3147 123.701 76.0133 123.583 76.728C123.466 77.4427 123.407 78.1093 123.407 78.728C123.407 79.144 123.445 79.5173 123.519 79.848C123.605 80.168 123.733 80.424 123.903 80.616C123.306 81.1387 122.671 81.4 121.999 81.4ZM129.865 70.36C129.374 70.36 128.969 70.2533 128.649 70.04C128.329 69.8267 128.169 69.5387 128.169 69.176C128.169 68.824 128.286 68.536 128.521 68.312C128.755 68.0773 129.038 67.9013 129.369 67.784C129.71 67.6667 130.03 67.608 130.329 67.608C130.819 67.608 131.225 67.7147 131.545 67.928C131.865 68.1307 132.025 68.4187 132.025 68.792C132.025 69.1013 131.923 69.3787 131.721 69.624C131.518 69.8587 131.251 70.04 130.921 70.168C130.601 70.296 130.249 70.36 129.865 70.36ZM128.905 81.4C128.222 81.4 127.737 81.2293 127.449 80.888C127.161 80.5467 127.017 80.056 127.017 79.416C127.017 79.1813 127.049 78.856 127.113 78.44C127.177 78.0133 127.262 77.544 127.369 77.032C127.475 76.5093 127.587 75.9813 127.705 75.448C127.822 74.9147 127.934 74.4133 128.041 73.944L127.145 72.6C127.71 72.2587 128.249 71.976 128.761 71.752C129.273 71.5173 129.785 71.4 130.297 71.4C130.745 71.4 131.054 71.496 131.225 71.688C131.406 71.88 131.497 72.1787 131.497 72.584C131.497 72.744 131.454 73.0053 131.369 73.368C131.294 73.7307 131.198 74.1573 131.081 74.648C130.963 75.1387 130.846 75.656 130.729 76.2C130.611 76.7333 130.51 77.2613 130.425 77.784C130.35 78.296 130.313 78.7547 130.313 79.16C130.313 79.48 130.35 79.768 130.425 80.024C130.51 80.2693 130.638 80.4667 130.809 80.616C130.211 81.1387 129.577 81.4 128.905 81.4ZM137.428 81.4C136.489 81.4 135.678 81.224 134.996 80.872C134.324 80.5093 133.806 80.0133 133.444 79.384C133.081 78.7547 132.9 78.024 132.9 77.192C132.9 76.04 133.15 75.032 133.652 74.168C134.164 73.2933 134.862 72.616 135.748 72.136C136.633 71.6453 137.641 71.4 138.772 71.4C138.953 71.4 139.134 71.4107 139.316 71.432C139.508 71.4427 139.71 71.4747 139.924 71.528C139.977 71.6773 140.02 71.8587 140.052 72.072C140.084 72.2747 140.105 72.4933 140.116 72.728C140.212 72.696 140.313 72.6693 140.42 72.648C140.537 72.6267 140.66 72.616 140.788 72.616C141.161 72.616 141.513 72.7173 141.844 72.92C142.174 73.112 142.446 73.416 142.66 73.832C142.873 74.248 142.98 74.776 142.98 75.416C142.98 76.3653 142.82 77.2133 142.5 77.96C142.19 78.696 141.769 79.32 141.236 79.832C140.702 80.344 140.105 80.7333 139.444 81C138.793 81.2667 138.121 81.4 137.428 81.4ZM137.924 79.432C138.169 79.432 138.425 79.3733 138.692 79.256C138.958 79.1387 139.22 78.9253 139.476 78.616C139.732 78.3067 139.945 77.8693 140.116 77.304C139.657 77.016 139.326 76.664 139.124 76.248C138.921 75.8213 138.82 75.352 138.82 74.84C138.82 74.6907 138.846 74.4987 138.9 74.264C138.953 74.0293 139.044 73.7893 139.172 73.544C139.31 73.2987 139.497 73.096 139.732 72.936C138.996 73.0853 138.393 73.3093 137.924 73.608C137.454 73.9067 137.086 74.2533 136.82 74.648C136.564 75.032 136.382 75.432 136.276 75.848C136.18 76.2533 136.132 76.6427 136.132 77.016C136.132 77.4427 136.201 77.8427 136.34 78.216C136.478 78.5787 136.681 78.872 136.948 79.096C137.214 79.32 137.54 79.432 137.924 79.432ZM146.369 81.4C145.697 81.4 145.217 81.2293 144.929 80.888C144.641 80.5467 144.497 80.056 144.497 79.416C144.497 79.192 144.529 78.8507 144.593 78.392C144.657 77.9227 144.737 77.4053 144.833 76.84C144.94 76.264 145.052 75.688 145.169 75.112C145.287 74.536 145.399 74.024 145.505 73.576L144.673 72.296C145.111 72.0507 145.58 71.8427 146.081 71.672C146.593 71.4907 147.111 71.4 147.633 71.4C148.081 71.4 148.412 71.512 148.625 71.736C148.839 71.9493 148.945 72.2427 148.945 72.616C148.945 72.8933 148.908 73.1813 148.833 73.48C148.759 73.7787 148.673 74.0347 148.577 74.248L148.737 74.328C149.367 73.2507 150.055 72.4933 150.801 72.056C151.548 71.6187 152.311 71.4 153.089 71.4C153.74 71.4 154.225 71.56 154.545 71.88C154.865 72.1893 155.025 72.6747 155.025 73.336C155.025 73.912 154.945 74.5253 154.785 75.176C154.636 75.816 154.481 76.4773 154.321 77.16C154.161 77.832 154.081 78.4987 154.081 79.16C154.081 79.8213 154.193 80.3067 154.417 80.616C153.852 81.1387 153.265 81.4 152.657 81.4C151.985 81.4 151.505 81.2293 151.217 80.888C150.929 80.5467 150.785 80.056 150.785 79.416C150.785 79.064 150.833 78.6747 150.929 78.248C151.025 77.8107 151.137 77.368 151.265 76.92C151.393 76.472 151.505 76.0507 151.601 75.656C151.697 75.2613 151.745 74.92 151.745 74.632C151.745 74.408 151.703 74.232 151.617 74.104C151.543 73.976 151.404 73.912 151.201 73.912C150.913 73.912 150.577 74.04 150.193 74.296C149.809 74.552 149.431 74.9147 149.057 75.384C148.695 75.8427 148.391 76.392 148.145 77.032C147.911 77.672 147.793 78.3813 147.793 79.16C147.793 79.8213 147.905 80.3067 148.129 80.616C147.564 81.1387 146.977 81.4 146.369 81.4ZM161.659 82.648C161.435 82.648 161.2 82.6107 160.955 82.536C160.72 82.472 160.475 82.3387 160.219 82.136C160.486 81.8907 160.731 81.496 160.955 80.952C161.179 80.3973 161.382 79.8 161.563 79.16C161.947 77.816 162.288 76.5093 162.587 75.24C162.896 73.9707 163.174 72.7973 163.419 71.72C163.675 70.632 163.899 69.704 164.091 68.936C164.166 68.6373 164.299 68.392 164.491 68.2C164.683 68.008 164.971 67.912 165.355 67.912C165.718 67.912 166.054 67.9813 166.363 68.12C166.672 68.248 166.955 68.4293 167.211 68.664C167.03 68.9413 166.848 69.272 166.667 69.656C166.496 70.04 166.342 70.4293 166.203 70.824C166.064 71.208 165.952 71.5547 165.867 71.864C165.632 72.6853 165.419 73.4587 165.227 74.184C165.035 74.9093 164.848 75.624 164.667 76.328C164.486 77.0213 164.294 77.7413 164.091 78.488C163.899 79.2347 163.68 80.0453 163.435 80.92C163.286 81.464 163.067 81.8853 162.779 82.184C162.502 82.4933 162.128 82.648 161.659 82.648ZM166.683 82.648C166.459 82.648 166.224 82.6107 165.979 82.536C165.744 82.472 165.499 82.3387 165.243 82.136C165.51 81.8907 165.755 81.496 165.979 80.952C166.203 80.3973 166.406 79.8 166.587 79.16C166.971 77.816 167.312 76.5093 167.611 75.24C167.92 73.9707 168.198 72.7973 168.443 71.72C168.699 70.632 168.923 69.704 169.115 68.936C169.19 68.6373 169.323 68.392 169.515 68.2C169.707 68.008 169.995 67.912 170.379 67.912C170.742 67.912 171.078 67.9813 171.387 68.12C171.696 68.248 171.979 68.4293 172.235 68.664C172.054 68.9413 171.872 69.272 171.691 69.656C171.52 70.04 171.366 70.4293 171.227 70.824C171.088 71.208 170.976 71.5547 170.891 71.864C170.656 72.6853 170.443 73.4587 170.251 74.184C170.059 74.9093 169.872 75.624 169.691 76.328C169.51 77.0213 169.318 77.7413 169.115 78.488C168.923 79.2347 168.704 80.0453 168.459 80.92C168.31 81.464 168.091 81.8853 167.803 82.184C167.526 82.4933 167.152 82.648 166.683 82.648ZM162.171 73.928C161.979 73.928 161.814 73.864 161.675 73.736C161.536 73.5973 161.467 73.352 161.467 73C161.467 72.6587 161.515 72.3227 161.611 71.992C161.707 71.6613 161.84 71.368 162.011 71.112C162.32 71.2293 162.667 71.3093 163.051 71.352C163.446 71.3947 163.792 71.416 164.091 71.416C164.646 71.416 165.211 71.4107 165.787 71.4C166.374 71.3893 166.96 71.3787 167.547 71.368C168.763 71.336 169.984 71.32 171.211 71.32C171.638 71.32 171.968 71.4107 172.203 71.592C172.438 71.7733 172.555 72.088 172.555 72.536C172.555 72.7387 172.534 72.952 172.491 73.176C172.448 73.4 172.363 73.6187 172.235 73.832C172.011 73.736 171.728 73.6667 171.387 73.624C171.046 73.5707 170.672 73.544 170.267 73.544C169.488 73.544 168.646 73.5707 167.739 73.624C166.832 73.6667 165.974 73.7147 165.163 73.768C164.544 73.8107 163.974 73.848 163.451 73.88C162.939 73.912 162.512 73.928 162.171 73.928ZM160.955 78.76C160.763 78.76 160.598 78.696 160.459 78.568C160.32 78.4293 160.251 78.184 160.251 77.832C160.251 77.4907 160.299 77.1547 160.395 76.824C160.491 76.4933 160.624 76.2 160.795 75.944C161.104 76.0613 161.451 76.1413 161.835 76.184C162.23 76.2267 162.576 76.248 162.875 76.248C163.43 76.248 163.995 76.2427 164.571 76.232C165.158 76.2213 165.744 76.2107 166.331 76.2C167.547 76.168 168.768 76.152 169.995 76.152C170.422 76.152 170.752 76.2427 170.987 76.424C171.222 76.6053 171.339 76.92 171.339 77.368C171.339 77.5707 171.318 77.784 171.275 78.008C171.232 78.232 171.147 78.4507 171.019 78.664C170.795 78.568 170.512 78.4987 170.171 78.456C169.83 78.4027 169.456 78.376 169.051 78.376C168.272 78.376 167.43 78.4027 166.523 78.456C165.616 78.4987 164.758 78.5467 163.947 78.6C163.328 78.6427 162.758 78.68 162.235 78.712C161.723 78.744 161.296 78.76 160.955 78.76ZM180.177 81.4C179.505 81.4 178.86 81.3147 178.241 81.144C177.623 80.9733 176.935 80.7547 176.177 80.488C175.793 80.7867 175.42 80.9947 175.057 81.112C174.695 81.24 174.38 81.304 174.113 81.304C173.569 81.304 173.159 81.1227 172.881 80.76C172.604 80.3867 172.465 79.96 172.465 79.48C172.465 79.1067 172.561 78.744 172.753 78.392C172.956 78.0293 173.249 77.7307 173.633 77.496C174.017 77.2613 174.487 77.144 175.041 77.144C175.191 77.144 175.329 77.1547 175.457 77.176C175.585 77.1867 175.687 77.2027 175.761 77.224C176.604 76.5093 177.265 75.864 177.745 75.288C178.225 74.7013 178.465 74.1573 178.465 73.656C178.465 73.2933 178.348 73 178.113 72.776C177.889 72.552 177.585 72.44 177.201 72.44C177.009 72.44 176.796 72.4773 176.561 72.552C176.337 72.6267 176.108 72.7973 175.873 73.064C175.639 73.3307 175.42 73.752 175.217 74.328C174.727 74.2747 174.359 74.104 174.113 73.816C173.879 73.528 173.761 73.1867 173.761 72.792C173.761 72.3227 173.911 71.8587 174.209 71.4C174.519 70.9413 175.015 70.5627 175.697 70.264C176.391 69.9547 177.308 69.8 178.449 69.8C179.153 69.8 179.751 69.896 180.241 70.088C180.732 70.2693 181.132 70.5093 181.441 70.808C181.751 71.1067 181.975 71.4373 182.113 71.8C182.252 72.152 182.321 72.4987 182.321 72.84C182.321 73.3947 182.151 73.96 181.809 74.536C181.468 75.112 181.009 75.688 180.433 76.264C179.868 76.8293 179.233 77.3893 178.529 77.944C178.967 78.0187 179.361 78.0773 179.713 78.12C180.065 78.152 180.391 78.168 180.689 78.168L182.561 77.448C182.615 77.6507 182.657 77.8747 182.689 78.12C182.721 78.3547 182.737 78.5787 182.737 78.792C182.737 79.4 182.62 79.896 182.385 80.28C182.151 80.664 181.841 80.9467 181.457 81.128C181.073 81.3093 180.647 81.4 180.177 81.4Z" fill="white"/>
</svg>
