<svg width="200" height="150" viewBox="0 0 200 150" fill="none" xmlns="http://www.w3.org/2000/svg">
<rect width="200" height="150" fill="#264DB1"/>
<path d="M19.6133 81.416C18.8986 81.416 18.3919 81.2133 18.0933 80.808C17.8053 80.392 17.6613 79.768 17.6613 78.936C17.6613 78.4027 17.7466 77.6027 17.9173 76.536C18.0986 75.4587 18.3493 74.0347 18.6693 72.264L17.8213 70.552C18.3226 70.232 18.8559 69.96 19.4213 69.736C19.9866 69.512 20.5519 69.4 21.1173 69.4C21.8853 69.4 22.4879 69.5173 22.9253 69.752C23.3626 69.9867 23.6879 70.3173 23.9013 70.744C24.1253 71.1707 24.2906 71.672 24.3973 72.248C24.5146 72.824 24.6213 73.4533 24.7173 74.136C24.8133 74.808 24.9572 75.512 25.1493 76.248C25.3413 76.984 25.6346 77.7307 26.0293 78.488L26.4133 78.232C26.1146 77.6453 25.8639 76.9627 25.6613 76.184C25.4693 75.4053 25.3733 74.6267 25.3733 73.848C25.3733 73.0693 25.5013 72.344 25.7573 71.672C26.0239 71 26.4186 70.456 26.9413 70.04C27.4639 69.6133 28.1146 69.4 28.8933 69.4C29.1386 69.4 29.3946 69.4267 29.6613 69.48C29.9386 69.5227 30.1786 69.5973 30.3813 69.704C30.2853 70.28 30.1733 70.9147 30.0453 71.608C29.9173 72.2907 29.7839 72.984 29.6453 73.688C29.5173 74.392 29.3946 75.0587 29.2773 75.688C29.1706 76.3173 29.0799 76.8667 29.0053 77.336C28.9413 77.7947 28.9093 78.12 28.9093 78.312C28.9093 78.8667 28.9519 79.3253 29.0373 79.688C29.1226 80.04 29.2506 80.3387 29.4213 80.584C29.1119 80.7867 28.8239 80.9467 28.5573 81.064C28.2906 81.1813 28.0026 81.2667 27.6933 81.32C27.3946 81.3733 27.0426 81.4 26.6373 81.4C25.8053 81.4 25.1066 81.2027 24.5413 80.808C23.9866 80.4133 23.5386 79.8693 23.1973 79.176C22.8559 78.4827 22.5999 77.688 22.4293 76.792C22.2693 75.896 22.1626 74.9467 22.1093 73.944H21.8533C21.7253 74.5413 21.6026 75.1387 21.4852 75.736C21.3786 76.3333 21.2879 76.8667 21.2133 77.336C21.1493 77.8053 21.1173 78.152 21.1173 78.376C21.1173 78.92 21.1546 79.3787 21.2293 79.752C21.3146 80.1253 21.4373 80.44 21.5973 80.696C20.9573 81.176 20.2959 81.416 19.6133 81.416ZM35.9991 81.4C35.0071 81.4 34.1698 81.224 33.4871 80.872C32.8045 80.52 32.2871 80.0293 31.9351 79.4C31.5938 78.76 31.4231 78.024 31.4231 77.192C31.4231 76.328 31.5778 75.544 31.8871 74.84C32.2071 74.1253 32.6498 73.512 33.2151 73C33.7805 72.488 34.4365 72.0933 35.1831 71.816C35.9405 71.5387 36.7565 71.4 37.6311 71.4C38.6658 71.4 39.4285 71.6293 39.9191 72.088C40.4098 72.5467 40.6551 73.1227 40.6551 73.816C40.6551 74.4133 40.4578 74.9787 40.0631 75.512C39.6791 76.0347 39.0551 76.4613 38.1911 76.792C37.3271 77.112 36.1751 77.2773 34.7351 77.288C34.7671 77.9707 34.9218 78.5093 35.1991 78.904C35.4871 79.288 35.8445 79.48 36.2711 79.48C36.4845 79.48 36.7085 79.432 36.9431 79.336C37.1778 79.2293 37.3751 79.048 37.5351 78.792C37.6951 78.5253 37.7751 78.1627 37.7751 77.704C38.5005 77.704 39.0711 77.784 39.4871 77.944C39.9031 78.104 40.1111 78.392 40.1111 78.808C40.1111 79.192 39.9458 79.5867 39.6151 79.992C39.2845 80.3867 38.8098 80.7227 38.1911 81C37.5831 81.2667 36.8525 81.4 35.9991 81.4ZM34.8791 76.008C35.6578 75.944 36.2818 75.8 36.7511 75.576C37.2205 75.352 37.5618 75.096 37.7751 74.808C37.9885 74.52 38.0951 74.2533 38.0951 74.008C38.0951 73.7947 38.0311 73.6187 37.9031 73.48C37.7751 73.3413 37.5938 73.272 37.3591 73.272C36.9751 73.272 36.6178 73.4053 36.2871 73.672C35.9565 73.9387 35.6685 74.2853 35.4231 74.712C35.1885 75.128 35.0071 75.56 34.8791 76.008ZM42.7708 81.4C42.3228 81.4 41.9654 81.2613 41.6988 80.984C41.4321 80.696 41.2988 80.3227 41.2988 79.864C41.2988 79.48 41.3894 79.1227 41.5708 78.792C41.7628 78.4507 42.0081 78.136 42.3068 77.848C42.6161 77.5493 42.9468 77.288 43.2988 77.064C43.6508 76.8293 43.9921 76.632 44.3228 76.472L44.7868 76.248L43.8268 74.488C43.6561 74.1787 43.4268 73.8853 43.1388 73.608C42.8614 73.32 42.4721 73.0907 41.9708 72.92C42.6321 71.9067 43.4961 71.4 44.5628 71.4C45.0428 71.4 45.4481 71.5333 45.7788 71.8C46.1094 72.056 46.4668 72.536 46.8508 73.24L47.5548 74.536C47.8428 74.2587 48.0721 73.9867 48.2428 73.72C48.4241 73.4533 48.5148 73.1547 48.5148 72.824C48.5148 72.6747 48.5041 72.5413 48.4828 72.424C48.4614 72.3067 48.4294 72.1947 48.3868 72.088C49.1441 71.6293 49.8588 71.4 50.5308 71.4C50.9788 71.4 51.3361 71.544 51.6028 71.832C51.8694 72.1093 52.0028 72.4773 52.0028 72.936C52.0028 73.32 51.9068 73.6827 51.7148 74.024C51.5334 74.3547 51.2881 74.6693 50.9788 74.968C50.6801 75.256 50.3548 75.5173 50.0028 75.752C49.6508 75.976 49.3094 76.168 48.9788 76.328L48.6268 76.504L49.6348 78.328C49.7948 78.6267 50.0081 78.92 50.2748 79.208C50.5521 79.496 50.9574 79.7253 51.4908 79.896C50.8188 80.8987 49.9494 81.4 48.8828 81.4C48.5628 81.4 48.2801 81.3467 48.0348 81.24C47.7894 81.1333 47.5548 80.9467 47.3308 80.68C47.1068 80.4133 46.8668 80.0453 46.6108 79.576L45.8428 78.168C45.5334 78.456 45.2774 78.744 45.0748 79.032C44.8828 79.32 44.7868 79.6347 44.7868 79.976C44.7868 80.1253 44.7974 80.2587 44.8188 80.376C44.8401 80.4933 44.8721 80.6053 44.9148 80.712C44.1574 81.1707 43.4428 81.4 42.7708 81.4ZM55.882 81.4C55.1993 81.4 54.714 81.1973 54.426 80.792C54.138 80.3867 53.994 79.768 53.994 78.936C53.994 78.7013 54.0207 78.3707 54.074 77.944C54.1273 77.5067 54.1967 77.0213 54.282 76.488C54.378 75.9547 54.4687 75.4267 54.554 74.904C54.33 74.9467 54.1113 74.9947 53.898 75.048C53.6953 75.1013 53.5033 75.16 53.322 75.224C53.2793 75.064 53.2473 74.904 53.226 74.744C53.2153 74.584 53.21 74.4667 53.21 74.392C53.21 73.8373 53.37 73.4373 53.69 73.192C54.0207 72.936 54.4153 72.808 54.874 72.808C54.874 72.5627 54.842 72.2907 54.778 71.992C54.714 71.6933 54.602 71.3627 54.442 71C54.89 70.6693 55.338 70.392 55.786 70.168C56.234 69.944 56.73 69.832 57.274 69.832C57.7433 69.832 58.0687 69.9227 58.25 70.104C58.4313 70.2747 58.522 70.5627 58.522 70.968C58.522 71.1707 58.5007 71.4107 58.458 71.688C58.4153 71.9653 58.362 72.2693 58.298 72.6C58.5327 72.568 58.7567 72.5307 58.97 72.488C59.1833 72.4347 59.3913 72.3813 59.594 72.328C59.6367 72.4453 59.6633 72.568 59.674 72.696C59.6953 72.8133 59.706 72.9307 59.706 73.048C59.706 73.4747 59.5727 73.848 59.306 74.168C59.05 74.4773 58.65 74.632 58.106 74.632H57.866C57.7167 75.3147 57.5833 76.0133 57.466 76.728C57.3487 77.4427 57.29 78.1093 57.29 78.728C57.29 79.144 57.3273 79.5173 57.402 79.848C57.4873 80.168 57.6153 80.424 57.786 80.616C57.1887 81.1387 56.554 81.4 55.882 81.4ZM67.5683 81.416C66.8536 81.416 66.3469 81.2133 66.0483 80.808C65.7603 80.392 65.6163 79.768 65.6163 78.936C65.6163 78.4027 65.7016 77.6027 65.8723 76.536C66.0536 75.4587 66.3043 74.0347 66.6243 72.264L65.7763 70.552C66.2776 70.232 66.8109 69.96 67.3763 69.736C67.9416 69.5013 68.5069 69.384 69.0723 69.384C69.5843 69.384 70.0323 69.464 70.4163 69.624C70.8109 69.7733 71.1523 70.0667 71.4403 70.504C71.7283 70.9307 71.9683 71.56 72.1603 72.392C72.3629 73.2133 72.5283 74.296 72.6562 75.64H72.8483C73.1043 74.904 73.4243 74.168 73.8083 73.432C74.1923 72.696 74.6509 72.024 75.1843 71.416C75.7176 70.808 76.3363 70.3227 77.0403 69.96C77.7549 69.5867 78.5656 69.4 79.4723 69.4C79.9736 69.4 80.3043 69.5493 80.4643 69.848C80.6243 70.136 80.7043 70.4827 80.7043 70.888C80.7043 71.0587 80.6723 71.336 80.6083 71.72C80.5549 72.0933 80.4803 72.5307 80.3843 73.032C80.2883 73.5227 80.1869 74.04 80.0803 74.584C79.9843 75.1173 79.8883 75.64 79.7923 76.152C79.6963 76.6533 79.6163 77.1013 79.5523 77.496C79.4989 77.88 79.4723 78.1733 79.4723 78.376C79.4723 78.92 79.5096 79.3787 79.5843 79.752C79.6696 80.1253 79.7923 80.44 79.9523 80.696C79.3123 81.176 78.6509 81.416 77.9683 81.416C77.2536 81.416 76.7469 81.2133 76.4483 80.808C76.1603 80.392 76.0163 79.768 76.0163 78.936C76.0163 78.4773 76.0803 77.8213 76.2083 76.968C76.3469 76.1147 76.5336 75.016 76.7683 73.672H76.5123C76.0536 74.28 75.6536 74.9627 75.3123 75.72C74.9709 76.4667 74.6989 77.2133 74.4963 77.96C74.3043 78.696 74.1763 79.352 74.1123 79.928C73.8456 80.1733 73.5523 80.36 73.2323 80.488C72.9229 80.6053 72.6136 80.664 72.3043 80.664C72.0483 80.664 71.8083 80.568 71.5843 80.376C71.3603 80.1733 71.1523 79.8213 70.9603 79.32C70.7683 78.8187 70.5976 78.1147 70.4483 77.208C70.3096 76.2907 70.1976 75.112 70.1123 73.672H69.8563C69.7176 74.28 69.5896 74.904 69.4723 75.544C69.3549 76.1733 69.2589 76.744 69.1843 77.256C69.1096 77.768 69.0723 78.1413 69.0723 78.376C69.0723 78.92 69.1096 79.3787 69.1843 79.752C69.2696 80.1253 69.3923 80.44 69.5523 80.696C68.9123 81.176 68.2509 81.416 67.5683 81.416ZM85.1224 70.36C84.6317 70.36 84.2264 70.2533 83.9064 70.04C83.5864 69.8267 83.4264 69.5387 83.4264 69.176C83.4264 68.824 83.5437 68.536 83.7784 68.312C84.013 68.0773 84.2957 67.9013 84.6264 67.784C84.9677 67.6667 85.2877 67.608 85.5864 67.608C86.077 67.608 86.4824 67.7147 86.8024 67.928C87.1224 68.1307 87.2824 68.4187 87.2824 68.792C87.2824 69.1013 87.181 69.3787 86.9784 69.624C86.7757 69.8587 86.509 70.04 86.1784 70.168C85.8584 70.296 85.5064 70.36 85.1224 70.36ZM84.1624 81.4C83.4797 81.4 82.9944 81.2293 82.7064 80.888C82.4184 80.5467 82.2744 80.056 82.2744 79.416C82.2744 79.1813 82.3064 78.856 82.3704 78.44C82.4344 78.0133 82.5197 77.544 82.6264 77.032C82.733 76.5093 82.845 75.9813 82.9624 75.448C83.0797 74.9147 83.1917 74.4133 83.2984 73.944L82.4024 72.6C82.9677 72.2587 83.5064 71.976 84.0184 71.752C84.5304 71.5173 85.0424 71.4 85.5544 71.4C86.0024 71.4 86.3117 71.496 86.4824 71.688C86.6637 71.88 86.7544 72.1787 86.7544 72.584C86.7544 72.744 86.7117 73.0053 86.6264 73.368C86.5517 73.7307 86.4557 74.1573 86.3384 74.648C86.221 75.1387 86.1037 75.656 85.9864 76.2C85.869 76.7333 85.7677 77.2613 85.6824 77.784C85.6077 78.296 85.5704 78.7547 85.5704 79.16C85.5704 79.48 85.6077 79.768 85.6824 80.024C85.7677 80.2693 85.8957 80.4667 86.0664 80.616C85.469 81.1387 84.8344 81.4 84.1624 81.4ZM91.1175 84.76C90.6268 84.76 90.1788 84.6907 89.7735 84.552C89.3682 84.4133 89.0428 84.2107 88.7975 83.944C88.5628 83.6773 88.4455 83.3573 88.4455 82.984C88.4455 82.7493 88.4935 82.4933 88.5895 82.216C88.6962 81.9387 88.8668 81.6453 89.1015 81.336C89.3468 81.688 89.6455 81.9547 89.9975 82.136C90.3602 82.328 90.7975 82.424 91.3095 82.424C91.6935 82.424 92.0828 82.312 92.4775 82.088C92.8722 81.864 93.2242 81.512 93.5335 81.032C93.8428 80.5627 94.0615 79.9493 94.1895 79.192L94.0295 79.112C93.6348 79.6987 93.1762 80.1253 92.6535 80.392C92.1308 80.648 91.6188 80.776 91.1175 80.776C90.5202 80.776 90.0028 80.616 89.5655 80.296C89.1388 79.976 88.8082 79.5333 88.5735 78.968C88.3495 78.392 88.2375 77.7253 88.2375 76.968C88.2375 76.3387 88.3548 75.6987 88.5895 75.048C88.8242 74.3867 89.1868 73.784 89.6775 73.24C90.1682 72.6853 90.7922 72.2427 91.5495 71.912C92.3175 71.5707 93.2348 71.4 94.3015 71.4C94.5148 71.4 94.7175 71.4107 94.9095 71.432C95.1122 71.4427 95.3308 71.4747 95.5655 71.528C95.5868 71.6347 95.6082 71.7573 95.6295 71.896C95.6508 72.024 95.6668 72.1627 95.6775 72.312C95.9335 72.1307 96.1895 72.0027 96.4455 71.928C96.7122 71.8427 96.9628 71.8 97.1975 71.8C97.5922 71.8 97.8748 71.9013 98.0455 72.104C98.2162 72.296 98.3015 72.5947 98.3015 73C98.3015 73.6613 98.2535 74.408 98.1575 75.24C98.0615 76.072 97.9068 76.9307 97.6935 77.816C97.4802 78.7013 97.1922 79.5547 96.8295 80.376C96.4775 81.1973 96.0348 81.9387 95.5015 82.6C94.9788 83.2613 94.3548 83.784 93.6295 84.168C92.9042 84.5627 92.0668 84.76 91.1175 84.76ZM92.8455 78.344C93.1122 78.344 93.3895 78.2747 93.6775 78.136C93.9655 77.9973 94.2322 77.7787 94.4775 77.48C94.6055 76.7867 94.7282 76.0453 94.8455 75.256C94.9628 74.4667 95.0748 73.7093 95.1815 72.984C94.3602 72.984 93.6562 73.1493 93.0695 73.48C92.4828 73.8107 92.0348 74.248 91.7255 74.792C91.4162 75.3253 91.2615 75.9013 91.2615 76.52C91.2615 77.0747 91.4162 77.5173 91.7255 77.848C92.0455 78.1787 92.4188 78.344 92.8455 78.344ZM101.782 81.4C101.131 81.4 100.667 81.2293 100.39 80.888C100.112 80.5467 99.9738 80.056 99.9738 79.416C99.9738 79.192 100.006 78.8507 100.07 78.392C100.134 77.9227 100.214 77.4053 100.31 76.84C100.416 76.264 100.528 75.688 100.646 75.112C100.763 74.536 100.875 74.024 100.982 73.576L100.15 72.296C100.704 72.0507 101.216 71.8427 101.686 71.672C102.166 71.4907 102.592 71.4 102.966 71.4C103.243 71.4 103.446 71.496 103.574 71.688C103.702 71.88 103.766 72.1253 103.766 72.424C103.766 72.7653 103.707 73.1493 103.59 73.576C103.472 73.992 103.355 74.3867 103.238 74.76L103.398 74.84C103.771 73.7413 104.192 72.8933 104.662 72.296C105.142 71.6987 105.675 71.4 106.262 71.4C106.646 71.4 106.955 71.4853 107.19 71.656C107.424 71.816 107.595 72.0187 107.702 72.264C107.819 72.4987 107.878 72.728 107.878 72.952C107.878 73.304 107.787 73.6453 107.606 73.976C107.435 74.296 107.158 74.5627 106.774 74.776C106.39 74.9787 105.883 75.08 105.254 75.08C105.008 75.08 104.768 75.1333 104.534 75.24C104.299 75.3467 104.086 75.5493 103.894 75.848C103.702 76.136 103.547 76.5467 103.43 77.08C103.323 77.6133 103.27 78.3067 103.27 79.16C103.27 79.8213 103.382 80.3067 103.606 80.616C102.944 81.1387 102.336 81.4 101.782 81.4ZM110.71 81.4C110.113 81.4 109.585 81.2453 109.126 80.936C108.678 80.6267 108.331 80.1893 108.086 79.624C107.841 79.0587 107.718 78.3973 107.718 77.64C107.718 76.7547 107.873 75.9333 108.182 75.176C108.502 74.4187 108.939 73.7573 109.494 73.192C110.059 72.6267 110.721 72.1893 111.478 71.88C112.235 71.56 113.057 71.4 113.942 71.4C114.198 71.4 114.417 71.4107 114.598 71.432C114.79 71.4427 114.993 71.4747 115.206 71.528C115.27 71.8267 115.307 72.088 115.318 72.312C115.563 72.152 115.835 72.0293 116.134 71.944C116.433 71.848 116.71 71.8 116.966 71.8C117.745 71.8 118.134 72.2213 118.134 73.064C118.134 73.3413 118.081 73.72 117.974 74.2C117.878 74.6693 117.761 75.192 117.622 75.768C117.494 76.3333 117.377 76.9147 117.27 77.512C117.174 78.0987 117.126 78.648 117.126 79.16C117.126 79.8533 117.291 80.3387 117.622 80.616C117.025 81.1387 116.39 81.4 115.718 81.4C115.099 81.4 114.641 81.208 114.342 80.824C114.054 80.44 113.91 79.8427 113.91 79.032L113.75 78.952C113.462 79.72 113.046 80.3227 112.502 80.76C111.969 81.1867 111.371 81.4 110.71 81.4ZM111.974 78.488C112.39 78.488 112.795 78.3387 113.19 78.04C113.585 77.7413 113.915 77.3307 114.182 76.808C114.225 76.392 114.267 76.0027 114.31 75.64C114.363 75.2667 114.427 74.872 114.502 74.456C114.587 74.04 114.689 73.5493 114.806 72.984C114.262 72.984 113.745 73.0907 113.254 73.304C112.774 73.5067 112.342 73.7893 111.958 74.152C111.574 74.5147 111.27 74.9307 111.046 75.4C110.833 75.8587 110.726 76.344 110.726 76.856C110.726 77.3787 110.833 77.784 111.046 78.072C111.27 78.3493 111.579 78.488 111.974 78.488ZM122.491 81.4C121.809 81.4 121.323 81.1973 121.035 80.792C120.747 80.3867 120.603 79.768 120.603 78.936C120.603 78.7013 120.63 78.3707 120.683 77.944C120.737 77.5067 120.806 77.0213 120.891 76.488C120.987 75.9547 121.078 75.4267 121.163 74.904C120.939 74.9467 120.721 74.9947 120.507 75.048C120.305 75.1013 120.113 75.16 119.931 75.224C119.889 75.064 119.857 74.904 119.835 74.744C119.825 74.584 119.819 74.4667 119.819 74.392C119.819 73.8373 119.979 73.4373 120.299 73.192C120.63 72.936 121.025 72.808 121.483 72.808C121.483 72.5627 121.451 72.2907 121.387 71.992C121.323 71.6933 121.211 71.3627 121.051 71C121.499 70.6693 121.947 70.392 122.395 70.168C122.843 69.944 123.339 69.832 123.883 69.832C124.353 69.832 124.678 69.9227 124.859 70.104C125.041 70.2747 125.131 70.5627 125.131 70.968C125.131 71.1707 125.11 71.4107 125.067 71.688C125.025 71.9653 124.971 72.2693 124.907 72.6C125.142 72.568 125.366 72.5307 125.579 72.488C125.793 72.4347 126.001 72.3813 126.203 72.328C126.246 72.4453 126.273 72.568 126.283 72.696C126.305 72.8133 126.315 72.9307 126.315 73.048C126.315 73.4747 126.182 73.848 125.915 74.168C125.659 74.4773 125.259 74.632 124.715 74.632H124.475C124.326 75.3147 124.193 76.0133 124.075 76.728C123.958 77.4427 123.899 78.1093 123.899 78.728C123.899 79.144 123.937 79.5173 124.011 79.848C124.097 80.168 124.225 80.424 124.395 80.616C123.798 81.1387 123.163 81.4 122.491 81.4ZM130.357 70.36C129.866 70.36 129.461 70.2533 129.141 70.04C128.821 69.8267 128.661 69.5387 128.661 69.176C128.661 68.824 128.778 68.536 129.013 68.312C129.247 68.0773 129.53 67.9013 129.861 67.784C130.202 67.6667 130.522 67.608 130.821 67.608C131.311 67.608 131.717 67.7147 132.037 67.928C132.357 68.1307 132.517 68.4187 132.517 68.792C132.517 69.1013 132.415 69.3787 132.213 69.624C132.01 69.8587 131.743 70.04 131.413 70.168C131.093 70.296 130.741 70.36 130.357 70.36ZM129.397 81.4C128.714 81.4 128.229 81.2293 127.941 80.888C127.653 80.5467 127.509 80.056 127.509 79.416C127.509 79.1813 127.541 78.856 127.605 78.44C127.669 78.0133 127.754 77.544 127.861 77.032C127.967 76.5093 128.079 75.9813 128.197 75.448C128.314 74.9147 128.426 74.4133 128.533 73.944L127.637 72.6C128.202 72.2587 128.741 71.976 129.253 71.752C129.765 71.5173 130.277 71.4 130.789 71.4C131.237 71.4 131.546 71.496 131.717 71.688C131.898 71.88 131.989 72.1787 131.989 72.584C131.989 72.744 131.946 73.0053 131.861 73.368C131.786 73.7307 131.69 74.1573 131.573 74.648C131.455 75.1387 131.338 75.656 131.221 76.2C131.103 76.7333 131.002 77.2613 130.917 77.784C130.842 78.296 130.805 78.7547 130.805 79.16C130.805 79.48 130.842 79.768 130.917 80.024C131.002 80.2693 131.13 80.4667 131.301 80.616C130.703 81.1387 130.069 81.4 129.397 81.4ZM137.92 81.4C136.981 81.4 136.171 81.224 135.488 80.872C134.816 80.5093 134.299 80.0133 133.936 79.384C133.573 78.7547 133.392 78.024 133.392 77.192C133.392 76.04 133.643 75.032 134.144 74.168C134.656 73.2933 135.355 72.616 136.24 72.136C137.125 71.6453 138.133 71.4 139.264 71.4C139.445 71.4 139.627 71.4107 139.808 71.432C140 71.4427 140.203 71.4747 140.416 71.528C140.469 71.6773 140.512 71.8587 140.544 72.072C140.576 72.2747 140.597 72.4933 140.608 72.728C140.704 72.696 140.805 72.6693 140.912 72.648C141.029 72.6267 141.152 72.616 141.28 72.616C141.653 72.616 142.005 72.7173 142.336 72.92C142.667 73.112 142.939 73.416 143.152 73.832C143.365 74.248 143.472 74.776 143.472 75.416C143.472 76.3653 143.312 77.2133 142.992 77.96C142.683 78.696 142.261 79.32 141.728 79.832C141.195 80.344 140.597 80.7333 139.936 81C139.285 81.2667 138.613 81.4 137.92 81.4ZM138.416 79.432C138.661 79.432 138.917 79.3733 139.184 79.256C139.451 79.1387 139.712 78.9253 139.968 78.616C140.224 78.3067 140.437 77.8693 140.608 77.304C140.149 77.016 139.819 76.664 139.616 76.248C139.413 75.8213 139.312 75.352 139.312 74.84C139.312 74.6907 139.339 74.4987 139.392 74.264C139.445 74.0293 139.536 73.7893 139.664 73.544C139.803 73.2987 139.989 73.096 140.224 72.936C139.488 73.0853 138.885 73.3093 138.416 73.608C137.947 73.9067 137.579 74.2533 137.312 74.648C137.056 75.032 136.875 75.432 136.768 75.848C136.672 76.2533 136.624 76.6427 136.624 77.016C136.624 77.4427 136.693 77.8427 136.832 78.216C136.971 78.5787 137.173 78.872 137.44 79.096C137.707 79.32 138.032 79.432 138.416 79.432ZM146.861 81.4C146.189 81.4 145.709 81.2293 145.421 80.888C145.133 80.5467 144.989 80.056 144.989 79.416C144.989 79.192 145.021 78.8507 145.085 78.392C145.149 77.9227 145.229 77.4053 145.325 76.84C145.432 76.264 145.544 75.688 145.661 75.112C145.779 74.536 145.891 74.024 145.997 73.576L145.165 72.296C145.603 72.0507 146.072 71.8427 146.573 71.672C147.085 71.4907 147.603 71.4 148.125 71.4C148.573 71.4 148.904 71.512 149.117 71.736C149.331 71.9493 149.437 72.2427 149.437 72.616C149.437 72.8933 149.4 73.1813 149.325 73.48C149.251 73.7787 149.165 74.0347 149.069 74.248L149.229 74.328C149.859 73.2507 150.547 72.4933 151.293 72.056C152.04 71.6187 152.803 71.4 153.581 71.4C154.232 71.4 154.717 71.56 155.037 71.88C155.357 72.1893 155.517 72.6747 155.517 73.336C155.517 73.912 155.437 74.5253 155.277 75.176C155.128 75.816 154.973 76.4773 154.813 77.16C154.653 77.832 154.573 78.4987 154.573 79.16C154.573 79.8213 154.685 80.3067 154.909 80.616C154.344 81.1387 153.757 81.4 153.149 81.4C152.477 81.4 151.997 81.2293 151.709 80.888C151.421 80.5467 151.277 80.056 151.277 79.416C151.277 79.064 151.325 78.6747 151.421 78.248C151.517 77.8107 151.629 77.368 151.757 76.92C151.885 76.472 151.997 76.0507 152.093 75.656C152.189 75.2613 152.237 74.92 152.237 74.632C152.237 74.408 152.195 74.232 152.109 74.104C152.035 73.976 151.896 73.912 151.693 73.912C151.405 73.912 151.069 74.04 150.685 74.296C150.301 74.552 149.923 74.9147 149.549 75.384C149.187 75.8427 148.883 76.392 148.637 77.032C148.403 77.672 148.285 78.3813 148.285 79.16C148.285 79.8213 148.397 80.3067 148.621 80.616C148.056 81.1387 147.469 81.4 146.861 81.4ZM162.151 82.648C161.927 82.648 161.693 82.6107 161.447 82.536C161.213 82.472 160.967 82.3387 160.711 82.136C160.978 81.8907 161.223 81.496 161.447 80.952C161.671 80.3973 161.874 79.8 162.055 79.16C162.439 77.816 162.781 76.5093 163.079 75.24C163.389 73.9707 163.666 72.7973 163.911 71.72C164.167 70.632 164.391 69.704 164.583 68.936C164.658 68.6373 164.791 68.392 164.983 68.2C165.175 68.008 165.463 67.912 165.847 67.912C166.21 67.912 166.546 67.9813 166.855 68.12C167.165 68.248 167.447 68.4293 167.703 68.664C167.522 68.9413 167.341 69.272 167.159 69.656C166.989 70.04 166.834 70.4293 166.695 70.824C166.557 71.208 166.445 71.5547 166.359 71.864C166.125 72.6853 165.911 73.4587 165.719 74.184C165.527 74.9093 165.341 75.624 165.159 76.328C164.978 77.0213 164.786 77.7413 164.583 78.488C164.391 79.2347 164.173 80.0453 163.927 80.92C163.778 81.464 163.559 81.8853 163.271 82.184C162.994 82.4933 162.621 82.648 162.151 82.648ZM167.175 82.648C166.951 82.648 166.717 82.6107 166.471 82.536C166.237 82.472 165.991 82.3387 165.735 82.136C166.002 81.8907 166.247 81.496 166.471 80.952C166.695 80.3973 166.898 79.8 167.079 79.16C167.463 77.816 167.805 76.5093 168.103 75.24C168.413 73.9707 168.69 72.7973 168.935 71.72C169.191 70.632 169.415 69.704 169.607 68.936C169.682 68.6373 169.815 68.392 170.007 68.2C170.199 68.008 170.487 67.912 170.871 67.912C171.234 67.912 171.57 67.9813 171.879 68.12C172.189 68.248 172.471 68.4293 172.727 68.664C172.546 68.9413 172.365 69.272 172.183 69.656C172.013 70.04 171.858 70.4293 171.719 70.824C171.581 71.208 171.469 71.5547 171.383 71.864C171.149 72.6853 170.935 73.4587 170.743 74.184C170.551 74.9093 170.365 75.624 170.183 76.328C170.002 77.0213 169.81 77.7413 169.607 78.488C169.415 79.2347 169.197 80.0453 168.951 80.92C168.802 81.464 168.583 81.8853 168.295 82.184C168.018 82.4933 167.645 82.648 167.175 82.648ZM162.663 73.928C162.471 73.928 162.306 73.864 162.167 73.736C162.029 73.5973 161.959 73.352 161.959 73C161.959 72.6587 162.007 72.3227 162.103 71.992C162.199 71.6613 162.333 71.368 162.503 71.112C162.813 71.2293 163.159 71.3093 163.543 71.352C163.938 71.3947 164.285 71.416 164.583 71.416C165.138 71.416 165.703 71.4107 166.279 71.4C166.866 71.3893 167.453 71.3787 168.039 71.368C169.255 71.336 170.477 71.32 171.703 71.32C172.13 71.32 172.461 71.4107 172.695 71.592C172.93 71.7733 173.047 72.088 173.047 72.536C173.047 72.7387 173.026 72.952 172.983 73.176C172.941 73.4 172.855 73.6187 172.727 73.832C172.503 73.736 172.221 73.6667 171.879 73.624C171.538 73.5707 171.165 73.544 170.759 73.544C169.981 73.544 169.138 73.5707 168.231 73.624C167.325 73.6667 166.466 73.7147 165.655 73.768C165.037 73.8107 164.466 73.848 163.943 73.88C163.431 73.912 163.005 73.928 162.663 73.928ZM161.447 78.76C161.255 78.76 161.09 78.696 160.951 78.568C160.813 78.4293 160.743 78.184 160.743 77.832C160.743 77.4907 160.791 77.1547 160.887 76.824C160.983 76.4933 161.117 76.2 161.287 75.944C161.597 76.0613 161.943 76.1413 162.327 76.184C162.722 76.2267 163.069 76.248 163.367 76.248C163.922 76.248 164.487 76.2427 165.063 76.232C165.65 76.2213 166.237 76.2107 166.823 76.2C168.039 76.168 169.261 76.152 170.487 76.152C170.914 76.152 171.245 76.2427 171.479 76.424C171.714 76.6053 171.831 76.92 171.831 77.368C171.831 77.5707 171.81 77.784 171.767 78.008C171.725 78.232 171.639 78.4507 171.511 78.664C171.287 78.568 171.005 78.4987 170.663 78.456C170.322 78.4027 169.949 78.376 169.543 78.376C168.765 78.376 167.922 78.4027 167.015 78.456C166.109 78.4987 165.25 78.5467 164.439 78.6C163.821 78.6427 163.25 78.68 162.727 78.712C162.215 78.744 161.789 78.76 161.447 78.76ZM175.918 83.496C174.872 83.496 174.056 83.336 173.47 83.016C172.894 82.7067 172.606 82.2587 172.606 81.672C172.606 81.1707 172.792 80.7867 173.166 80.52C173.55 80.2427 173.976 80.104 174.446 80.104C174.798 80.104 175.171 80.216 175.566 80.44C175.971 80.6533 176.307 80.9947 176.574 81.464C176.894 81.3787 177.203 81.224 177.502 81C177.8 80.7653 178.046 80.488 178.238 80.168C178.43 79.848 178.526 79.5173 178.526 79.176C178.526 78.952 178.478 78.7333 178.382 78.52C178.296 78.296 178.147 78.0827 177.934 77.88C177.71 78.008 177.411 78.136 177.038 78.264C176.664 78.3813 176.296 78.44 175.934 78.44C175.582 78.44 175.278 78.3547 175.022 78.184C174.776 78.0133 174.654 77.704 174.654 77.256C174.654 76.84 174.84 76.472 175.214 76.152C175.598 75.832 176.211 75.672 177.054 75.672C177.16 75.672 177.267 75.672 177.374 75.672C177.491 75.672 177.608 75.6827 177.726 75.704C178.014 75.48 178.238 75.192 178.398 74.84C178.568 74.488 178.654 74.1413 178.654 73.8C178.654 73.4373 178.547 73.128 178.334 72.872C178.12 72.6053 177.779 72.472 177.31 72.472C177.16 72.472 176.963 72.5307 176.718 72.648C176.483 72.7547 176.248 72.9413 176.014 73.208C175.779 73.4747 175.592 73.8533 175.454 74.344C174.846 74.312 174.403 74.152 174.126 73.864C173.848 73.5653 173.71 73.208 173.71 72.792C173.71 72.3227 173.864 71.8587 174.174 71.4C174.483 70.9413 174.974 70.5627 175.646 70.264C176.328 69.9547 177.219 69.8 178.318 69.8C179.064 69.8 179.683 69.8907 180.174 70.072C180.664 70.2533 181.048 70.488 181.326 70.776C181.603 71.0533 181.795 71.3573 181.902 71.688C182.019 72.0187 182.078 72.3333 182.078 72.632C182.078 73.2933 181.896 73.944 181.534 74.584C181.182 75.224 180.68 75.8533 180.03 76.472C181.406 77.1227 182.094 78.0827 182.094 79.352C182.094 80.0773 181.843 80.7547 181.342 81.384C180.84 82.024 180.126 82.536 179.198 82.92C178.28 83.304 177.187 83.496 175.918 83.496Z" fill="white"/>
</svg>
