<svg width="100%" height="100%" viewBox="0 0 200 150" fill="none" xmlns="http://www.w3.org/2000/svg">
<rect width="100%" height="100%" fill="#264DB1"/>
<path d="M23.3316 75.288H33.2676V76.36H23.3316V75.288ZM21.6516 79.352H34.7716V80.44H21.6516V79.352ZM27.5236 75.832H28.8516V79.848H27.5236V75.832ZM23.3316 68.952H33.1236V70.04H24.6756V75.688H23.3316V68.952ZM24.2596 72.056H32.8036V73.128H24.2596V72.056ZM42.1623 68.76H43.3303V69.88C43.3303 70.5093 43.2183 71.1067 42.9943 71.672C42.781 72.2373 42.4823 72.7653 42.0983 73.256C41.725 73.736 41.2876 74.168 40.7863 74.552C40.2956 74.936 39.7676 75.2613 39.2023 75.528C38.6476 75.7947 38.0823 75.9973 37.5063 76.136L36.9143 75.032C37.4156 74.9253 37.917 74.76 38.4183 74.536C38.9303 74.312 39.4103 74.04 39.8583 73.72C40.3063 73.3893 40.701 73.0213 41.0423 72.616C41.3943 72.2107 41.6663 71.7787 41.8583 71.32C42.061 70.8507 42.1623 70.3707 42.1623 69.88V68.76ZM42.4183 68.76H43.5543V69.88C43.5543 70.3707 43.6556 70.8507 43.8583 71.32C44.061 71.7787 44.333 72.2107 44.6743 72.616C45.0263 73.0213 45.4263 73.3893 45.8743 73.72C46.3223 74.04 46.797 74.3173 47.2983 74.552C47.8103 74.776 48.3223 74.936 48.8343 75.032L48.2263 76.136C47.6503 75.9973 47.085 75.7947 46.5303 75.528C45.9756 75.2613 45.4476 74.936 44.9463 74.552C44.4556 74.168 44.0183 73.736 43.6343 73.256C43.2503 72.7653 42.9516 72.2373 42.7383 71.672C42.525 71.1067 42.4183 70.5093 42.4183 69.88V68.76ZM36.3703 79.192H49.4903V80.296H36.3703V79.192ZM55.8859 79.288H69.0059V80.392H55.8859V79.288ZM61.7579 75.544H63.0699V79.592H61.7579V75.544ZM57.4219 68.968H67.4059V75.784H57.4219V68.968ZM66.1099 70.04H58.7179V74.728H66.1099V70.04ZM75.2927 68.824C76.05 68.824 76.7167 68.968 77.2927 69.256C77.8794 69.5333 78.338 69.928 78.6687 70.44C78.9994 70.952 79.1647 71.5493 79.1647 72.232C79.1647 72.904 78.9994 73.5013 78.6687 74.024C78.338 74.536 77.8794 74.936 77.2927 75.224C76.7167 75.5013 76.05 75.64 75.2927 75.64C74.546 75.64 73.8794 75.5013 73.2927 75.224C72.706 74.936 72.242 74.536 71.9007 74.024C71.57 73.5013 71.4047 72.904 71.4047 72.232C71.4047 71.5493 71.57 70.952 71.9007 70.44C72.242 69.928 72.706 69.5333 73.2927 69.256C73.8794 68.968 74.546 68.824 75.2927 68.824ZM75.2927 69.976C74.802 69.976 74.3594 70.072 73.9647 70.264C73.5807 70.4453 73.2767 70.7067 73.0527 71.048C72.8287 71.3893 72.7167 71.784 72.7167 72.232C72.7167 72.68 72.8287 73.0747 73.0527 73.416C73.2767 73.7573 73.5807 74.024 73.9647 74.216C74.3594 74.3973 74.802 74.488 75.2927 74.488C75.794 74.488 76.2367 74.3973 76.6207 74.216C77.0047 74.024 77.3087 73.7573 77.5327 73.416C77.7567 73.0747 77.8687 72.68 77.8687 72.232C77.8687 71.784 77.7567 71.3893 77.5327 71.048C77.3087 70.7067 77.0047 70.4453 76.6207 70.264C76.2367 70.072 75.794 69.976 75.2927 69.976ZM81.0687 67.768H82.3967V82.264H81.0687V67.768ZM70.8607 79.096L70.6847 77.976C71.57 77.976 72.5407 77.9707 73.5967 77.96C74.6527 77.9387 75.7407 77.896 76.8607 77.832C77.9914 77.7573 79.0794 77.64 80.1247 77.48L80.2367 78.456C79.1487 78.6587 78.0447 78.808 76.9247 78.904C75.8154 78.9893 74.7434 79.0427 73.7087 79.064C72.674 79.0853 71.7247 79.096 70.8607 79.096ZM86.7154 69.224H96.0274V70.312H86.7154V69.224ZM85.3234 79.112H98.3954V80.216H85.3234V79.112ZM90.4114 73.944H91.7234V79.672H90.4114V73.944ZM95.5154 69.224H96.8434V70.648C96.8434 71.2453 96.8328 71.8747 96.8114 72.536C96.8008 73.1973 96.7581 73.9227 96.6834 74.712C96.6194 75.5013 96.4968 76.3813 96.3154 77.352L94.9714 77.192C95.2488 75.8053 95.4088 74.5893 95.4514 73.544C95.4941 72.488 95.5154 71.5227 95.5154 70.648V69.224ZM103.578 69.016H104.666V71.608C104.666 72.408 104.565 73.192 104.362 73.96C104.17 74.728 103.893 75.448 103.53 76.12C103.168 76.792 102.741 77.3893 102.25 77.912C101.76 78.4347 101.226 78.8507 100.65 79.16L99.8342 78.088C100.368 77.8213 100.858 77.464 101.306 77.016C101.765 76.5573 102.165 76.0347 102.506 75.448C102.848 74.8613 103.109 74.2427 103.29 73.592C103.482 72.9307 103.578 72.2693 103.578 71.608V69.016ZM103.818 69.016H104.89V71.608C104.89 72.248 104.981 72.8827 105.162 73.512C105.354 74.1413 105.621 74.7333 105.962 75.288C106.304 75.8427 106.693 76.3387 107.13 76.776C107.578 77.2133 108.058 77.56 108.57 77.816L107.754 78.872C107.189 78.584 106.666 78.1893 106.186 77.688C105.717 77.1867 105.301 76.616 104.938 75.976C104.586 75.3253 104.309 74.632 104.106 73.896C103.914 73.1493 103.818 72.3867 103.818 71.608V69.016ZM109.834 67.768H111.162V82.248H109.834V67.768ZM110.858 73.624H113.53V74.76H110.858V73.624ZM126.662 81.4C125.99 81.4 125.344 81.3147 124.726 81.144C124.107 80.9733 123.419 80.7547 122.662 80.488C122.278 80.7867 121.904 80.9947 121.542 81.112C121.179 81.24 120.864 81.304 120.598 81.304C120.054 81.304 119.643 81.1227 119.366 80.76C119.088 80.3867 118.95 79.96 118.95 79.48C118.95 79.1067 119.046 78.744 119.238 78.392C119.44 78.0293 119.734 77.7307 120.118 77.496C120.502 77.2613 120.971 77.144 121.526 77.144C121.675 77.144 121.814 77.1547 121.942 77.176C122.07 77.1867 122.171 77.2027 122.246 77.224C123.088 76.5093 123.75 75.864 124.23 75.288C124.71 74.7013 124.95 74.1573 124.95 73.656C124.95 73.2933 124.832 73 124.598 72.776C124.374 72.552 124.07 72.44 123.686 72.44C123.494 72.44 123.28 72.4773 123.046 72.552C122.822 72.6267 122.592 72.7973 122.358 73.064C122.123 73.3307 121.904 73.752 121.702 74.328C121.211 74.2747 120.843 74.104 120.598 73.816C120.363 73.528 120.246 73.1867 120.246 72.792C120.246 72.3227 120.395 71.8587 120.694 71.4C121.003 70.9413 121.499 70.5627 122.182 70.264C122.875 69.9547 123.792 69.8 124.934 69.8C125.638 69.8 126.235 69.896 126.726 70.088C127.216 70.2693 127.616 70.5093 127.926 70.808C128.235 71.1067 128.459 71.4373 128.598 71.8C128.736 72.152 128.806 72.4987 128.806 72.84C128.806 73.3947 128.635 73.96 128.294 74.536C127.952 75.112 127.494 75.688 126.918 76.264C126.352 76.8293 125.718 77.3893 125.014 77.944C125.451 78.0187 125.846 78.0773 126.198 78.12C126.55 78.152 126.875 78.168 127.174 78.168L129.046 77.448C129.099 77.6507 129.142 77.8747 129.174 78.12C129.206 78.3547 129.222 78.5787 129.222 78.792C129.222 79.4 129.104 79.896 128.87 80.28C128.635 80.664 128.326 80.9467 127.942 81.128C127.558 81.3093 127.131 81.4 126.662 81.4ZM135.123 76.456H136.451V78.84H135.123V76.456ZM141.459 67.768H142.787V82.248H141.459V67.768ZM131.267 79.496L131.075 78.376C131.993 78.3653 132.985 78.3547 134.051 78.344C135.118 78.3333 136.206 78.296 137.315 78.232C138.425 78.168 139.497 78.0667 140.531 77.928L140.627 78.92C139.561 79.0907 138.478 79.2187 137.379 79.304C136.281 79.3787 135.209 79.432 134.163 79.464C133.118 79.4853 132.153 79.496 131.267 79.496ZM131.379 69.544H140.163V70.616H131.379V69.544ZM135.763 71.432C136.457 71.432 137.065 71.544 137.587 71.768C138.11 71.992 138.515 72.3067 138.803 72.712C139.102 73.1067 139.251 73.576 139.251 74.12C139.251 74.6533 139.102 75.1227 138.803 75.528C138.515 75.9333 138.11 76.248 137.587 76.472C137.065 76.6853 136.457 76.792 135.763 76.792C135.081 76.792 134.478 76.6853 133.955 76.472C133.433 76.248 133.027 75.9333 132.739 75.528C132.451 75.1227 132.307 74.6533 132.307 74.12C132.307 73.576 132.451 73.1067 132.739 72.712C133.027 72.3067 133.433 71.992 133.955 71.768C134.478 71.544 135.081 71.432 135.763 71.432ZM135.763 72.472C135.123 72.472 134.595 72.6213 134.179 72.92C133.763 73.2187 133.555 73.6187 133.555 74.12C133.555 74.6107 133.763 75.0053 134.179 75.304C134.595 75.6027 135.123 75.752 135.763 75.752C136.425 75.752 136.958 75.6027 137.363 75.304C137.779 75.0053 137.987 74.6107 137.987 74.12C137.987 73.6187 137.779 73.2187 137.363 72.92C136.958 72.6213 136.425 72.472 135.763 72.472ZM135.123 67.784H136.451V70.12H135.123V67.784ZM151.199 69.416H162.831V70.504H151.199V69.416ZM150.511 77.16H163.631V78.248H150.511V77.16ZM156.383 78.04H157.695V82.264H156.383V78.04ZM157.039 71.336C158.511 71.336 159.663 71.544 160.495 71.96C161.327 72.376 161.743 72.9733 161.743 73.752C161.743 74.5093 161.327 75.1013 160.495 75.528C159.663 75.944 158.511 76.152 157.039 76.152C155.567 76.152 154.415 75.944 153.583 75.528C152.751 75.1013 152.335 74.5093 152.335 73.752C152.335 72.9733 152.751 72.376 153.583 71.96C154.415 71.544 155.567 71.336 157.039 71.336ZM157.039 72.344C155.983 72.344 155.162 72.4667 154.575 72.712C153.999 72.9467 153.711 73.2933 153.711 73.752C153.711 74.1893 153.999 74.5307 154.575 74.776C155.162 75.0213 155.983 75.144 157.039 75.144C158.095 75.144 158.911 75.0213 159.487 74.776C160.074 74.5307 160.367 74.1893 160.367 73.752C160.367 73.2933 160.074 72.9467 159.487 72.712C158.911 72.4667 158.095 72.344 157.039 72.344ZM156.383 67.688H157.695V70.136H156.383V67.688ZM175.774 67.768H177.102V82.248H175.774V67.768ZM171.534 69.336H172.846C172.846 70.3813 172.718 71.3893 172.462 72.36C172.216 73.3307 171.827 74.2533 171.294 75.128C170.76 75.992 170.067 76.7973 169.214 77.544C168.36 78.2907 167.326 78.9573 166.11 79.544L165.406 78.472C166.803 77.8 167.955 77.016 168.862 76.12C169.768 75.224 170.44 74.2267 170.878 73.128C171.315 72.0187 171.534 70.824 171.534 69.544V69.336ZM166.078 69.336H172.094V70.408H166.078V69.336Z" fill="white"/>
</svg>
