<svg width="100%" height="100%" viewBox="0 0 200 150" fill="none" xmlns="http://www.w3.org/2000/svg">
<rect width="100%" height="100%" fill="#264DB1"/>
<path d="M35.6765 81.4C34.5992 81.4 33.8365 81.2507 33.3885 80.952C32.9405 80.6427 32.7165 80.1413 32.7165 79.448C32.7165 78.7867 32.7165 78.232 32.7165 77.784C32.7272 77.3253 32.7325 76.8987 32.7325 76.504C32.7325 75.896 32.7112 75.2827 32.6685 74.664C32.6258 74.0453 32.5405 73.4533 32.4125 72.888C32.2845 72.3227 32.0925 71.8107 31.8365 71.352C31.5805 70.8933 31.2392 70.52 30.8125 70.232C31.5378 69.6773 32.3698 69.4 33.3085 69.4C33.9592 69.4 34.4765 69.5867 34.8605 69.96C35.2445 70.3333 35.5325 70.8347 35.7245 71.464C35.9165 72.0827 36.0392 72.7707 36.0925 73.528C36.1565 74.2747 36.1885 75.0267 36.1885 75.784C36.1885 76.2747 36.1778 76.7493 36.1565 77.208C36.1458 77.6667 36.1405 78.088 36.1405 78.472H36.5565C36.8018 77.9387 37.0632 77.336 37.3405 76.664C37.6178 75.992 37.8792 75.3093 38.1245 74.616C38.3698 73.9227 38.5672 73.2667 38.7165 72.648C38.8765 72.0293 38.9565 71.512 38.9565 71.096C38.9565 70.9147 38.9405 70.7547 38.9085 70.616C38.8765 70.4667 38.8338 70.3387 38.7805 70.232C39.1858 69.9547 39.5645 69.7467 39.9165 69.608C40.2792 69.4693 40.6472 69.4 41.0205 69.4C41.6072 69.4 42.0178 69.5707 42.2525 69.912C42.4978 70.2427 42.6205 70.6747 42.6205 71.208C42.6205 71.6027 42.5458 72.0667 42.3965 72.6C42.2472 73.1333 42.0498 73.6987 41.8045 74.296C41.5698 74.8933 41.3192 75.4907 41.0525 76.088C40.7858 76.6747 40.5245 77.2293 40.2685 77.752C40.0232 78.2747 39.8205 78.728 39.6605 79.112L39.8845 79.992C39.5858 80.2373 39.2072 80.4667 38.7485 80.68C38.3005 80.8933 37.8098 81.064 37.2765 81.192C36.7538 81.3307 36.2205 81.4 35.6765 81.4ZM46.3411 70.36C45.8505 70.36 45.4451 70.2533 45.1251 70.04C44.8051 69.8267 44.6451 69.5387 44.6451 69.176C44.6451 68.824 44.7625 68.536 44.9971 68.312C45.2318 68.0773 45.5145 67.9013 45.8451 67.784C46.1865 67.6667 46.5065 67.608 46.8051 67.608C47.2958 67.608 47.7011 67.7147 48.0211 67.928C48.3411 68.1307 48.5011 68.4187 48.5011 68.792C48.5011 69.1013 48.3998 69.3787 48.1971 69.624C47.9945 69.8587 47.7278 70.04 47.3971 70.168C47.0771 70.296 46.7251 70.36 46.3411 70.36ZM45.3811 81.4C44.6985 81.4 44.2131 81.2293 43.9251 80.888C43.6371 80.5467 43.4931 80.056 43.4931 79.416C43.4931 79.1813 43.5251 78.856 43.5891 78.44C43.6531 78.0133 43.7385 77.544 43.8451 77.032C43.9518 76.5093 44.0638 75.9813 44.1811 75.448C44.2985 74.9147 44.4105 74.4133 44.5171 73.944L43.6211 72.6C44.1865 72.2587 44.7251 71.976 45.2371 71.752C45.7491 71.5173 46.2611 71.4 46.7731 71.4C47.2211 71.4 47.5305 71.496 47.7011 71.688C47.8825 71.88 47.9731 72.1787 47.9731 72.584C47.9731 72.744 47.9305 73.0053 47.8451 73.368C47.7705 73.7307 47.6745 74.1573 47.5571 74.648C47.4398 75.1387 47.3225 75.656 47.2051 76.2C47.0878 76.7333 46.9865 77.2613 46.9011 77.784C46.8265 78.296 46.7891 78.7547 46.7891 79.16C46.7891 79.48 46.8265 79.768 46.9011 80.024C46.9865 80.2693 47.1145 80.4667 47.2851 80.616C46.6878 81.1387 46.0531 81.4 45.3811 81.4ZM52.2883 81.4C51.6056 81.4 51.1203 81.1973 50.8323 80.792C50.5443 80.3867 50.4003 79.768 50.4003 78.936C50.4003 78.7013 50.4269 78.3707 50.4803 77.944C50.5336 77.5067 50.6029 77.0213 50.6883 76.488C50.7843 75.9547 50.8749 75.4267 50.9603 74.904C50.7363 74.9467 50.5176 74.9947 50.3043 75.048C50.1016 75.1013 49.9096 75.16 49.7283 75.224C49.6856 75.064 49.6536 74.904 49.6323 74.744C49.6216 74.584 49.6163 74.4667 49.6163 74.392C49.6163 73.8373 49.7763 73.4373 50.0963 73.192C50.4269 72.936 50.8216 72.808 51.2803 72.808C51.2803 72.5627 51.2483 72.2907 51.1843 71.992C51.1203 71.6933 51.0083 71.3627 50.8483 71C51.2963 70.6693 51.7443 70.392 52.1923 70.168C52.6403 69.944 53.1363 69.832 53.6803 69.832C54.1496 69.832 54.4749 69.9227 54.6563 70.104C54.8376 70.2747 54.9283 70.5627 54.9283 70.968C54.9283 71.1707 54.9069 71.4107 54.8643 71.688C54.8216 71.9653 54.7683 72.2693 54.7043 72.6C54.9389 72.568 55.1629 72.5307 55.3763 72.488C55.5896 72.4347 55.7976 72.3813 56.0003 72.328C56.0429 72.4453 56.0696 72.568 56.0803 72.696C56.1016 72.8133 56.1123 72.9307 56.1123 73.048C56.1123 73.4747 55.9789 73.848 55.7123 74.168C55.4563 74.4773 55.0563 74.632 54.5123 74.632H54.2723C54.1229 75.3147 53.9896 76.0133 53.8723 76.728C53.7549 77.4427 53.6963 78.1093 53.6963 78.728C53.6963 79.144 53.7336 79.5173 53.8083 79.848C53.8936 80.168 54.0216 80.424 54.1923 80.616C53.5949 81.1387 52.9603 81.4 52.2883 81.4ZM61.5616 81.4C60.5696 81.4 59.7323 81.224 59.0496 80.872C58.367 80.52 57.8496 80.0293 57.4976 79.4C57.1563 78.76 56.9856 78.024 56.9856 77.192C56.9856 76.328 57.1403 75.544 57.4496 74.84C57.7696 74.1253 58.2123 73.512 58.7776 73C59.343 72.488 59.999 72.0933 60.7456 71.816C61.503 71.5387 62.319 71.4 63.1936 71.4C64.2283 71.4 64.991 71.6293 65.4816 72.088C65.9723 72.5467 66.2176 73.1227 66.2176 73.816C66.2176 74.4133 66.0203 74.9787 65.6256 75.512C65.2416 76.0347 64.6176 76.4613 63.7536 76.792C62.8896 77.112 61.7376 77.2773 60.2976 77.288C60.3296 77.9707 60.4843 78.5093 60.7616 78.904C61.0496 79.288 61.407 79.48 61.8336 79.48C62.047 79.48 62.271 79.432 62.5056 79.336C62.7403 79.2293 62.9376 79.048 63.0976 78.792C63.2576 78.5253 63.3376 78.1627 63.3376 77.704C64.063 77.704 64.6336 77.784 65.0496 77.944C65.4656 78.104 65.6736 78.392 65.6736 78.808C65.6736 79.192 65.5083 79.5867 65.1776 79.992C64.847 80.3867 64.3723 80.7227 63.7536 81C63.1456 81.2667 62.415 81.4 61.5616 81.4ZM60.4416 76.008C61.2203 75.944 61.8443 75.8 62.3136 75.576C62.783 75.352 63.1243 75.096 63.3376 74.808C63.551 74.52 63.6576 74.2533 63.6576 74.008C63.6576 73.7947 63.5936 73.6187 63.4656 73.48C63.3376 73.3413 63.1563 73.272 62.9216 73.272C62.5376 73.272 62.1803 73.4053 61.8496 73.672C61.519 73.9387 61.231 74.2853 60.9856 74.712C60.751 75.128 60.5696 75.56 60.4416 76.008ZM74.1381 72.12H83.9781V73.192H74.1381V72.12ZM72.3621 75.128H85.4821V76.216H72.3621V75.128ZM74.1381 68.296H75.4501V72.664H74.1381V68.296ZM74.0421 80.808H84.0581V81.896H74.0421V80.808ZM74.0421 77.672H75.3701V81.096H74.0421V77.672ZM94.8058 75H96.0698V78.056H94.8058V75ZM91.8938 78.856L91.7178 77.752C92.2084 77.752 92.7631 77.7467 93.3818 77.736C94.0111 77.7253 94.6618 77.7093 95.3338 77.688C96.0058 77.656 96.6671 77.6187 97.3178 77.576C97.9684 77.5227 98.5764 77.4587 99.1418 77.384L99.2378 78.36C98.4591 78.4987 97.6218 78.6053 96.7258 78.68C95.8404 78.7547 94.9711 78.8027 94.1178 78.824C93.2751 78.8453 92.5338 78.856 91.8938 78.856ZM102.79 67.768H104.054V82.248H102.79V67.768ZM100.598 73.784H103.19V74.888H100.598V73.784ZM99.8138 68.088H101.062V81.48H99.8138V68.088ZM95.4298 69.144C96.0698 69.144 96.6351 69.2773 97.1258 69.544C97.6271 69.8 98.0164 70.1573 98.2938 70.616C98.5818 71.0747 98.7258 71.608 98.7258 72.216C98.7258 72.824 98.5818 73.3627 98.2938 73.832C98.0164 74.3013 97.6271 74.6693 97.1258 74.936C96.6351 75.192 96.0698 75.32 95.4298 75.32C94.8004 75.32 94.2351 75.192 93.7338 74.936C93.2431 74.6693 92.8538 74.3013 92.5658 73.832C92.2884 73.3627 92.1497 72.824 92.1497 72.216C92.1497 71.608 92.2884 71.0747 92.5658 70.616C92.8538 70.1573 93.2431 69.8 93.7338 69.544C94.2351 69.2773 94.8004 69.144 95.4298 69.144ZM95.4298 70.216C95.0351 70.216 94.6778 70.3013 94.3578 70.472C94.0484 70.6427 93.8031 70.8773 93.6218 71.176C93.4404 71.4747 93.3498 71.8213 93.3498 72.216C93.3498 72.6107 93.4404 72.9627 93.6218 73.272C93.8031 73.5707 94.0484 73.8053 94.3578 73.976C94.6778 74.136 95.0351 74.216 95.4298 74.216C95.8351 74.216 96.1924 74.136 96.5018 73.976C96.8218 73.8053 97.0671 73.5707 97.2378 73.272C97.4191 72.9627 97.5098 72.6107 97.5098 72.216C97.5098 71.8213 97.4191 71.4747 97.2378 71.176C97.0671 70.8773 96.8218 70.6427 96.5018 70.472C96.1924 70.3013 95.8351 70.216 95.4298 70.216ZM121.617 67.768H122.929V82.248H121.617V67.768ZM122.177 73.416H124.849V74.536H122.177V73.416ZM111.681 69.112H112.817V72.824H114.561V69.112H115.681V78.744H111.681V69.112ZM112.817 73.896V77.64H114.561V73.896H112.817ZM116.449 69.112H117.569V72.824H119.265V69.112H120.385V78.744H116.449V69.112ZM117.569 73.896V77.64H119.265V73.896H117.569ZM126.112 74.488H139.232V75.512H126.112V74.488ZM127.68 76.664H137.6V79.752H129.024V81.448H127.712V78.84H136.288V77.624H127.68V76.664ZM127.712 81.096H138.064V82.056H127.712V81.096ZM127.776 68.2H137.552V71.208H129.12V72.776H127.808V70.312H136.24V69.144H127.776V68.2ZM127.808 72.456H137.808V73.416H127.808V72.456ZM150.879 67.768H152.207V82.248H150.879V67.768ZM151.775 73.736H154.367V74.84H151.775V73.736ZM143.951 69.336H145.183C145.183 70.2 145.13 71.0587 145.023 71.912C144.916 72.7653 144.735 73.6027 144.479 74.424C144.234 75.2453 143.892 76.04 143.455 76.808C143.028 77.5653 142.49 78.2907 141.839 78.984L140.783 78.232C141.37 77.6133 141.866 76.9627 142.271 76.28C142.687 75.5973 143.018 74.888 143.263 74.152C143.508 73.416 143.684 72.6587 143.791 71.88C143.898 71.0907 143.951 70.2907 143.951 69.48V69.336ZM141.247 69.336H144.447V70.44H141.247V69.336ZM147.903 69.336H149.135C149.135 70.2107 149.092 71.1067 149.007 72.024C148.932 72.9413 148.778 73.8587 148.543 74.776C148.319 75.6933 147.999 76.5893 147.583 77.464C147.178 78.3387 146.639 79.1653 145.967 79.944L144.895 79.208C145.514 78.504 146.015 77.7573 146.399 76.968C146.794 76.1787 147.098 75.368 147.311 74.536C147.524 73.6933 147.674 72.8453 147.759 71.992C147.855 71.1387 147.903 70.296 147.903 69.464V69.336ZM145.647 69.336H148.431V70.44H145.647V69.336ZM164.811 76.792C164.288 76.792 163.851 76.616 163.499 76.264C163.157 75.912 162.987 75.4587 162.987 74.904C163.627 74.744 164.133 74.4507 164.507 74.024C164.891 73.5973 165.083 73.1547 165.083 72.696C165.083 72.3653 164.992 72.0667 164.811 71.8C164.629 71.5333 164.309 71.4 163.851 71.4C163.477 71.4 163.109 71.5333 162.747 71.8C162.395 72.0667 162.101 72.5627 161.867 73.288C161.344 73.2347 160.955 73.0427 160.699 72.712C160.443 72.3813 160.315 72.0027 160.315 71.576C160.315 71.1173 160.453 70.6587 160.731 70.2C161.019 69.7413 161.451 69.3627 162.027 69.064C162.613 68.7547 163.344 68.6 164.219 68.6C165.264 68.6 166.096 68.776 166.715 69.128C167.344 69.48 167.797 69.9333 168.075 70.488C168.363 71.0427 168.507 71.6187 168.507 72.216C168.507 72.888 168.4 73.5067 168.187 74.072C167.984 74.6267 167.701 75.1067 167.339 75.512C166.987 75.9173 166.592 76.232 166.155 76.456C165.717 76.68 165.269 76.792 164.811 76.792ZM163.275 81.4C162.784 81.4 162.373 81.24 162.043 80.92C161.723 80.5893 161.562 80.1893 161.562 79.72C161.562 79.3573 161.653 79.0267 161.835 78.728C162.016 78.4187 162.256 78.168 162.555 77.976C162.864 77.784 163.205 77.688 163.579 77.688C164.069 77.688 164.475 77.8533 164.795 78.184C165.125 78.504 165.291 78.8987 165.291 79.368C165.291 79.72 165.2 80.0507 165.019 80.36C164.837 80.6693 164.592 80.92 164.283 81.112C163.984 81.304 163.648 81.4 163.275 81.4Z" fill="white"/>
</svg>
