<svg width="100%" height="100%" viewBox="0 0 200 150" fill="none" xmlns="http://www.w3.org/2000/svg">
<rect width="100%" height="100%" fill="#264DB1"/>
<path d="M19.1836 81.416C18.4689 81.416 17.9622 81.2133 17.6636 80.808C17.3756 80.392 17.2316 79.768 17.2316 78.936C17.2316 78.4027 17.3169 77.6027 17.4876 76.536C17.6689 75.4587 17.9196 74.0347 18.2396 72.264L17.3916 70.552C17.8929 70.232 18.4262 69.96 18.9916 69.736C19.5569 69.512 20.1222 69.4 20.6876 69.4C21.4556 69.4 22.0582 69.5173 22.4956 69.752C22.9329 69.9867 23.2582 70.3173 23.4716 70.744C23.6956 71.1707 23.8609 71.672 23.9676 72.248C24.0849 72.824 24.1916 73.4533 24.2876 74.136C24.3836 74.808 24.5276 75.512 24.7196 76.248C24.9116 76.984 25.2049 77.7307 25.5996 78.488L25.9836 78.232C25.6849 77.6453 25.4342 76.9627 25.2316 76.184C25.0396 75.4053 24.9436 74.6267 24.9436 73.848C24.9436 73.0693 25.0716 72.344 25.3276 71.672C25.5942 71 25.9889 70.456 26.5116 70.04C27.0342 69.6133 27.6849 69.4 28.4636 69.4C28.7089 69.4 28.9649 69.4267 29.2316 69.48C29.5089 69.5227 29.7489 69.5973 29.9516 69.704C29.8556 70.28 29.7436 70.9147 29.6156 71.608C29.4876 72.2907 29.3542 72.984 29.2156 73.688C29.0876 74.392 28.9649 75.0587 28.8476 75.688C28.7409 76.3173 28.6502 76.8667 28.5756 77.336C28.5116 77.7947 28.4796 78.12 28.4796 78.312C28.4796 78.8667 28.5222 79.3253 28.6076 79.688C28.6929 80.04 28.8209 80.3387 28.9916 80.584C28.6822 80.7867 28.3942 80.9467 28.1276 81.064C27.8609 81.1813 27.5729 81.2667 27.2636 81.32C26.9649 81.3733 26.6129 81.4 26.2076 81.4C25.3756 81.4 24.6769 81.2027 24.1116 80.808C23.5569 80.4133 23.1089 79.8693 22.7676 79.176C22.4262 78.4827 22.1702 77.688 21.9996 76.792C21.8396 75.896 21.7329 74.9467 21.6796 73.944H21.4236C21.2956 74.5413 21.1729 75.1387 21.0556 75.736C20.9489 76.3333 20.8582 76.8667 20.7836 77.336C20.7196 77.8053 20.6876 78.152 20.6876 78.376C20.6876 78.92 20.7249 79.3787 20.7996 79.752C20.8849 80.1253 21.0076 80.44 21.1676 80.696C20.5276 81.176 19.8662 81.416 19.1836 81.416ZM35.5694 81.4C34.5774 81.4 33.7401 81.224 33.0574 80.872C32.3748 80.52 31.8574 80.0293 31.5054 79.4C31.1641 78.76 30.9934 78.024 30.9934 77.192C30.9934 76.328 31.1481 75.544 31.4574 74.84C31.7774 74.1253 32.2201 73.512 32.7854 73C33.3508 72.488 34.0068 72.0933 34.7534 71.816C35.5108 71.5387 36.3268 71.4 37.2014 71.4C38.2361 71.4 38.9988 71.6293 39.4894 72.088C39.9801 72.5467 40.2254 73.1227 40.2254 73.816C40.2254 74.4133 40.0281 74.9787 39.6334 75.512C39.2494 76.0347 38.6254 76.4613 37.7614 76.792C36.8974 77.112 35.7454 77.2773 34.3054 77.288C34.3374 77.9707 34.4921 78.5093 34.7694 78.904C35.0574 79.288 35.4148 79.48 35.8414 79.48C36.0548 79.48 36.2788 79.432 36.5134 79.336C36.7481 79.2293 36.9454 79.048 37.1054 78.792C37.2654 78.5253 37.3454 78.1627 37.3454 77.704C38.0708 77.704 38.6414 77.784 39.0574 77.944C39.4734 78.104 39.6814 78.392 39.6814 78.808C39.6814 79.192 39.5161 79.5867 39.1854 79.992C38.8548 80.3867 38.3801 80.7227 37.7614 81C37.1534 81.2667 36.4228 81.4 35.5694 81.4ZM34.4494 76.008C35.2281 75.944 35.8521 75.8 36.3214 75.576C36.7908 75.352 37.1321 75.096 37.3454 74.808C37.5588 74.52 37.6654 74.2533 37.6654 74.008C37.6654 73.7947 37.6014 73.6187 37.4734 73.48C37.3454 73.3413 37.1641 73.272 36.9294 73.272C36.5454 73.272 36.1881 73.4053 35.8574 73.672C35.5268 73.9387 35.2388 74.2853 34.9934 74.712C34.7588 75.128 34.5774 75.56 34.4494 76.008ZM42.3411 81.4C41.8931 81.4 41.5357 81.2613 41.2691 80.984C41.0024 80.696 40.8691 80.3227 40.8691 79.864C40.8691 79.48 40.9597 79.1227 41.1411 78.792C41.3331 78.4507 41.5784 78.136 41.8771 77.848C42.1864 77.5493 42.5171 77.288 42.8691 77.064C43.2211 76.8293 43.5624 76.632 43.8931 76.472L44.3571 76.248L43.3971 74.488C43.2264 74.1787 42.9971 73.8853 42.7091 73.608C42.4317 73.32 42.0424 73.0907 41.5411 72.92C42.2024 71.9067 43.0664 71.4 44.1331 71.4C44.6131 71.4 45.0184 71.5333 45.3491 71.8C45.6797 72.056 46.0371 72.536 46.4211 73.24L47.1251 74.536C47.4131 74.2587 47.6424 73.9867 47.8131 73.72C47.9944 73.4533 48.0851 73.1547 48.0851 72.824C48.0851 72.6747 48.0744 72.5413 48.0531 72.424C48.0317 72.3067 47.9997 72.1947 47.9571 72.088C48.7144 71.6293 49.4291 71.4 50.1011 71.4C50.5491 71.4 50.9064 71.544 51.1731 71.832C51.4397 72.1093 51.5731 72.4773 51.5731 72.936C51.5731 73.32 51.4771 73.6827 51.2851 74.024C51.1037 74.3547 50.8584 74.6693 50.5491 74.968C50.2504 75.256 49.9251 75.5173 49.5731 75.752C49.2211 75.976 48.8797 76.168 48.5491 76.328L48.1971 76.504L49.2051 78.328C49.3651 78.6267 49.5784 78.92 49.8451 79.208C50.1224 79.496 50.5277 79.7253 51.0611 79.896C50.3891 80.8987 49.5197 81.4 48.4531 81.4C48.1331 81.4 47.8504 81.3467 47.6051 81.24C47.3597 81.1333 47.1251 80.9467 46.9011 80.68C46.6771 80.4133 46.4371 80.0453 46.1811 79.576L45.4131 78.168C45.1037 78.456 44.8477 78.744 44.6451 79.032C44.4531 79.32 44.3571 79.6347 44.3571 79.976C44.3571 80.1253 44.3677 80.2587 44.3891 80.376C44.4104 80.4933 44.4424 80.6053 44.4851 80.712C43.7277 81.1707 43.0131 81.4 42.3411 81.4ZM55.4523 81.4C54.7696 81.4 54.2843 81.1973 53.9963 80.792C53.7083 80.3867 53.5643 79.768 53.5643 78.936C53.5643 78.7013 53.591 78.3707 53.6443 77.944C53.6976 77.5067 53.767 77.0213 53.8523 76.488C53.9483 75.9547 54.039 75.4267 54.1243 74.904C53.9003 74.9467 53.6816 74.9947 53.4683 75.048C53.2656 75.1013 53.0736 75.16 52.8923 75.224C52.8496 75.064 52.8176 74.904 52.7963 74.744C52.7856 74.584 52.7803 74.4667 52.7803 74.392C52.7803 73.8373 52.9403 73.4373 53.2603 73.192C53.591 72.936 53.9856 72.808 54.4443 72.808C54.4443 72.5627 54.4123 72.2907 54.3483 71.992C54.2843 71.6933 54.1723 71.3627 54.0123 71C54.4603 70.6693 54.9083 70.392 55.3563 70.168C55.8043 69.944 56.3003 69.832 56.8443 69.832C57.3136 69.832 57.639 69.9227 57.8203 70.104C58.0016 70.2747 58.0923 70.5627 58.0923 70.968C58.0923 71.1707 58.071 71.4107 58.0283 71.688C57.9856 71.9653 57.9323 72.2693 57.8683 72.6C58.103 72.568 58.327 72.5307 58.5403 72.488C58.7536 72.4347 58.9616 72.3813 59.1643 72.328C59.207 72.4453 59.2336 72.568 59.2443 72.696C59.2656 72.8133 59.2763 72.9307 59.2763 73.048C59.2763 73.4747 59.143 73.848 58.8763 74.168C58.6203 74.4773 58.2203 74.632 57.6763 74.632H57.4363C57.287 75.3147 57.1536 76.0133 57.0363 76.728C56.919 77.4427 56.8603 78.1093 56.8603 78.728C56.8603 79.144 56.8976 79.5173 56.9723 79.848C57.0576 80.168 57.1856 80.424 57.3563 80.616C56.759 81.1387 56.1243 81.4 55.4523 81.4ZM67.1386 81.416C66.4239 81.416 65.9172 81.2133 65.6186 80.808C65.3306 80.392 65.1866 79.768 65.1866 78.936C65.1866 78.4027 65.2719 77.6027 65.4426 76.536C65.6239 75.4587 65.8746 74.0347 66.1946 72.264L65.3466 70.552C65.8479 70.232 66.3812 69.96 66.9466 69.736C67.5119 69.5013 68.0772 69.384 68.6426 69.384C69.1546 69.384 69.6026 69.464 69.9866 69.624C70.3812 69.7733 70.7226 70.0667 71.0106 70.504C71.2986 70.9307 71.5386 71.56 71.7306 72.392C71.9332 73.2133 72.0986 74.296 72.2266 75.64H72.4186C72.6746 74.904 72.9946 74.168 73.3786 73.432C73.7626 72.696 74.2212 72.024 74.7546 71.416C75.2879 70.808 75.9066 70.3227 76.6106 69.96C77.3252 69.5867 78.1359 69.4 79.0426 69.4C79.5439 69.4 79.8746 69.5493 80.0346 69.848C80.1946 70.136 80.2746 70.4827 80.2746 70.888C80.2746 71.0587 80.2426 71.336 80.1786 71.72C80.1252 72.0933 80.0506 72.5307 79.9546 73.032C79.8586 73.5227 79.7572 74.04 79.6506 74.584C79.5546 75.1173 79.4586 75.64 79.3626 76.152C79.2666 76.6533 79.1866 77.1013 79.1226 77.496C79.0692 77.88 79.0426 78.1733 79.0426 78.376C79.0426 78.92 79.0799 79.3787 79.1546 79.752C79.2399 80.1253 79.3626 80.44 79.5226 80.696C78.8826 81.176 78.2212 81.416 77.5386 81.416C76.8239 81.416 76.3172 81.2133 76.0186 80.808C75.7306 80.392 75.5866 79.768 75.5866 78.936C75.5866 78.4773 75.6506 77.8213 75.7786 76.968C75.9172 76.1147 76.1039 75.016 76.3386 73.672H76.0826C75.6239 74.28 75.2239 74.9627 74.8826 75.72C74.5412 76.4667 74.2692 77.2133 74.0666 77.96C73.8746 78.696 73.7466 79.352 73.6826 79.928C73.4159 80.1733 73.1226 80.36 72.8026 80.488C72.4932 80.6053 72.1839 80.664 71.8746 80.664C71.6186 80.664 71.3786 80.568 71.1546 80.376C70.9306 80.1733 70.7226 79.8213 70.5306 79.32C70.3386 78.8187 70.1679 78.1147 70.0186 77.208C69.8799 76.2907 69.7679 75.112 69.6826 73.672H69.4266C69.2879 74.28 69.1599 74.904 69.0426 75.544C68.9252 76.1733 68.8292 76.744 68.7546 77.256C68.6799 77.768 68.6426 78.1413 68.6426 78.376C68.6426 78.92 68.6799 79.3787 68.7546 79.752C68.8399 80.1253 68.9626 80.44 69.1226 80.696C68.4826 81.176 67.8212 81.416 67.1386 81.416ZM84.6927 70.36C84.202 70.36 83.7967 70.2533 83.4767 70.04C83.1567 69.8267 82.9967 69.5387 82.9967 69.176C82.9967 68.824 83.114 68.536 83.3487 68.312C83.5834 68.0773 83.866 67.9013 84.1967 67.784C84.538 67.6667 84.858 67.608 85.1567 67.608C85.6474 67.608 86.0527 67.7147 86.3727 67.928C86.6927 68.1307 86.8527 68.4187 86.8527 68.792C86.8527 69.1013 86.7514 69.3787 86.5487 69.624C86.346 69.8587 86.0794 70.04 85.7487 70.168C85.4287 70.296 85.0767 70.36 84.6927 70.36ZM83.7327 81.4C83.05 81.4 82.5647 81.2293 82.2767 80.888C81.9887 80.5467 81.8447 80.056 81.8447 79.416C81.8447 79.1813 81.8767 78.856 81.9407 78.44C82.0047 78.0133 82.09 77.544 82.1967 77.032C82.3034 76.5093 82.4154 75.9813 82.5327 75.448C82.65 74.9147 82.762 74.4133 82.8687 73.944L81.9727 72.6C82.538 72.2587 83.0767 71.976 83.5887 71.752C84.1007 71.5173 84.6127 71.4 85.1247 71.4C85.5727 71.4 85.882 71.496 86.0527 71.688C86.234 71.88 86.3247 72.1787 86.3247 72.584C86.3247 72.744 86.282 73.0053 86.1967 73.368C86.122 73.7307 86.026 74.1573 85.9087 74.648C85.7914 75.1387 85.674 75.656 85.5567 76.2C85.4394 76.7333 85.338 77.2613 85.2527 77.784C85.178 78.296 85.1407 78.7547 85.1407 79.16C85.1407 79.48 85.178 79.768 85.2527 80.024C85.338 80.2693 85.466 80.4667 85.6367 80.616C85.0394 81.1387 84.4047 81.4 83.7327 81.4ZM90.6878 84.76C90.1971 84.76 89.7491 84.6907 89.3438 84.552C88.9385 84.4133 88.6131 84.2107 88.3678 83.944C88.1331 83.6773 88.0158 83.3573 88.0158 82.984C88.0158 82.7493 88.0638 82.4933 88.1598 82.216C88.2665 81.9387 88.4371 81.6453 88.6718 81.336C88.9171 81.688 89.2158 81.9547 89.5678 82.136C89.9305 82.328 90.3678 82.424 90.8798 82.424C91.2638 82.424 91.6531 82.312 92.0478 82.088C92.4425 81.864 92.7945 81.512 93.1038 81.032C93.4131 80.5627 93.6318 79.9493 93.7598 79.192L93.5998 79.112C93.2051 79.6987 92.7465 80.1253 92.2238 80.392C91.7011 80.648 91.1891 80.776 90.6878 80.776C90.0905 80.776 89.5731 80.616 89.1358 80.296C88.7091 79.976 88.3785 79.5333 88.1438 78.968C87.9198 78.392 87.8078 77.7253 87.8078 76.968C87.8078 76.3387 87.9251 75.6987 88.1598 75.048C88.3945 74.3867 88.7571 73.784 89.2478 73.24C89.7385 72.6853 90.3625 72.2427 91.1198 71.912C91.8878 71.5707 92.8051 71.4 93.8718 71.4C94.0851 71.4 94.2878 71.4107 94.4798 71.432C94.6825 71.4427 94.9011 71.4747 95.1358 71.528C95.1571 71.6347 95.1785 71.7573 95.1998 71.896C95.2211 72.024 95.2371 72.1627 95.2478 72.312C95.5038 72.1307 95.7598 72.0027 96.0158 71.928C96.2825 71.8427 96.5331 71.8 96.7678 71.8C97.1625 71.8 97.4451 71.9013 97.6158 72.104C97.7865 72.296 97.8718 72.5947 97.8718 73C97.8718 73.6613 97.8238 74.408 97.7278 75.24C97.6318 76.072 97.4771 76.9307 97.2638 77.816C97.0505 78.7013 96.7625 79.5547 96.3998 80.376C96.0478 81.1973 95.6051 81.9387 95.0718 82.6C94.5491 83.2613 93.9251 83.784 93.1998 84.168C92.4745 84.5627 91.6371 84.76 90.6878 84.76ZM92.4158 78.344C92.6825 78.344 92.9598 78.2747 93.2478 78.136C93.5358 77.9973 93.8025 77.7787 94.0478 77.48C94.1758 76.7867 94.2985 76.0453 94.4158 75.256C94.5331 74.4667 94.6451 73.7093 94.7518 72.984C93.9305 72.984 93.2265 73.1493 92.6398 73.48C92.0531 73.8107 91.6051 74.248 91.2958 74.792C90.9865 75.3253 90.8318 75.9013 90.8318 76.52C90.8318 77.0747 90.9865 77.5173 91.2958 77.848C91.6158 78.1787 91.9891 78.344 92.4158 78.344ZM101.352 81.4C100.701 81.4 100.237 81.2293 99.9601 80.888C99.6827 80.5467 99.5441 80.056 99.5441 79.416C99.5441 79.192 99.5761 78.8507 99.6401 78.392C99.7041 77.9227 99.7841 77.4053 99.8801 76.84C99.9867 76.264 100.099 75.688 100.216 75.112C100.333 74.536 100.445 74.024 100.552 73.576L99.7201 72.296C100.275 72.0507 100.787 71.8427 101.256 71.672C101.736 71.4907 102.163 71.4 102.536 71.4C102.813 71.4 103.016 71.496 103.144 71.688C103.272 71.88 103.336 72.1253 103.336 72.424C103.336 72.7653 103.277 73.1493 103.16 73.576C103.043 73.992 102.925 74.3867 102.808 74.76L102.968 74.84C103.341 73.7413 103.763 72.8933 104.232 72.296C104.712 71.6987 105.245 71.4 105.832 71.4C106.216 71.4 106.525 71.4853 106.76 71.656C106.995 71.816 107.165 72.0187 107.272 72.264C107.389 72.4987 107.448 72.728 107.448 72.952C107.448 73.304 107.357 73.6453 107.176 73.976C107.005 74.296 106.728 74.5627 106.344 74.776C105.96 74.9787 105.453 75.08 104.824 75.08C104.579 75.08 104.339 75.1333 104.104 75.24C103.869 75.3467 103.656 75.5493 103.464 75.848C103.272 76.136 103.117 76.5467 103 77.08C102.893 77.6133 102.84 78.3067 102.84 79.16C102.84 79.8213 102.952 80.3067 103.176 80.616C102.515 81.1387 101.907 81.4 101.352 81.4ZM110.28 81.4C109.683 81.4 109.155 81.2453 108.696 80.936C108.248 80.6267 107.902 80.1893 107.656 79.624C107.411 79.0587 107.288 78.3973 107.288 77.64C107.288 76.7547 107.443 75.9333 107.752 75.176C108.072 74.4187 108.51 73.7573 109.064 73.192C109.63 72.6267 110.291 72.1893 111.048 71.88C111.806 71.56 112.627 71.4 113.512 71.4C113.768 71.4 113.987 71.4107 114.168 71.432C114.36 71.4427 114.563 71.4747 114.776 71.528C114.84 71.8267 114.878 72.088 114.888 72.312C115.134 72.152 115.406 72.0293 115.704 71.944C116.003 71.848 116.28 71.8 116.536 71.8C117.315 71.8 117.704 72.2213 117.704 73.064C117.704 73.3413 117.651 73.72 117.544 74.2C117.448 74.6693 117.331 75.192 117.192 75.768C117.064 76.3333 116.947 76.9147 116.84 77.512C116.744 78.0987 116.696 78.648 116.696 79.16C116.696 79.8533 116.862 80.3387 117.192 80.616C116.595 81.1387 115.96 81.4 115.288 81.4C114.67 81.4 114.211 81.208 113.912 80.824C113.624 80.44 113.48 79.8427 113.48 79.032L113.32 78.952C113.032 79.72 112.616 80.3227 112.072 80.76C111.539 81.1867 110.942 81.4 110.28 81.4ZM111.544 78.488C111.96 78.488 112.366 78.3387 112.76 78.04C113.155 77.7413 113.486 77.3307 113.752 76.808C113.795 76.392 113.838 76.0027 113.88 75.64C113.934 75.2667 113.998 74.872 114.072 74.456C114.158 74.04 114.259 73.5493 114.376 72.984C113.832 72.984 113.315 73.0907 112.824 73.304C112.344 73.5067 111.912 73.7893 111.528 74.152C111.144 74.5147 110.84 74.9307 110.616 75.4C110.403 75.8587 110.296 76.344 110.296 76.856C110.296 77.3787 110.403 77.784 110.616 78.072C110.84 78.3493 111.15 78.488 111.544 78.488ZM122.062 81.4C121.379 81.4 120.894 81.1973 120.606 80.792C120.318 80.3867 120.174 79.768 120.174 78.936C120.174 78.7013 120.2 78.3707 120.254 77.944C120.307 77.5067 120.376 77.0213 120.462 76.488C120.558 75.9547 120.648 75.4267 120.734 74.904C120.51 74.9467 120.291 74.9947 120.078 75.048C119.875 75.1013 119.683 75.16 119.502 75.224C119.459 75.064 119.427 74.904 119.406 74.744C119.395 74.584 119.39 74.4667 119.39 74.392C119.39 73.8373 119.55 73.4373 119.87 73.192C120.2 72.936 120.595 72.808 121.054 72.808C121.054 72.5627 121.022 72.2907 120.958 71.992C120.894 71.6933 120.782 71.3627 120.622 71C121.07 70.6693 121.518 70.392 121.966 70.168C122.414 69.944 122.91 69.832 123.454 69.832C123.923 69.832 124.248 69.9227 124.43 70.104C124.611 70.2747 124.702 70.5627 124.702 70.968C124.702 71.1707 124.68 71.4107 124.638 71.688C124.595 71.9653 124.542 72.2693 124.478 72.6C124.712 72.568 124.936 72.5307 125.15 72.488C125.363 72.4347 125.571 72.3813 125.774 72.328C125.816 72.4453 125.843 72.568 125.854 72.696C125.875 72.8133 125.886 72.9307 125.886 73.048C125.886 73.4747 125.752 73.848 125.486 74.168C125.23 74.4773 124.83 74.632 124.286 74.632H124.046C123.896 75.3147 123.763 76.0133 123.646 76.728C123.528 77.4427 123.47 78.1093 123.47 78.728C123.47 79.144 123.507 79.5173 123.582 79.848C123.667 80.168 123.795 80.424 123.966 80.616C123.368 81.1387 122.734 81.4 122.062 81.4ZM129.927 70.36C129.436 70.36 129.031 70.2533 128.711 70.04C128.391 69.8267 128.231 69.5387 128.231 69.176C128.231 68.824 128.348 68.536 128.583 68.312C128.818 68.0773 129.1 67.9013 129.431 67.784C129.772 67.6667 130.092 67.608 130.391 67.608C130.882 67.608 131.287 67.7147 131.607 67.928C131.927 68.1307 132.087 68.4187 132.087 68.792C132.087 69.1013 131.986 69.3787 131.783 69.624C131.58 69.8587 131.314 70.04 130.983 70.168C130.663 70.296 130.311 70.36 129.927 70.36ZM128.967 81.4C128.284 81.4 127.799 81.2293 127.511 80.888C127.223 80.5467 127.079 80.056 127.079 79.416C127.079 79.1813 127.111 78.856 127.175 78.44C127.239 78.0133 127.324 77.544 127.431 77.032C127.538 76.5093 127.65 75.9813 127.767 75.448C127.884 74.9147 127.996 74.4133 128.103 73.944L127.207 72.6C127.772 72.2587 128.311 71.976 128.823 71.752C129.335 71.5173 129.847 71.4 130.359 71.4C130.807 71.4 131.116 71.496 131.287 71.688C131.468 71.88 131.559 72.1787 131.559 72.584C131.559 72.744 131.516 73.0053 131.431 73.368C131.356 73.7307 131.26 74.1573 131.143 74.648C131.026 75.1387 130.908 75.656 130.791 76.2C130.674 76.7333 130.572 77.2613 130.487 77.784C130.412 78.296 130.375 78.7547 130.375 79.16C130.375 79.48 130.412 79.768 130.487 80.024C130.572 80.2693 130.7 80.4667 130.871 80.616C130.274 81.1387 129.639 81.4 128.967 81.4ZM137.49 81.4C136.552 81.4 135.741 81.224 135.058 80.872C134.386 80.5093 133.869 80.0133 133.506 79.384C133.144 78.7547 132.962 78.024 132.962 77.192C132.962 76.04 133.213 75.032 133.714 74.168C134.226 73.2933 134.925 72.616 135.81 72.136C136.696 71.6453 137.704 71.4 138.834 71.4C139.016 71.4 139.197 71.4107 139.378 71.432C139.57 71.4427 139.773 71.4747 139.986 71.528C140.04 71.6773 140.082 71.8587 140.114 72.072C140.146 72.2747 140.168 72.4933 140.178 72.728C140.274 72.696 140.376 72.6693 140.482 72.648C140.6 72.6267 140.722 72.616 140.85 72.616C141.224 72.616 141.576 72.7173 141.906 72.92C142.237 73.112 142.509 73.416 142.722 73.832C142.936 74.248 143.042 74.776 143.042 75.416C143.042 76.3653 142.882 77.2133 142.562 77.96C142.253 78.696 141.832 79.32 141.298 79.832C140.765 80.344 140.168 80.7333 139.506 81C138.856 81.2667 138.184 81.4 137.49 81.4ZM137.986 79.432C138.232 79.432 138.488 79.3733 138.754 79.256C139.021 79.1387 139.282 78.9253 139.538 78.616C139.794 78.3067 140.008 77.8693 140.178 77.304C139.72 77.016 139.389 76.664 139.186 76.248C138.984 75.8213 138.882 75.352 138.882 74.84C138.882 74.6907 138.909 74.4987 138.962 74.264C139.016 74.0293 139.106 73.7893 139.234 73.544C139.373 73.2987 139.56 73.096 139.794 72.936C139.058 73.0853 138.456 73.3093 137.986 73.608C137.517 73.9067 137.149 74.2533 136.882 74.648C136.626 75.032 136.445 75.432 136.338 75.848C136.242 76.2533 136.194 76.6427 136.194 77.016C136.194 77.4427 136.264 77.8427 136.402 78.216C136.541 78.5787 136.744 78.872 137.01 79.096C137.277 79.32 137.602 79.432 137.986 79.432ZM146.432 81.4C145.76 81.4 145.28 81.2293 144.992 80.888C144.704 80.5467 144.56 80.056 144.56 79.416C144.56 79.192 144.592 78.8507 144.656 78.392C144.72 77.9227 144.8 77.4053 144.896 76.84C145.002 76.264 145.114 75.688 145.232 75.112C145.349 74.536 145.461 74.024 145.568 73.576L144.736 72.296C145.173 72.0507 145.642 71.8427 146.144 71.672C146.656 71.4907 147.173 71.4 147.696 71.4C148.144 71.4 148.474 71.512 148.688 71.736C148.901 71.9493 149.008 72.2427 149.008 72.616C149.008 72.8933 148.97 73.1813 148.896 73.48C148.821 73.7787 148.736 74.0347 148.64 74.248L148.8 74.328C149.429 73.2507 150.117 72.4933 150.864 72.056C151.61 71.6187 152.373 71.4 153.152 71.4C153.802 71.4 154.288 71.56 154.608 71.88C154.928 72.1893 155.088 72.6747 155.088 73.336C155.088 73.912 155.008 74.5253 154.848 75.176C154.698 75.816 154.544 76.4773 154.384 77.16C154.224 77.832 154.144 78.4987 154.144 79.16C154.144 79.8213 154.256 80.3067 154.48 80.616C153.914 81.1387 153.328 81.4 152.72 81.4C152.048 81.4 151.568 81.2293 151.28 80.888C150.992 80.5467 150.848 80.056 150.848 79.416C150.848 79.064 150.896 78.6747 150.992 78.248C151.088 77.8107 151.2 77.368 151.328 76.92C151.456 76.472 151.568 76.0507 151.664 75.656C151.76 75.2613 151.808 74.92 151.808 74.632C151.808 74.408 151.765 74.232 151.68 74.104C151.605 73.976 151.466 73.912 151.264 73.912C150.976 73.912 150.64 74.04 150.256 74.296C149.872 74.552 149.493 74.9147 149.12 75.384C148.757 75.8427 148.453 76.392 148.208 77.032C147.973 77.672 147.856 78.3813 147.856 79.16C147.856 79.8213 147.968 80.3067 148.192 80.616C147.626 81.1387 147.04 81.4 146.432 81.4ZM161.722 82.648C161.498 82.648 161.263 82.6107 161.018 82.536C160.783 82.472 160.538 82.3387 160.282 82.136C160.548 81.8907 160.794 81.496 161.018 80.952C161.242 80.3973 161.444 79.8 161.626 79.16C162.01 77.816 162.351 76.5093 162.65 75.24C162.959 73.9707 163.236 72.7973 163.482 71.72C163.738 70.632 163.962 69.704 164.154 68.936C164.228 68.6373 164.362 68.392 164.554 68.2C164.746 68.008 165.034 67.912 165.418 67.912C165.78 67.912 166.116 67.9813 166.426 68.12C166.735 68.248 167.018 68.4293 167.274 68.664C167.092 68.9413 166.911 69.272 166.73 69.656C166.559 70.04 166.404 70.4293 166.266 70.824C166.127 71.208 166.015 71.5547 165.93 71.864C165.695 72.6853 165.482 73.4587 165.29 74.184C165.098 74.9093 164.911 75.624 164.73 76.328C164.548 77.0213 164.356 77.7413 164.154 78.488C163.962 79.2347 163.743 80.0453 163.498 80.92C163.348 81.464 163.13 81.8853 162.842 82.184C162.564 82.4933 162.191 82.648 161.722 82.648ZM166.746 82.648C166.522 82.648 166.287 82.6107 166.042 82.536C165.807 82.472 165.562 82.3387 165.306 82.136C165.572 81.8907 165.818 81.496 166.042 80.952C166.266 80.3973 166.468 79.8 166.65 79.16C167.034 77.816 167.375 76.5093 167.674 75.24C167.983 73.9707 168.26 72.7973 168.506 71.72C168.762 70.632 168.986 69.704 169.178 68.936C169.252 68.6373 169.386 68.392 169.578 68.2C169.77 68.008 170.058 67.912 170.442 67.912C170.804 67.912 171.14 67.9813 171.45 68.12C171.759 68.248 172.042 68.4293 172.298 68.664C172.116 68.9413 171.935 69.272 171.754 69.656C171.583 70.04 171.428 70.4293 171.29 70.824C171.151 71.208 171.039 71.5547 170.954 71.864C170.719 72.6853 170.506 73.4587 170.314 74.184C170.122 74.9093 169.935 75.624 169.754 76.328C169.572 77.0213 169.38 77.7413 169.178 78.488C168.986 79.2347 168.767 80.0453 168.522 80.92C168.372 81.464 168.154 81.8853 167.866 82.184C167.588 82.4933 167.215 82.648 166.746 82.648ZM162.234 73.928C162.042 73.928 161.876 73.864 161.738 73.736C161.599 73.5973 161.53 73.352 161.53 73C161.53 72.6587 161.578 72.3227 161.674 71.992C161.77 71.6613 161.903 71.368 162.074 71.112C162.383 71.2293 162.73 71.3093 163.114 71.352C163.508 71.3947 163.855 71.416 164.154 71.416C164.708 71.416 165.274 71.4107 165.85 71.4C166.436 71.3893 167.023 71.3787 167.61 71.368C168.826 71.336 170.047 71.32 171.274 71.32C171.7 71.32 172.031 71.4107 172.266 71.592C172.5 71.7733 172.618 72.088 172.618 72.536C172.618 72.7387 172.596 72.952 172.554 73.176C172.511 73.4 172.426 73.6187 172.298 73.832C172.074 73.736 171.791 73.6667 171.45 73.624C171.108 73.5707 170.735 73.544 170.33 73.544C169.551 73.544 168.708 73.5707 167.802 73.624C166.895 73.6667 166.036 73.7147 165.226 73.768C164.607 73.8107 164.036 73.848 163.514 73.88C163.002 73.912 162.575 73.928 162.234 73.928ZM161.018 78.76C160.826 78.76 160.66 78.696 160.522 78.568C160.383 78.4293 160.314 78.184 160.314 77.832C160.314 77.4907 160.362 77.1547 160.458 76.824C160.554 76.4933 160.687 76.2 160.858 75.944C161.167 76.0613 161.514 76.1413 161.898 76.184C162.292 76.2267 162.639 76.248 162.938 76.248C163.492 76.248 164.058 76.2427 164.634 76.232C165.22 76.2213 165.807 76.2107 166.394 76.2C167.61 76.168 168.831 76.152 170.058 76.152C170.484 76.152 170.815 76.2427 171.05 76.424C171.284 76.6053 171.402 76.92 171.402 77.368C171.402 77.5707 171.38 77.784 171.338 78.008C171.295 78.232 171.21 78.4507 171.082 78.664C170.858 78.568 170.575 78.4987 170.234 78.456C169.892 78.4027 169.519 78.376 169.114 78.376C168.335 78.376 167.492 78.4027 166.586 78.456C165.679 78.4987 164.82 78.5467 164.01 78.6C163.391 78.6427 162.82 78.68 162.298 78.712C161.786 78.744 161.359 78.76 161.018 78.76ZM180.304 83.72C179.771 83.72 179.344 83.6187 179.024 83.416C178.715 83.2133 178.491 82.9413 178.352 82.6C178.224 82.2693 178.16 81.9067 178.16 81.512C178.16 81.3947 178.165 81.272 178.176 81.144C178.187 81.016 178.203 80.8827 178.224 80.744C177.861 80.8187 177.44 80.8827 176.96 80.936C176.48 80.9787 176.032 81 175.616 81C175.104 81 174.619 80.9467 174.16 80.84C173.712 80.7333 173.344 80.5467 173.056 80.28C172.779 80.0133 172.64 79.64 172.64 79.16C172.64 78.7973 172.741 78.3653 172.944 77.864C173.157 77.352 173.413 76.808 173.712 76.232C174.021 75.6453 174.325 75.0427 174.624 74.424C174.933 73.8053 175.189 73.1973 175.392 72.6C175.605 72.0027 175.712 71.4427 175.712 70.92C175.712 70.6533 175.669 70.4027 175.584 70.168C175.883 70.0507 176.176 69.96 176.464 69.896C176.752 69.832 177.029 69.8 177.296 69.8C177.936 69.8 178.453 69.96 178.848 70.28C179.253 70.5893 179.456 71.144 179.456 71.944C179.456 72.936 179.104 74.0133 178.4 75.176C177.707 76.328 176.677 77.576 175.312 78.92H178.64C178.789 78.4187 178.955 77.9227 179.136 77.432C179.328 76.9413 179.515 76.5093 179.696 76.136C179.877 75.944 180.139 75.7627 180.48 75.592C180.832 75.4107 181.211 75.2613 181.616 75.144C182.021 75.0267 182.405 74.968 182.768 74.968C182.928 74.968 183.035 75 183.088 75.064C183.141 75.128 183.168 75.2347 183.168 75.384C183.168 75.5867 183.109 75.9067 182.992 76.344C182.885 76.7707 182.757 77.272 182.608 77.848C182.469 78.424 182.341 79.0427 182.224 79.704C182.117 80.3547 182.064 81.0053 182.064 81.656C182.064 81.9333 182.096 82.2 182.16 82.456C182.224 82.7227 182.32 82.952 182.448 83.144C181.701 83.528 180.987 83.72 180.304 83.72Z" fill="white"/>
</svg>
